<?xml version="1.0" encoding="UTF-8" standalone="no"?>
<!-- Created with Inkscape (http://www.inkscape.org/) -->

<svg
   xmlns:dc="http://purl.org/dc/elements/1.1/"
   xmlns:cc="http://creativecommons.org/ns#"
   xmlns:rdf="http://www.w3.org/1999/02/22-rdf-syntax-ns#"
   xmlns:svg="http://www.w3.org/2000/svg"
   xmlns="http://www.w3.org/2000/svg"
   xmlns:sodipodi="http://sodipodi.sourceforge.net/DTD/sodipodi-0.dtd"
   xmlns:inkscape="http://www.inkscape.org/namespaces/inkscape"
   width="4.0054679mm"
   height="15.366079mm"
   viewBox="0 0 4.0054679 15.366079"
   version="1.1"
   id="svg894"
   inkscape:version="0.92.4 (unknown)"
   sodipodi:docname="lamp.svg"
   inkscape:export-filename="/home/fdf/projects/hoezithet/static/icons/lamp.png"
   inkscape:export-xdpi="330.60001"
   inkscape:export-ydpi="330.60001">
  <defs
     id="defs888" />
  <sodipodi:namedview
     id="base"
     pagecolor="#ffffff"
     bordercolor="#666666"
     borderopacity="1.0"
     inkscape:pageopacity="0.0"
     inkscape:pageshadow="2"
     inkscape:zoom="11.2"
     inkscape:cx="-0.071792575"
     inkscape:cy="30.272545"
     inkscape:document-units="mm"
     inkscape:current-layer="layer1"
     showgrid="false"
     inkscape:window-width="1920"
     inkscape:window-height="1055"
     inkscape:window-x="1600"
     inkscape:window-y="25"
     inkscape:window-maximized="1" />
  <metadata
     id="metadata891">
    <rdf:RDF>
      <cc:Work
         rdf:about="">
        <dc:format>image/svg+xml</dc:format>
        <dc:type
           rdf:resource="http://purl.org/dc/dcmitype/StillImage" />
        <dc:title></dc:title>
      </cc:Work>
    </rdf:RDF>
  </metadata>
  <g
     inkscape:label="Layer 1"
     inkscape:groupmode="layer"
     id="layer1"
     transform="translate(-81.90798,-110.15625)">
    <g
       id="g1092"
       transform="matrix(0.55584339,0,0,0.55584339,49.096177,-13.052944)"
       style="stroke-width:0.73144042">
      <path
         style="fill:none;stroke:#000000;stroke-width:0.47600338;stroke-linecap:round;stroke-linejoin:miter;stroke-miterlimit:4;stroke-dasharray:none;stroke-opacity:1"
         d="M 62.639126,241.8723 V 221.90309"
         id="path1097"
         inkscape:connector-curvature="0"
         sodipodi:nodetypes="cc" />
      <g
         id="g861"
         transform="translate(0,0.82949944)">
        <path
           sodipodi:nodetypes="ccssccccc"
           style="fill:#ffb700;fill-opacity:1;stroke:none;stroke-width:0.49026826;stroke-linecap:round;stroke-linejoin:round;stroke-miterlimit:4;stroke-dasharray:none;stroke-dashoffset:0;stroke-opacity:1;paint-order:markers stroke fill"
           d="m 61.929524,242.18784 c -0.03276,0.60597 -0.245499,1.17889 -0.622183,1.62109 -0.262041,0.31117 -0.409279,0.72073 -0.409279,1.13017 0,0.9499 0.769538,1.73581 1.735812,1.73581 0.06551,0 0.13086,-0.016 0.196371,-0.016 0.769742,-0.0983 1.408777,-0.70443 1.523421,-1.4578 0.08189,-0.49132 -0.04901,-0.96654 -0.360186,-1.3596 -0.393059,-0.5077 -0.622495,-1.06406 -0.655256,-1.65365 z"
           id="rect1013"
           inkscape:connector-curvature="0" />
        <path
           style="fill:#ffb700;stroke-width:0.15089278"
           id="path922"
           d="m 59.194437,245.03754 h 0.933519 c 0.09827,0 0.163775,-0.0655 0.163775,-0.16378 0,-0.0983 -0.06551,-0.16377 -0.163775,-0.16377 h -0.933519 c -0.09826,0 -0.163775,0.0655 -0.163775,0.16377 0,0.0983 0.08189,0.16378 0.163775,0.16378 z"
           inkscape:connector-curvature="0" />
        <path
           style="fill:#ffb700;stroke-width:0.15089278"
           id="path924"
           d="m 64.975702,244.87376 c 0,0.0983 0.06551,0.16378 0.163775,0.16378 h 0.933519 c 0.09826,0 0.163775,-0.0655 0.163775,-0.16378 0,-0.0983 -0.06551,-0.16377 -0.163775,-0.16377 h -0.933519 c -0.09826,0 -0.163775,0.0819 -0.163775,0.16377 z"
           inkscape:connector-curvature="0" />
        <path
           style="fill:#ffb700;stroke-width:0.15089278"
           id="path926"
           d="m 62.633717,247.26488 c -0.09826,0 -0.163775,0.0655 -0.163775,0.16378 v 0.88438 c 0,0.0983 0.06551,0.16378 0.163775,0.16378 0.09827,0 0.163775,-0.0655 0.163775,-0.16378 v -0.88438 c 0,-0.0983 -0.06551,-0.16378 -0.163775,-0.16378 z"
           inkscape:connector-curvature="0" />
        <path
           style="fill:#ffb700;stroke-width:0.15089278"
           id="path928"
           d="m 60.848567,246.49514 c -0.04913,0 -0.08189,0.0164 -0.114642,0.0491 l -0.638724,0.63873 c -0.06551,0.0655 -0.06551,0.16377 0,0.22928 0.06551,0.0655 0.163775,0.0655 0.229285,0 l 0.638724,-0.63872 c 0.06551,-0.0655 0.06551,-0.16378 0,-0.22929 -0.03276,-0.0327 -0.08189,-0.0491 -0.114643,-0.0491 z"
           inkscape:connector-curvature="0" />
        <path
           style="fill:#ffb700;stroke-width:0.15089278"
           id="path930"
           d="m 64.287846,243.21963 c 0.06551,0.0655 0.163776,0.0655 0.229286,0 l 0.6551,-0.6551 c 0.06551,-0.0655 0.06551,-0.16378 0,-0.22929 -0.08189,-0.0655 -0.147397,-0.0655 -0.229284,0 l -0.655102,0.6551 c -0.06551,0.0655 -0.06551,0.16378 0,0.22929 z"
           inkscape:connector-curvature="0" />
        <path
           style="fill:#ffb700;stroke-width:0.15089278"
           id="path932"
           d="m 60.078823,242.56453 0.671479,0.67148 c 0.06551,0.0655 0.163776,0.0655 0.229285,0 0.06551,-0.0655 0.06551,-0.16378 0,-0.22929 l -0.671478,-0.67148 c -0.08189,-0.0655 -0.163776,-0.0655 -0.229286,0 -0.04913,0.0491 -0.04913,0.16378 0,0.22929 z"
           inkscape:connector-curvature="0" />
        <path
           style="fill:#ffb700;stroke-width:0.15089278"
           id="path934"
           d="m 64.549887,246.56064 c -0.03276,-0.0328 -0.08189,-0.0491 -0.114643,-0.0491 -0.04913,0 -0.08189,0.0164 -0.114643,0.0491 -0.06551,0.0655 -0.06551,0.16378 0,0.22929 l 0.622347,0.63873 c 0.06551,0.0655 0.163774,0.0655 0.229284,0 0.06551,-0.0655 0.06551,-0.16378 0,-0.22929 z"
           inkscape:connector-curvature="0" />
        <rect
           ry="0.26880115"
           y="240.06087"
           x="61.738518"
           height="2.5302098"
           width="1.7907115"
           id="rect5341"
           style="fill:#000000;fill-opacity:1;stroke:none;stroke-width:0.38705391;stroke-linecap:round;stroke-linejoin:round;stroke-miterlimit:4;stroke-dasharray:none;stroke-dashoffset:0;stroke-opacity:1;paint-order:markers stroke fill" />
      </g>
    </g>
  </g>
</svg>
