<svg height='100px' width='100px'  fill="#000000" xmlns="http://www.w3.org/2000/svg" xmlns:xlink="http://www.w3.org/1999/xlink" version="1.1" x="0px" y="0px" viewBox="0 0 100 100" enable-background="new 0 0 100 100" xml:space="preserve"><path d="M82.914,31.086l-21-21C61.539,9.711,61.03,9.5,60.5,9.5h-36c-4.363,0-9,2.453-9,7v68c0,4.373,4.626,9,9,9h52  c4.547,0,7-4.637,7-9v-52C83.5,31.97,83.289,31.461,82.914,31.086z M61.5,15.328L77.672,31.5H66.5c-2.196,0-5-2.804-5-5V15.328z   M79.5,84.5c0,2.016-0.953,5-3,5h-52c-2.196,0-5-2.805-5-5v-68c0-2.047,2.983-3,5-3h33v13c0,4.374,4.626,9,9,9h13V84.5z   M60.094,57.354c-3.475-3.475-7.397-8.288-10.739-13.187c0.761-3.854,1.146-6.769,1.146-8.667c0-8.535-10-8.535-10,0  c0,1.673,1.547,4.869,4.602,9.506c-1.264,6.009-3.182,13.174-5.119,19.121c-4.354,1.906-7.344,3.656-8.896,5.209  c-1.995,1.994-2.6,4.602-1.617,6.973c0.887,2.141,2.902,3.578,5.016,3.578c1.28,0,2.467-0.51,3.43-1.473  c0.552-0.553,2.198-2.197,5.295-11.313c5.313-2.199,11.443-4.177,15.718-5.324c3.866,3.555,7.005,5.285,9.573,5.285  c2.91,0,5.277-2.182,5.277-4.865c0-1.66-0.951-3.173-2.609-4.152c-1.595-0.942-3.838-1.42-6.668-1.42  C63.608,56.625,62.129,56.87,60.094,57.354z M35.086,75.586c-0.27,0.27-0.473,0.301-0.602,0.301c-0.423,0-1.032-0.414-1.32-1.109  c-0.249-0.6-0.321-1.541,0.75-2.613c0.503-0.502,1.65-1.416,4.207-2.734C36.719,73.084,35.672,75,35.086,75.586z M44.5,35.5  c0-1.745,0.662-2.5,1-2.5s1,0.755,1,2.5c0,0.874-0.113,2.106-0.33,3.619C44.921,36.914,44.53,35.79,44.5,35.5z M44.79,62.171  c1.248-4.106,2.443-8.553,3.416-12.706c2.415,3.288,5.006,6.435,7.468,9.068C52.526,59.447,48.655,60.7,44.79,62.171z   M69.777,62.197c0,0.345-0.51,0.865-1.277,0.865c-0.566,0-1.993-0.278-4.689-2.375c0.311-0.043,0.539-0.063,0.689-0.063  c2.76,0,4.088,0.541,4.634,0.864C69.531,61.724,69.777,61.995,69.777,62.197z"></path></svg>