<svg height='100px' width='100px'  fill="#000000" xmlns="http://www.w3.org/2000/svg" xmlns:xlink="http://www.w3.org/1999/xlink" version="1.1" x="0px" y="0px" viewBox="0 0 100 100" enable-background="new 0 0 100 100" xml:space="preserve"><path d="M79.499,32.148c0-1.534-0.598-2.977-1.683-4.061l-5.903-5.904c-1.085-1.086-2.528-1.684-4.062-1.684  s-2.978,0.598-4.062,1.684l-5.555,5.555c0,0-0.001,0-0.002,0.001s-0.001,0.002-0.002,0.003L24.14,61.832  c-0.005,0.005-0.011,0.011-0.016,0.016l-0.008,0.008c-0.001,0.001-0.001,0.003-0.003,0.004c-0.017,0.018-0.029,0.037-0.045,0.055  c-0.113,0.125-0.208,0.267-0.275,0.428c-0.005,0.013-0.007,0.025-0.012,0.039c-0.028,0.073-0.056,0.147-0.072,0.227l-3.176,15.084  c-0.104,0.496,0.049,1.011,0.407,1.369c0.284,0.284,0.667,0.439,1.061,0.439c0.103,0,0.206-0.011,0.31-0.032l15.082-3.177  c0.078-0.017,0.152-0.044,0.226-0.072c0.013-0.005,0.026-0.007,0.04-0.013c0.149-0.062,0.282-0.15,0.4-0.253  c0.03-0.025,0.062-0.047,0.09-0.074l0.01-0.011c0.001,0,0.002-0.001,0.002-0.002l39.656-39.655  C78.901,35.127,79.499,33.684,79.499,32.148z M28.513,75.096l-3.607-3.609l1.454-6.906c0.697,0.21,1.36,0.605,1.931,1.175  c0.878,0.877,1.369,1.999,1.351,3.078c0,0.006,0.001,0.012,0.001,0.018c0,0.007,0,0.014,0,0.021c0,0.006-0.001,0.012-0.001,0.019  c0,0.044,0.01,0.085,0.015,0.128c0.005,0.048,0.008,0.097,0.017,0.144c0.011,0.051,0.027,0.099,0.043,0.147  c0.012,0.038,0.02,0.077,0.034,0.114c0.001,0.002,0.003,0.004,0.003,0.006c0.002,0.005,0.005,0.008,0.007,0.013  c0.02,0.047,0.046,0.09,0.07,0.135c0.021,0.04,0.04,0.08,0.065,0.118c0.029,0.042,0.062,0.079,0.095,0.118  c0.028,0.034,0.054,0.07,0.085,0.102c0.002,0.002,0.003,0.005,0.005,0.007c0.001,0.001,0.003,0.001,0.003,0.002  c0.033,0.033,0.072,0.061,0.108,0.09c0.034,0.029,0.067,0.06,0.104,0.086c0.042,0.028,0.088,0.05,0.133,0.074  c0.039,0.021,0.078,0.046,0.119,0.064c0.009,0.003,0.017,0.008,0.025,0.011c0.004,0.002,0.01,0.003,0.014,0.005  c0.035,0.014,0.073,0.021,0.11,0.033c0.043,0.014,0.085,0.03,0.13,0.04c0.051,0.011,0.104,0.014,0.157,0.019  c0.044,0.005,0.085,0.015,0.13,0.016h0.056c1.084-0.055,2.196,0.47,3.075,1.35c0.566,0.566,0.951,1.239,1.162,1.934L28.513,75.096z   M36.365,69.588c-0.67-0.67-1.437-1.199-2.253-1.579l31.134-31.136l3.834,3.832L37.938,71.848  C37.561,71.027,37.034,70.257,36.365,69.588z M31.984,65.895c-0.377-0.819-0.903-1.591-1.573-2.261  c-0.671-0.671-1.447-1.188-2.271-1.56l31.152-31.152l3.832,3.83L31.984,65.895z M75.695,34.09l-4.494,4.494l-9.787-9.783  l4.496-4.496c1.037-1.038,2.846-1.037,3.882,0l5.903,5.904c0.519,0.518,0.804,1.207,0.804,1.939  C76.499,32.883,76.214,33.572,75.695,34.09z"></path></svg>