<?xml version="1.0" encoding="UTF-8" standalone="no"?>
<svg
   xmlns:dc="http://purl.org/dc/elements/1.1/"
   xmlns:cc="http://creativecommons.org/ns#"
   xmlns:rdf="http://www.w3.org/1999/02/22-rdf-syntax-ns#"
   xmlns:svg="http://www.w3.org/2000/svg"
   xmlns="http://www.w3.org/2000/svg"
   xmlns:sodipodi="http://sodipodi.sourceforge.net/DTD/sodipodi-0.dtd"
   xmlns:inkscape="http://www.inkscape.org/namespaces/inkscape"
   id="svg1468"
   version="1.1"
   viewBox="0 0 1.587495 1.5875"
   height="1.5875mm"
   width="1.587495mm"
   sodipodi:docname="phone.svg"
   inkscape:export-filename="/home/fdf/projects/hoezithet/static/icons/phone.png"
   inkscape:export-xdpi="480.01001"
   inkscape:export-ydpi="480.01001"
   inkscape:version="0.92.4 (unknown)">
  <sodipodi:namedview
     pagecolor="#ffffff"
     bordercolor="#666666"
     borderopacity="1"
     objecttolerance="10"
     gridtolerance="10"
     guidetolerance="10"
     inkscape:pageopacity="0"
     inkscape:pageshadow="2"
     inkscape:window-width="1600"
     inkscape:window-height="874"
     id="namedview3211"
     showgrid="false"
     inkscape:zoom="39.333334"
     inkscape:cx="2.9999905"
     inkscape:cy="3"
     inkscape:window-x="0"
     inkscape:window-y="180"
     inkscape:window-maximized="1"
     inkscape:current-layer="svg1468" />
  <defs
     id="defs1462" />
  <metadata
     id="metadata1465">
    <rdf:RDF>
      <cc:Work
         rdf:about="">
        <dc:format>image/svg+xml</dc:format>
        <dc:type
           rdf:resource="http://purl.org/dc/dcmitype/StillImage" />
        <dc:title />
      </cc:Work>
    </rdf:RDF>
  </metadata>
  <g
     transform="translate(-48.343157,-130.65268)"
     id="layer1">
    <path
       style="fill:#ffb700;stroke-width:0.08819441"
       d="m 48.662419,131.33969 c 0.127,0.2496 0.331611,0.45333 0.5812,0.5812 l 0.194029,-0.19401 c 0.02381,-0.0238 0.05908,-0.0318 0.08996,-0.0211 0.09878,0.0326 0.205493,0.0502 0.314854,0.0502 0.0485,0 0.08819,0.0397 0.08819,0.0882 v 0.3078 c 0,0.0484 -0.03969,0.0882 -0.08819,0.0882 -0.828145,0 -1.499305,-0.67116 -1.499305,-1.4993 0,-0.0485 0.03969,-0.0882 0.08819,-0.0882 h 0.308681 c 0.0485,0 0.0882,0.0397 0.0882,0.0882 0,0.11023 0.01764,0.21607 0.05026,0.31485 0.0097,0.0308 0.0026,0.0652 -0.02205,0.09 z"
       id="path886-7" />
  </g>
</svg>
