<svg xmlns="http://www.w3.org/2000/svg" xmlns:xlink="http://www.w3.org/1999/xlink" width="100" height="100" viewBox="0 0 100 100"><g><rect width="100%" height="100%" fill="#FFFFFF"></rect><g transform="translate(50 50) scale(0.69 0.69) rotate(0) translate(-50 -50)" style="fill:#000000;"><svg fill="#000000" xmlns="http://www.w3.org/2000/svg" xmlns:xlink="http://www.w3.org/1999/xlink" version="1.1" x="0px" y="0px" viewBox="0 0 64 64" style="enable-background:new 0 0 64 64;" xml:space="preserve"><g><path d="M63,1H1v58h2v4h8v-4h42v4h8v-4h2V1z M9,61H5v-2h4V61z M59,61h-4v-2h4V61z M61,57H3V3h58V57z"></path><path d="M18,31c7.168,0,13-5.832,13-13S25.168,5,18,5S5,10.832,5,18S10.832,31,18,31z M18,7c6.065,0,11,4.935,11,11   s-4.935,11-11,11S7,24.065,7,18S11.935,7,18,7z"></path><path d="M15,18c0,1.654,1.346,3,3,3s3-1.346,3-3s-1.346-3-3-3c-0.414,0-0.808,0.084-1.168,0.237l-4.064-4.877l-1.537,1.28   l4.132,4.959C15.139,17.019,15,17.491,15,18z M19,18c0,0.551-0.448,1-1,1s-1-0.449-1-1s0.448-1,1-1S19,17.449,19,18z"></path><rect x="12" y="23" width="12" height="2"></rect><path d="M46,31c7.168,0,13-5.832,13-13S53.168,5,46,5s-13,5.832-13,13S38.832,31,46,31z M46,7c6.065,0,11,4.935,11,11   s-4.935,11-11,11s-11-4.935-11-11S39.935,7,46,7z"></path><path d="M46,21c1.654,0,3-1.346,3-3c0-1.07-0.567-2.004-1.412-2.535l1.389-6.248l-1.953-0.434l-1.39,6.254   C44.154,15.22,43,16.471,43,18C43,19.654,44.346,21,46,21z M46,17c0.552,0,1,0.449,1,1s-0.448,1-1,1s-1-0.449-1-1S45.448,17,46,17z   "></path><rect x="50" y="23" width="2" height="2"></rect><rect x="40" y="23" width="8" height="2"></rect><path d="M33,33H5v22h28V33z M31,53H7V35h24V53z"></path><polygon points="14.279,51 17.721,51 21.721,39 22.341,39 25.341,46 29,46 29,44 26.659,44 23.659,37 20.279,37 16.279,49    15.721,49 12.721,40 9,40 9,42 11.279,42  "></polygon><path d="M42,33h-6v6h6V33z M40,37h-2v-2h2V37z"></path><path d="M50,33h-6v6h6V33z M48,37h-2v-2h2V37z"></path><path d="M52,39h6v-6h-6V39z M54,35h2v2h-2V35z"></path><path d="M36,47h6v-6h-6V47z M38,43h2v2h-2V43z"></path><path d="M44,47h6v-6h-6V47z M46,43h2v2h-2V43z"></path><path d="M52,47h6v-6h-6V47z M54,43h2v2h-2V43z"></path><path d="M36,55h22v-6H36V55z M56,53h-4v-2h4V53z M38,51h12v2H38V51z"></path></g></svg></g></g></svg>