<?xml version="1.0" encoding="UTF-8" standalone="no"?>
<svg
   xmlns:dc="http://purl.org/dc/elements/1.1/"
   xmlns:cc="http://creativecommons.org/ns#"
   xmlns:rdf="http://www.w3.org/1999/02/22-rdf-syntax-ns#"
   xmlns:svg="http://www.w3.org/2000/svg"
   xmlns="http://www.w3.org/2000/svg"
   xmlns:xlink="http://www.w3.org/1999/xlink"
   xmlns:sodipodi="http://sodipodi.sourceforge.net/DTD/sodipodi-0.dtd"
   xmlns:inkscape="http://www.inkscape.org/namespaces/inkscape"
   inkscape:export-ydpi="299.92355"
   inkscape:export-xdpi="299.92355"
   inkscape:export-filename="/home/fdf/hugo/hoezithet/static/images/fb/klascement_post.png"
   sodipodi:docname="klascement_post.svg"
   inkscape:version="0.92.4 (unknown)"
   id="svg4623"
   version="1.1"
   viewBox="0 0 317.49997 166.15832"
   height="628"
   width="1200">
  <defs
     id="defs4617">
    <marker
       inkscape:isstock="true"
       style="overflow:visible;"
       id="marker1172"
       refX="0.0"
       refY="0.0"
       orient="auto"
       inkscape:stockid="Arrow2Mend">
      <path
         transform="scale(0.6) rotate(180) translate(0,0)"
         d="M 8.7185878,4.0337352 L -2.2072895,0.016013256 L 8.7185884,-4.0017078 C 6.9730900,-1.6296469 6.9831476,1.6157441 8.7185878,4.0337352 z "
         style="fill-rule:evenodd;stroke-width:0.625;stroke-linejoin:round;stroke:#555555;stroke-opacity:1;fill:#555555;fill-opacity:1"
         id="path936" />
    </marker>
    <marker
       inkscape:isstock="true"
       style="overflow:visible"
       id="marker2820"
       refX="0"
       refY="0"
       orient="auto"
       inkscape:stockid="Arrow2Mstart">
      <path
         inkscape:connector-curvature="0"
         transform="scale(0.6)"
         d="M 8.7185878,4.0337352 -2.2072895,0.01601326 8.7185884,-4.0017078 c -1.7454984,2.3720609 -1.7354408,5.6174519 -6e-7,8.035443 z"
         style="fill:#e7040f;fill-opacity:1;fill-rule:evenodd;stroke:#e7040f;stroke-width:0.625;stroke-linejoin:round;stroke-opacity:1"
         id="path2818" />
    </marker>
    <marker
       inkscape:isstock="true"
       style="overflow:visible"
       id="Arrow2Mstart"
       refX="0"
       refY="0"
       orient="auto"
       inkscape:stockid="Arrow2Mstart">
      <path
         inkscape:connector-curvature="0"
         transform="scale(0.6)"
         d="M 8.7185878,4.0337352 -2.2072895,0.01601326 8.7185884,-4.0017078 c -1.7454984,2.3720609 -1.7354408,5.6174519 -6e-7,8.035443 z"
         style="fill:#e7040f;fill-opacity:1;fill-rule:evenodd;stroke:#e7040f;stroke-width:0.625;stroke-linejoin:round;stroke-opacity:1"
         id="path1568" />
    </marker>
    <marker
       inkscape:isstock="true"
       style="overflow:visible"
       id="Arrow2Mend"
       refX="0"
       refY="0"
       orient="auto"
       inkscape:stockid="Arrow2Mend">
      <path
         inkscape:connector-curvature="0"
         transform="scale(-0.6)"
         d="M 8.7185878,4.0337352 -2.2072895,0.01601326 8.7185884,-4.0017078 c -1.7454984,2.3720609 -1.7354408,5.6174519 -6e-7,8.035443 z"
         style="fill:#555555;fill-opacity:1;fill-rule:evenodd;stroke:#555555;stroke-width:0.625;stroke-linejoin:round;stroke-opacity:1"
         id="path1571" />
    </marker>
    <clipPath
       id="clipPath21806"
       clipPathUnits="userSpaceOnUse">
      <path
         sodipodi:nodetypes="cscczccscc"
         inkscape:connector-curvature="0"
         d="m 12.815754,18.425872 h 4.495849 c 3.503284,0 6.211886,0.05168 8.991699,0 2.779812,-0.05168 4.780069,0 4.780069,0 0,0 -0.529166,3.143767 -0.529166,5.639902 0,2.496136 0.529166,5.93129 0.529166,5.93129 0,0 -2.000257,1.006652 -4.78007,1.058333 -2.779812,0.05168 -5.488414,-1.058333 -8.991698,-1.058333 -3.503283,0 -4.495849,0.529166 -4.495849,0.529166 z"
         style="opacity:1;vector-effect:none;fill:#f4f4f4;fill-opacity:1;stroke:#555555;stroke-width:0.35277775;stroke-linecap:round;stroke-linejoin:round;stroke-miterlimit:4;stroke-dasharray:none;stroke-dashoffset:0;stroke-opacity:1"
         id="path21808" />
    </clipPath>
    <pattern
       id="pattern13500-6-7-0-7"
       patternTransform="matrix(0.26458331,0,0,0.26458331,39.526125,62.056557)"
       height="37.694409"
       width="50.260043"
       patternUnits="userSpaceOnUse">
      <g
         transform="matrix(3.7795279,0,0,3.7795279,-77.89009,-234.54449)"
         id="use13498-9-3-7-5">
        <rect
           style="fill:none;stroke:none;stroke-width:0.61472619"
           width="13.297967"
           height="9.9733095"
           x="20.608419"
           y="62.056557"
           id="rect13530-9-3-7-4" />
        <path
           id="path13532-2-5-2-4"
           style="opacity:1;vector-effect:none;fill:#555555;fill-opacity:1;stroke:none;stroke-width:0.88533551;stroke-linecap:butt;stroke-linejoin:bevel;stroke-miterlimit:4;stroke-dasharray:2.65600656, 2.65600656;stroke-dashoffset:0;stroke-opacity:1;paint-order:markers stroke fill"
           d="m 30.581893,62.056559 3.324491,4.986654 -3.324491,4.986654 -3.32449,-4.986654 z m -6.648981,10e-7 3.32449,4.986654 -3.32449,4.986654 -3.32449,-4.986654 z"
           inkscape:connector-curvature="0" />
        <path
           id="path13534-3-0-1-6"
           style="opacity:1;vector-effect:none;fill:#16502d;fill-opacity:1;stroke:none;stroke-width:0.88533551;stroke-linecap:butt;stroke-linejoin:bevel;stroke-miterlimit:4;stroke-dasharray:2.65600656, 2.65600656;stroke-dashoffset:0;stroke-opacity:1;paint-order:markers stroke fill"
           d="m 27.257404,62.05656 3.324489,-10e-7 -3.32449,4.986654 -3.324491,-4.986654 z m -1e-6,4.986654 3.32449,4.986654 -3.324489,-2e-6 -3.324492,2e-6 z"
           inkscape:connector-curvature="0" />
        <path
           id="path13536-5-1-4-5"
           style="opacity:1;vector-effect:none;fill:#19a974;fill-opacity:1;stroke:none;stroke-width:0.88533551;stroke-linecap:butt;stroke-linejoin:bevel;stroke-miterlimit:4;stroke-dasharray:2.65600653, 2.65600653;stroke-dashoffset:0;stroke-opacity:1;paint-order:markers stroke fill"
           d="m 33.906385,67.043213 v 4.986653 0 l -3.324491,10e-7 z m -13.297963,1e-6 3.32449,4.986654 -3.324489,-2e-6 z m 10e-7,-4.986654 3.32449,-2e-6 -3.32449,4.986655 z m 13.297962,0 v 0 l -10e-7,4.986653 -3.32449,-4.986655 z"
           inkscape:connector-curvature="0" />
        <path
           sodipodi:nodetypes="cccccccc"
           inkscape:connector-curvature="0"
           d="m 27.257401,71.922222 -6.541749,-9.758016 m 13.083499,9.758016 -6.541748,-9.758017 m 0,9.758017 6.541748,-9.758017 m -13.083499,9.758017 6.54175,-9.758017"
           style="opacity:1;vector-effect:none;fill:#137752;fill-opacity:1;stroke:#000000;stroke-width:0.21277149;stroke-linecap:round;stroke-linejoin:miter;stroke-miterlimit:4;stroke-dasharray:0.2127715, 0.42554299;stroke-dashoffset:0;stroke-opacity:1"
           id="path13538-4-4-1-6" />
      </g>
    </pattern>
    <marker
       inkscape:isstock="true"
       style="overflow:visible"
       id="Arrow2Mend-5"
       refX="0"
       refY="0"
       orient="auto"
       inkscape:stockid="Arrow2Mend">
      <path
         inkscape:connector-curvature="0"
         transform="scale(-0.6)"
         d="M 8.7185878,4.0337352 -2.2072895,0.01601326 8.7185884,-4.0017078 c -1.7454984,2.3720609 -1.7354408,5.6174519 -6e-7,8.035443 z"
         style="fill:#e7040f;fill-opacity:1;fill-rule:evenodd;stroke:#e7040f;stroke-width:0.625;stroke-linejoin:round;stroke-opacity:1"
         id="path6062-1" />
    </marker>
    <clipPath
       id="clipPath4898"
       clipPathUnits="userSpaceOnUse">
      <path
         sodipodi:nodetypes="ccccc"
         inkscape:connector-curvature="0"
         id="path4900"
         d="M -14.439198,4.3360092 H 87.728125 V 59.764419 H -14.439198 Z"
         style="opacity:1;vector-effect:none;fill:#555555;fill-opacity:1;stroke:none;stroke-width:0.48600426;stroke-linecap:butt;stroke-linejoin:round;stroke-miterlimit:4;stroke-dasharray:none;stroke-dashoffset:0;stroke-opacity:1;paint-order:fill markers stroke" />
    </clipPath>
    <pattern
       inkscape:collect="always"
       xlink:href="#pattern13500"
       id="pattern13509"
       patternTransform="matrix(0.07359227,-0.04761382,0.06835065,0.10564327,39.526125,62.056557)" />
    <pattern
       patternUnits="userSpaceOnUse"
       width="50.260043"
       height="37.694409"
       patternTransform="matrix(0.26458331,0,0,0.26458331,39.526125,62.056557)"
       id="pattern13500">
      <g
         id="use13498"
         transform="matrix(3.7795279,0,0,3.7795279,-77.89009,-234.54449)">
        <rect
           id="rect13530"
           y="62.056557"
           x="20.608419"
           height="9.9733095"
           width="13.297967"
           style="fill:none;stroke:none;stroke-width:0.61472619" />
        <path
           inkscape:connector-curvature="0"
           d="m 30.581893,62.056559 3.324491,4.986654 -3.324491,4.986654 -3.32449,-4.986654 z m -6.648981,10e-7 3.32449,4.986654 -3.32449,4.986654 -3.32449,-4.986654 z"
           style="opacity:1;vector-effect:none;fill:#555555;fill-opacity:1;stroke:none;stroke-width:0.88533551;stroke-linecap:butt;stroke-linejoin:bevel;stroke-miterlimit:4;stroke-dasharray:2.65600656, 2.65600656;stroke-dashoffset:0;stroke-opacity:1;paint-order:markers stroke fill"
           id="path13532" />
        <path
           inkscape:connector-curvature="0"
           d="m 27.257404,62.05656 3.324489,-10e-7 -3.32449,4.986654 -3.324491,-4.986654 z m -1e-6,4.986654 3.32449,4.986654 -3.324489,-2e-6 -3.324492,2e-6 z"
           style="opacity:1;vector-effect:none;fill:#16502d;fill-opacity:1;stroke:none;stroke-width:0.88533551;stroke-linecap:butt;stroke-linejoin:bevel;stroke-miterlimit:4;stroke-dasharray:2.65600656, 2.65600656;stroke-dashoffset:0;stroke-opacity:1;paint-order:markers stroke fill"
           id="path13534" />
        <path
           inkscape:connector-curvature="0"
           d="m 33.906385,67.043213 v 4.986653 0 l -3.324491,10e-7 z m -13.297963,1e-6 3.32449,4.986654 -3.324489,-2e-6 z m 10e-7,-4.986654 3.32449,-2e-6 -3.32449,4.986655 z m 13.297962,0 v 0 l -10e-7,4.986653 -3.32449,-4.986655 z"
           style="opacity:1;vector-effect:none;fill:#19a974;fill-opacity:1;stroke:none;stroke-width:0.88533551;stroke-linecap:butt;stroke-linejoin:bevel;stroke-miterlimit:4;stroke-dasharray:2.65600653, 2.65600653;stroke-dashoffset:0;stroke-opacity:1;paint-order:markers stroke fill"
           id="path13536" />
        <path
           id="path13538"
           style="opacity:1;vector-effect:none;fill:#137752;fill-opacity:1;stroke:#000000;stroke-width:0.21277149;stroke-linecap:round;stroke-linejoin:miter;stroke-miterlimit:4;stroke-dasharray:0.2127715, 0.42554299;stroke-dashoffset:0;stroke-opacity:1"
           d="m 27.257401,71.922222 -6.541749,-9.758016 m 13.083499,9.758016 -6.541748,-9.758017 m 0,9.758017 6.541748,-9.758017 m -13.083499,9.758017 6.54175,-9.758017"
           inkscape:connector-curvature="0"
           sodipodi:nodetypes="cccccccc" />
      </g>
    </pattern>
    <pattern
       inkscape:collect="always"
       xlink:href="#pattern13500-7"
       id="pattern13509-9"
       patternTransform="matrix(-0.09260335,-0.05991389,-0.08600766,0.13293407,114.20901,145.36819)" />
    <pattern
       patternUnits="userSpaceOnUse"
       width="50.260043"
       height="37.694409"
       patternTransform="matrix(0.26458331,0,0,0.26458331,39.526125,62.056557)"
       id="pattern13500-7">
      <g
         id="use13498-1"
         transform="matrix(3.7795279,0,0,3.7795279,-77.89009,-234.54449)">
        <rect
           id="rect13530-3"
           y="62.056557"
           x="20.608419"
           height="9.9733095"
           width="13.297967"
           style="fill:none;stroke:none;stroke-width:0.61472619" />
        <path
           inkscape:connector-curvature="0"
           d="m 30.581893,62.056559 3.324491,4.986654 -3.324491,4.986654 -3.32449,-4.986654 z m -6.648981,10e-7 3.32449,4.986654 -3.32449,4.986654 -3.32449,-4.986654 z"
           style="opacity:1;vector-effect:none;fill:#555555;fill-opacity:1;stroke:none;stroke-width:0.88533551;stroke-linecap:butt;stroke-linejoin:bevel;stroke-miterlimit:4;stroke-dasharray:2.65600656, 2.65600656;stroke-dashoffset:0;stroke-opacity:1;paint-order:markers stroke fill"
           id="path13532-1" />
        <path
           inkscape:connector-curvature="0"
           d="m 27.257404,62.05656 3.324489,-10e-7 -3.32449,4.986654 -3.324491,-4.986654 z m -1e-6,4.986654 3.32449,4.986654 -3.324489,-2e-6 -3.324492,2e-6 z"
           style="opacity:1;vector-effect:none;fill:#16502d;fill-opacity:1;stroke:none;stroke-width:0.88533551;stroke-linecap:butt;stroke-linejoin:bevel;stroke-miterlimit:4;stroke-dasharray:2.65600656, 2.65600656;stroke-dashoffset:0;stroke-opacity:1;paint-order:markers stroke fill"
           id="path13534-2" />
        <path
           inkscape:connector-curvature="0"
           d="m 33.906385,67.043213 v 4.986653 0 l -3.324491,10e-7 z m -13.297963,1e-6 3.32449,4.986654 -3.324489,-2e-6 z m 10e-7,-4.986654 3.32449,-2e-6 -3.32449,4.986655 z m 13.297962,0 v 0 l -10e-7,4.986653 -3.32449,-4.986655 z"
           style="opacity:1;vector-effect:none;fill:#19a974;fill-opacity:1;stroke:none;stroke-width:0.88533551;stroke-linecap:butt;stroke-linejoin:bevel;stroke-miterlimit:4;stroke-dasharray:2.65600653, 2.65600653;stroke-dashoffset:0;stroke-opacity:1;paint-order:markers stroke fill"
           id="path13536-0" />
        <path
           id="path13538-6"
           style="opacity:1;vector-effect:none;fill:#137752;fill-opacity:1;stroke:#000000;stroke-width:0.21277149;stroke-linecap:round;stroke-linejoin:miter;stroke-miterlimit:4;stroke-dasharray:0.2127715, 0.42554299;stroke-dashoffset:0;stroke-opacity:1"
           d="m 27.257401,71.922222 -6.541749,-9.758016 m 13.083499,9.758016 -6.541748,-9.758017 m 0,9.758017 6.541748,-9.758017 m -13.083499,9.758017 6.54175,-9.758017"
           inkscape:connector-curvature="0"
           sodipodi:nodetypes="cccccccc" />
      </g>
    </pattern>
  </defs>
  <sodipodi:namedview
     inkscape:document-rotation="0"
     inkscape:snap-midpoints="true"
     inkscape:bbox-paths="true"
     inkscape:snap-bbox-edge-midpoints="true"
     inkscape:snap-center="true"
     inkscape:snap-bbox-midpoints="true"
     inkscape:snap-bbox="true"
     inkscape:snap-page="true"
     borderlayer="false"
     showborder="true"
     inkscape:showpageshadow="true"
     inkscape:snap-global="false"
     inkscape:pagecheckerboard="false"
     inkscape:guide-bbox="true"
     showguides="true"
     inkscape:window-maximized="1"
     inkscape:window-y="25"
     inkscape:window-x="1600"
     inkscape:window-height="1055"
     inkscape:window-width="1920"
     inkscape:snap-smooth-nodes="true"
     inkscape:object-paths="true"
     units="px"
     showgrid="false"
     inkscape:current-layer="svg4623"
     inkscape:document-units="px"
     inkscape:cy="267.35888"
     inkscape:cx="483.94478"
     inkscape:zoom="0.7"
     inkscape:pageshadow="2"
     inkscape:pageopacity="1"
     borderopacity="1.0"
     bordercolor="#666666"
     pagecolor="#f4f4f4"
     id="base" />
  <metadata
     id="metadata4620">
    <rdf:RDF>
      <cc:Work
         rdf:about="">
        <dc:format>image/svg+xml</dc:format>
        <dc:type
           rdf:resource="http://purl.org/dc/dcmitype/StillImage" />
        <dc:title />
      </cc:Work>
    </rdf:RDF>
  </metadata>
  <g
     id="g1092"
     transform="matrix(1.6359854,0,0,1.6359854,100.72946,-345.28269)"
     style="stroke-width:0.73144042">
    <path
       style="fill:none;stroke:#000000;stroke-width:0.43127248;stroke-linecap:round;stroke-linejoin:miter;stroke-miterlimit:4;stroke-dasharray:none;stroke-opacity:1"
       d="M 62.639126,241.8723 V 228.27449"
       id="path1097"
       inkscape:connector-curvature="0"
       sodipodi:nodetypes="cc" />
    <g
       id="g861"
       transform="translate(0,0.82949944)">
      <path
         sodipodi:nodetypes="ccssccccc"
         style="fill:#ffb700;fill-opacity:1;stroke:none;stroke-width:0.49026826;stroke-linecap:round;stroke-linejoin:round;stroke-miterlimit:4;stroke-dasharray:none;stroke-dashoffset:0;stroke-opacity:1;paint-order:markers stroke fill"
         d="m 61.929524,242.18784 c -0.03276,0.60597 -0.245499,1.17889 -0.622183,1.62109 -0.262041,0.31117 -0.409279,0.72073 -0.409279,1.13017 0,0.9499 0.769538,1.73581 1.735812,1.73581 0.06551,0 0.13086,-0.016 0.196371,-0.016 0.769742,-0.0983 1.408777,-0.70443 1.523421,-1.4578 0.08189,-0.49132 -0.04901,-0.96654 -0.360186,-1.3596 -0.393059,-0.5077 -0.622495,-1.06406 -0.655256,-1.65365 z"
         id="rect1013"
         inkscape:connector-curvature="0" />
      <path
         style="fill:#ffb700;stroke-width:0.15089278"
         id="path922"
         d="m 59.194437,245.03754 h 0.933519 c 0.09827,0 0.163775,-0.0655 0.163775,-0.16378 0,-0.0983 -0.06551,-0.16377 -0.163775,-0.16377 h -0.933519 c -0.09826,0 -0.163775,0.0655 -0.163775,0.16377 0,0.0983 0.08189,0.16378 0.163775,0.16378 z"
         inkscape:connector-curvature="0" />
      <path
         style="fill:#ffb700;stroke-width:0.15089278"
         id="path924"
         d="m 64.975702,244.87376 c 0,0.0983 0.06551,0.16378 0.163775,0.16378 h 0.933519 c 0.09826,0 0.163775,-0.0655 0.163775,-0.16378 0,-0.0983 -0.06551,-0.16377 -0.163775,-0.16377 h -0.933519 c -0.09826,0 -0.163775,0.0819 -0.163775,0.16377 z"
         inkscape:connector-curvature="0" />
      <path
         style="fill:#ffb700;stroke-width:0.15089278"
         id="path926"
         d="m 62.633717,247.26488 c -0.09826,0 -0.163775,0.0655 -0.163775,0.16378 v 0.88438 c 0,0.0983 0.06551,0.16378 0.163775,0.16378 0.09827,0 0.163775,-0.0655 0.163775,-0.16378 v -0.88438 c 0,-0.0983 -0.06551,-0.16378 -0.163775,-0.16378 z"
         inkscape:connector-curvature="0" />
      <path
         style="fill:#ffb700;stroke-width:0.15089278"
         id="path928"
         d="m 60.848567,246.49514 c -0.04913,0 -0.08189,0.0164 -0.114642,0.0491 l -0.638724,0.63873 c -0.06551,0.0655 -0.06551,0.16377 0,0.22928 0.06551,0.0655 0.163775,0.0655 0.229285,0 l 0.638724,-0.63872 c 0.06551,-0.0655 0.06551,-0.16378 0,-0.22929 -0.03276,-0.0327 -0.08189,-0.0491 -0.114643,-0.0491 z"
         inkscape:connector-curvature="0" />
      <path
         style="fill:#ffb700;stroke-width:0.15089278"
         id="path930"
         d="m 64.287846,243.21963 c 0.06551,0.0655 0.163776,0.0655 0.229286,0 l 0.6551,-0.6551 c 0.06551,-0.0655 0.06551,-0.16378 0,-0.22929 -0.08189,-0.0655 -0.147397,-0.0655 -0.229284,0 l -0.655102,0.6551 c -0.06551,0.0655 -0.06551,0.16378 0,0.22929 z"
         inkscape:connector-curvature="0" />
      <path
         style="fill:#ffb700;stroke-width:0.15089278"
         id="path932"
         d="m 60.078823,242.56453 0.671479,0.67148 c 0.06551,0.0655 0.163776,0.0655 0.229285,0 0.06551,-0.0655 0.06551,-0.16378 0,-0.22929 l -0.671478,-0.67148 c -0.08189,-0.0655 -0.163776,-0.0655 -0.229286,0 -0.04913,0.0491 -0.04913,0.16378 0,0.22929 z"
         inkscape:connector-curvature="0" />
      <path
         style="fill:#ffb700;stroke-width:0.15089278"
         id="path934"
         d="m 64.549887,246.56064 c -0.03276,-0.0328 -0.08189,-0.0491 -0.114643,-0.0491 -0.04913,0 -0.08189,0.0164 -0.114643,0.0491 -0.06551,0.0655 -0.06551,0.16378 0,0.22929 l 0.622347,0.63873 c 0.06551,0.0655 0.163774,0.0655 0.229284,0 0.06551,-0.0655 0.06551,-0.16378 0,-0.22929 z"
         inkscape:connector-curvature="0" />
      <rect
         ry="0.26880115"
         y="240.06087"
         x="61.738518"
         height="2.5302098"
         width="1.7907115"
         id="rect5341"
         style="fill:#000000;fill-opacity:1;stroke:none;stroke-width:0.38705391;stroke-linecap:round;stroke-linejoin:round;stroke-miterlimit:4;stroke-dasharray:none;stroke-dashoffset:0;stroke-opacity:1;paint-order:markers stroke fill" />
    </g>
  </g>
  <g
     transform="translate(5.1800203,-130.1742)"
     id="layer1"
     inkscape:groupmode="layer"
     inkscape:label="watermark" />
  <g
     transform="translate(5.1800203,-130.1742)"
     inkscape:label="Layer 1"
     id="layer2"
     inkscape:groupmode="layer" />
  <text
     id="text1619"
     y="157.79028"
     x="306.74094"
     style="font-style:normal;font-variant:normal;font-weight:normal;font-stretch:normal;font-size:9.87777996px;line-height:1.29999995;font-family:Quicksand;-inkscape-font-specification:'Quicksand, Normal';font-variant-ligatures:normal;font-variant-position:normal;font-variant-caps:normal;font-variant-numeric:normal;font-variant-alternates:normal;font-feature-settings:normal;text-indent:0;text-align:end;text-decoration:none;text-decoration-line:none;text-decoration-style:solid;text-decoration-color:#000000;letter-spacing:0px;word-spacing:0px;text-transform:none;writing-mode:lr-tb;direction:ltr;text-orientation:mixed;dominant-baseline:auto;baseline-shift:baseline;text-anchor:end;white-space:normal;shape-padding:0;opacity:1;vector-effect:none;fill:#555555;fill-opacity:1;stroke:none;stroke-width:0.71912903px;stroke-linecap:butt;stroke-linejoin:miter;stroke-miterlimit:4;stroke-dasharray:none;stroke-dashoffset:0;stroke-opacity:1"
     xml:space="preserve"><tspan
       style="font-size:9.87777996px;text-align:end;text-anchor:end;stroke-width:0.71912903px"
       y="157.79028"
       x="306.74094"
       id="tspan1617"
       sodipodi:role="line">https://hoezithet.nu</tspan></text>
  <g
     id="g969"
     transform="translate(62.542769,15.661453)">
    <circle
       r="9.1623898"
       transform="rotate(-76.890715)"
       cx="-38.120972"
       cy="107.71387"
       id="ellipse891"
       style="fill:#000000;stroke-width:0.4073078" />
    <path
       inkscape:connector-curvature="0"
       d="m 119.72158,48.951592 c -1.77594,0.290423 -2.97998,1.96534 -2.69038,3.741273 0.26314,1.605673 0.37882,3.0643 0.37882,4.387697 -0.007,3.640256 -0.85131,6.246316 -2.04314,8.264201 -1.78042,3.008089 -4.52294,4.807241 -6.93511,5.857324 -1.19631,0.521374 -2.28794,0.844382 -3.05412,1.031345 -0.32789,0.07862 -0.59102,0.132377 -0.78287,0.168222 -0.15193,-0.0228 -0.30631,-0.03828 -0.46476,-0.03828 H 88.392642 c -0.01996,0 -0.0391,0.0029 -0.05906,0.0033 -0.09205,-0.01345 -0.184517,-0.02486 -0.27861,-0.03016 v -9.58e-4 c 0,0 0,0 -0.01304,-0.0013 v 9.58e-4 c -0.287163,-0.0098 -3.761639,-0.378405 -6.862191,-2.446392 -1.590193,-1.05171 -3.102588,-2.497712 -4.262241,-4.617834 -0.982058,-1.806891 -1.729905,-4.140858 -1.934382,-7.262998 -1.337245,0.636241 -2.614207,1.03053 -3.812962,1.175945 -1.290811,0.946621 -1.78408,1.829701 -1.467182,2.625611 l -0.01222,-0.0163 c 0.107942,0.248061 0.265169,0.741738 0.618319,1.847623 l 0.06395,0.197144 -0.03951,0.203663 c -0.201218,1.043157 -0.287164,1.370241 -0.349077,1.521355 -0.0094,0.02443 -0.02526,0.04481 -0.03625,0.06803 0.406101,1.100592 0.881042,2.122974 1.417081,3.063486 2.738847,4.82272 6.874817,7.383566 10.181069,8.678857 1.40649,0.552739 2.678156,0.896112 3.698911,1.111587 v 17.984182 6.899257 35.84453 c 0,2.78204 2.255354,5.03576 5.035749,5.03576 2.78121,0 5.036564,-2.25372 5.036564,-5.03576 v -32.6962 h 1.887947 v 32.69632 c 0,2.78202 2.255356,5.03575 5.035743,5.03575 2.78121,0 5.03657,-2.25373 5.03657,-5.03575 v -35.8446 -6.899257 -17.993956 c 1.77838,-0.459055 4.41865,-1.362501 7.15383,-3.1087 2.33275,-1.498545 4.73434,-3.656548 6.53837,-6.693965 1.80812,-3.030899 2.9637,-6.913107 2.95677,-11.592855 0,-1.703837 -0.14867,-3.514393 -0.46313,-5.438593 -0.29083,-1.775119 -1.96574,-2.979984 -3.74208,-2.689562 z"
       id="path893"
       style="fill:#000000;stroke-width:0.40732422" />
    <path
       id="path895"
       transform="scale(0.26458331)"
       d="m 268.82422,120.80859 c 0,0 -33.80531,39.21069 -11.49805,71.05664 -1.50255,7.63743 -1.79634,14.97273 -0.16601,21.35547 -0.20168,0.0939 -2.39451,11.82867 -10.78321,11.52539 -0.10779,-0.0662 -7.06836,0.17774 -7.06836,0.17774 0,0 -4.20283,2.48162 -4.4707,2.82031 -0.0539,0.0325 -0.0986,0.0779 -0.13867,0.13477 -0.1601,0.22476 -0.10563,0.54065 0.11914,0.69921 l 26.05469,18.34766 c 0.22632,0.1601 0.54106,0.10356 0.70117,-0.12109 0.0383,-0.0585 0.0627,-0.11569 0.0781,-0.17578 0.15549,-0.24941 0.634,-2.55986 0.92188,-4.00391 0.13391,-0.67276 0.22656,-1.1582 0.22656,-1.1582 0,0 -1.69116,-5.29495 -2.11914,-6.47266 -0.0508,-0.13852 -0.0864,-0.22906 -0.0957,-0.23828 -0.45415,-1.13923 -0.59543,-2.23564 -0.55078,-3.28711 0.26018,-6.1395 7.75609,-10.56064 7.77148,-10.75 5.05416,-0.47416 10.25432,-2.22165 15.43164,-4.82031 1.54257,-0.77437 3.08232,-1.6168 4.61719,-2.53125 37.50206,10.27304 63.03125,-34.76953 63.03125,-34.76953 l -15.81641,-11.13672 c 1.53795,-2.02752 2.65516,-3.56189 3.26172,-4.41016 0.18319,-0.097 0.35517,-0.2463 0.49219,-0.44336 0.35868,-0.51265 0.35637,-1.13785 -0.0117,-1.39648 l -49.54883,-34.89649 c -0.36639,-0.25863 -0.95616,-0.0513 -1.3164,0.46289 -0.13852,0.19552 -0.22351,0.40813 -0.25586,0.61133 -0.59425,0.85596 -1.66216,2.42557 -3.05079,4.55469 z m 1.35156,9.36914 10.77734,7.58985 c -6.26419,10.17913 -15.09701,26.03467 -20.38671,42.02539 -14.33884,-15.7444 9.60937,-49.61524 9.60937,-49.61524 z M 293.25,149.06445 c 6.23939,0 12.47874,2.37718 17.23242,7.13086 9.50737,9.50736 9.50737,24.95748 0,34.46485 -9.50736,9.50736 -24.95748,9.50736 -34.46484,0 -9.50736,-9.50737 -9.50736,-24.95748 0,-34.46485 4.75368,-4.75368 10.99303,-7.13086 17.23242,-7.13086 z m 0,2.35352 c -5.6282,-3.2e-4 -11.2576,2.15018 -15.55859,6.45117 -8.60199,8.60199 -8.60199,22.5152 0,31.11719 8.60198,8.60194 22.51324,8.60002 31.11523,-0.002 8.60199,-8.602 8.60199,-22.5113 0,-31.11329 -4.30099,-4.30099 -9.92844,-6.45281 -15.55664,-6.45312 z m -5.73633,2.08594 7.29297,4.33203 c 0,0 -5.5028,9.50327 -5.37305,9.49609 0.12974,-0.007 2.82902,-1.41675 5.99805,-3.13281 3.16902,-1.71607 5.86522,-3.125 5.86524,-3.125 l 5.64062,5.01367 c 0,0 -0.88475,0.5418 -1.96484,1.07617 l -1.96289,0.97071 1.28711,0.28711 c 2.79808,0.62636 5.7751,2.48887 7.70703,4.82031 0.60756,0.73319 1.17578,1.63867 1.17578,1.63867 l -3.7461,2.72656 -1.49023,-1.3418 c -1.25697,-1.13159 -1.69685,-1.39082 -2.79883,-1.64843 -2.25681,-0.52757 -4.31314,0.52955 -5.60742,2.88476 -0.82085,1.49371 -0.93527,3.71759 -0.25977,5.0586 0.61261,1.21615 2.07171,2.28578 3.75977,2.75586 l 1.42773,0.39648 -0.33593,4.91016 -0.64844,-0.11719 c -2.22172,-0.40206 -4.08362,-0.9929 -5.50781,-1.74805 -0.89703,-0.47564 -1.97071,-1.03711 -1.97071,-1.03711 0,0 -0.31672,0.15933 -0.2539,1.07813 0.047,0.68883 0.0245,1.24909 -0.0508,1.24609 -0.0753,-0.003 -8.37696,-3.13281 -8.37696,-3.13281 l 0.002,-7.9668 c 10e-4,-4.382 -0.0484,-7.96679 -0.11133,-7.96679 -0.0629,0 -6.96289,11.04101 -6.96289,11.04101 l -6.86914,-3.98437 z m 43.31445,19.38671 10.7793,7.5918 c 0.002,0 -23.81877,33.95839 -43.47656,25.76367 13.27197,-10.36694 25.22611,-24.02768 32.69726,-33.35547 z"
       style="fill:#f49600;fill-opacity:1;stroke-width:1.53949332"
       inkscape:connector-curvature="0" />
  </g>
  <style
     id="style1012"
     type="text/css">
	.st0{fill:#176D8A;}
	.st1{fill:#B65F1E;}
</style>
  <g
     id="g1098"
     transform="translate(7.3650724,-1.0583332)">
    <text
       id="text973"
       y="20.763708"
       x="108.77869"
       style="font-style:normal;font-variant:normal;font-weight:normal;font-stretch:normal;font-size:14.11110973px;line-height:1;font-family:Quicksand;-inkscape-font-specification:'Quicksand, Normal';font-variant-ligatures:normal;font-variant-position:normal;font-variant-caps:normal;font-variant-numeric:normal;font-variant-alternates:normal;font-feature-settings:normal;text-indent:0;text-align:center;text-decoration:none;text-decoration-line:none;text-decoration-style:solid;text-decoration-color:#000000;letter-spacing:0px;word-spacing:0px;text-transform:none;writing-mode:lr-tb;direction:ltr;text-orientation:mixed;dominant-baseline:auto;baseline-shift:baseline;text-anchor:middle;white-space:normal;shape-padding:0;opacity:1;vector-effect:none;fill:#555555;fill-opacity:1;stroke:none;stroke-width:0.71912855px;stroke-linecap:butt;stroke-linejoin:miter;stroke-miterlimit:4;stroke-dasharray:none;stroke-dashoffset:0;stroke-opacity:1"
       xml:space="preserve"><tspan
         style="font-size:14.11110973px;stroke-width:0.71912855px"
         y="20.763708"
         x="108.77869"
         id="tspan971"
         sodipodi:role="line">Hoe Zit Het? is prijswinnaar bij</tspan></text>
    <g
       transform="matrix(0.20836984,0,0,0.20836984,212.15978,10.103083)"
       id="g1053">
      <path
         style="fill:#176d8a"
         inkscape:connector-curvature="0"
         class="st0"
         d="m 11.3,31.5 -3,3.6 V 51.5 H 0 V 4.6 H 8.3 V 22.1 L 23,4.6 h 10.8 l -16.7,20 c 0.7,1.9 2.5,4.6 5,7.5 2.4,2.8 5.4,5.8 8.4,8.2 2.9,2.4 5.8,4.1 8.1,4.6 l 0.1,0.4 -4.3,7 c -2.1,0 -5,-1.5 -8.1,-3.7 -3.1,-2.2 -6.2,-5.1 -8.9,-8.2 -2.7,-3 -4.9,-6 -5.9,-8.4 z"
         id="path1014" />
      <path
         style="fill:#b65f1e"
         inkscape:connector-curvature="0"
         class="st1"
         d="M 50.9,0 H 52 V 51.4 H 43.7 V 0.7 Z"
         id="path1016" />
      <path
         style="fill:#b65f1e"
         inkscape:connector-curvature="0"
         class="st1"
         d="m 89,52.1 c -2.7,0 -5.5,-0.9 -8.3,-3.9 -1.5,1.1 -2.7,2.1 -4.3,2.7 -1.6,0.7 -3.3,1.1 -5.7,1.1 -2.6,0 -5.6,-0.5 -7.9,-2.2 -2.4,-1.7 -4.2,-4.6 -4.2,-9.5 0,-3.2 0.8,-5.8 2.8,-7.6 2,-1.7 5.2,-2.7 10.2,-2.7 2,0 4.3,0 7.6,0.3 v -1.8 c 0,-2.6 -0.8,-4.3 -2.1,-5.4 C 75.8,22 74,21.6 72,21.6 c -3.2,0 -6.9,1.1 -9.9,2.5 l -2,-7.2 c 3.9,-1.8 8.8,-3.1 13.5,-3.1 3.7,0 7.1,0.8 9.6,2.7 2.5,1.9 4.1,4.9 4.1,9.4 v 13.7 c 0,1.7 0.6,2.9 1.6,3.8 1,0.9 2.3,1.4 3.9,1.7 z M 79.1,36.5 c -3.9,0 -6.9,-0.1 -8.9,0.4 -2.1,0.5 -3.2,1.6 -3.2,3.7 0,3 2.2,4.7 5.2,4.7 1,0 2.8,-0.2 4.3,-1.1 1.5,-0.9 2.7,-2.6 2.7,-5.5 z"
         id="path1018" />
      <path
         style="fill:#b65f1e"
         inkscape:connector-curvature="0"
         class="st1"
         d="m 95.1,41.8 0.3,-0.2 c 1,0.6 2.5,1.2 4,1.7 1.6,0.5 3.3,0.9 5.1,0.9 1.5,0 3,-0.3 4.2,-1 1.1,-0.7 1.9,-1.7 1.9,-3.3 0,-2.4 -1.7,-3.5 -4,-4.3 -1.2,-0.4 -2.4,-0.9 -3.7,-1.2 -2.7,-0.8 -5.1,-2.2 -6.6,-4.6 -0.8,-1.2 -1.2,-2.8 -1.2,-4.9 0,-3.9 1.5,-6.6 3.9,-8.4 2.3,-1.8 5.5,-2.6 8.9,-2.6 2.8,0 6,0.6 8.2,1.4 v 7.5 l -0.4,0.3 c -2,-1 -3.9,-1.5 -6.4,-1.5 -1.6,0 -3,0.2 -4.1,0.8 -1.1,0.5 -1.8,1.3 -1.8,2.5 0,1.7 1.7,2.6 4,3.4 l 3.7,1.3 c 2.7,0.9 5,2.5 6.5,5.1 0.7,1.3 1.1,3.1 1.1,5.2 0,4.3 -1.7,7.4 -4.3,9.3 -2.6,2 -6.2,3 -9.8,3 -3.7,0 -7,-0.9 -9.5,-2.5 0,0 0,-7.9 0,-7.9 z"
         id="path1020" />
      <path
         style="fill:#176d8a"
         inkscape:connector-curvature="0"
         class="st0"
         d="m 159.2,42.8 v 7.9 c -3.4,1 -7.9,1.5 -11.7,1.5 -8.2,0 -14.4,-2.6 -18.6,-7 -4.2,-4.4 -6.2,-10.6 -6.2,-17.9 0.1,-6.5 2.2,-12.3 6.3,-16.5 4.1,-4.2 10.2,-6.8 18.6,-6.8 3.8,0 8.2,0.5 11.7,1.5 v 7.9 l -0.3,0.1 c -3.4,-1 -7.2,-1.5 -10.2,-1.5 -6.1,0 -10.5,2 -13.3,5 -2.8,3 -4.1,7 -4.1,11.1 0,4 1.2,8.1 4.1,11 2.8,3 7.1,5 13.3,5 3,0 6.9,-0.5 10.3,-1.5 z"
         id="path1022" />
      <path
         style="fill:#b65f1e"
         inkscape:connector-curvature="0"
         class="st1"
         d="m 193.6,41.8 v 8.1 c -3.3,1.6 -7.3,2.2 -10.5,2.2 -5.1,0 -9.8,-1.6 -13.3,-4.8 -3.5,-3.2 -5.7,-8 -5.7,-14.4 0,-6.2 2.1,-11 5.2,-14.2 3.1,-3.2 7.2,-4.9 11.4,-4.9 1.2,0 3.3,0.1 5.4,0.9 2.2,0.8 4.5,2.2 6.3,4.6 1.8,2.4 3,6.1 3,11.2 V 36 H 173 c 0.7,3 2.2,5 4.2,6.3 2,1.3 4.3,1.8 6.7,1.8 3.1,0 6.4,-0.9 9.3,-2.4 z m -5.7,-12.3 c -0.2,-2.7 -1.1,-4.6 -2.4,-5.9 -1.3,-1.2 -2.9,-1.8 -4.5,-1.8 -1.7,0 -3.4,0.6 -4.9,1.8 -1.5,1.3 -2.6,3.2 -3.1,5.9 z"
         id="path1024" />
      <path
         style="fill:#b65f1e"
         inkscape:connector-curvature="0"
         class="st1"
         d="m 202.1,14.5 h 7 l 0.7,2.6 c 3,-2.1 6.4,-3.3 9.7,-3.3 3.5,0 6.9,1.4 9,4.3 3.3,-2.8 7.4,-4.3 11.2,-4.3 3.1,0 6,1 8.1,3.1 2.1,2.1 3.5,5.4 3.5,10 V 51.4 H 243 V 29.2 c 0,-2.7 -0.7,-4.5 -1.8,-5.7 -1.2,-1.2 -2.7,-1.7 -4.4,-1.7 -2.1,0 -4.2,0.7 -6.2,1.9 0.1,1 0.2,1.9 0.2,3 v 24.7 h -8.3 V 29.2 c 0,-2.7 -0.7,-4.5 -1.8,-5.7 -1.1,-1.1 -2.6,-1.7 -4.3,-1.7 -2,0 -4.2,0.8 -6.2,2.1 v 27.5 h -8.3 V 14.5 Z"
         id="path1026" />
      <path
         style="fill:#b65f1e"
         inkscape:connector-curvature="0"
         class="st1"
         d="m 287.3,41.8 v 8.1 c -3.3,1.6 -7.3,2.2 -10.5,2.2 -5.1,0 -9.8,-1.6 -13.3,-4.8 -3.5,-3.2 -5.7,-8 -5.7,-14.4 0,-6.2 2.1,-11 5.2,-14.2 3.1,-3.2 7.2,-4.9 11.4,-4.9 1.2,0 3.3,0.1 5.4,0.9 2.2,0.8 4.5,2.2 6.3,4.6 1.8,2.4 3,6.1 3,11.2 V 36 h -22.4 c 0.7,3 2.2,5 4.2,6.3 2,1.3 4.3,1.8 6.7,1.8 3.1,0 6.4,-0.9 9.3,-2.4 z m -5.8,-12.3 c -0.2,-2.7 -1.1,-4.6 -2.4,-5.9 -1.3,-1.2 -2.9,-1.8 -4.5,-1.8 -1.7,0 -3.4,0.6 -4.9,1.8 -1.5,1.3 -2.6,3.2 -3.1,5.9 z"
         id="path1028" />
      <path
         style="fill:#b65f1e"
         inkscape:connector-curvature="0"
         class="st1"
         d="m 295.7,14.5 h 7 l 0.8,2.9 c 3.4,-2.3 7.6,-3.6 11.8,-3.6 3.5,0 6.9,1 9.3,3.1 2.4,2.1 4,5.4 4,10 v 24.5 h -8.3 v -22 c 0,-2.7 -1,-4.7 -2.5,-5.9 -1.5,-1.2 -3.6,-1.7 -5.8,-1.7 -2.8,0 -5.8,0.9 -8,2.3 v 27.3 h -8.3 z"
         id="path1030" />
      <path
         style="fill:#b65f1e"
         inkscape:connector-curvature="0"
         class="st1"
         d="m 333.7,14.5 h 4.6 V 5.3 l 7.2,-0.7 h 1.1 v 9.9 h 11 v 8 h -11 v 12.6 c 0,2.7 0.1,5 0.9,6.5 0.8,1.6 2.5,2.5 5.5,2.5 1.2,0 2.6,-0.1 3.9,-0.4 1.3,-0.2 2.6,-0.5 3.6,-0.8 l 1.5,7.8 c -1.2,0.4 -3,0.7 -4.8,1 -1.8,0.3 -3.7,0.4 -5.1,0.4 -3.5,0 -7,-0.9 -9.5,-3.2 C 340,46.6 338.4,43 338.4,37.7 V 22.5 h -4.6 v -8 z"
         id="path1032" />
    </g>
    <text
       id="text973-9"
       y="20.763708"
       x="290.28293"
       style="font-style:normal;font-variant:normal;font-weight:normal;font-stretch:normal;font-size:14.11110973px;line-height:1;font-family:Quicksand;-inkscape-font-specification:'Quicksand, Normal';font-variant-ligatures:normal;font-variant-position:normal;font-variant-caps:normal;font-variant-numeric:normal;font-variant-alternates:normal;font-feature-settings:normal;text-indent:0;text-align:center;text-decoration:none;text-decoration-line:none;text-decoration-style:solid;text-decoration-color:#000000;letter-spacing:0px;word-spacing:0px;text-transform:none;writing-mode:lr-tb;direction:ltr;text-orientation:mixed;dominant-baseline:auto;baseline-shift:baseline;text-anchor:middle;white-space:normal;shape-padding:0;opacity:1;vector-effect:none;fill:#555555;fill-opacity:1;stroke:none;stroke-width:0.71912855px;stroke-linecap:butt;stroke-linejoin:miter;stroke-miterlimit:4;stroke-dasharray:none;stroke-dashoffset:0;stroke-opacity:1"
       xml:space="preserve"><tspan
         style="font-size:14.11110973px;stroke-width:0.71912855px"
         y="20.763708"
         x="290.28293"
         id="tspan971-3"
         sodipodi:role="line">!</tspan></text>
  </g>
  <g
     id="g5121"
     transform="matrix(1.1561658,0,0,1.1561658,-14.915128,-9.3097299)">
    <path
       inkscape:connector-curvature="0"
       d="m 76.228632,103.50002 -7.797119,7.93646 c -0.883986,0.89975 -0.871421,2.3461 0.02878,3.23009 0.444505,0.43696 1.022866,0.65487 1.600769,0.65487 0.591378,0 1.182301,-0.22818 1.629547,-0.6832 l 6.650677,-6.76968 -1.751753,-3.06494 c -0.232987,-0.40796 -0.351308,-0.85589 -0.360901,-1.3036 z"
       id="path1712"
       style="fill:#000000;stroke-width:0.22842005" />
    <path
       inkscape:connector-curvature="0"
       d="m 54.696159,103.3351 2.615181,0.74899 -2.381735,7.47756 c -0.478541,1.50232 0.351538,3.10834 1.854314,3.58688 0.288265,0.0918 0.580186,0.13568 0.86731,0.13568 1.209713,0 2.332854,-0.77548 2.719569,-1.98931 l 3.273945,-10.2789 c 0.234587,-0.73757 0.161721,-1.5327 -0.20375,-2.21476 -0.365017,-0.6816 -0.986547,-1.183669 -1.730283,-1.396329 l -9.322964,-2.67114 c -0.245323,0.56716 -0.463921,1.13958 -0.642545,1.71406 z"
       id="path1714"
       style="fill:#000000;stroke-width:0.22842005" />
    <path
       inkscape:connector-curvature="0"
       d="m 92.215062,64.403651 c -0.74625,0.127458 -1.2474,0.835789 -1.11994,1.582037 0.26474,1.548688 0.37598,2.910757 0.37598,4.104937 -0.007,3.676192 -1.02949,5.745678 -1.96076,6.942142 -0.4694,0.597318 -0.92693,0.975353 -1.25106,1.199662 -0.16172,0.111926 -0.290088,0.184563 -0.367751,0.225679 -0.03792,0.01987 -0.0635,0.03198 -0.07607,0.03769 -0.696452,0.285068 -1.033372,1.078143 -0.753557,1.778022 0.214257,0.535645 0.72866,0.8616 1.272758,0.8616 0.16972,0 0.34194,-0.03175 0.50915,-0.09868 h -5.3e-4 c 0.15601,-0.06236 1.50369,-0.633866 2.82236,-2.311383 1.32255,-1.67272 2.5535,-4.440714 2.54642,-8.634963 0,-1.364124 -0.127,-2.880833 -0.41504,-4.566802 -0.12791,-0.746248 -0.83579,-1.247401 -1.58203,-1.119943 z"
       id="path1716"
       style="fill:#000000;stroke-width:0.22842005" />
    <path
       inkscape:connector-curvature="0"
       d="m 68.993199,88.901011 c -0.942692,0 -1.741932,-0.73711 -1.819137,-1.6782 -0.05505,-0.67087 0.262453,-1.28646 0.777769,-1.646678 l -5.616392,2.246278 -5.782453,-3.408251 c -0.163092,-0.209689 -0.356107,-0.39745 -0.587725,-0.550949 -1.224331,-0.811805 -3.188287,-1.037484 -5.017931,-0.05162 1.255853,0.18502 2.14395,0.452729 2.478357,0.563512 l 0.003,9.26e-4 0.02216,0.0071 c 0.576532,0.200324 1.040225,0.612851 1.306334,1.161972 0.265653,0.54912 0.301971,1.16905 0.101419,1.74559 -0.318875,0.91824 -1.1855,1.53475 -2.156971,1.53475 -0.255145,0 -0.507549,-0.0425 -0.750131,-0.127 l -0.03358,-0.011 c -0.02695,-0.008 -0.08543,-0.0263 -0.165148,-0.0489 -0.153269,-0.0429 -0.407273,-0.10942 -0.744421,-0.17931 -0.599145,-0.12403 -1.545033,-0.27228 -2.650586,-0.27159 -0.51897,0 -1.023093,0.034 -1.513282,0.0973 -1.101214,1.65993 -1.8767,3.30798 -2.534778,5.377 -0.228648,0.71861 -0.443592,1.48656 -0.653053,2.32555 -0.451586,2.71774 0.804039,4.038469 2.306586,4.815089 l 2.700838,4.47452 -8.973938,4.52569 c -1.408438,0.71016 -1.974463,2.42696 -1.264076,3.83517 0.502067,0.99569 1.5078,1.57062 2.55168,1.57062 0.432171,0 0.870965,-0.0984 1.283035,-0.30654 l 11.72591,-5.91337 c 0.70993,-0.35771 1.238265,-0.99546 1.458462,-1.75975 0.21974,-0.76384 0.111012,-1.58478 -0.299687,-2.26547 l -3.896388,-6.453719 c 0.436054,-1.47628 1.128852,-2.94342 1.899085,-4.32833 0.986774,-1.77483 2.101007,-3.41511 2.966491,-4.76873 0.179538,-0.23161 0.336462,-0.47922 0.472144,-0.73619 l 4.665936,2.75063 c 0.285525,0.16812 0.605542,0.25332 0.927385,0.25332 0.229334,0 0.459582,-0.0432 0.678865,-0.13089 l 6.746157,-2.69832 c -0.153498,0.0144 -0.304254,0.0306 -0.460724,0.0432 -0.04911,0.004 -0.100504,0.007 -0.151212,0.007 z"
       id="path1718"
       style="fill:#000000;stroke-width:0.22842005" />
    <path
       inkscape:connector-curvature="0"
       d="m 70.093726,85.124547 c -0.372782,-0.10416 -0.780968,-0.09297 -1.167911,0.0619 l -0.207407,0.08292 c 0.04226,-0.0064 0.08429,-0.01348 0.127688,-0.0169 0.428744,-0.03518 0.84287,-0.07903 1.24763,-0.127915 z"
       id="path1720"
       style="fill:#000000;stroke-width:0.22842005" />
    <ellipse
       transform="rotate(-76.890715)"
       cx="-62.517525"
       cy="74.568398"
       rx="5.1378732"
       ry="5.1381021"
       id="ellipse1722"
       style="fill:#000000;stroke-width:0.22841084" />
    <path
       inkscape:connector-curvature="0"
       id="path1528-3-0-7-1-8"
       d="m 56.013731,98.729202 c 1.850477,-1.609906 0.672023,-4.906231 1.181949,-6.856488 0.509925,-1.950257 3.005748,-7.598546 -3.241877,-9.060643 -6.247625,-1.462097 -10.776108,11.465557 -10.917679,14.471698 -0.141572,3.006141 6.835681,6.788881 12.977607,1.445433 z"
       style="fill:url(#pattern13509-9);fill-opacity:1;stroke:#f4f4f4;stroke-width:0.82796293;stroke-miterlimit:4;stroke-dasharray:none;paint-order:markers stroke fill"
       sodipodi:nodetypes="szzzs" />
    <path
       inkscape:connector-curvature="0"
       d="m 51.877913,88.199311 c 0.08634,0.0244 0.149843,0.0439 0.18799,0.0562 0.0169,0.005 0.02878,0.009 0.0354,0.011 l -2.29e-4,2.3e-4 c 0.953197,0.33143 1.994564,-0.17292 2.325773,-1.12611 0.331438,-0.95366 -0.172914,-1.994796 -1.126111,-2.325777 v -4.5e-4 c -0.123575,-0.03952 -2.125448,-0.73437 -4.943238,-0.738482 -1.707897,4.5e-4 -3.728272,0.261541 -5.773088,1.135933 -2.043446,0.869826 -4.092602,2.374656 -5.761667,4.721896 -0.586355,0.82163 -0.395395,1.96282 0.426231,2.54872 0.321844,0.22956 0.69257,0.33988 1.059869,0.33988 0.570594,0 1.132507,-0.26633 1.489299,-0.76612 1.293771,-1.8068 2.746294,-2.84703 4.224629,-3.485 1.476279,-0.63295 2.998013,-0.84082 4.334955,-0.84036 1.100071,-4.5e-4 2.06743,0.14094 2.743325,0.28096 0.338062,0.0697 0.603486,0.13842 0.776857,0.18753 z"
       id="path1724"
       style="fill:#000000;stroke:#f4f4f4;stroke-width:0.72213602;stroke-miterlimit:4;stroke-dasharray:none;paint-order:markers stroke fill" />
    <path
       inkscape:connector-curvature="0"
       d="m 81.959689,104.07199 c -1.913017,-0.66471 -4.145822,-0.95617 -5.228306,-1.06581 -0.102788,0.52719 -0.02262,1.08545 0.25469,1.57084 l 5.482537,9.59342 c 0.421436,0.73779 1.192352,1.15146 1.985197,1.15146 0.384205,0 0.773661,-0.0971 1.130909,-0.30106 1.095274,-0.62587 1.475822,-2.02128 0.84995,-3.11633 z"
       id="path1726"
       style="fill:#000000;stroke-width:0.22842005" />
    <path
       inkscape:connector-curvature="0"
       d="m 91.875172,94.364141 c -0.30471,-3.95921 -2.53523,-4.58005 -2.53523,-4.58005 l -0.0386,-0.002 c -3.094408,-4.310519 -1.28601,-6.330894 -2.337194,-9.237311 -0.613537,-1.697161 -1.239636,-2.339935 -2.056238,-2.461683 -1.794696,-0.267251 -3.197424,-4.49e-4 -4.593754,2.400695 -0.332581,0.506179 -0.6028,1.072889 -0.802442,1.665182 0.887185,-0.534731 1.381258,-0.955938 1.512599,-1.073574 0.343086,-0.330752 0.794444,-0.513488 1.271614,-0.513488 0.495671,0 0.959363,0.195299 1.30565,0.549807 0.34126,0.34834 0.52628,0.809064 0.521025,1.297654 -0.0057,0.488134 -0.200554,0.944745 -0.549351,1.286462 -0.01828,0.01896 -1.279607,1.285776 -4.009456,2.579546 0.420293,0.84653 1.122,1.35088 1.958702,1.39747 0.570365,1.82874 0.861142,2.97746 1.002078,3.79246 -0.09365,0.97787 -0.340344,2.17365 -0.928526,3.29884 -1.313416,2.51262 -6.966812,7.614159 -6.966812,7.614159 0,0 0.725233,0.0324 1.764773,0.12677 1.621097,0.14756 4.008771,0.44702 5.620962,1.0151 1.661069,0.58567 9.50204,-4.745659 9.8513,-8.676079 0.0146,-0.16218 0.021,-0.32276 0.009,-0.47968 z"
       id="path1730"
       style="fill:#000000;stroke-width:0.22842005" />
    <path
       style="opacity:1;fill:#357edd;fill-opacity:1;fill-rule:nonzero;stroke:#f4f4f4;stroke-width:0.82796293;stroke-miterlimit:4;stroke-dasharray:none;paint-order:markers stroke fill"
       d="m 74.046846,104.28801 c 1.178863,-8.980944 5.224925,-9.027865 4.440839,-12.26002 -0.784086,-3.232155 -0.580435,-6.733857 -0.499032,-7.951213 0.212248,-3.174002 3.350763,-5.695324 4.797726,-6.021928 4.262249,-0.962061 5.892387,2.115643 6.986215,6.6259 1.185071,4.886483 3.238962,6.870204 2.187773,11.165768 -0.669137,2.734352 -3.312018,9.594923 -4.452069,9.594923 0,0 -8.112172,1.12204 -13.461455,-1.15343 z"
       id="path4113-1-7"
       inkscape:connector-curvature="0"
       sodipodi:nodetypes="czssssccc" />
    <path
       sodipodi:nodetypes="zccccsccz"
       inkscape:connector-curvature="0"
       d="m 83.27516,81.430995 c -0.495262,-0.506632 -1.391533,-0.550493 -1.933117,-0.02627 v 0 c -0.07858,0.06579 -3.807991,3.589392 -12.458945,4.303205 -0.754242,0.06167 -1.315699,0.723631 -1.254024,1.477881 0.05893,0.71609 0.658307,1.25836 1.364125,1.25836 0.03769,0 0.0756,-0.002 0.11398,-0.005 9.649147,-0.78576 13.983419,-4.901664 14.146968,-5.070466 0.540671,-0.529706 0.516275,-1.431078 0.02101,-1.93771 z"
       id="path1732"
       style="fill:#000000;stroke:#f4f4f4;stroke-width:0.82796293;stroke-miterlimit:4;stroke-dasharray:none;paint-order:markers stroke fill" />
    <path
       style="fill:#000000;fill-opacity:1;stroke-width:0.20399936"
       id="path4117-5-4"
       d="m 80.745245,68.470609 c 0.331865,-0.447735 0.824353,-0.778303 1.415254,-0.890167 1.245328,-0.235752 2.446068,0.582729 2.681822,1.828059 0.150339,0.794145 -0.129215,1.56897 -0.673749,2.088126 -0.255042,-0.64206 -0.64156,-1.230581 -1.147898,-1.730399 -0.642225,-0.634168 -1.424295,-1.074724 -2.27543,-1.29562 z"
       inkscape:connector-curvature="0" />
    <circle
       transform="scale(-1,1)"
       style="opacity:1;vector-effect:none;fill:#000000;fill-opacity:1;stroke:none;stroke-width:0.50998032;stroke-linecap:butt;stroke-linejoin:bevel;stroke-miterlimit:4;stroke-dasharray:none;stroke-dashoffset:0;stroke-opacity:1;paint-order:markers stroke fill"
       id="path6312-1-9"
       cx="-79.46611"
       cy="73.365448"
       r="4.5898232" />
    <g
       id="g3567-2-2"
       transform="matrix(0.14662216,0,0,0.14662216,64.382298,98.155563)">
      <path
         id="path3558-1-4"
         d="m 85.88079,26.03675 c 1.142906,0 2.085302,0.942396 2.085302,2.085302 0,1.142906 -0.942396,2.085302 -2.085302,2.085302 -1.142906,0 -2.085302,-0.942396 -2.085302,-2.085302 0,-1.162958 0.922344,-2.085302 2.085302,-2.085302 z"
         style="fill:#ffb700;stroke-width:0.20050988"
         inkscape:connector-curvature="0" />
      <path
         id="path3556-9-4"
         d="m 81.469572,31.410414 2.285812,-1.283264 c 0.40102,0.421072 0.922346,0.721836 1.503826,0.842142 l -0.0401,2.366016 c -0.02004,1.543926 -0.902296,2.927444 -2.62668,2.927444 -1.42362,0 -2.586578,-1.122854 -2.586578,-2.566526 0,-1.22311 0.822092,-1.944946 1.46372,-2.285812 z"
         style="fill:#f4f4f4;stroke-width:0.20050988"
         inkscape:connector-curvature="0" />
      <path
         id="path3554-96-5"
         d="m 86.482318,25.25476 0.02006,-2.486322 c 0.02004,-1.563976 0.922346,-2.827188 2.586578,-2.827188 1.44367,0 2.566526,1.183008 2.566526,2.566526 0,1.263212 -0.681734,1.884792 -1.784538,2.546476 l -1.82464,1.082752 c -0.40102,-0.441122 -0.942396,-0.761938 -1.563978,-0.882244 z"
         style="fill:#f4f4f4;stroke-width:0.20050988"
         inkscape:connector-curvature="0" />
      <path
         id="path3552-0-9"
         d="m 82.63253,19.981352 c 1.804588,0 2.62668,1.403568 2.62668,3.04775 l -0.02006,2.225658 c -0.62158,0.14036 -1.162956,0.461174 -1.563976,0.922346 l -1.884786,-1.102804 c -1.122854,-0.681734 -1.724384,-1.363466 -1.724384,-2.526424 0,-1.463722 1.122854,-2.566526 2.566526,-2.566526 z"
         style="fill:#f4f4f4;stroke-width:0.20050988"
         inkscape:connector-curvature="0" />
      <path
         id="path3550-6-1"
         d="m 88.667876,27.219758 2.325914,-1.243162 c 0.501276,-0.260662 1.00255,-0.40102 1.443672,-0.40102 1.383518,0 2.486322,1.243162 2.486322,2.606628 0,1.303314 -1.102804,2.566528 -2.466272,2.566528 -0.501274,0 -1.102804,-0.1604 -1.704332,-0.521326 l -2.105354,-1.22311 c 0.0802,-0.280714 0.14036,-0.58148 0.14036,-0.902294 0.02004,-0.300766 -0.02004,-0.60153 -0.1203,-0.882244 z"
         style="fill:#f4f4f4;stroke-width:0.20050988"
         inkscape:connector-curvature="0" />
      <path
         id="path3548-4-2"
         d="m 79.344168,25.575576 c 0.481224,0 1.0226,0.14036 1.62413,0.501276 l 2.085302,1.24316 c -0.0802,0.260664 -0.1203,0.521326 -0.1203,0.80204 0,0.300764 0.0401,0.60153 0.14036,0.882244 L 80.848,30.32766 c -0.501274,0.280714 -1.00255,0.40102 -1.463722,0.40102 -1.443672,0 -2.566526,-1.162956 -2.566526,-2.566526 0.02004,-1.323366 1.102804,-2.586578 2.526424,-2.586578 z"
         style="fill:#f4f4f4;stroke-width:0.20050988"
         inkscape:connector-curvature="0" />
      <path
         id="path3509-99-8"
         d="m 88.006194,30.147202 2.105354,1.203058 c 1.062702,0.621582 1.563976,1.40357 1.563976,2.386068 0,1.483774 -1.162956,2.586578 -2.566526,2.586578 -1.724384,0 -2.586578,-1.323366 -2.586578,-2.947496 l 0.0401,-2.386066 c 0.561428,-0.1604 1.062704,-0.441122 1.443674,-0.842142 z"
         style="fill:#f4f4f4;stroke-width:0.20050988"
         inkscape:connector-curvature="0" />
    </g>
    <g
       id="g3567-2-2-5"
       transform="matrix(0.14662216,0,0,0.14662216,67.456374,91.506588)">
      <path
         id="path3558-1-4-4"
         d="m 85.88079,26.03675 c 1.142906,0 2.085302,0.942396 2.085302,2.085302 0,1.142906 -0.942396,2.085302 -2.085302,2.085302 -1.142906,0 -2.085302,-0.942396 -2.085302,-2.085302 0,-1.162958 0.922344,-2.085302 2.085302,-2.085302 z"
         style="fill:#ffb700;stroke-width:0.20050988"
         inkscape:connector-curvature="0" />
      <path
         id="path3556-9-4-6"
         d="m 81.469572,31.410414 2.285812,-1.283264 c 0.40102,0.421072 0.922346,0.721836 1.503826,0.842142 l -0.0401,2.366016 c -0.02004,1.543926 -0.902296,2.927444 -2.62668,2.927444 -1.42362,0 -2.586578,-1.122854 -2.586578,-2.566526 0,-1.22311 0.822092,-1.944946 1.46372,-2.285812 z"
         style="fill:#f4f4f4;stroke-width:0.20050988"
         inkscape:connector-curvature="0" />
      <path
         id="path3554-96-5-6"
         d="m 86.482318,25.25476 0.02006,-2.486322 c 0.02004,-1.563976 0.922346,-2.827188 2.586578,-2.827188 1.44367,0 2.566526,1.183008 2.566526,2.566526 0,1.263212 -0.681734,1.884792 -1.784538,2.546476 l -1.82464,1.082752 c -0.40102,-0.441122 -0.942396,-0.761938 -1.563978,-0.882244 z"
         style="fill:#f4f4f4;stroke-width:0.20050988"
         inkscape:connector-curvature="0" />
      <path
         id="path3552-0-9-3"
         d="m 82.63253,19.981352 c 1.804588,0 2.62668,1.403568 2.62668,3.04775 l -0.02006,2.225658 c -0.62158,0.14036 -1.162956,0.461174 -1.563976,0.922346 l -1.884786,-1.102804 c -1.122854,-0.681734 -1.724384,-1.363466 -1.724384,-2.526424 0,-1.463722 1.122854,-2.566526 2.566526,-2.566526 z"
         style="fill:#f4f4f4;stroke-width:0.20050988"
         inkscape:connector-curvature="0" />
      <path
         id="path3550-6-1-9"
         d="m 88.667876,27.219758 2.325914,-1.243162 c 0.501276,-0.260662 1.00255,-0.40102 1.443672,-0.40102 1.383518,0 2.486322,1.243162 2.486322,2.606628 0,1.303314 -1.102804,2.566528 -2.466272,2.566528 -0.501274,0 -1.102804,-0.1604 -1.704332,-0.521326 l -2.105354,-1.22311 c 0.0802,-0.280714 0.14036,-0.58148 0.14036,-0.902294 0.02004,-0.300766 -0.02004,-0.60153 -0.1203,-0.882244 z"
         style="fill:#f4f4f4;stroke-width:0.20050988"
         inkscape:connector-curvature="0" />
      <path
         id="path3548-4-2-9"
         d="m 79.344168,25.575576 c 0.481224,0 1.0226,0.14036 1.62413,0.501276 l 2.085302,1.24316 c -0.0802,0.260664 -0.1203,0.521326 -0.1203,0.80204 0,0.300764 0.0401,0.60153 0.14036,0.882244 L 80.848,30.32766 c -0.501274,0.280714 -1.00255,0.40102 -1.463722,0.40102 -1.443672,0 -2.566526,-1.162956 -2.566526,-2.566526 0.02004,-1.323366 1.102804,-2.586578 2.526424,-2.586578 z"
         style="fill:#f4f4f4;stroke-width:0.20050988"
         inkscape:connector-curvature="0" />
      <path
         id="path3509-99-8-5"
         d="m 88.006194,30.147202 2.105354,1.203058 c 1.062702,0.621582 1.563976,1.40357 1.563976,2.386068 0,1.483774 -1.162956,2.586578 -2.566526,2.586578 -1.724384,0 -2.586578,-1.323366 -2.586578,-2.947496 l 0.0401,-2.386066 c 0.561428,-0.1604 1.062704,-0.441122 1.443674,-0.842142 z"
         style="fill:#f4f4f4;stroke-width:0.20050988"
         inkscape:connector-curvature="0" />
    </g>
    <g
       id="g3567-2-2-2"
       transform="matrix(0.14662216,0,0,0.14662216,74.627441,97.116128)">
      <path
         id="path3558-1-4-1"
         d="m 85.88079,26.03675 c 1.142906,0 2.085302,0.942396 2.085302,2.085302 0,1.142906 -0.942396,2.085302 -2.085302,2.085302 -1.142906,0 -2.085302,-0.942396 -2.085302,-2.085302 0,-1.162958 0.922344,-2.085302 2.085302,-2.085302 z"
         style="fill:#ffb700;stroke-width:0.20050988"
         inkscape:connector-curvature="0" />
      <path
         id="path3556-9-4-3"
         d="m 81.469572,31.410414 2.285812,-1.283264 c 0.40102,0.421072 0.922346,0.721836 1.503826,0.842142 l -0.0401,2.366016 c -0.02004,1.543926 -0.902296,2.927444 -2.62668,2.927444 -1.42362,0 -2.586578,-1.122854 -2.586578,-2.566526 0,-1.22311 0.822092,-1.944946 1.46372,-2.285812 z"
         style="fill:#f4f4f4;stroke-width:0.20050988"
         inkscape:connector-curvature="0" />
      <path
         id="path3554-96-5-0"
         d="m 86.482318,25.25476 0.02006,-2.486322 c 0.02004,-1.563976 0.922346,-2.827188 2.586578,-2.827188 1.44367,0 2.566526,1.183008 2.566526,2.566526 0,1.263212 -0.681734,1.884792 -1.784538,2.546476 l -1.82464,1.082752 c -0.40102,-0.441122 -0.942396,-0.761938 -1.563978,-0.882244 z"
         style="fill:#f4f4f4;stroke-width:0.20050988"
         inkscape:connector-curvature="0" />
      <path
         id="path3552-0-9-9"
         d="m 82.63253,19.981352 c 1.804588,0 2.62668,1.403568 2.62668,3.04775 l -0.02006,2.225658 c -0.62158,0.14036 -1.162956,0.461174 -1.563976,0.922346 l -1.884786,-1.102804 c -1.122854,-0.681734 -1.724384,-1.363466 -1.724384,-2.526424 0,-1.463722 1.122854,-2.566526 2.566526,-2.566526 z"
         style="fill:#f4f4f4;stroke-width:0.20050988"
         inkscape:connector-curvature="0" />
      <path
         id="path3550-6-1-91"
         d="m 88.667876,27.219758 2.325914,-1.243162 c 0.501276,-0.260662 1.00255,-0.40102 1.443672,-0.40102 1.383518,0 2.486322,1.243162 2.486322,2.606628 0,1.303314 -1.102804,2.566528 -2.466272,2.566528 -0.501274,0 -1.102804,-0.1604 -1.704332,-0.521326 l -2.105354,-1.22311 c 0.0802,-0.280714 0.14036,-0.58148 0.14036,-0.902294 0.02004,-0.300766 -0.02004,-0.60153 -0.1203,-0.882244 z"
         style="fill:#f4f4f4;stroke-width:0.20050988"
         inkscape:connector-curvature="0" />
      <path
         id="path3548-4-2-3"
         d="m 79.344168,25.575576 c 0.481224,0 1.0226,0.14036 1.62413,0.501276 l 2.085302,1.24316 c -0.0802,0.260664 -0.1203,0.521326 -0.1203,0.80204 0,0.300764 0.0401,0.60153 0.14036,0.882244 L 80.848,30.32766 c -0.501274,0.280714 -1.00255,0.40102 -1.463722,0.40102 -1.443672,0 -2.566526,-1.162956 -2.566526,-2.566526 0.02004,-1.323366 1.102804,-2.586578 2.526424,-2.586578 z"
         style="fill:#f4f4f4;stroke-width:0.20050988"
         inkscape:connector-curvature="0" />
      <path
         id="path3509-99-8-4"
         d="m 88.006194,30.147202 2.105354,1.203058 c 1.062702,0.621582 1.563976,1.40357 1.563976,2.386068 0,1.483774 -1.162956,2.586578 -2.566526,2.586578 -1.724384,0 -2.586578,-1.323366 -2.586578,-2.947496 l 0.0401,-2.386066 c 0.561428,-0.1604 1.062704,-0.441122 1.443674,-0.842142 z"
         style="fill:#f4f4f4;stroke-width:0.20050988"
         inkscape:connector-curvature="0" />
    </g>
    <g
       id="g3567-2-2-58"
       transform="matrix(0.14662216,0,0,0.14662216,76.044851,85.209879)">
      <path
         id="path3558-1-4-5"
         d="m 85.88079,26.03675 c 1.142906,0 2.085302,0.942396 2.085302,2.085302 0,1.142906 -0.942396,2.085302 -2.085302,2.085302 -1.142906,0 -2.085302,-0.942396 -2.085302,-2.085302 0,-1.162958 0.922344,-2.085302 2.085302,-2.085302 z"
         style="fill:#ffb700;stroke-width:0.20050988"
         inkscape:connector-curvature="0" />
      <path
         id="path3556-9-4-7"
         d="m 81.469572,31.410414 2.285812,-1.283264 c 0.40102,0.421072 0.922346,0.721836 1.503826,0.842142 l -0.0401,2.366016 c -0.02004,1.543926 -0.902296,2.927444 -2.62668,2.927444 -1.42362,0 -2.586578,-1.122854 -2.586578,-2.566526 0,-1.22311 0.822092,-1.944946 1.46372,-2.285812 z"
         style="fill:#f4f4f4;stroke-width:0.20050988"
         inkscape:connector-curvature="0" />
      <path
         id="path3554-96-5-3"
         d="m 86.482318,25.25476 0.02006,-2.486322 c 0.02004,-1.563976 0.922346,-2.827188 2.586578,-2.827188 1.44367,0 2.566526,1.183008 2.566526,2.566526 0,1.263212 -0.681734,1.884792 -1.784538,2.546476 l -1.82464,1.082752 c -0.40102,-0.441122 -0.942396,-0.761938 -1.563978,-0.882244 z"
         style="fill:#f4f4f4;stroke-width:0.20050988"
         inkscape:connector-curvature="0" />
      <path
         id="path3552-0-9-38"
         d="m 82.63253,19.981352 c 1.804588,0 2.62668,1.403568 2.62668,3.04775 l -0.02006,2.225658 c -0.62158,0.14036 -1.162956,0.461174 -1.563976,0.922346 l -1.884786,-1.102804 c -1.122854,-0.681734 -1.724384,-1.363466 -1.724384,-2.526424 0,-1.463722 1.122854,-2.566526 2.566526,-2.566526 z"
         style="fill:#f4f4f4;stroke-width:0.20050988"
         inkscape:connector-curvature="0" />
      <path
         id="path3550-6-1-95"
         d="m 88.667876,27.219758 2.325914,-1.243162 c 0.501276,-0.260662 1.00255,-0.40102 1.443672,-0.40102 1.383518,0 2.486322,1.243162 2.486322,2.606628 0,1.303314 -1.102804,2.566528 -2.466272,2.566528 -0.501274,0 -1.102804,-0.1604 -1.704332,-0.521326 l -2.105354,-1.22311 c 0.0802,-0.280714 0.14036,-0.58148 0.14036,-0.902294 0.02004,-0.300766 -0.02004,-0.60153 -0.1203,-0.882244 z"
         style="fill:#f4f4f4;stroke-width:0.20050988"
         inkscape:connector-curvature="0" />
      <path
         id="path3548-4-2-5"
         d="m 79.344168,25.575576 c 0.481224,0 1.0226,0.14036 1.62413,0.501276 l 2.085302,1.24316 c -0.0802,0.260664 -0.1203,0.521326 -0.1203,0.80204 0,0.300764 0.0401,0.60153 0.14036,0.882244 L 80.848,30.32766 c -0.501274,0.280714 -1.00255,0.40102 -1.463722,0.40102 -1.443672,0 -2.566526,-1.162956 -2.566526,-2.566526 0.02004,-1.323366 1.102804,-2.586578 2.526424,-2.586578 z"
         style="fill:#f4f4f4;stroke-width:0.20050988"
         inkscape:connector-curvature="0" />
      <path
         id="path3509-99-8-3"
         d="m 88.006194,30.147202 2.105354,1.203058 c 1.062702,0.621582 1.563976,1.40357 1.563976,2.386068 0,1.483774 -1.162956,2.586578 -2.566526,2.586578 -1.724384,0 -2.586578,-1.323366 -2.586578,-2.947496 l 0.0401,-2.386066 c 0.561428,-0.1604 1.062704,-0.441122 1.443674,-0.842142 z"
         style="fill:#f4f4f4;stroke-width:0.20050988"
         inkscape:connector-curvature="0" />
    </g>
    <g
       id="g3567-2-2-8"
       transform="matrix(0.14662216,0,0,0.14662216,73.021042,76.516427)">
      <path
         id="path3558-1-4-6"
         d="m 85.88079,26.03675 c 1.142906,0 2.085302,0.942396 2.085302,2.085302 0,1.142906 -0.942396,2.085302 -2.085302,2.085302 -1.142906,0 -2.085302,-0.942396 -2.085302,-2.085302 0,-1.162958 0.922344,-2.085302 2.085302,-2.085302 z"
         style="fill:#ffb700;stroke-width:0.20050988"
         inkscape:connector-curvature="0" />
      <path
         id="path3556-9-4-0"
         d="m 81.469572,31.410414 2.285812,-1.283264 c 0.40102,0.421072 0.922346,0.721836 1.503826,0.842142 l -0.0401,2.366016 c -0.02004,1.543926 -0.902296,2.927444 -2.62668,2.927444 -1.42362,0 -2.586578,-1.122854 -2.586578,-2.566526 0,-1.22311 0.822092,-1.944946 1.46372,-2.285812 z"
         style="fill:#f4f4f4;stroke-width:0.20050988"
         inkscape:connector-curvature="0" />
      <path
         id="path3554-96-5-33"
         d="m 86.482318,25.25476 0.02006,-2.486322 c 0.02004,-1.563976 0.922346,-2.827188 2.586578,-2.827188 1.44367,0 2.566526,1.183008 2.566526,2.566526 0,1.263212 -0.681734,1.884792 -1.784538,2.546476 l -1.82464,1.082752 c -0.40102,-0.441122 -0.942396,-0.761938 -1.563978,-0.882244 z"
         style="fill:#f4f4f4;stroke-width:0.20050988"
         inkscape:connector-curvature="0" />
      <path
         id="path3552-0-9-6"
         d="m 82.63253,19.981352 c 1.804588,0 2.62668,1.403568 2.62668,3.04775 l -0.02006,2.225658 c -0.62158,0.14036 -1.162956,0.461174 -1.563976,0.922346 l -1.884786,-1.102804 c -1.122854,-0.681734 -1.724384,-1.363466 -1.724384,-2.526424 0,-1.463722 1.122854,-2.566526 2.566526,-2.566526 z"
         style="fill:#f4f4f4;stroke-width:0.20050988"
         inkscape:connector-curvature="0" />
      <path
         id="path3550-6-1-1"
         d="m 88.667876,27.219758 2.325914,-1.243162 c 0.501276,-0.260662 1.00255,-0.40102 1.443672,-0.40102 1.383518,0 2.486322,1.243162 2.486322,2.606628 0,1.303314 -1.102804,2.566528 -2.466272,2.566528 -0.501274,0 -1.102804,-0.1604 -1.704332,-0.521326 l -2.105354,-1.22311 c 0.0802,-0.280714 0.14036,-0.58148 0.14036,-0.902294 0.02004,-0.300766 -0.02004,-0.60153 -0.1203,-0.882244 z"
         style="fill:#f4f4f4;stroke-width:0.20050988"
         inkscape:connector-curvature="0" />
      <path
         id="path3548-4-2-8"
         d="m 79.344168,25.575576 c 0.481224,0 1.0226,0.14036 1.62413,0.501276 l 2.085302,1.24316 c -0.0802,0.260664 -0.1203,0.521326 -0.1203,0.80204 0,0.300764 0.0401,0.60153 0.14036,0.882244 L 80.848,30.32766 c -0.501274,0.280714 -1.00255,0.40102 -1.463722,0.40102 -1.443672,0 -2.566526,-1.162956 -2.566526,-2.566526 0.02004,-1.323366 1.102804,-2.586578 2.526424,-2.586578 z"
         style="fill:#f4f4f4;stroke-width:0.20050988"
         inkscape:connector-curvature="0" />
      <path
         id="path3509-99-8-7"
         d="m 88.006194,30.147202 2.105354,1.203058 c 1.062702,0.621582 1.563976,1.40357 1.563976,2.386068 0,1.483774 -1.162956,2.586578 -2.566526,2.586578 -1.724384,0 -2.586578,-1.323366 -2.586578,-2.947496 l 0.0401,-2.386066 c 0.561428,-0.1604 1.062704,-0.441122 1.443674,-0.842142 z"
         style="fill:#f4f4f4;stroke-width:0.20050988"
         inkscape:connector-curvature="0" />
    </g>
    <g
       id="g3567-2-2-0"
       transform="matrix(0.14662216,0,0,0.14662216,67.582311,83.792468)">
      <path
         id="path3558-1-4-51"
         d="m 85.88079,26.03675 c 1.142906,0 2.085302,0.942396 2.085302,2.085302 0,1.142906 -0.942396,2.085302 -2.085302,2.085302 -1.142906,0 -2.085302,-0.942396 -2.085302,-2.085302 0,-1.162958 0.922344,-2.085302 2.085302,-2.085302 z"
         style="fill:#ffb700;stroke-width:0.20050988"
         inkscape:connector-curvature="0" />
      <path
         id="path3556-9-4-1"
         d="m 81.469572,31.410414 2.285812,-1.283264 c 0.40102,0.421072 0.922346,0.721836 1.503826,0.842142 l -0.0401,2.366016 c -0.02004,1.543926 -0.902296,2.927444 -2.62668,2.927444 -1.42362,0 -2.586578,-1.122854 -2.586578,-2.566526 0,-1.22311 0.822092,-1.944946 1.46372,-2.285812 z"
         style="fill:#f4f4f4;stroke-width:0.20050988"
         inkscape:connector-curvature="0" />
      <path
         id="path3554-96-5-03"
         d="m 86.482318,25.25476 0.02006,-2.486322 c 0.02004,-1.563976 0.922346,-2.827188 2.586578,-2.827188 1.44367,0 2.566526,1.183008 2.566526,2.566526 0,1.263212 -0.681734,1.884792 -1.784538,2.546476 l -1.82464,1.082752 c -0.40102,-0.441122 -0.942396,-0.761938 -1.563978,-0.882244 z"
         style="fill:#f4f4f4;stroke-width:0.20050988"
         inkscape:connector-curvature="0" />
      <path
         id="path3552-0-9-0"
         d="m 82.63253,19.981352 c 1.804588,0 2.62668,1.403568 2.62668,3.04775 l -0.02006,2.225658 c -0.62158,0.14036 -1.162956,0.461174 -1.563976,0.922346 l -1.884786,-1.102804 c -1.122854,-0.681734 -1.724384,-1.363466 -1.724384,-2.526424 0,-1.463722 1.122854,-2.566526 2.566526,-2.566526 z"
         style="fill:#f4f4f4;stroke-width:0.20050988"
         inkscape:connector-curvature="0" />
      <path
         id="path3550-6-1-0"
         d="m 88.667876,27.219758 2.325914,-1.243162 c 0.501276,-0.260662 1.00255,-0.40102 1.443672,-0.40102 1.383518,0 2.486322,1.243162 2.486322,2.606628 0,1.303314 -1.102804,2.566528 -2.466272,2.566528 -0.501274,0 -1.102804,-0.1604 -1.704332,-0.521326 l -2.105354,-1.22311 c 0.0802,-0.280714 0.14036,-0.58148 0.14036,-0.902294 0.02004,-0.300766 -0.02004,-0.60153 -0.1203,-0.882244 z"
         style="fill:#f4f4f4;stroke-width:0.20050988"
         inkscape:connector-curvature="0" />
      <path
         id="path3548-4-2-4"
         d="m 79.344168,25.575576 c 0.481224,0 1.0226,0.14036 1.62413,0.501276 l 2.085302,1.24316 c -0.0802,0.260664 -0.1203,0.521326 -0.1203,0.80204 0,0.300764 0.0401,0.60153 0.14036,0.882244 L 80.848,30.32766 c -0.501274,0.280714 -1.00255,0.40102 -1.463722,0.40102 -1.443672,0 -2.566526,-1.162956 -2.566526,-2.566526 0.02004,-1.323366 1.102804,-2.586578 2.526424,-2.586578 z"
         style="fill:#f4f4f4;stroke-width:0.20050988"
         inkscape:connector-curvature="0" />
      <path
         id="path3509-99-8-54"
         d="m 88.006194,30.147202 2.105354,1.203058 c 1.062702,0.621582 1.563976,1.40357 1.563976,2.386068 0,1.483774 -1.162956,2.586578 -2.566526,2.586578 -1.724384,0 -2.586578,-1.323366 -2.586578,-2.947496 l 0.0401,-2.386066 c 0.561428,-0.1604 1.062704,-0.441122 1.443674,-0.842142 z"
         style="fill:#f4f4f4;stroke-width:0.20050988"
         inkscape:connector-curvature="0" />
    </g>
    <g
       id="g3567-2-2-24"
       transform="matrix(0.14662216,0,0,0.14662216,71.758227,89.445898)">
      <path
         id="path3558-1-4-9"
         d="m 85.88079,26.03675 c 1.142906,0 2.085302,0.942396 2.085302,2.085302 0,1.142906 -0.942396,2.085302 -2.085302,2.085302 -1.142906,0 -2.085302,-0.942396 -2.085302,-2.085302 0,-1.162958 0.922344,-2.085302 2.085302,-2.085302 z"
         style="fill:#ffb700;stroke-width:0.20050988"
         inkscape:connector-curvature="0" />
      <path
         id="path3556-9-4-9"
         d="m 81.469572,31.410414 2.285812,-1.283264 c 0.40102,0.421072 0.922346,0.721836 1.503826,0.842142 l -0.0401,2.366016 c -0.02004,1.543926 -0.902296,2.927444 -2.62668,2.927444 -1.42362,0 -2.586578,-1.122854 -2.586578,-2.566526 0,-1.22311 0.822092,-1.944946 1.46372,-2.285812 z"
         style="fill:#f4f4f4;stroke-width:0.20050988"
         inkscape:connector-curvature="0" />
      <path
         id="path3554-96-5-9"
         d="m 86.482318,25.25476 0.02006,-2.486322 c 0.02004,-1.563976 0.922346,-2.827188 2.586578,-2.827188 1.44367,0 2.566526,1.183008 2.566526,2.566526 0,1.263212 -0.681734,1.884792 -1.784538,2.546476 l -1.82464,1.082752 c -0.40102,-0.441122 -0.942396,-0.761938 -1.563978,-0.882244 z"
         style="fill:#f4f4f4;stroke-width:0.20050988"
         inkscape:connector-curvature="0" />
      <path
         id="path3552-0-9-4"
         d="m 82.63253,19.981352 c 1.804588,0 2.62668,1.403568 2.62668,3.04775 l -0.02006,2.225658 c -0.62158,0.14036 -1.162956,0.461174 -1.563976,0.922346 l -1.884786,-1.102804 c -1.122854,-0.681734 -1.724384,-1.363466 -1.724384,-2.526424 0,-1.463722 1.122854,-2.566526 2.566526,-2.566526 z"
         style="fill:#f4f4f4;stroke-width:0.20050988"
         inkscape:connector-curvature="0" />
      <path
         id="path3550-6-1-98"
         d="m 88.667876,27.219758 2.325914,-1.243162 c 0.501276,-0.260662 1.00255,-0.40102 1.443672,-0.40102 1.383518,0 2.486322,1.243162 2.486322,2.606628 0,1.303314 -1.102804,2.566528 -2.466272,2.566528 -0.501274,0 -1.102804,-0.1604 -1.704332,-0.521326 l -2.105354,-1.22311 c 0.0802,-0.280714 0.14036,-0.58148 0.14036,-0.902294 0.02004,-0.300766 -0.02004,-0.60153 -0.1203,-0.882244 z"
         style="fill:#f4f4f4;stroke-width:0.20050988"
         inkscape:connector-curvature="0" />
      <path
         id="path3548-4-2-1"
         d="m 79.344168,25.575576 c 0.481224,0 1.0226,0.14036 1.62413,0.501276 l 2.085302,1.24316 c -0.0802,0.260664 -0.1203,0.521326 -0.1203,0.80204 0,0.300764 0.0401,0.60153 0.14036,0.882244 L 80.848,30.32766 c -0.501274,0.280714 -1.00255,0.40102 -1.463722,0.40102 -1.443672,0 -2.566526,-1.162956 -2.566526,-2.566526 0.02004,-1.323366 1.102804,-2.586578 2.526424,-2.586578 z"
         style="fill:#f4f4f4;stroke-width:0.20050988"
         inkscape:connector-curvature="0" />
      <path
         id="path3509-99-8-6"
         d="m 88.006194,30.147202 2.105354,1.203058 c 1.062702,0.621582 1.563976,1.40357 1.563976,2.386068 0,1.483774 -1.162956,2.586578 -2.566526,2.586578 -1.724384,0 -2.586578,-1.323366 -2.586578,-2.947496 l 0.0401,-2.386066 c 0.561428,-0.1604 1.062704,-0.441122 1.443674,-0.842142 z"
         style="fill:#f4f4f4;stroke-width:0.20050988"
         inkscape:connector-curvature="0" />
    </g>
    <g
       id="g3567-2-2-3"
       transform="matrix(0.14662216,0,0,0.14662216,72.496001,81.559003)">
      <path
         id="path3558-1-4-93"
         d="m 85.88079,26.03675 c 1.142906,0 2.085302,0.942396 2.085302,2.085302 0,1.142906 -0.942396,2.085302 -2.085302,2.085302 -1.142906,0 -2.085302,-0.942396 -2.085302,-2.085302 0,-1.162958 0.922344,-2.085302 2.085302,-2.085302 z"
         style="fill:#ffb700;stroke-width:0.20050988"
         inkscape:connector-curvature="0" />
      <path
         id="path3556-9-4-34"
         d="m 81.469572,31.410414 2.285812,-1.283264 c 0.40102,0.421072 0.922346,0.721836 1.503826,0.842142 l -0.0401,2.366016 c -0.02004,1.543926 -0.902296,2.927444 -2.62668,2.927444 -1.42362,0 -2.586578,-1.122854 -2.586578,-2.566526 0,-1.22311 0.822092,-1.944946 1.46372,-2.285812 z"
         style="fill:#f4f4f4;stroke-width:0.20050988"
         inkscape:connector-curvature="0" />
      <path
         id="path3554-96-5-61"
         d="m 86.482318,25.25476 0.02006,-2.486322 c 0.02004,-1.563976 0.922346,-2.827188 2.586578,-2.827188 1.44367,0 2.566526,1.183008 2.566526,2.566526 0,1.263212 -0.681734,1.884792 -1.784538,2.546476 l -1.82464,1.082752 c -0.40102,-0.441122 -0.942396,-0.761938 -1.563978,-0.882244 z"
         style="fill:#f4f4f4;stroke-width:0.20050988"
         inkscape:connector-curvature="0" />
      <path
         id="path3552-0-9-5"
         d="m 82.63253,19.981352 c 1.804588,0 2.62668,1.403568 2.62668,3.04775 l -0.02006,2.225658 c -0.62158,0.14036 -1.162956,0.461174 -1.563976,0.922346 l -1.884786,-1.102804 c -1.122854,-0.681734 -1.724384,-1.363466 -1.724384,-2.526424 0,-1.463722 1.122854,-2.566526 2.566526,-2.566526 z"
         style="fill:#f4f4f4;stroke-width:0.20050988"
         inkscape:connector-curvature="0" />
      <path
         id="path3550-6-1-6"
         d="m 88.667876,27.219758 2.325914,-1.243162 c 0.501276,-0.260662 1.00255,-0.40102 1.443672,-0.40102 1.383518,0 2.486322,1.243162 2.486322,2.606628 0,1.303314 -1.102804,2.566528 -2.466272,2.566528 -0.501274,0 -1.102804,-0.1604 -1.704332,-0.521326 l -2.105354,-1.22311 c 0.0802,-0.280714 0.14036,-0.58148 0.14036,-0.902294 0.02004,-0.300766 -0.02004,-0.60153 -0.1203,-0.882244 z"
         style="fill:#f4f4f4;stroke-width:0.20050988"
         inkscape:connector-curvature="0" />
      <path
         id="path3548-4-2-17"
         d="m 79.344168,25.575576 c 0.481224,0 1.0226,0.14036 1.62413,0.501276 l 2.085302,1.24316 c -0.0802,0.260664 -0.1203,0.521326 -0.1203,0.80204 0,0.300764 0.0401,0.60153 0.14036,0.882244 L 80.848,30.32766 c -0.501274,0.280714 -1.00255,0.40102 -1.463722,0.40102 -1.443672,0 -2.566526,-1.162956 -2.566526,-2.566526 0.02004,-1.323366 1.102804,-2.586578 2.526424,-2.586578 z"
         style="fill:#f4f4f4;stroke-width:0.20050988"
         inkscape:connector-curvature="0" />
      <path
         id="path3509-99-8-2"
         d="m 88.006194,30.147202 2.105354,1.203058 c 1.062702,0.621582 1.563976,1.40357 1.563976,2.386068 0,1.483774 -1.162956,2.586578 -2.566526,2.586578 -1.724384,0 -2.586578,-1.323366 -2.586578,-2.947496 l 0.0401,-2.386066 c 0.561428,-0.1604 1.062704,-0.441122 1.443674,-0.842142 z"
         style="fill:#f4f4f4;stroke-width:0.20050988"
         inkscape:connector-curvature="0" />
    </g>
    <g
       id="g3567-2-2-29"
       transform="matrix(0.14662216,0,0,0.14662216,76.800804,91.257497)">
      <path
         id="path3558-1-4-2"
         d="m 85.88079,26.03675 c 1.142906,0 2.085302,0.942396 2.085302,2.085302 0,1.142906 -0.942396,2.085302 -2.085302,2.085302 -1.142906,0 -2.085302,-0.942396 -2.085302,-2.085302 0,-1.162958 0.922344,-2.085302 2.085302,-2.085302 z"
         style="fill:#ffb700;stroke-width:0.20050988"
         inkscape:connector-curvature="0" />
      <path
         id="path3556-9-4-8"
         d="m 81.469572,31.410414 2.285812,-1.283264 c 0.40102,0.421072 0.922346,0.721836 1.503826,0.842142 l -0.0401,2.366016 c -0.02004,1.543926 -0.902296,2.927444 -2.62668,2.927444 -1.42362,0 -2.586578,-1.122854 -2.586578,-2.566526 0,-1.22311 0.822092,-1.944946 1.46372,-2.285812 z"
         style="fill:#f4f4f4;stroke-width:0.20050988"
         inkscape:connector-curvature="0" />
      <path
         id="path3554-96-5-1"
         d="m 86.482318,25.25476 0.02006,-2.486322 c 0.02004,-1.563976 0.922346,-2.827188 2.586578,-2.827188 1.44367,0 2.566526,1.183008 2.566526,2.566526 0,1.263212 -0.681734,1.884792 -1.784538,2.546476 l -1.82464,1.082752 c -0.40102,-0.441122 -0.942396,-0.761938 -1.563978,-0.882244 z"
         style="fill:#f4f4f4;stroke-width:0.20050988"
         inkscape:connector-curvature="0" />
      <path
         id="path3552-0-9-2"
         d="m 82.63253,19.981352 c 1.804588,0 2.62668,1.403568 2.62668,3.04775 l -0.02006,2.225658 c -0.62158,0.14036 -1.162956,0.461174 -1.563976,0.922346 l -1.884786,-1.102804 c -1.122854,-0.681734 -1.724384,-1.363466 -1.724384,-2.526424 0,-1.463722 1.122854,-2.566526 2.566526,-2.566526 z"
         style="fill:#f4f4f4;stroke-width:0.20050988"
         inkscape:connector-curvature="0" />
      <path
         id="path3550-6-1-4"
         d="m 88.667876,27.219758 2.325914,-1.243162 c 0.501276,-0.260662 1.00255,-0.40102 1.443672,-0.40102 1.383518,0 2.486322,1.243162 2.486322,2.606628 0,1.303314 -1.102804,2.566528 -2.466272,2.566528 -0.501274,0 -1.102804,-0.1604 -1.704332,-0.521326 l -2.105354,-1.22311 c 0.0802,-0.280714 0.14036,-0.58148 0.14036,-0.902294 0.02004,-0.300766 -0.02004,-0.60153 -0.1203,-0.882244 z"
         style="fill:#f4f4f4;stroke-width:0.20050988"
         inkscape:connector-curvature="0" />
      <path
         id="path3548-4-2-7"
         d="m 79.344168,25.575576 c 0.481224,0 1.0226,0.14036 1.62413,0.501276 l 2.085302,1.24316 c -0.0802,0.260664 -0.1203,0.521326 -0.1203,0.80204 0,0.300764 0.0401,0.60153 0.14036,0.882244 L 80.848,30.32766 c -0.501274,0.280714 -1.00255,0.40102 -1.463722,0.40102 -1.443672,0 -2.566526,-1.162956 -2.566526,-2.566526 0.02004,-1.323366 1.102804,-2.586578 2.526424,-2.586578 z"
         style="fill:#f4f4f4;stroke-width:0.20050988"
         inkscape:connector-curvature="0" />
      <path
         id="path3509-99-8-8"
         d="m 88.006194,30.147202 2.105354,1.203058 c 1.062702,0.621582 1.563976,1.40357 1.563976,2.386068 0,1.483774 -1.162956,2.586578 -2.566526,2.586578 -1.724384,0 -2.586578,-1.323366 -2.586578,-2.947496 l 0.0401,-2.386066 c 0.561428,-0.1604 1.062704,-0.441122 1.443674,-0.842142 z"
         style="fill:#f4f4f4;stroke-width:0.20050988"
         inkscape:connector-curvature="0" />
    </g>
    <g
       id="g3567-2-2-3-6"
       transform="matrix(0.14662216,0,0,0.14662216,70.129354,98.256348)">
      <path
         id="path3558-1-4-93-3"
         d="m 85.88079,26.03675 c 1.142906,0 2.085302,0.942396 2.085302,2.085302 0,1.142906 -0.942396,2.085302 -2.085302,2.085302 -1.142906,0 -2.085302,-0.942396 -2.085302,-2.085302 0,-1.162958 0.922344,-2.085302 2.085302,-2.085302 z"
         style="fill:#ffb700;stroke-width:0.20050988"
         inkscape:connector-curvature="0" />
      <path
         id="path3556-9-4-34-7"
         d="m 81.469572,31.410414 2.285812,-1.283264 c 0.40102,0.421072 0.922346,0.721836 1.503826,0.842142 l -0.0401,2.366016 c -0.02004,1.543926 -0.902296,2.927444 -2.62668,2.927444 -1.42362,0 -2.586578,-1.122854 -2.586578,-2.566526 0,-1.22311 0.822092,-1.944946 1.46372,-2.285812 z"
         style="fill:#f4f4f4;stroke-width:0.20050988"
         inkscape:connector-curvature="0" />
      <path
         id="path3554-96-5-61-7"
         d="m 86.482318,25.25476 0.02006,-2.486322 c 0.02004,-1.563976 0.922346,-2.827188 2.586578,-2.827188 1.44367,0 2.566526,1.183008 2.566526,2.566526 0,1.263212 -0.681734,1.884792 -1.784538,2.546476 l -1.82464,1.082752 c -0.40102,-0.441122 -0.942396,-0.761938 -1.563978,-0.882244 z"
         style="fill:#f4f4f4;stroke-width:0.20050988"
         inkscape:connector-curvature="0" />
      <path
         id="path3552-0-9-5-2"
         d="m 82.63253,19.981352 c 1.804588,0 2.62668,1.403568 2.62668,3.04775 l -0.02006,2.225658 c -0.62158,0.14036 -1.162956,0.461174 -1.563976,0.922346 l -1.884786,-1.102804 c -1.122854,-0.681734 -1.724384,-1.363466 -1.724384,-2.526424 0,-1.463722 1.122854,-2.566526 2.566526,-2.566526 z"
         style="fill:#f4f4f4;stroke-width:0.20050988"
         inkscape:connector-curvature="0" />
      <path
         id="path3550-6-1-6-3"
         d="m 88.667876,27.219758 2.325914,-1.243162 c 0.501276,-0.260662 1.00255,-0.40102 1.443672,-0.40102 1.383518,0 2.486322,1.243162 2.486322,2.606628 0,1.303314 -1.102804,2.566528 -2.466272,2.566528 -0.501274,0 -1.102804,-0.1604 -1.704332,-0.521326 l -2.105354,-1.22311 c 0.0802,-0.280714 0.14036,-0.58148 0.14036,-0.902294 0.02004,-0.300766 -0.02004,-0.60153 -0.1203,-0.882244 z"
         style="fill:#f4f4f4;stroke-width:0.20050988"
         inkscape:connector-curvature="0" />
      <path
         id="path3548-4-2-17-7"
         d="m 79.344168,25.575576 c 0.481224,0 1.0226,0.14036 1.62413,0.501276 l 2.085302,1.24316 c -0.0802,0.260664 -0.1203,0.521326 -0.1203,0.80204 0,0.300764 0.0401,0.60153 0.14036,0.882244 L 80.848,30.32766 c -0.501274,0.280714 -1.00255,0.40102 -1.463722,0.40102 -1.443672,0 -2.566526,-1.162956 -2.566526,-2.566526 0.02004,-1.323366 1.102804,-2.586578 2.526424,-2.586578 z"
         style="fill:#f4f4f4;stroke-width:0.20050988"
         inkscape:connector-curvature="0" />
      <path
         id="path3509-99-8-2-2"
         d="m 88.006194,30.147202 2.105354,1.203058 c 1.062702,0.621582 1.563976,1.40357 1.563976,2.386068 0,1.483774 -1.162956,2.586578 -2.566526,2.586578 -1.724384,0 -2.586578,-1.323366 -2.586578,-2.947496 l 0.0401,-2.386066 c 0.561428,-0.1604 1.062704,-0.441122 1.443674,-0.842142 z"
         style="fill:#f4f4f4;stroke-width:0.20050988"
         inkscape:connector-curvature="0" />
    </g>
  </g>
  <path
     style="opacity:1;vector-effect:none;fill:#f49600;fill-opacity:1;stroke:none;stroke-width:0.24147093;stroke-linecap:round;stroke-linejoin:miter;stroke-miterlimit:4;stroke-dasharray:none;stroke-dashoffset:0;stroke-opacity:1"
     d="m 47.13605,77.628446 0.180489,-11.488513 7.457764,8.740723 z"
     id="path5183"
     inkscape:connector-curvature="0"
     sodipodi:nodetypes="cccc" />
</svg>
