<?xml version="1.0" encoding="UTF-8" standalone="no"?>
<svg
   xmlns:dc="http://purl.org/dc/elements/1.1/"
   xmlns:cc="http://creativecommons.org/ns#"
   xmlns:rdf="http://www.w3.org/1999/02/22-rdf-syntax-ns#"
   xmlns:svg="http://www.w3.org/2000/svg"
   xmlns="http://www.w3.org/2000/svg"
   xmlns:sodipodi="http://sodipodi.sourceforge.net/DTD/sodipodi-0.dtd"
   xmlns:inkscape="http://www.inkscape.org/namespaces/inkscape"
   width="170"
   height="170"
   version="1.1"
   viewBox="0 0 44.978433 44.979313"
   id="svg912"
   sodipodi:docname="profile.svg"
   inkscape:version="0.92.4 (unknown)"
   inkscape:export-filename="/home/fdf/projects/hoezithet/hugo/static/images/fb/profile.png"
   inkscape:export-xdpi="300"
   inkscape:export-ydpi="300">
  <metadata
     id="metadata918">
    <rdf:RDF>
      <cc:Work
         rdf:about="">
        <dc:format>image/svg+xml</dc:format>
        <dc:type
           rdf:resource="http://purl.org/dc/dcmitype/StillImage" />
        <dc:title></dc:title>
      </cc:Work>
    </rdf:RDF>
  </metadata>
  <defs
     id="defs916" />
  <sodipodi:namedview
     pagecolor="#ffffff"
     bordercolor="#666666"
     borderopacity="1"
     objecttolerance="10"
     gridtolerance="10"
     guidetolerance="10"
     inkscape:pageopacity="0"
     inkscape:pageshadow="2"
     inkscape:window-width="1920"
     inkscape:window-height="1055"
     id="namedview914"
     showgrid="false"
     inkscape:zoom="3.457141"
     inkscape:cx="67.635741"
     inkscape:cy="110.35487"
     inkscape:window-x="1600"
     inkscape:window-y="25"
     inkscape:window-maximized="1"
     inkscape:current-layer="layer2"
     showguides="true"
     inkscape:guide-bbox="true" />
  <g
     inkscape:groupmode="layer"
     id="layer1"
     inkscape:label="screens"
     transform="translate(-110.18423,-27.14836)"
     style="display:none">
    <circle
       style="opacity:1;vector-effect:none;fill:none;fill-opacity:1;stroke:#e7040f;stroke-width:0.24142343;stroke-linecap:round;stroke-linejoin:bevel;stroke-miterlimit:4;stroke-dasharray:none;stroke-dashoffset:0;stroke-opacity:1;paint-order:markers fill stroke"
       id="path1283"
       cx="132.67175"
       cy="49.638023"
       r="22.368948" />
  </g>
  <g
     inkscape:groupmode="layer"
     id="layer2"
     inkscape:label="fg"
     transform="translate(-110.18423,-27.14836)">
    <g
       id="g1054"
       transform="matrix(0.63793711,0,0,0.63793711,46.742396,5.363191)">
      <circle
         style="color:#000000;isolation:auto;mix-blend-mode:normal;solid-color:#000000;fill-rule:evenodd;stroke-width:0.6717;color-rendering:auto;image-rendering:auto;shape-rendering:auto"
         r="6.717"
         cy="48.382"
         cx="-147.3"
         transform="scale(-1,1)"
         id="head" />
      <path
         style="color:#000000;isolation:auto;mix-blend-mode:normal;solid-color:#000000;fill-rule:evenodd;stroke-width:0.17772001;color-rendering:auto;image-rendering:auto;shape-rendering:auto"
         d="m 154.65001,54.977001 c -3.7211,0 -6.7169,2.995598 -6.7169,6.716898 V 67.7971 h 5.84179 v -6.404801 c -0.003,-0.18968 0.15153,-0.344239 0.34122,-0.341199 0.18546,0.003 0.33341,0.155739 0.33043,0.341199 v 6.740502 c 9e-5,0.185469 -0.15018,0.335869 -0.33564,0.335988 h -8.83701 c -0.42006,0 -0.81906,0.08394 -1.18119,0.23603 -0.18106,0.07605 -0.35302,0.169152 -0.51372,0.277332 -0.0803,0.05409 -0.15769,0.111808 -0.23221,0.17321 -0.0745,0.06139 -0.14595,0.126519 -0.21417,0.194729 -0.0681,0.06815 -0.13339,0.139362 -0.19472,0.21381 -5e-5,6.6e-5 5e-5,2.65e-4 0,2.65e-4 -0.24549,0.29803 -0.43457,0.644501 -0.55155,1.024002 -4e-5,1.03e-4 4e-5,1.77e-4 0,2.64e-4 -0.0585,0.189681 -0.0989,0.387661 -0.11941,0.591819 -0.0103,0.102133 -0.0156,0.205992 -0.0156,0.311011 0,0.105022 0.005,0.208522 0.0156,0.310651 2e-5,1.11e-4 -1e-5,1.77e-4 0,2.65e-4 0.0205,0.204158 0.0609,0.402088 0.11941,0.591819 4e-5,1.09e-4 -4e-5,1.77e-4 0,2.65e-4 0.0292,0.09481 0.063,0.187561 0.101,0.278041 5e-5,9.7e-5 -4e-5,1.77e-4 0,2.64e-4 0.038,0.09046 0.0804,0.17852 0.12669,0.26414 5e-5,9.2e-5 -4e-5,1.8e-4 0,2.64e-4 0.18521,0.34278 0.43473,0.645009 0.73275,0.89067 0.14903,0.12286 0.31007,0.231509 0.48144,0.32419 0.25706,0.13902 0.53712,0.241949 0.83339,0.30198 0.19752,0.04002 0.40227,0.06109 0.61229,0.06109 0,0 14.24001,0.0052 16.09301,0.0052 V 61.693642 c 0,-3.721199 -2.9956,-6.716901 -6.7169,-6.716901 z M 138.71301,75.192 c -0.89509,0.08184 -1.68481,0.463031 -2.23641,1.105499 l -14.06499,14.065002 c -1.3156,1.3156 -1.3156,3.433898 0,4.749498 1.3156,1.315603 3.43419,1.315603 4.7499,0 l 8.5051,-8.505098 v 12.029 c 0,1.860499 1.498,3.358499 3.3585,3.358499 1.8605,0 3.3585,-1.498 3.3585,-3.358499 v -16.792 h 12.3 c 3.6838,-0.01799 6.647,-2.972201 6.6815,-6.652001 -1.8566,0 -22.636,-0.0016 -22.652,0 z"
         id="body"
         inkscape:connector-curvature="0" />
      <rect
         id="rect887"
         style="color:#000000;isolation:auto;mix-blend-mode:normal;solid-color:#000000;fill-rule:evenodd;stroke-width:0.67170131;paint-order:fill markers stroke;color-rendering:auto;image-rendering:auto;shape-rendering:auto"
         ry="0"
         height="7.5861998"
         width="10.525042"
         y="93.040993"
         x="-84.477333"
         transform="matrix(-0.499998,-0.86602656,0.99991011,0.013408,0,0)" />
      <rect
         id="rect889"
         style="color:#000000;isolation:auto;mix-blend-mode:normal;solid-color:#000000;fill-rule:evenodd;stroke-width:0.67170268;paint-order:fill markers stroke;color-rendering:auto;image-rendering:auto;shape-rendering:auto"
         height="1.6491065"
         width="6.4785256"
         y="121.54048"
         x="-86.454346"
         transform="matrix(-0.86602656,0.499998,0.499998,0.86602656,0,0)" />
    </g>
    <g
       id="g1058"
       transform="matrix(0.78236443,0,0,0.78236443,22.485628,5.458243)">
      <path
         d="m 133.93001,42.663001 c -0.0429,-0.043 -0.10735,-0.06437 -0.15029,-0.06437 -0.0644,0 -0.10735,0.02151 -0.15027,0.06437 -0.0859,0.08586 -0.0859,0.214699 0,0.300578 l 0.81584,0.837311 c 0.0859,0.08586 0.21467,0.08586 0.30056,0 0.0859,-0.08586 0.0859,-0.214699 0,-0.300581 z m -5.861,-5.243601 0.88024,0.88024 c 0.0859,0.08586 0.21469,0.08586 0.30055,0 0.0859,-0.08586 0.0859,-0.2147 0,-0.300581 l -0.88023,-0.88024 c -0.10735,-0.08586 -0.2147,-0.08586 -0.30059,0 -0.0644,0.06436 -0.0644,0.214702 0,0.300581 z m 5.51759,0.86519 c 0.0859,0.08586 0.2147,0.08586 0.30057,0 l 0.85878,-0.858771 c 0.0859,-0.08586 0.0859,-0.2147 0,-0.300579 -0.10735,-0.08586 -0.19322,-0.08586 -0.30056,0 l -0.85878,0.858769 c -0.0859,0.08586 -0.0859,0.2147 0,0.300581 z m -4.5082,4.2998 c -0.0644,0 -0.10735,0.02151 -0.15027,0.06436 l -0.8373,0.837309 c -0.0859,0.08586 -0.0859,0.214691 0,0.300562 0.0859,0.08586 0.2147,0.08586 0.30056,0 l 0.8373,-0.8373 c 0.0859,-0.08586 0.0859,-0.2147 0,-0.300581 -0.0429,-0.04287 -0.10735,-0.06436 -0.15029,-0.06436 z m 2.34001,0.996279 c -0.12881,0 -0.2147,0.08586 -0.2147,0.214702 v 1.159299 c 0,0.128861 0.0859,0.2147 0.2147,0.2147 0.12882,0 0.2147,-0.08586 0.2147,-0.2147 v -1.159299 c 0,-0.128861 -0.0859,-0.214702 -0.2147,-0.214702 z m 3.0701,-3.133098 c 0,0.128858 0.0859,0.2147 0.2147,0.2147 h 1.2238 c 0.12881,0 0.21469,-0.08586 0.21469,-0.2147 0,-0.12886 -0.0859,-0.214691 -0.21469,-0.214691 h -1.2238 c -0.12881,0 -0.2147,0.10736 -0.2147,0.214691 z m -7.57961,0.222849 h 1.22381 c 0.12881,0 0.2147,-0.08586 0.2147,-0.2147 0,-0.12886 -0.0859,-0.214691 -0.2147,-0.214691 h -1.22381 c -0.1288,0 -0.2147,0.08586 -0.2147,0.214691 0,0.128861 0.10735,0.2147 0.2147,0.2147 z m 3.5866,-3.736101 c -0.0429,0.794372 -0.32181,1.545402 -0.81561,2.125101 -0.34351,0.407909 -0.53652,0.944801 -0.53652,1.4816 0,1.245199 1.0088,2.275501 2.2755,2.275501 0.0859,0 0.17154,-0.02098 0.25742,-0.02098 1.0091,-0.12886 1.8468,-0.923439 1.99699,-1.910999 0.10735,-0.644069 -0.0643,-1.267001 -0.47216,-1.7823 -0.51527,-0.66554 -0.81605,-1.394901 -0.85898,-2.167701 z"
         id="bulb"
         style="fill:#ffb700;stroke-width:0.1978"
         inkscape:connector-curvature="0" />
      <path
         style="color:#000000;font-variant-ligatures:normal;font-variant-position:normal;font-variant-caps:normal;font-variant-numeric:normal;font-variant-alternates:normal;font-feature-settings:normal;text-indent:0;text-decoration:none;text-decoration-line:none;text-decoration-style:solid;text-decoration-color:#000000;text-transform:none;text-orientation:mixed;dominant-baseline:auto;white-space:normal;shape-padding:0;isolation:auto;mix-blend-mode:normal;solid-color:#000000;stroke-width:0.26458001;color-rendering:auto;image-rendering:auto;shape-rendering:auto"
         dominant-baseline="auto"
         d="m 131.41689,25.875345 c -0.24321,0.0041 -0.43719,0.204296 -0.43357,0.447511 v 7.819446 h -0.38292 c -0.19521,0 -0.35192,0.157219 -0.35192,0.352421 v 2.611695 c 0,0.195213 0.1567,0.352421 0.35192,0.352421 h 1.64277 c 0.19522,2e-6 0.35242,-0.157216 0.35242,-0.352421 v -2.611695 c 0,-0.19521 -0.15721,-0.352421 -0.35242,-0.352421 h -0.3767 v -7.819446 c 0.004,-0.249497 -0.2001,-0.452393 -0.44958,-0.447511 z"
         id="wire"
         inkscape:connector-curvature="0"
         sodipodi:nodetypes="cccsssscsssccc" />
    </g>
  </g>
</svg>
