<?xml version="1.0" encoding="UTF-8" standalone="no"?>
<!-- Created with Inkscape (http://www.inkscape.org/) -->

<svg
   xmlns:ns1="http://www.iki.fi/pav/software/textext/"
   xmlns:dc="http://purl.org/dc/elements/1.1/"
   xmlns:cc="http://creativecommons.org/ns#"
   xmlns:rdf="http://www.w3.org/1999/02/22-rdf-syntax-ns#"
   xmlns:svg="http://www.w3.org/2000/svg"
   xmlns="http://www.w3.org/2000/svg"
   xmlns:sodipodi="http://sodipodi.sourceforge.net/DTD/sodipodi-0.dtd"
   xmlns:inkscape="http://www.inkscape.org/namespaces/inkscape"
   width="581.73621"
   height="209.62985"
   viewBox="0 0 153.91769 55.46456"
   version="1.1"
   id="svg4623"
   inkscape:version="0.92.4 (unknown)"
   sodipodi:docname="vector_post.svg"
   inkscape:export-filename="/home/fdf/hugo/hoezithet/static/images/favicon.png"
   inkscape:export-xdpi="90"
   inkscape:export-ydpi="90">
  <defs
     id="defs4617">
    <marker
       inkscape:stockid="Arrow2Mstart"
       orient="auto"
       refY="0.0"
       refX="0.0"
       id="marker2820"
       style="overflow:visible"
       inkscape:isstock="true">
      <path
         id="path2818"
         style="fill-rule:evenodd;stroke-width:0.625;stroke-linejoin:round;stroke:#e7040f;stroke-opacity:1;fill:#e7040f;fill-opacity:1"
         d="M 8.7185878,4.0337352 L -2.2072895,0.016013256 L 8.7185884,-4.0017078 C 6.9730900,-1.6296469 6.9831476,1.6157441 8.7185878,4.0337352 z "
         transform="scale(0.6) translate(0,0)" />
    </marker>
    <marker
       inkscape:stockid="Arrow2Mstart"
       orient="auto"
       refY="0.0"
       refX="0.0"
       id="Arrow2Mstart"
       style="overflow:visible"
       inkscape:isstock="true">
      <path
         id="path1568"
         style="fill-rule:evenodd;stroke-width:0.625;stroke-linejoin:round;stroke:#e7040f;stroke-opacity:1;fill:#e7040f;fill-opacity:1"
         d="M 8.7185878,4.0337352 L -2.2072895,0.016013256 L 8.7185884,-4.0017078 C 6.9730900,-1.6296469 6.9831476,1.6157441 8.7185878,4.0337352 z "
         transform="scale(0.6) translate(0,0)" />
    </marker>
    <marker
       inkscape:stockid="Arrow2Mend"
       orient="auto"
       refY="0.0"
       refX="0.0"
       id="Arrow2Mend"
       style="overflow:visible;"
       inkscape:isstock="true">
      <path
         id="path1571"
         style="fill-rule:evenodd;stroke-width:0.625;stroke-linejoin:round;stroke:#555555;stroke-opacity:1;fill:#555555;fill-opacity:1"
         d="M 8.7185878,4.0337352 L -2.2072895,0.016013256 L 8.7185884,-4.0017078 C 6.9730900,-1.6296469 6.9831476,1.6157441 8.7185878,4.0337352 z "
         transform="scale(0.6) rotate(180) translate(0,0)" />
    </marker>
  </defs>
  <sodipodi:namedview
     id="base"
     pagecolor="#f4f4f4"
     bordercolor="#666666"
     borderopacity="1.0"
     inkscape:pageopacity="1"
     inkscape:pageshadow="2"
     inkscape:zoom="1.28"
     inkscape:cx="359.12908"
     inkscape:cy="37.626012"
     inkscape:document-units="px"
     inkscape:current-layer="svg4623"
     showgrid="false"
     units="px"
     inkscape:object-paths="true"
     inkscape:snap-smooth-nodes="true"
     inkscape:window-width="1600"
     inkscape:window-height="875"
     inkscape:window-x="0"
     inkscape:window-y="25"
     inkscape:window-maximized="1"
     showguides="true"
     inkscape:guide-bbox="true"
     inkscape:pagecheckerboard="false"
     inkscape:snap-global="true"
     inkscape:showpageshadow="true"
     showborder="true"
     borderlayer="false"
     inkscape:snap-page="true"
     inkscape:snap-bbox="true"
     inkscape:snap-bbox-midpoints="true"
     inkscape:snap-center="true"
     inkscape:snap-bbox-edge-midpoints="true"
     inkscape:bbox-paths="true"
     inkscape:snap-midpoints="true">
    <sodipodi:guide
       position="146.86199,0"
       orientation="1,0"
       id="guide818"
       inkscape:locked="false"
       inkscape:label=""
       inkscape:color="rgb(0,0,255)" />
    <sodipodi:guide
       position="7.0556431,0"
       orientation="1,0"
       id="guide820"
       inkscape:locked="false"
       inkscape:label=""
       inkscape:color="rgb(0,0,255)" />
    <sodipodi:guide
       position="0,50.172933"
       orientation="0,1"
       id="guide822"
       inkscape:locked="false"
       inkscape:label=""
       inkscape:color="rgb(0,0,255)" />
    <sodipodi:guide
       position="0,7.0556431"
       orientation="0,1"
       id="guide922"
       inkscape:locked="false"
       inkscape:label=""
       inkscape:color="rgb(0,0,255)" />
    <sodipodi:guide
       position="106.61458,38.600974"
       orientation="0,1"
       id="guide863"
       inkscape:locked="false" />
  </sodipodi:namedview>
  <metadata
     id="metadata4620">
    <rdf:RDF>
      <cc:Work
         rdf:about="">
        <dc:format>image/svg+xml</dc:format>
        <dc:type
           rdf:resource="http://purl.org/dc/dcmitype/StillImage" />
        <dc:title />
      </cc:Work>
    </rdf:RDF>
  </metadata>
  <path
     style="opacity:1;vector-effect:none;fill:none;fill-opacity:1;stroke:#000000;stroke-width:0.35277775;stroke-linecap:round;stroke-linejoin:miter;stroke-miterlimit:4;stroke-dasharray:none;stroke-dashoffset:0;stroke-opacity:1"
     d="M 30.903679,16.523703 V 0"
     id="path1715"
     inkscape:connector-curvature="0" />
  <g
     id="g2802"
     transform="matrix(1.1314986,0,0,1.1314986,-3.1998873,-4.2179124)">
    <path
       inkscape:connector-curvature="0"
       id="path2777"
       d="M 86.528503,32.66313 97.052238,18.63148"
       style="opacity:1;vector-effect:none;fill:none;fill-opacity:1;stroke:#552200;stroke-width:1.76388872;stroke-linecap:round;stroke-linejoin:miter;stroke-miterlimit:4;stroke-dasharray:none;stroke-dashoffset:0;stroke-opacity:1" />
    <path
       inkscape:connector-curvature="0"
       id="path2777-7"
       d="M 107.57597,32.66313 97.052238,18.63148"
       style="opacity:1;vector-effect:none;fill:none;fill-opacity:1;stroke:#552200;stroke-width:1.76388872;stroke-linecap:round;stroke-linejoin:miter;stroke-miterlimit:4;stroke-dasharray:none;stroke-dashoffset:0;stroke-opacity:1" />
    <g
       transform="matrix(1.9452173,0,0,1.9452173,-122.72621,-20.16967)"
       id="g2745">
      <circle
         style="opacity:1;vector-effect:none;fill:#d3d3d3;fill-opacity:1;stroke:none;stroke-width:0.1507417;stroke-linecap:butt;stroke-linejoin:miter;stroke-miterlimit:4;stroke-dasharray:none;stroke-dashoffset:0;stroke-opacity:1;paint-order:markers fill stroke"
         id="path2678-8-9-6-7"
         cx="112.98401"
         cy="19.946951"
         r="5.257566" />
      <circle
         style="opacity:1;vector-effect:none;fill:#000000;fill-opacity:1;stroke:none;stroke-width:1.3052423;stroke-linecap:butt;stroke-linejoin:miter;stroke-miterlimit:4;stroke-dasharray:none;stroke-dashoffset:0;stroke-opacity:1;paint-order:markers fill stroke"
         id="path2678-8-9-6"
         cx="112.98401"
         cy="19.946949"
         r="4.3273902" />
      <circle
         style="opacity:1;vector-effect:none;fill:#357edd;fill-opacity:1;stroke:none;stroke-width:1.00129926;stroke-linecap:butt;stroke-linejoin:miter;stroke-miterlimit:4;stroke-dasharray:none;stroke-dashoffset:0;stroke-opacity:1;paint-order:markers fill stroke"
         id="path2678-8-9"
         cx="112.98401"
         cy="19.946949"
         r="3.3196998" />
      <circle
         style="opacity:1;vector-effect:none;fill:#e7040f;fill-opacity:1;stroke:none;stroke-width:0.66129285;stroke-linecap:butt;stroke-linejoin:miter;stroke-miterlimit:4;stroke-dasharray:none;stroke-dashoffset:0;stroke-opacity:1;paint-order:markers fill stroke"
         id="path2678-8"
         cx="112.98401"
         cy="19.946949"
         r="2.1924453" />
      <circle
         style="opacity:1;vector-effect:none;fill:#ffb700;fill-opacity:1;stroke:none;stroke-width:0.35268953;stroke-linecap:butt;stroke-linejoin:miter;stroke-miterlimit:4;stroke-dasharray:none;stroke-dashoffset:0;stroke-opacity:1;paint-order:markers fill stroke"
         id="path2678"
         cx="112.98401"
         cy="19.946949"
         r="1.1693041" />
    </g>
  </g>
  <path
     style="opacity:1;vector-effect:none;fill:none;fill-opacity:1;stroke:#555555;stroke-width:0.35299996;stroke-linecap:round;stroke-linejoin:miter;stroke-miterlimit:4;stroke-dasharray:1.41199984, 1.41199984;stroke-dashoffset:1.27079988;stroke-opacity:1"
     d="M 52.416695,19.975148 C 71.165083,12.761607 86.571359,5.2916269 106.61458,16.863586"
     id="path3200"
     inkscape:connector-curvature="0"
     sodipodi:nodetypes="cc" />
  <g
     inkscape:label="watermark"
     inkscape:groupmode="layer"
     id="layer1"
     transform="translate(5.1800203,-240.86796)" />
  <g
     inkscape:groupmode="layer"
     id="layer2"
     inkscape:label="Layer 1"
     transform="translate(5.1800203,-240.86796)" />
  <g
     id="g2626"
     transform="matrix(1.3359234,0,0,1.3359234,-26.35752,4.2934411)">
    <path
       id="path1542"
       transform="scale(0.26458331)"
       d="m 232.36719,40.175781 a 0.66656669,0.66656669 0 0 0 -0.0664,0.0039 0.66656669,0.66656669 0 0 0 -0.16992,0.04492 l -9.47461,3.478516 0.0742,0.273437 0.33984,0.990235 9.51758,-3.496094 a 0.66656669,0.66656669 0 0 0 -0.2207,-1.294922 z m -13.19141,4.804688 -41.91406,15.388672 a 0.66821745,0.66821745 0 1 0 0.45703,1.255859 l 41.89258,-15.386719 z"
       style="color:#000000;font-style:normal;font-variant:normal;font-weight:normal;font-stretch:normal;font-size:medium;line-height:normal;font-family:sans-serif;font-variant-ligatures:normal;font-variant-position:normal;font-variant-caps:normal;font-variant-numeric:normal;font-variant-alternates:normal;font-feature-settings:normal;text-indent:0;text-align:start;text-decoration:none;text-decoration-line:none;text-decoration-style:solid;text-decoration-color:#000000;letter-spacing:normal;word-spacing:normal;text-transform:none;writing-mode:lr-tb;direction:ltr;text-orientation:mixed;dominant-baseline:auto;baseline-shift:baseline;text-anchor:start;white-space:normal;shape-padding:0;clip-rule:nonzero;display:inline;overflow:visible;visibility:visible;opacity:1;isolation:auto;mix-blend-mode:normal;color-interpolation:sRGB;color-interpolation-filters:linearRGB;solid-color:#000000;solid-opacity:1;vector-effect:none;fill:#e7040f;fill-opacity:1;fill-rule:nonzero;stroke:none;stroke-width:1.33300006;stroke-linecap:round;stroke-linejoin:miter;stroke-miterlimit:4;stroke-dasharray:none;stroke-dashoffset:0;stroke-opacity:1;color-rendering:auto;image-rendering:auto;shape-rendering:auto;text-rendering:auto;enable-background:accumulate"
       inkscape:connector-curvature="0" />
    <path
       d="m 59.451669,10.642314 2.463432,10e-4 -1.877244,1.595133 c 0.173687,-0.598525 -0.06506,-1.242462 -0.586188,-1.596176 z"
       style="fill:#e7040f;fill-opacity:1;fill-rule:evenodd;stroke:#e7040f;stroke-width:0.13225859;stroke-linejoin:round;stroke-opacity:1"
       id="path2602"
       inkscape:connector-curvature="0" />
    <path
       id="path1514"
       transform="scale(0.26458331)"
       d="m 191.0293,39.5625 -7.91992,13.011719 a 8.4935679,8.4935679 0 0 0 4.2539,3.412109 l 10.27734,-3.759766 a 8.4935679,8.4935679 0 0 0 1.12891,-4.208984 8.4935679,8.4935679 0 0 0 -7.74023,-8.455078 z m -3.00196,0.265625 a 8.4935679,8.4935679 0 0 0 -6.24414,8.189453 8.4935679,8.4935679 0 0 0 0.19336,1.75586 z"
       style="opacity:1;vector-effect:none;fill:#000000;fill-opacity:1;stroke:none;stroke-width:3.7795279;stroke-linecap:butt;stroke-linejoin:miter;stroke-miterlimit:4;stroke-dasharray:none;stroke-dashoffset:0;stroke-opacity:1;paint-order:markers fill stroke"
       inkscape:connector-curvature="0" />
    <path
       inkscape:connector-curvature="0"
       d="m 59.41545,13.614701 c 0.395149,-0.200232 0.553169,-0.682913 0.352837,-1.078062 -0.136262,-0.268814 -0.403271,-0.427535 -0.684417,-0.438665 0.156616,0.512461 0.264502,1.020108 0.324862,1.520236 z"
       id="path1397-2"
       style="fill:#000000;stroke-width:0.10026614" />
    <path
       inkscape:connector-curvature="0"
       d="m 49.65424,15.537504 -1.613483,0.590167 5.020426,1.729291 v -1.021813 l 5.441143,-2.75762 c -0.05264,-0.531511 -0.16223,-1.076457 -0.330477,-1.631029 l -6.099089,3.091004 z"
       id="path1399-5"
       style="fill:#000000;stroke-width:0.10026614" />
    <path
       id="path1403-6"
       transform="scale(0.26458331)"
       d="m 176.375,59.746094 c -0.58324,-0.02796 -1.18048,0.111358 -1.7168,0.4375 l -5.08984,3.09375 -8.20508,4.990234 c -0.0257,0.0155 -0.0488,0.03442 -0.0742,0.05078 -0.055,0.03553 -0.10984,0.07229 -0.16211,0.111329 -0.0302,0.02268 -0.0587,0.0468 -0.0879,0.07031 -0.0489,0.03942 -0.0987,0.07903 -0.14453,0.121094 -0.0314,0.02835 -0.0599,0.05833 -0.0898,0.08789 -0.0398,0.0398 -0.0797,0.07745 -0.11719,0.119141 -0.0317,0.03515 -0.0622,0.07298 -0.0918,0.109375 -0.0317,0.03904 -0.0638,0.07667 -0.0937,0.117188 -0.0299,0.04055 -0.0563,0.08331 -0.084,0.125 -0.0261,0.03904 -0.0539,0.07705 -0.0781,0.117187 -0.0261,0.04358 -0.0484,0.09005 -0.0723,0.134766 -0.0219,0.04131 -0.0444,0.08098 -0.0645,0.123047 -0.0212,0.04433 -0.0416,0.09121 -0.0605,0.136718 -0.0189,0.04509 -0.0361,0.08888 -0.0527,0.134766 -0.0155,0.0432 -0.0293,0.0869 -0.043,0.130859 -0.0155,0.04963 -0.032,0.10001 -0.0449,0.150391 -0.0106,0.04131 -0.0183,0.08369 -0.0273,0.125 -0.0113,0.0542 -0.0229,0.107571 -0.0312,0.162109 -0.006,0.0398 -0.009,0.079 -0.0137,0.119141 -0.006,0.05684 -0.0142,0.114653 -0.0176,0.171875 -0.002,0.04018 -0.001,0.08092 -0.002,0.121094 -0.001,0.05684 -0.002,0.112699 0,0.169921 0.002,0.0432 0.006,0.08571 0.01,0.128907 0.005,0.05382 0.008,0.107948 0.0156,0.162109 0.006,0.04811 0.0147,0.0968 0.0234,0.144531 0.009,0.04853 0.018,0.09604 0.0293,0.144532 0.0125,0.05306 0.0293,0.105516 0.0449,0.158203 0.0129,0.04358 0.0242,0.08766 0.0391,0.130859 0.0185,0.0542 0.0405,0.106752 0.0625,0.160156 0.0136,0.03326 0.0238,0.06665 0.0391,0.09961 0.003,0.0068 0.009,0.01273 0.0117,0.01953 0.0481,0.10458 0.10073,0.208172 0.16211,0.308594 0.007,0.01172 0.0163,0.02186 0.0234,0.0332 0.0336,0.05382 0.071,0.103122 0.10743,0.154297 0.0462,0.0644 0.0922,0.129585 0.14257,0.189453 0.0398,0.04736 0.0829,0.09039 0.125,0.134765 0.0546,0.0576 0.11119,0.114905 0.16993,0.167969 0.0432,0.03866 0.0877,0.07336 0.13281,0.109375 0.064,0.05118 0.12942,0.101017 0.19726,0.146485 0.0455,0.03061 0.0917,0.05985 0.13868,0.08789 0.0716,0.04282 0.1441,0.0824 0.21875,0.119141 0.0481,0.02381 0.0972,0.04712 0.14648,0.06836 0.0773,0.03288 0.15482,0.0594 0.23438,0.08594 0.05,0.01663 0.0992,0.03469 0.15039,0.04883 0.0845,0.02305 0.17141,0.04073 0.25781,0.05664 0.0477,0.0087 0.0945,0.02092 0.14258,0.02734 0.12087,0.01625 0.24281,0.02388 0.36523,0.02539 0.0132,0 0.0257,0.0039 0.0391,0.0039 0.12167,0 0.2432,-0.01065 0.36524,-0.02539 0.0383,-0.0045 0.077,-0.01153 0.11523,-0.01758 0.0834,-0.01361 0.167,-0.03026 0.25,-0.05078 0.0443,-0.01096 0.0889,-0.02231 0.13281,-0.03516 0.083,-0.02457 0.16427,-0.05531 0.2461,-0.08789 0.0367,-0.01436 0.0749,-0.0266 0.11133,-0.04297 0.008,-0.0038 0.0171,-0.006 0.0254,-0.0098 l 15.86133,-7.158203 v 15.980468 1.544922 3.046875 l -9.44922,10.533203 c -0.90761,1.01144 -1.32492,2.369978 -1.14454,3.7168 l 2.4629,18.37891 c 0.31264,2.33211 2.30565,4.02576 4.5957,4.02539 0.20538,0 0.41191,-0.0129 0.62109,-0.041 2.54092,-0.34031 4.32506,-2.6755 3.98438,-5.2168 l -2.17774,-16.25781 12.01172,-13.392579 24.61524,32.740239 c 0.91215,1.21342 2.30316,1.85351 3.71289,1.85351 0.97089,0 1.95112,-0.30369 2.78711,-0.93164 2.0494,-1.54047 2.46076,-4.45059 0.91992,-6.5 L 200.54688,86.09375 V 83.990234 82.445312 70.056641 l -20.45899,-7.046875 c -0.0144,0.226998 -0.0446,0.454208 -0.0996,0.679687 -0.2448,1.003106 -0.86583,1.850495 -1.74805,2.386719 l -4.96484,3.019531 -0.44922,-0.703125 4.98242,-3.029297 c 1.43057,-0.869711 1.88376,-2.733492 1.01368,-4.164062 -0.54357,-0.893868 -1.47521,-1.406529 -2.44727,-1.453125 z"
       style="fill:#000000;stroke-width:0.3789587"
       inkscape:connector-curvature="0" />
    <path
       id="path2615"
       d="m 56.949605,19.429635 -9.386616,-3.233282 c 0.03389,0.0764 0.05835,0.155814 0.07249,0.23713 l 9.266197,3.191772"
       style="fill:#d38d5f;stroke-width:0.10026614"
       inkscape:connector-curvature="0" />
    <path
       sodipodi:nodetypes="ccscccccccccc"
       inkscape:connector-curvature="0"
       id="path2611"
       d="m 56.901676,19.625255 c -0.05555,0.328371 -0.0055,0.666168 -0.0055,0.666168 0,0 0.252671,-0.728033 0.551664,-1.08137 0.298994,-0.353338 2.883855,-3.038064 1.275285,-7.499908 C 57.114541,7.2483009 53.41121,6.8305922 52.955501,6.7492763 52.499891,6.6679603 51.840742,6.2686004 51.840742,6.2686004 c 0,0 0.18439,0.3049093 0.445382,0.5234895 l 0.163536,0.1169109 c 0.07731,0.045421 0.158521,0.07921 0.241742,0.093247 0.453905,0.076503 3.920005,0.4274346 5.528575,4.8891782 1.60857,4.461843 -0.83632,6.943732 -1.137018,7.292257 -0.05946,0.06888 -0.102171,0.154008 -0.133354,0.245952 z"
       style="fill:#552200;stroke-width:0.10026614" />
    <path
       id="path1417-0"
       d="m 52.286124,6.7920899 -5.375168,8.8346511 c 0.06578,0.01875 0.128742,0.04422 0.188801,0.0754 L 52.44966,6.9090008"
       style="fill:#d38d5f;stroke-width:0.10026614"
       inkscape:connector-curvature="0" />
    <g
       id="g2665"
       ns1:jacobian_sqrt="0.539544"
       inkscapeversion="0.92.4"
       ns1:alignment="middle center"
       ns1:scale="1.52941708383"
       ns1:preamble="/home/fdf/.config/inkscape/extensions/textext/default_packages.tex"
       ns1:text="$\\vec{v}$"
       ns1:pdfconverter="pdf2svg"
       ns1:texconverter="pdflatex"
       ns1:version="0.9.0"
       transform="matrix(0.50954549,-0.17740101,0.17740101,0.50954549,-40.470431,-32.861389)"
       style="fill:#e7040f;fill-opacity:1">
      <g
         id="surface1"
         style="fill:#e7040f;fill-opacity:1">
        <g
           id="g2658"
           style="fill:#e7040f;fill-opacity:1">
          <path
             id="path2656"
             transform="translate(148.325,134.765)"
             d="m 5.359375,-5.9375 c -0.140625,0.140625 -0.46875,0.421875 -0.46875,0.59375 0,0.09375 0.09375,0.203125 0.1875,0.203125 0.09375,0 0.140625,-0.078125 0.203125,-0.140625 C 5.390625,-5.421875 5.625,-5.703125 6.0625,-5.921875 6.125,-5.96875 6.234375,-6.015625 6.234375,-6.125 6.234375,-6.234375 6.15625,-6.28125 6.09375,-6.328125 5.875,-6.484375 5.765625,-6.65625 5.6875,-6.890625 5.65625,-6.984375 5.625,-7.125 5.484375,-7.125 c -0.140625,0 -0.203125,0.140625 -0.203125,0.21875 0,0.046875 0.078125,0.359375 0.234375,0.578125 H 2.15625 c -0.15625,0 -0.34375,0 -0.34375,0.203125 0,0.1875 0.1875,0.1875 0.34375,0.1875 z m 0,0"
             style="fill:#e7040f;fill-opacity:1;stroke:none;stroke-width:0"
             inkscape:connector-curvature="0" />
        </g>
        <g
           id="g2662"
           style="fill:#e7040f;fill-opacity:1">
          <path
             id="path2660"
             transform="translate(148.71354,134.765)"
             d="m 4.671875,-3.703125 c 0,-0.546875 -0.265625,-0.703125 -0.4375,-0.703125 -0.25,0 -0.5,0.265625 -0.5,0.484375 0,0.125 0.046875,0.1875 0.15625,0.296875 0.21875,0.203125 0.34375,0.453125 0.34375,0.8125 0,0.421875 -0.609375,2.703125 -1.765625,2.703125 -0.515625,0 -0.75,-0.34375 -0.75,-0.875 0,-0.546875 0.28125,-1.28125 0.578125,-2.109375 0.078125,-0.171875 0.125,-0.3125 0.125,-0.5 0,-0.4375 -0.3125,-0.8125 -0.8125,-0.8125 -0.9375,0 -1.3125,1.453125 -1.3125,1.53125 0,0.109375 0.09375,0.109375 0.109375,0.109375 0.109375,0 0.109375,-0.03125 0.15625,-0.1875 0.296875,-1 0.71875,-1.234375 1.015625,-1.234375 0.078125,0 0.25,0 0.25,0.3125 0,0.25 -0.109375,0.53125 -0.171875,0.703125 -0.4375,1.15625 -0.5625,1.609375 -0.5625,2.046875 0,1.078125 0.875,1.234375 1.328125,1.234375 1.671875,0 2.25,-3.296875 2.25,-3.8125 z m 0,0"
             style="fill:#e7040f;fill-opacity:1;stroke:none;stroke-width:0"
             inkscape:connector-curvature="0" />
        </g>
      </g>
    </g>
  </g>
  <g
     transform="matrix(0.55245322,0.00892052,-0.00892052,0.55245322,-41.397861,-3.5106997)"
     id="g1058">
    <path
       inkscape:connector-curvature="0"
       style="fill:#ffb700;stroke-width:0.1978"
       id="bulb"
       d="m 133.93001,42.663001 c -0.0429,-0.043 -0.10735,-0.06437 -0.15029,-0.06437 -0.0644,0 -0.10735,0.02151 -0.15027,0.06437 -0.0859,0.08586 -0.0859,0.214699 0,0.300578 l 0.81584,0.837311 c 0.0859,0.08586 0.21467,0.08586 0.30056,0 0.0859,-0.08586 0.0859,-0.214699 0,-0.300581 z m -5.861,-5.243601 0.88024,0.88024 c 0.0859,0.08586 0.21469,0.08586 0.30055,0 0.0859,-0.08586 0.0859,-0.2147 0,-0.300581 l -0.88023,-0.88024 c -0.10735,-0.08586 -0.2147,-0.08586 -0.30059,0 -0.0644,0.06436 -0.0644,0.214702 0,0.300581 z m 5.51759,0.86519 c 0.0859,0.08586 0.2147,0.08586 0.30057,0 l 0.85878,-0.858771 c 0.0859,-0.08586 0.0859,-0.2147 0,-0.300579 -0.10735,-0.08586 -0.19322,-0.08586 -0.30056,0 l -0.85878,0.858769 c -0.0859,0.08586 -0.0859,0.2147 0,0.300581 z m -4.5082,4.2998 c -0.0644,0 -0.10735,0.02151 -0.15027,0.06436 l -0.8373,0.837309 c -0.0859,0.08586 -0.0859,0.214691 0,0.300562 0.0859,0.08586 0.2147,0.08586 0.30056,0 l 0.8373,-0.8373 c 0.0859,-0.08586 0.0859,-0.2147 0,-0.300581 -0.0429,-0.04287 -0.10735,-0.06436 -0.15029,-0.06436 z m 2.34001,0.996279 c -0.12881,0 -0.2147,0.08586 -0.2147,0.214702 v 1.159299 c 0,0.128861 0.0859,0.2147 0.2147,0.2147 0.12882,0 0.2147,-0.08586 0.2147,-0.2147 v -1.159299 c 0,-0.128861 -0.0859,-0.214702 -0.2147,-0.214702 z m 3.0701,-3.133098 c 0,0.128858 0.0859,0.2147 0.2147,0.2147 h 1.2238 c 0.12881,0 0.21469,-0.08586 0.21469,-0.2147 0,-0.12886 -0.0859,-0.214691 -0.21469,-0.214691 h -1.2238 c -0.12881,0 -0.2147,0.10736 -0.2147,0.214691 z m -7.57961,0.222849 h 1.22381 c 0.12881,0 0.2147,-0.08586 0.2147,-0.2147 0,-0.12886 -0.0859,-0.214691 -0.2147,-0.214691 h -1.22381 c -0.1288,0 -0.2147,0.08586 -0.2147,0.214691 0,0.128861 0.10735,0.2147 0.2147,0.2147 z m 3.5866,-3.736101 c -0.0429,0.794372 -0.32181,1.545402 -0.81561,2.125101 -0.34351,0.407909 -0.53652,0.944801 -0.53652,1.4816 0,1.245199 1.0088,2.275501 2.2755,2.275501 0.0859,0 0.17154,-0.02098 0.25742,-0.02098 1.0091,-0.12886 1.8468,-0.923439 1.99699,-1.910999 0.10735,-0.644069 -0.0643,-1.267001 -0.47216,-1.7823 -0.51527,-0.66554 -0.81605,-1.394901 -0.85898,-2.167701 z" />
    <path
       sodipodi:nodetypes="csssscssscc"
       inkscape:connector-curvature="0"
       id="wire"
       d="m 130.98332,34.142302 h -0.38292 c -0.19521,0 -0.35192,0.157219 -0.35192,0.352421 v 2.611695 c 0,0.195213 0.1567,0.352421 0.35192,0.352421 h 1.64277 c 0.19522,2e-6 0.35242,-0.157216 0.35242,-0.352421 v -2.611695 c 0,-0.19521 -0.15721,-0.352421 -0.35242,-0.352421 h -0.3767 z"
       dominant-baseline="auto"
       style="color:#000000;font-variant-ligatures:normal;font-variant-position:normal;font-variant-caps:normal;font-variant-numeric:normal;font-variant-alternates:normal;font-feature-settings:normal;text-indent:0;text-decoration:none;text-decoration-line:none;text-decoration-style:solid;text-decoration-color:#000000;text-transform:none;text-orientation:mixed;dominant-baseline:auto;white-space:normal;shape-padding:0;isolation:auto;mix-blend-mode:normal;solid-color:#000000;stroke-width:0.26458001;color-rendering:auto;image-rendering:auto;shape-rendering:auto" />
  </g>
  <text
     xml:space="preserve"
     style="font-style:normal;font-variant:normal;font-weight:normal;font-stretch:normal;font-size:4.93888855px;line-height:1;font-family:Quicksand;-inkscape-font-specification:'Quicksand, Normal';font-variant-ligatures:normal;font-variant-position:normal;font-variant-caps:normal;font-variant-numeric:normal;font-variant-alternates:normal;font-feature-settings:normal;text-indent:0;text-align:end;text-decoration:none;text-decoration-line:none;text-decoration-style:solid;text-decoration-color:#000000;letter-spacing:0px;word-spacing:0px;text-transform:none;writing-mode:lr-tb;direction:ltr;text-orientation:mixed;dominant-baseline:auto;baseline-shift:baseline;text-anchor:end;white-space:normal;shape-padding:0;opacity:1;vector-effect:none;fill:#555555;fill-opacity:1;stroke:none;stroke-width:0.71912855px;stroke-linecap:butt;stroke-linejoin:miter;stroke-miterlimit:4;stroke-dasharray:none;stroke-dashoffset:0;stroke-opacity:1"
     x="120.74044"
     y="41.201866"
     id="text1719"><tspan
       sodipodi:role="line"
       id="tspan1717"
       x="120.74044"
       y="41.201866"
       style="font-size:6.34999943px;line-height:1;text-align:end;text-anchor:end;stroke-width:0.71912855px">Nieuwe lessen vectoren</tspan><tspan
       sodipodi:role="line"
       x="120.74044"
       y="46.422977"
       style="font-size:4.93888855px;line-height:1;text-align:end;text-anchor:end;stroke-width:0.71912855px"
       id="tspan1721">https://hoezithet.nu/</tspan></text>
</svg>
