<?xml version="1.0" encoding="UTF-8" standalone="no"?>
<!-- Created with Inkscape (http://www.inkscape.org/) -->

<svg
   xmlns:dc="http://purl.org/dc/elements/1.1/"
   xmlns:cc="http://creativecommons.org/ns#"
   xmlns:rdf="http://www.w3.org/1999/02/22-rdf-syntax-ns#"
   xmlns:svg="http://www.w3.org/2000/svg"
   xmlns="http://www.w3.org/2000/svg"
   xmlns:sodipodi="http://sodipodi.sourceforge.net/DTD/sodipodi-0.dtd"
   xmlns:inkscape="http://www.inkscape.org/namespaces/inkscape"
   width="161.47485mm"
   height="59.27784mm"
   viewBox="0 0 161.47485 59.277841"
   version="1.1"
   id="svg5423"
   sodipodi:docname="contact.svg"
   inkscape:version="0.92.3 (unknown)"
   inkscape:export-filename="/home/fdf/quickstart/themes/hugo-paper/static/img/logo.png"
   inkscape:export-xdpi="90"
   inkscape:export-ydpi="90">
  <defs
     id="defs5417" />
  <sodipodi:namedview
     id="base"
     pagecolor="#ffffff"
     bordercolor="#666666"
     borderopacity="1.0"
     inkscape:pageopacity="0.0"
     inkscape:pageshadow="2"
     inkscape:zoom="1.4"
     inkscape:cx="292.13793"
     inkscape:cy="70.068395"
     inkscape:document-units="mm"
     inkscape:current-layer="g916"
     showgrid="false"
     inkscape:window-width="1600"
     inkscape:window-height="854"
     inkscape:window-x="0"
     inkscape:window-y="180"
     inkscape:window-maximized="1"
     inkscape:snap-midpoints="true"
     inkscape:snap-global="false" />
  <metadata
     id="metadata5420">
    <rdf:RDF>
      <cc:Work
         rdf:about="">
        <dc:format>image/svg+xml</dc:format>
        <dc:type
           rdf:resource="http://purl.org/dc/dcmitype/StillImage" />
        <dc:title />
      </cc:Work>
    </rdf:RDF>
  </metadata>
  <g
     inkscape:label="Layer 1"
     inkscape:groupmode="layer"
     id="layer1"
     transform="translate(-10.09902,-233.25012)">
    <g
       id="g1604"
       transform="matrix(1.9771757,0,0,1.9771757,-803.08015,-251.17144)"
       style="fill:#000000;stroke-width:0.50577193"
       inkscape:export-xdpi="90"
       inkscape:export-ydpi="90">
      <g
         id="g916"
         transform="matrix(0.79672903,0,0,0.79672903,91.035167,53.170362)"
         style="stroke-width:0.63481051">
        <g
           transform="matrix(-0.36985591,0,0,0.36985591,448.04498,229.06789)"
           id="g1348-2-1-2"
           style="fill:#000000;stroke:none;stroke-width:1.71637249">
          <circle
             r="10"
             cy="52.248337"
             cx="86.092468"
             id="path1114-1-7-9"
             style="color:#000000;clip-rule:nonzero;display:inline;overflow:visible;visibility:visible;opacity:1;isolation:auto;mix-blend-mode:normal;color-interpolation:sRGB;color-interpolation-filters:linearRGB;solid-color:#000000;solid-opacity:1;fill:#000000;fill-opacity:1;fill-rule:evenodd;stroke:none;stroke-width:42.90930557;stroke-linecap:square;stroke-linejoin:round;stroke-miterlimit:4;stroke-dasharray:none;stroke-dashoffset:0;stroke-opacity:1;color-rendering:auto;image-rendering:auto;shape-rendering:auto;text-rendering:auto;enable-background:accumulate" />
          <path
             style="color:#000000;clip-rule:nonzero;display:inline;overflow:visible;visibility:visible;opacity:1;isolation:auto;mix-blend-mode:normal;color-interpolation:sRGB;color-interpolation-filters:linearRGB;solid-color:#000000;solid-opacity:1;fill:#000000;fill-opacity:1;fill-rule:evenodd;stroke:none;stroke-width:162.17694092;stroke-linecap:square;stroke-linejoin:round;stroke-miterlimit:4;stroke-dasharray:none;stroke-dashoffset:0;stroke-opacity:1;color-rendering:auto;image-rendering:auto;shape-rendering:auto;text-rendering:auto;enable-background:accumulate"
             d="m 1593.1523,880.55273 c -20.9385,0 -37.7949,16.85635 -37.7949,37.79493 v 34.34179 h 32.8711 v -36.03906 c -0.017,-1.06732 0.8526,-1.93697 1.9199,-1.91992 1.0436,0.0167 1.8761,0.8763 1.8594,1.91992 v 37.92773 c 4e-4,1.04357 -0.8451,1.88994 -1.8887,1.89063 h -34.7617 -14.9629 c -2.3637,0 -4.6088,0.47231 -6.6465,1.32813 -1.0188,0.4279 -1.9864,0.95179 -2.8906,1.56054 -0.4521,0.30438 -0.8873,0.62916 -1.3066,0.97461 -0.4193,0.34545 -0.8213,0.71194 -1.2051,1.0957 -0.3834,0.38346 -0.7506,0.78419 -1.0957,1.20313 -3e-4,3.7e-4 3e-4,0.002 0,0.002 -1.3813,1.677 -2.4453,3.62648 -3.1035,5.76172 -2e-4,5.9e-4 2e-4,10e-4 0,0.002 -0.3289,1.06734 -0.5567,2.18134 -0.6719,3.33008 -0.058,0.5747 -0.088,1.15907 -0.088,1.75 0,0.59094 0.03,1.1733 0.088,1.74805 10e-5,6.4e-4 -10e-5,0.001 0,0.002 0.1153,1.14882 0.3429,2.26252 0.6719,3.33008 2e-4,6e-4 -2e-4,10e-4 0,0.002 0.1645,0.53347 0.3546,1.05542 0.5683,1.56446 3e-4,5.6e-4 -2e-4,10e-4 0,0.002 0.2138,0.50902 0.4527,1.0045 0.7129,1.48633 3e-4,5.1e-4 -2e-4,10e-4 0,0.002 1.0421,1.92877 2.4462,3.62937 4.1231,5.01172 0.8386,0.69135 1.7447,1.30273 2.709,1.82422 1.4464,0.78223 3.0223,1.36143 4.6894,1.69922 1.1114,0.22519 2.2635,0.34375 3.4453,0.34375 0,0 80.1268,0.0293 90.5528,0.0293 v -72.17382 c 0,-20.93858 -16.8564,-37.79493 -37.795,-37.79493 z m -89.6777,113.74995 c -5.0365,0.46052 -9.4801,2.60538 -12.584,6.22072 l -79.1426,79.1426 c -7.4029,7.4029 -7.4029,19.3217 0,26.7246 7.4029,7.4029 19.3237,7.4029 26.7266,0 l 47.8574,-47.8574 v 67.6875 c 0,10.4693 8.4292,18.8984 18.8985,18.8984 10.4693,0 18.8984,-8.4291 18.8984,-18.8984 v -94.4883 h 69.2126 v 0 c 20.7285,-0.1013 37.4017,-16.7241 37.5957,-37.42972 -10.4472,-10e-6 -127.367,-0.009 -127.4629,0 z"
             transform="matrix(-0.26458333,0,0,0.26458333,496.676,-170.90929)"
             id="rect1116-7-9-0"
             inkscape:connector-curvature="0"
             sodipodi:nodetypes="csccccccccsccsccccccscccccccccccccssccssscssscsccccc" />
          <g
             transform="translate(-10.723601,0.60112632)"
             id="g1251-5-1-3"
             style="fill:#000000;stroke:none;stroke-width:1.71637249">
            <rect
               style="color:#000000;clip-rule:nonzero;display:inline;overflow:visible;visibility:visible;opacity:1;isolation:auto;mix-blend-mode:normal;color-interpolation:sRGB;color-interpolation-filters:linearRGB;solid-color:#000000;solid-opacity:1;fill:#000000;fill-opacity:1;fill-rule:evenodd;stroke:none;stroke-width:1.8516264;stroke-linecap:square;stroke-linejoin:round;stroke-miterlimit:4;stroke-dasharray:none;stroke-dashoffset:0;stroke-opacity:1;paint-order:fill markers stroke;color-rendering:auto;image-rendering:auto;shape-rendering:auto;text-rendering:auto;enable-background:accumulate"
               id="rect1229-6-0-0"
               width="15.668805"
               height="11.294343"
               x="-106.98386"
               y="-168.22519"
               transform="matrix(0.5,-0.8660254,-0.99991011,0.01340771,0,0)"
               ry="0" />
            <rect
               style="color:#000000;clip-rule:nonzero;display:inline;overflow:visible;visibility:visible;opacity:1;isolation:auto;mix-blend-mode:normal;color-interpolation:sRGB;color-interpolation-filters:linearRGB;solid-color:#000000;solid-opacity:1;fill:#000000;fill-opacity:1;fill-rule:evenodd;stroke:none;stroke-width:1.71637249;stroke-linecap:square;stroke-linejoin:round;stroke-miterlimit:4;stroke-dasharray:none;stroke-dashoffset:0;stroke-opacity:1;paint-order:fill markers stroke;color-rendering:auto;image-rendering:auto;shape-rendering:auto;text-rendering:auto;enable-background:accumulate"
               id="rect1246-5-3-3"
               width="9.6449051"
               height="2.4550581"
               x="134.8607"
               y="5.2323093"
               transform="rotate(30)" />
          </g>
        </g>
        <text
           xml:space="preserve"
           style="color:#000000;font-style:normal;font-variant:normal;font-weight:normal;font-stretch:normal;font-size:21.71759987px;line-height:129.99999523%;font-family:Nunito;-inkscape-font-specification:Nunito;text-indent:0;text-align:start;text-decoration:none;text-decoration-line:none;text-decoration-style:solid;text-decoration-color:#000000;letter-spacing:0px;word-spacing:0px;text-transform:none;writing-mode:lr-tb;direction:ltr;baseline-shift:baseline;text-anchor:start;white-space:normal;clip-rule:nonzero;display:inline;overflow:visible;visibility:visible;opacity:1;isolation:auto;mix-blend-mode:normal;color-interpolation:sRGB;color-interpolation-filters:linearRGB;solid-color:#000000;solid-opacity:1;fill:#000000;fill-opacity:1;fill-rule:nonzero;stroke:none;stroke-width:0.45651034px;stroke-linecap:butt;stroke-linejoin:miter;stroke-miterlimit:4;stroke-dasharray:none;stroke-dashoffset:0;stroke-opacity:1;color-rendering:auto;image-rendering:auto;shape-rendering:auto;text-rendering:auto;enable-background:accumulate"
           x="449.30731"
           y="278.25824"
           id="text1000"><tspan
             sodipodi:role="line"
             id="tspan998"
             x="449.30731"
             y="278.25824"
             style="text-align:center;text-anchor:middle;stroke-width:0.45651034px">contact</tspan></text>
        <path
           inkscape:connector-curvature="0"
           d="m 441.09888,250.86162 -2.19234,-2.0879 a 0.19303157,0.16726782 0 0 0 -0.1947,-0.0477 l -0.0736,0.0181 v 0 l -0.0154,0.005 -0.52291,0.12508 0.1869,-0.56798 a 0.19303157,0.16726782 0 0 0 -0.043,-0.15938 l -1.95062,-1.84225 a 0.19303157,0.16726782 0 0 0 -0.2553,-0.0235 l -8.43254,5.23974 v 0 l -0.0128,0.009 -0.0134,0.0112 -0.0156,0.0177 v 0 0 c 0,0 -0.002,0.007 -0.003,0.009 -7.9e-4,0.002 -0.004,0.01 -0.005,0.0155 -0.002,0.006 -0.004,0.01 -0.005,0.0155 -0.002,0.006 -0.002,0.007 -0.004,0.01 v 0 c 0,0 0,0 0,0 0,0 -0.004,0.01 -0.005,0.0155 -0.002,0.006 -0.004,0.01 -0.005,0.0155 l -0.004,0.0122 -0.002,0.006 -0.004,0.0122 0.003,0.0163 -0.003,0.009 v 0 0 0 0 l 0.009,0.0154 0.009,0.0155 v 0 l 0.0156,0.0159 0.0119,0.0111 v 0 l 0.024,0.0155 0.0129,0.003 v 0 a 0.19569407,0.16957496 0 0 0 0.051,0.051 v 0 a 0.19303157,0.16726782 0 0 0 0.0563,0.006 l 0.008,0.002 13.23694,-0.68194 a 0.19303157,0.16726782 0 0 0 0.13106,-0.28069 z m -4.97644,-4.22846 1.65787,1.5708 -8.76115,2.85181 z m 1.66742,1.93302 -0.13894,0.42149 -5.14401,1.29127 z m -8.35503,2.8334 9.26196,-2.32503 1.84287,1.75325 z"
           id="path895"
           style="fill:#000000;stroke-width:0.10662295" />
        <path
           style="color:#000000;clip-rule:nonzero;display:inline;overflow:visible;visibility:visible;opacity:1;isolation:auto;mix-blend-mode:normal;color-interpolation:sRGB;color-interpolation-filters:linearRGB;solid-color:#000000;solid-opacity:1;fill:none;fill-opacity:1;fill-rule:evenodd;stroke:#000000;stroke-width:0.63481051;stroke-linecap:round;stroke-linejoin:miter;stroke-miterlimit:4;stroke-dasharray:1.90443147, 1.90443147;stroke-dashoffset:0;stroke-opacity:1;color-rendering:auto;image-rendering:auto;shape-rendering:auto;text-rendering:auto;enable-background:accumulate"
           d="m 441.96368,248.29283 c 37.67108,-11.03739 55.07668,-7.82569 60.34573,-0.71984 4.00623,5.40282 0.47988,12.59702 -1.43967,14.99646 -1.91954,2.39943 -8.79453,5.96946 -13.83334,6.08944"
           id="path915"
           inkscape:connector-curvature="0"
           sodipodi:nodetypes="cssc" />
      </g>
    </g>
  </g>
</svg>
