<?xml version="1.0" encoding="UTF-8" standalone="no"?>
<!-- Created with Inkscape (http://www.inkscape.org/) -->

<svg
   xmlns:dc="http://purl.org/dc/elements/1.1/"
   xmlns:cc="http://creativecommons.org/ns#"
   xmlns:rdf="http://www.w3.org/1999/02/22-rdf-syntax-ns#"
   xmlns:svg="http://www.w3.org/2000/svg"
   xmlns="http://www.w3.org/2000/svg"
   xmlns:sodipodi="http://sodipodi.sourceforge.net/DTD/sodipodi-0.dtd"
   xmlns:inkscape="http://www.inkscape.org/namespaces/inkscape"
   width="59.734749mm"
   height="35.747295mm"
   viewBox="0 0 59.734748 35.747295"
   version="1.1"
   id="svg8"
   inkscape:version="0.92.4 (unknown)"
   sodipodi:docname="default.svg">
  <defs
     id="defs2">
     <style type="text/css">
      @import url('https://fonts.googleapis.com/css?family=Quicksand:300');
     </style>
  </defs>
  <sodipodi:namedview
     id="base"
     pagecolor="#ffffff"
     bordercolor="#666666"
     borderopacity="1.0"
     inkscape:pageopacity="0.0"
     inkscape:pageshadow="2"
     inkscape:zoom="1.4"
     inkscape:cx="89.141873"
     inkscape:cy="-41.56318"
     inkscape:document-units="mm"
     inkscape:current-layer="text-layer"
     showgrid="false"
     inkscape:window-width="1920"
     inkscape:window-height="1055"
     inkscape:window-x="1600"
     inkscape:window-y="25"
     inkscape:window-maximized="1" />
  <metadata
     id="metadata5">
    <rdf:RDF>
      <cc:Work
         rdf:about="">
        <dc:format>image/svg+xml</dc:format>
        <dc:type
           rdf:resource="http://purl.org/dc/dcmitype/StillImage" />
        <dc:title />
      </cc:Work>
    </rdf:RDF>
  </metadata>
  <g
     inkscape:label="guy"
     inkscape:groupmode="layer"
     id="guy"
     transform="translate(-119.95587,-93.800835)">
    <circle
       style="color:#000000;clip-rule:nonzero;display:inline;overflow:visible;visibility:visible;opacity:1;isolation:auto;mix-blend-mode:normal;color-interpolation:sRGB;color-interpolation-filters:linearRGB;solid-color:#000000;solid-opacity:1;fill:#000000;fill-opacity:1;fill-rule:evenodd;stroke:none;stroke-width:25;stroke-linecap:square;stroke-linejoin:round;stroke-miterlimit:4;stroke-dasharray:none;stroke-dashoffset:0;stroke-opacity:1;color-rendering:auto;image-rendering:auto;shape-rendering:auto;text-rendering:auto;enable-background:accumulate"
       id="path1114-1-7-9"
       cx="-137.86295"
       cy="101.41177"
       r="3.2521131"
       transform="scale(-1,1)" />
    <path
       sodipodi:nodetypes="csccccccccsccsccccccscccccccccccccssccssscssscsccccc"
       inkscape:connector-curvature="0"
       id="rect1116-7-9-0"
       d="m 141.42011,104.60597 c -1.80167,0 -3.25208,1.45042 -3.25208,3.25209 v 2.95495 h 2.82841 v -3.101 c -0.001,-0.0918 0.0734,-0.16666 0.1652,-0.1652 0.0898,0.001 0.16143,0.0754 0.15999,0.1652 v 3.26352 c 3e-5,0.0898 -0.0727,0.16262 -0.16252,0.16268 h -2.99108 -1.28749 c -0.20339,0 -0.39657,0.0406 -0.5719,0.11427 -0.0877,0.0368 -0.17093,0.0819 -0.24873,0.13428 -0.0389,0.0262 -0.0763,0.0541 -0.11242,0.0839 -0.0361,0.0297 -0.0707,0.0613 -0.1037,0.0943 -0.033,0.033 -0.0646,0.0675 -0.0943,0.10353 -2e-5,3e-5 3e-5,1.7e-4 0,1.7e-4 -0.11885,0.1443 -0.21041,0.31204 -0.26704,0.49577 -2e-5,5e-5 2e-5,9e-5 0,1.7e-4 -0.0283,0.0918 -0.0479,0.1877 -0.0578,0.28654 -0.005,0.0494 -0.008,0.0997 -0.008,0.15058 0,0.0509 0.003,0.10096 0.008,0.15041 0,6e-5 -1e-5,9e-5 0,1.7e-4 0.01,0.0988 0.0295,0.19468 0.0578,0.28654 2e-5,5e-5 -2e-5,9e-5 0,1.7e-4 0.0142,0.0459 0.0305,0.0908 0.0489,0.13462 3e-5,5e-5 -2e-5,8e-5 0,1.7e-4 0.0184,0.0438 0.0389,0.0864 0.0613,0.12789 3e-5,5e-5 -2e-5,9e-5 0,1.7e-4 0.0897,0.16597 0.21049,0.3123 0.35478,0.43124 0.0722,0.0595 0.15012,0.11209 0.23309,0.15697 0.12446,0.0673 0.26006,0.11714 0.4035,0.14621 0.0956,0.0194 0.19477,0.0296 0.29646,0.0296 0,0 6.89455,0.003 7.79166,0.003 v -6.21024 c 0,-1.80167 -1.45042,-3.25208 -3.25209,-3.25208 z m -7.71636,9.78767 c -0.43337,0.0396 -0.81572,0.22419 -1.0828,0.53527 l -6.80986,6.80986 c -0.63699,0.63699 -0.63699,1.66255 0,2.29953 0.63698,0.63699 1.66271,0.63699 2.2997,0 l 4.11791,-4.11791 v 5.8242 c 0,0.90084 0.7253,1.62613 1.62613,1.62613 0.90084,0 1.62613,-0.72529 1.62613,-1.62613 v -8.13029 h 5.95543 v 0 c 1.78359,-0.009 3.21825,-1.43903 3.23494,-3.22066 -0.89894,0 -10.95936,-7.7e-4 -10.96761,0 z"
       style="color:#000000;clip-rule:nonzero;display:inline;overflow:visible;visibility:visible;opacity:1;isolation:auto;mix-blend-mode:normal;color-interpolation:sRGB;color-interpolation-filters:linearRGB;solid-color:#000000;solid-opacity:1;fill:#000000;fill-opacity:1;fill-rule:evenodd;stroke:none;stroke-width:25.00000381;stroke-linecap:square;stroke-linejoin:round;stroke-miterlimit:4;stroke-dasharray:none;stroke-dashoffset:0;stroke-opacity:1;color-rendering:auto;image-rendering:auto;shape-rendering:auto;text-rendering:auto;enable-background:accumulate" />
    <g
       style="fill:#000000;stroke:none;stroke-width:3.07492375"
       id="g1251-5-1-3"
       transform="matrix(-0.32521131,0,0,0.32521131,169.34863,84.61551)">
      <rect
         ry="0"
         transform="matrix(0.5,-0.8660254,-0.99991011,0.01340771,0,0)"
         y="-168.22519"
         x="-106.98386"
         height="11.294343"
         width="15.668805"
         id="rect1229-6-0-0"
         style="color:#000000;clip-rule:nonzero;display:inline;overflow:visible;visibility:visible;opacity:1;isolation:auto;mix-blend-mode:normal;color-interpolation:sRGB;color-interpolation-filters:linearRGB;solid-color:#000000;solid-opacity:1;fill:#000000;fill-opacity:1;fill-rule:evenodd;stroke:none;stroke-width:3.31723499;stroke-linecap:square;stroke-linejoin:round;stroke-miterlimit:4;stroke-dasharray:none;stroke-dashoffset:0;stroke-opacity:1;paint-order:fill markers stroke;color-rendering:auto;image-rendering:auto;shape-rendering:auto;text-rendering:auto;enable-background:accumulate" />
      <rect
         transform="rotate(30)"
         y="5.2323093"
         x="134.8607"
         height="2.4550581"
         width="9.6449051"
         id="rect1246-5-3-3"
         style="color:#000000;clip-rule:nonzero;display:inline;overflow:visible;visibility:visible;opacity:1;isolation:auto;mix-blend-mode:normal;color-interpolation:sRGB;color-interpolation-filters:linearRGB;solid-color:#000000;solid-opacity:1;fill:#000000;fill-opacity:1;fill-rule:evenodd;stroke:none;stroke-width:3.07492375;stroke-linecap:square;stroke-linejoin:round;stroke-miterlimit:4;stroke-dasharray:none;stroke-dashoffset:0;stroke-opacity:1;paint-order:fill markers stroke;color-rendering:auto;image-rendering:auto;shape-rendering:auto;text-rendering:auto;enable-background:accumulate" />
    </g>
  </g>
  <g
     inkscape:groupmode="layer"
     id="lamp"
     inkscape:label="lamp">
    <path
       sodipodi:nodetypes="ccssccccc"
       style="fill:#ffb700;fill-opacity:1;stroke:none;stroke-width:0.67027771;stroke-linecap:round;stroke-linejoin:round;stroke-miterlimit:4;stroke-dasharray:none;stroke-dashoffset:0;stroke-opacity:1;paint-order:markers stroke fill"
       d="m 38.01946,5.5370483 c -0.02783,0.5147449 -0.20854,1.0014153 -0.528517,1.3770448 -0.222592,0.2643252 -0.347664,0.6122284 -0.347664,0.9600297 0,0.8068983 0.653689,1.4744943 1.474496,1.4744943 0.05565,0 0.11116,-0.013591 0.166808,-0.013591 0.653862,-0.083502 1.196695,-0.5983824 1.29408,-1.2383371 C 40.148225,7.6793341 40.037031,7.2756555 39.7727,6.9417683 39.438814,6.5104995 39.243918,6.0378961 39.216089,5.5370653 Z"
       id="rect1013-8"
       inkscape:connector-curvature="0" />
    <path
       style="fill:#ffb700;stroke-width:0.20629536"
       id="path922-7"
       d="m 35.696124,7.9577433 h 0.792984 c 0.08348,0 0.139119,-0.055639 0.139119,-0.1391239 0,-0.083502 -0.05565,-0.1391155 -0.139119,-0.1391155 h -0.792984 c -0.08347,0 -0.139119,0.055639 -0.139119,0.1391155 0,0.083501 0.06956,0.1391239 0.139119,0.1391239 z"
       inkscape:connector-curvature="0" />
    <path
       style="fill:#ffb700;stroke-width:0.20629536"
       id="path924-2"
       d="m 40.607055,7.8186194 c 0,0.083501 0.05565,0.1391239 0.139119,0.1391239 h 0.792984 c 0.08347,0 0.13912,-0.055639 0.13912,-0.1391239 0,-0.083502 -0.05565,-0.1391155 -0.13912,-0.1391155 h -0.792984 c -0.08347,0 -0.139119,0.06957 -0.139119,0.1391155 z"
       inkscape:connector-curvature="0" />
    <path
       style="fill:#ffb700;stroke-width:0.20629536"
       id="path926-6"
       d="m 38.617641,9.8497707 c -0.08347,0 -0.139119,0.055639 -0.139119,0.139124 v 0.7512423 c 0,0.0835 0.05565,0.139124 0.139119,0.139124 0.08348,0 0.13912,-0.05564 0.13912,-0.139124 V 9.9888947 c 0,-0.083502 -0.05565,-0.139124 -0.13912,-0.139124 z"
       inkscape:connector-curvature="0" />
    <path
       style="fill:#ffb700;stroke-width:0.20629536"
       id="path928-6"
       d="m 37.101235,9.1959104 c -0.04173,0 -0.06956,0.013931 -0.09738,0.041708 l -0.542568,0.5425731 c -0.05565,0.055639 -0.05565,0.1391154 0,0.1947633 0.05565,0.055639 0.139119,0.055639 0.194767,0 l 0.542568,-0.5425646 c 0.05565,-0.055639 0.05565,-0.1391239 0,-0.1947718 -0.02783,-0.027777 -0.06956,-0.041708 -0.09738,-0.041708 z"
       inkscape:connector-curvature="0" />
    <path
       style="fill:#ffb700;stroke-width:0.20629536"
       id="path930-2"
       d="m 40.022751,6.4135086 c 0.05565,0.055639 0.139121,0.055639 0.194769,0 l 0.556478,-0.5564787 c 0.05565,-0.055639 0.05565,-0.1391239 0,-0.1947717 -0.06956,-0.055639 -0.125207,-0.055639 -0.194766,0 l -0.556481,0.5564786 c -0.05565,0.055639 -0.05565,0.1391239 0,0.1947718 z"
       inkscape:connector-curvature="0" />
    <path
       style="fill:#ffb700;stroke-width:0.20629536"
       id="path932-9"
       d="m 36.447371,5.8570299 0.570392,0.5703928 c 0.05565,0.055639 0.139121,0.055639 0.194768,0 0.05565,-0.055639 0.05565,-0.1391239 0,-0.1947718 L 36.64214,5.6622582 c -0.06956,-0.055639 -0.139121,-0.055639 -0.194769,0 -0.04173,0.041708 -0.04173,0.1391239 0,0.1947717 z"
       inkscape:connector-curvature="0" />
    <path
       style="fill:#ffb700;stroke-width:0.20629536"
       id="path934-7"
       d="m 40.245344,9.2515498 c -0.02783,-0.027862 -0.06956,-0.041708 -0.09739,-0.041708 -0.04173,0 -0.06956,0.013931 -0.09738,0.041708 -0.05565,0.055639 -0.05565,0.1391239 0,0.1947718 l 0.528657,0.5425731 c 0.05565,0.055639 0.139119,0.055639 0.194766,0 0.05565,-0.055639 0.05565,-0.139124 0,-0.1947718 z"
       inkscape:connector-curvature="0" />
    <path
       inkscape:connector-curvature="0"
       id="path1097-0"
       d="M 38.622236,4.0415385 V 0.41368154"
       style="fill:none;stroke:#000000;stroke-width:0.52916664;stroke-linecap:round;stroke-linejoin:miter;stroke-miterlimit:4;stroke-dasharray:none;stroke-opacity:1" />
    <rect
       ry="0.3674956"
       y="3.7302785"
       x="37.857208"
       height="2.149302"
       width="1.5211308"
       id="rect5341"
       style="fill:#000000;fill-opacity:1;stroke:none;stroke-width:0.52916664;stroke-linecap:round;stroke-linejoin:round;stroke-miterlimit:4;stroke-dasharray:none;stroke-dashoffset:0;stroke-opacity:1;paint-order:markers stroke fill"
       rx="0.3674956" />
  </g>
  <g
     inkscape:groupmode="layer"
     id="text-layer"
     inkscape:label="text">
    <text
       id="text"
       y="33.449692"
       x="15.705477"
       style="color:#000000;font-style:normal;font-variant:normal;font-weight:300;font-stretch:normal;font-size:12.01832294px;line-height:129.99999523%;font-family:Quicksand;-inkscape-font-specification:'Quicksand Light';text-indent:0;text-align:start;text-decoration:none;text-decoration-line:none;text-decoration-style:solid;text-decoration-color:#000000;letter-spacing:0px;word-spacing:0px;text-transform:none;writing-mode:lr-tb;direction:ltr;baseline-shift:baseline;text-anchor:start;white-space:normal;clip-rule:nonzero;display:inline;overflow:visible;visibility:visible;opacity:1;isolation:auto;mix-blend-mode:normal;color-interpolation:sRGB;color-interpolation-filters:linearRGB;solid-color:#000000;solid-opacity:1;fill:#000000;fill-opacity:1;fill-rule:nonzero;stroke:none;stroke-width:0.71912861px;stroke-linecap:butt;stroke-linejoin:miter;stroke-miterlimit:4;stroke-dasharray:none;stroke-dashoffset:0;stroke-opacity:1;color-rendering:auto;image-rendering:auto;shape-rendering:auto;text-rendering:auto;enable-background:accumulate"
       xml:space="preserve"><tspan
         style="font-style:normal;font-variant:normal;font-weight:300;font-stretch:normal;font-family:Quicksand;-inkscape-font-specification:'Quicksand Light';stroke-width:0.71912861px"
         y="33.449692"
         x="15.705477"
         id="tspan827"
         sodipodi:role="line">default</tspan></text>
  </g>
</svg>
