<?xml version="1.0" encoding="UTF-8" standalone="no"?>
<!-- Created with Inkscape (http://www.inkscape.org/) -->

<svg
   xmlns:dc="http://purl.org/dc/elements/1.1/"
   xmlns:cc="http://creativecommons.org/ns#"
   xmlns:rdf="http://www.w3.org/1999/02/22-rdf-syntax-ns#"
   xmlns:svg="http://www.w3.org/2000/svg"
   xmlns="http://www.w3.org/2000/svg"
   xmlns:sodipodi="http://sodipodi.sourceforge.net/DTD/sodipodi-0.dtd"
   xmlns:inkscape="http://www.inkscape.org/namespaces/inkscape"
   width="193.48592mm"
   height="81.957451mm"
   viewBox="0 0 193.48592 81.957452"
   version="1.1"
   id="svg5423"
   sodipodi:docname="logo.svg"
   inkscape:version="0.92.3 (unknown)"
   inkscape:export-filename="/home/fdf/Desktop/logo_bulb.png"
   inkscape:export-xdpi="90"
   inkscape:export-ydpi="90">
  <defs
     id="defs5417" />
  <sodipodi:namedview
     id="base"
     pagecolor="#ffffff"
     bordercolor="#666666"
     borderopacity="1.0"
     inkscape:pageopacity="0.0"
     inkscape:pageshadow="2"
     inkscape:zoom="7.9195958"
     inkscape:cx="283.66063"
     inkscape:cy="260.56194"
     inkscape:document-units="mm"
     inkscape:current-layer="g1092"
     showgrid="false"
     inkscape:window-width="1920"
     inkscape:window-height="1055"
     inkscape:window-x="1600"
     inkscape:window-y="25"
     inkscape:window-maximized="1"
     inkscape:pagecheckerboard="false"
     inkscape:object-paths="true"
     inkscape:snap-midpoints="true"
     inkscape:snap-object-midpoints="true" />
  <metadata
     id="metadata5420">
    <rdf:RDF>
      <cc:Work
         rdf:about="">
        <dc:format>image/svg+xml</dc:format>
        <dc:type
           rdf:resource="http://purl.org/dc/dcmitype/StillImage" />
        <dc:title />
      </cc:Work>
    </rdf:RDF>
  </metadata>
  <g
     inkscape:label="Layer 1"
     inkscape:groupmode="layer"
     id="layer1"
     transform="translate(6.5493858,-225.24826)">
    <g
       id="g1604"
       transform="matrix(1.9771757,0,0,1.9771757,-803.08015,-251.17144)"
       style="fill:#000000;stroke-width:0.50577193"
       inkscape:export-xdpi="90"
       inkscape:export-ydpi="90">
      <g
         id="g916"
         transform="matrix(0.79672903,0,0,0.79672903,91.035167,53.170362)"
         style="stroke-width:0.63481051">
        <g
           transform="matrix(-0.36985591,0,0,0.36985591,476.71662,228.39605)"
           id="g1348-2-1-2"
           style="fill:#000000;stroke:none;stroke-width:1.71637249">
          <circle
             r="10"
             cy="52.248337"
             cx="86.092468"
             id="path1114-1-7-9"
             style="color:#000000;clip-rule:nonzero;display:inline;overflow:visible;visibility:visible;opacity:1;isolation:auto;mix-blend-mode:normal;color-interpolation:sRGB;color-interpolation-filters:linearRGB;solid-color:#000000;solid-opacity:1;fill:#000000;fill-opacity:1;fill-rule:evenodd;stroke:none;stroke-width:42.90930557;stroke-linecap:square;stroke-linejoin:round;stroke-miterlimit:4;stroke-dasharray:none;stroke-dashoffset:0;stroke-opacity:1;color-rendering:auto;image-rendering:auto;shape-rendering:auto;text-rendering:auto;enable-background:accumulate" />
          <path
             style="color:#000000;clip-rule:nonzero;display:inline;overflow:visible;visibility:visible;opacity:1;isolation:auto;mix-blend-mode:normal;color-interpolation:sRGB;color-interpolation-filters:linearRGB;solid-color:#000000;solid-opacity:1;fill:#000000;fill-opacity:1;fill-rule:evenodd;stroke:none;stroke-width:162.17694092;stroke-linecap:square;stroke-linejoin:round;stroke-miterlimit:4;stroke-dasharray:none;stroke-dashoffset:0;stroke-opacity:1;color-rendering:auto;image-rendering:auto;shape-rendering:auto;text-rendering:auto;enable-background:accumulate"
             d="m 1593.1523,880.55273 c -20.9385,0 -37.7949,16.85635 -37.7949,37.79493 v 34.34179 h 32.8711 v -36.03906 c -0.017,-1.06732 0.8526,-1.93697 1.9199,-1.91992 1.0436,0.0167 1.8761,0.8763 1.8594,1.91992 v 37.92773 c 4e-4,1.04357 -0.8451,1.88994 -1.8887,1.89063 h -34.7617 -14.9629 c -2.3637,0 -4.6088,0.47231 -6.6465,1.32813 -1.0188,0.4279 -1.9864,0.95179 -2.8906,1.56054 -0.4521,0.30438 -0.8873,0.62916 -1.3066,0.97461 -0.4193,0.34545 -0.8213,0.71194 -1.2051,1.0957 -0.3834,0.38346 -0.7506,0.78419 -1.0957,1.20313 -3e-4,3.7e-4 3e-4,0.002 0,0.002 -1.3813,1.677 -2.4453,3.62648 -3.1035,5.76172 -2e-4,5.9e-4 2e-4,10e-4 0,0.002 -0.3289,1.06734 -0.5567,2.18134 -0.6719,3.33008 -0.058,0.5747 -0.088,1.15907 -0.088,1.75 0,0.59094 0.03,1.1733 0.088,1.74805 10e-5,6.4e-4 -10e-5,0.001 0,0.002 0.1153,1.14882 0.3429,2.26252 0.6719,3.33008 2e-4,6e-4 -2e-4,10e-4 0,0.002 0.1645,0.53347 0.3546,1.05542 0.5683,1.56446 3e-4,5.6e-4 -2e-4,10e-4 0,0.002 0.2138,0.50902 0.4527,1.0045 0.7129,1.48633 3e-4,5.1e-4 -2e-4,10e-4 0,0.002 1.0421,1.92877 2.4462,3.62937 4.1231,5.01172 0.8386,0.69135 1.7447,1.30273 2.709,1.82422 1.4464,0.78223 3.0223,1.36143 4.6894,1.69922 1.1114,0.22519 2.2635,0.34375 3.4453,0.34375 0,0 80.1268,0.0293 90.5528,0.0293 v -72.17382 c 0,-20.93858 -16.8564,-37.79493 -37.795,-37.79493 z m -89.6777,113.74995 c -5.0365,0.46052 -9.4801,2.60538 -12.584,6.22072 l -79.1426,79.1426 c -7.4029,7.4029 -7.4029,19.3217 0,26.7246 7.4029,7.4029 19.3237,7.4029 26.7266,0 l 47.8574,-47.8574 v 67.6875 c 0,10.4693 8.4292,18.8984 18.8985,18.8984 10.4693,0 18.8984,-8.4291 18.8984,-18.8984 v -94.4883 h 69.2126 v 0 c 20.7285,-0.1013 37.4017,-16.7241 37.5957,-37.42972 -10.4472,-10e-6 -127.367,-0.009 -127.4629,0 z"
             transform="matrix(-0.26458333,0,0,0.26458333,496.676,-170.90929)"
             id="rect1116-7-9-0"
             inkscape:connector-curvature="0"
             sodipodi:nodetypes="csccccccccsccsccccccscccccccccccccssccssscssscsccccc" />
          <g
             transform="translate(-10.723601,0.60112632)"
             id="g1251-5-1-3"
             style="fill:#000000;stroke:none;stroke-width:1.71637249">
            <rect
               style="color:#000000;clip-rule:nonzero;display:inline;overflow:visible;visibility:visible;opacity:1;isolation:auto;mix-blend-mode:normal;color-interpolation:sRGB;color-interpolation-filters:linearRGB;solid-color:#000000;solid-opacity:1;fill:#000000;fill-opacity:1;fill-rule:evenodd;stroke:none;stroke-width:1.8516264;stroke-linecap:square;stroke-linejoin:round;stroke-miterlimit:4;stroke-dasharray:none;stroke-dashoffset:0;stroke-opacity:1;paint-order:fill markers stroke;color-rendering:auto;image-rendering:auto;shape-rendering:auto;text-rendering:auto;enable-background:accumulate"
               id="rect1229-6-0-0"
               width="15.668805"
               height="11.294343"
               x="-106.98386"
               y="-168.22519"
               transform="matrix(0.5,-0.8660254,-0.99991011,0.01340771,0,0)"
               ry="0" />
            <rect
               style="color:#000000;clip-rule:nonzero;display:inline;overflow:visible;visibility:visible;opacity:1;isolation:auto;mix-blend-mode:normal;color-interpolation:sRGB;color-interpolation-filters:linearRGB;solid-color:#000000;solid-opacity:1;fill:#000000;fill-opacity:1;fill-rule:evenodd;stroke:none;stroke-width:1.71637249;stroke-linecap:square;stroke-linejoin:round;stroke-miterlimit:4;stroke-dasharray:none;stroke-dashoffset:0;stroke-opacity:1;paint-order:fill markers stroke;color-rendering:auto;image-rendering:auto;shape-rendering:auto;text-rendering:auto;enable-background:accumulate"
               id="rect1246-5-3-3"
               width="9.6449051"
               height="2.4550581"
               x="134.8607"
               y="5.2323093"
               transform="rotate(30)" />
          </g>
        </g>
        <text
           xml:space="preserve"
           style="color:#000000;font-style:normal;font-variant:normal;font-weight:300;font-stretch:normal;font-size:22.39470291px;line-height:129.99999523%;font-family:Quicksand;-inkscape-font-specification:'Quicksand Light';font-variant-ligatures:normal;font-variant-caps:normal;font-variant-numeric:normal;font-feature-settings:normal;text-indent:0;text-align:start;text-decoration:none;text-decoration-line:none;text-decoration-style:solid;text-decoration-color:#000000;letter-spacing:0px;word-spacing:0px;text-transform:none;writing-mode:lr-tb;direction:ltr;baseline-shift:baseline;text-anchor:start;white-space:normal;clip-rule:nonzero;display:inline;overflow:visible;visibility:visible;opacity:1;isolation:auto;mix-blend-mode:normal;color-interpolation:sRGB;color-interpolation-filters:linearRGB;solid-color:#000000;solid-opacity:1;fill:#000000;fill-opacity:1;fill-rule:nonzero;stroke:none;stroke-width:0.45651039px;stroke-linecap:butt;stroke-linejoin:miter;stroke-miterlimit:4;stroke-dasharray:none;stroke-dashoffset:0;stroke-opacity:1;color-rendering:auto;image-rendering:auto;shape-rendering:auto;text-rendering:auto;enable-background:accumulate"
           x="389.52618"
           y="278.22998"
           id="text840"><tspan
             sodipodi:role="line"
             id="tspan838"
             x="389.52618"
             y="278.22998"
             style="font-style:normal;font-variant:normal;font-weight:300;font-stretch:normal;font-size:22.39470291px;font-family:Quicksand;-inkscape-font-specification:'Quicksand Light';font-variant-ligatures:normal;font-variant-caps:normal;font-variant-numeric:normal;font-feature-settings:normal;text-align:start;word-spacing:8.39801407px;writing-mode:lr-tb;text-anchor:start;stroke-width:0.45651039px">hoe</tspan></text>
        <text
           xml:space="preserve"
           style="color:#000000;font-style:normal;font-variant:normal;font-weight:300;font-stretch:normal;font-size:22.39470291px;line-height:129.99999523%;font-family:Quicksand;-inkscape-font-specification:'Quicksand Light';font-variant-ligatures:normal;font-variant-caps:normal;font-variant-numeric:normal;font-feature-settings:normal;text-indent:0;text-align:center;text-decoration:none;text-decoration-line:none;text-decoration-style:solid;text-decoration-color:#000000;letter-spacing:0px;word-spacing:0px;text-transform:none;writing-mode:lr-tb;direction:ltr;baseline-shift:baseline;text-anchor:middle;white-space:normal;clip-rule:nonzero;display:inline;overflow:visible;visibility:visible;opacity:1;isolation:auto;mix-blend-mode:normal;color-interpolation:sRGB;color-interpolation-filters:linearRGB;solid-color:#000000;solid-opacity:1;fill:#000000;fill-opacity:1;fill-rule:nonzero;stroke:none;stroke-width:0.45651042px;stroke-linecap:butt;stroke-linejoin:miter;stroke-miterlimit:4;stroke-dasharray:none;stroke-dashoffset:0;stroke-opacity:1;color-rendering:auto;image-rendering:auto;shape-rendering:auto;text-rendering:auto;enable-background:accumulate"
           x="452.55661"
           y="278.45392"
           id="text840-7"><tspan
             sodipodi:role="line"
             id="tspan838-9"
             x="452.55661"
             y="278.45392"
             style="font-style:normal;font-variant:normal;font-weight:300;font-stretch:normal;font-size:22.39470291px;font-family:Quicksand;-inkscape-font-specification:'Quicksand Light';font-variant-ligatures:normal;font-variant-caps:normal;font-variant-numeric:normal;font-feature-settings:normal;text-align:center;word-spacing:8.39801407px;writing-mode:lr-tb;text-anchor:middle;stroke-width:0.45651042px">zit</tspan></text>
        <text
           xml:space="preserve"
           style="color:#000000;font-style:normal;font-variant:normal;font-weight:300;font-stretch:normal;font-size:22.39470291px;line-height:129.99999523%;font-family:Quicksand;-inkscape-font-specification:'Quicksand Light';font-variant-ligatures:normal;font-variant-caps:normal;font-variant-numeric:normal;font-feature-settings:normal;text-indent:0;text-align:start;text-decoration:none;text-decoration-line:none;text-decoration-style:solid;text-decoration-color:#000000;letter-spacing:0px;word-spacing:0px;text-transform:none;writing-mode:lr-tb;direction:ltr;baseline-shift:baseline;text-anchor:start;white-space:normal;clip-rule:nonzero;display:inline;overflow:visible;visibility:visible;opacity:1;isolation:auto;mix-blend-mode:normal;color-interpolation:sRGB;color-interpolation-filters:linearRGB;solid-color:#000000;solid-opacity:1;fill:#000000;fill-opacity:1;fill-rule:nonzero;stroke:none;stroke-width:0.45651042px;stroke-linecap:butt;stroke-linejoin:miter;stroke-miterlimit:4;stroke-dasharray:none;stroke-dashoffset:0;stroke-opacity:1;color-rendering:auto;image-rendering:auto;shape-rendering:auto;text-rendering:auto;enable-background:accumulate"
           x="472.31729"
           y="278.22998"
           id="text840-74"><tspan
             sodipodi:role="line"
             id="tspan838-91"
             x="472.31729"
             y="278.22998"
             style="font-style:normal;font-variant:normal;font-weight:300;font-stretch:normal;font-size:22.39470291px;font-family:Quicksand;-inkscape-font-specification:'Quicksand Light';font-variant-ligatures:normal;font-variant-caps:normal;font-variant-numeric:normal;font-feature-settings:normal;text-align:start;word-spacing:8.39801407px;writing-mode:lr-tb;text-anchor:start;stroke-width:0.45651042px">het?</tspan></text>
      </g>
    </g>
    <text
       xml:space="preserve"
       style="font-style:normal;font-variant:normal;font-weight:normal;font-stretch:normal;font-size:10.58333302px;line-height:1.25;font-family:Quicksand;-inkscape-font-specification:Quicksand;text-align:center;letter-spacing:0px;word-spacing:0px;text-anchor:middle;fill:#000000;fill-opacity:1;stroke:none;stroke-width:0.26458332"
       x="90.212173"
       y="307.09988"
       id="text916"><tspan
         sodipodi:role="line"
         id="tspan914"
         x="90.212173"
         y="307.09988"
         style="text-align:center;baseline-shift:baseline;text-anchor:middle;stroke-width:0.26458332">- WETENSCHAP VERLICHT -</tspan></text>
    <g
       id="g1092"
       transform="matrix(1.3671653,0,0,1.3671653,-21.22044,-97.348343)"
       style="stroke-width:0.73144042">
      <path
         inkscape:connector-curvature="0"
         id="rect1013"
         d="m 61.929524,242.18784 c -0.03276,0.60597 -0.245499,1.17889 -0.622183,1.62109 -0.262041,0.31117 -0.409279,0.72073 -0.409279,1.13017 0,0.9499 0.769538,1.73581 1.735812,1.73581 0.06551,0 0.13086,-0.016 0.196371,-0.016 0.769742,-0.0983 1.408777,-0.70443 1.523421,-1.4578 0.08189,-0.49132 -0.04901,-0.96654 -0.360186,-1.3596 -0.393059,-0.5077 -0.622495,-1.06406 -0.655256,-1.65365 z"
         style="fill:#ffb700;fill-opacity:1;stroke:none;stroke-width:0.49026826;stroke-linecap:round;stroke-linejoin:round;stroke-miterlimit:4;stroke-dasharray:none;stroke-dashoffset:0;stroke-opacity:1;paint-order:markers stroke fill"
         sodipodi:nodetypes="ccssccccc" />
      <path
         inkscape:connector-curvature="0"
         d="m 59.194437,245.03754 h 0.933519 c 0.09827,0 0.163775,-0.0655 0.163775,-0.16378 0,-0.0983 -0.06551,-0.16377 -0.163775,-0.16377 h -0.933519 c -0.09826,0 -0.163775,0.0655 -0.163775,0.16377 0,0.0983 0.08189,0.16378 0.163775,0.16378 z"
         id="path922"
         style="fill:#ffb700;stroke-width:0.15089278" />
      <path
         inkscape:connector-curvature="0"
         d="m 64.975702,244.87376 c 0,0.0983 0.06551,0.16378 0.163775,0.16378 h 0.933519 c 0.09826,0 0.163775,-0.0655 0.163775,-0.16378 0,-0.0983 -0.06551,-0.16377 -0.163775,-0.16377 h -0.933519 c -0.09826,0 -0.163775,0.0819 -0.163775,0.16377 z"
         id="path924"
         style="fill:#ffb700;stroke-width:0.15089278" />
      <path
         inkscape:connector-curvature="0"
         d="m 62.633717,247.26488 c -0.09826,0 -0.163775,0.0655 -0.163775,0.16378 v 0.88438 c 0,0.0983 0.06551,0.16378 0.163775,0.16378 0.09827,0 0.163775,-0.0655 0.163775,-0.16378 v -0.88438 c 0,-0.0983 -0.06551,-0.16378 -0.163775,-0.16378 z"
         id="path926"
         style="fill:#ffb700;stroke-width:0.15089278" />
      <path
         inkscape:connector-curvature="0"
         d="m 60.848567,246.49514 c -0.04913,0 -0.08189,0.0164 -0.114642,0.0491 l -0.638724,0.63873 c -0.06551,0.0655 -0.06551,0.16377 0,0.22928 0.06551,0.0655 0.163775,0.0655 0.229285,0 l 0.638724,-0.63872 c 0.06551,-0.0655 0.06551,-0.16378 0,-0.22929 -0.03276,-0.0327 -0.08189,-0.0491 -0.114643,-0.0491 z"
         id="path928"
         style="fill:#ffb700;stroke-width:0.15089278" />
      <path
         inkscape:connector-curvature="0"
         d="m 64.287846,243.21963 c 0.06551,0.0655 0.163776,0.0655 0.229286,0 l 0.6551,-0.6551 c 0.06551,-0.0655 0.06551,-0.16378 0,-0.22929 -0.08189,-0.0655 -0.147397,-0.0655 -0.229284,0 l -0.655102,0.6551 c -0.06551,0.0655 -0.06551,0.16378 0,0.22929 z"
         id="path930"
         style="fill:#ffb700;stroke-width:0.15089278" />
      <path
         inkscape:connector-curvature="0"
         d="m 60.078823,242.56453 0.671479,0.67148 c 0.06551,0.0655 0.163776,0.0655 0.229285,0 0.06551,-0.0655 0.06551,-0.16378 0,-0.22929 l -0.671478,-0.67148 c -0.08189,-0.0655 -0.163776,-0.0655 -0.229286,0 -0.04913,0.0491 -0.04913,0.16378 0,0.22929 z"
         id="path932"
         style="fill:#ffb700;stroke-width:0.15089278" />
      <path
         inkscape:connector-curvature="0"
         d="m 64.549887,246.56064 c -0.03276,-0.0328 -0.08189,-0.0491 -0.114643,-0.0491 -0.04913,0 -0.08189,0.0164 -0.114643,0.0491 -0.06551,0.0655 -0.06551,0.16378 0,0.22929 l 0.622347,0.63873 c 0.06551,0.0655 0.163774,0.0655 0.229284,0 0.06551,-0.0655 0.06551,-0.16378 0,-0.22929 z"
         id="path934"
         style="fill:#ffb700;stroke-width:0.15089278" />
      <path
         style="fill:none;stroke:#000000;stroke-width:0.38705391;stroke-linecap:round;stroke-linejoin:miter;stroke-miterlimit:4;stroke-dasharray:none;stroke-opacity:1"
         d="m 62.639126,240.42729 v -4.2708"
         id="path1097"
         inkscape:connector-curvature="0" />
      <rect
         style="fill:#000000;fill-opacity:1;stroke:none;stroke-width:0.38705391;stroke-linecap:round;stroke-linejoin:round;stroke-miterlimit:4;stroke-dasharray:none;stroke-dashoffset:0;stroke-opacity:1;paint-order:markers stroke fill"
         id="rect5341"
         width="1.7907115"
         height="2.5302098"
         x="61.738518"
         y="240.06087"
         ry="0.26880115" />
    </g>
  </g>
</svg>
