<?xml version="1.0" encoding="UTF-8" standalone="no"?>
<!-- Created with Inkscape (http://www.inkscape.org/) -->

<svg
   xmlns:dc="http://purl.org/dc/elements/1.1/"
   xmlns:cc="http://creativecommons.org/ns#"
   xmlns:rdf="http://www.w3.org/1999/02/22-rdf-syntax-ns#"
   xmlns:svg="http://www.w3.org/2000/svg"
   xmlns="http://www.w3.org/2000/svg"
   xmlns:sodipodi="http://sodipodi.sourceforge.net/DTD/sodipodi-0.dtd"
   xmlns:inkscape="http://www.inkscape.org/namespaces/inkscape"
   width="192.966mm"
   height="53.181614mm"
   viewBox="0 0 192.96601 53.181614"
   version="1.1"
   id="svg5423"
   sodipodi:docname="logo_black.svg"
   inkscape:version="0.92.3 (unknown)"
   inkscape:export-filename="/home/fdf/quickstart/themes/hugo-paper/static/img/logo.png"
   inkscape:export-xdpi="90"
   inkscape:export-ydpi="90">
  <defs
     id="defs5417" />
  <sodipodi:namedview
     id="base"
     pagecolor="#ffffff"
     bordercolor="#666666"
     borderopacity="1.0"
     inkscape:pageopacity="0.0"
     inkscape:pageshadow="2"
     inkscape:zoom="0.98994948"
     inkscape:cx="318.78979"
     inkscape:cy="79.537646"
     inkscape:document-units="mm"
     inkscape:current-layer="g916"
     showgrid="false"
     inkscape:window-width="1600"
     inkscape:window-height="854"
     inkscape:window-x="0"
     inkscape:window-y="180"
     inkscape:window-maximized="1" />
  <metadata
     id="metadata5420">
    <rdf:RDF>
      <cc:Work
         rdf:about="">
        <dc:format>image/svg+xml</dc:format>
        <dc:type
           rdf:resource="http://purl.org/dc/dcmitype/StillImage" />
        <dc:title />
      </cc:Work>
    </rdf:RDF>
  </metadata>
  <g
     inkscape:label="Layer 1"
     inkscape:groupmode="layer"
     id="layer1"
     transform="translate(14.082463,-239.41513)">
    <g
       id="g1604"
       transform="matrix(1.9771757,0,0,1.9771757,-803.08015,-251.17144)"
       style="fill:#000000;stroke-width:0.50577193"
       inkscape:export-xdpi="90"
       inkscape:export-ydpi="90">
      <g
         id="g916"
         transform="matrix(0.79672903,0,0,0.79672903,91.035167,53.170362)"
         style="stroke-width:0.63481051">
        <g
           transform="matrix(-0.36985591,0,0,0.36985591,467.58197,229.06789)"
           id="g1348-2-1-2"
           style="fill:#000000;stroke:none;stroke-width:1.71637249">
          <circle
             r="10"
             cy="52.248337"
             cx="86.092468"
             id="path1114-1-7-9"
             style="color:#000000;clip-rule:nonzero;display:inline;overflow:visible;visibility:visible;opacity:1;isolation:auto;mix-blend-mode:normal;color-interpolation:sRGB;color-interpolation-filters:linearRGB;solid-color:#000000;solid-opacity:1;fill:#000000;fill-opacity:1;fill-rule:evenodd;stroke:none;stroke-width:42.90930557;stroke-linecap:square;stroke-linejoin:round;stroke-miterlimit:4;stroke-dasharray:none;stroke-dashoffset:0;stroke-opacity:1;color-rendering:auto;image-rendering:auto;shape-rendering:auto;text-rendering:auto;enable-background:accumulate" />
          <path
             style="color:#000000;clip-rule:nonzero;display:inline;overflow:visible;visibility:visible;opacity:1;isolation:auto;mix-blend-mode:normal;color-interpolation:sRGB;color-interpolation-filters:linearRGB;solid-color:#000000;solid-opacity:1;fill:#000000;fill-opacity:1;fill-rule:evenodd;stroke:none;stroke-width:162.17694092;stroke-linecap:square;stroke-linejoin:round;stroke-miterlimit:4;stroke-dasharray:none;stroke-dashoffset:0;stroke-opacity:1;color-rendering:auto;image-rendering:auto;shape-rendering:auto;text-rendering:auto;enable-background:accumulate"
             d="m 1593.1523,880.55273 c -20.9385,0 -37.7949,16.85635 -37.7949,37.79493 v 34.34179 h 32.8711 v -36.03906 c -0.017,-1.06732 0.8526,-1.93697 1.9199,-1.91992 1.0436,0.0167 1.8761,0.8763 1.8594,1.91992 v 37.92773 c 4e-4,1.04357 -0.8451,1.88994 -1.8887,1.89063 h -34.7617 -14.9629 c -2.3637,0 -4.6088,0.47231 -6.6465,1.32813 -1.0188,0.4279 -1.9864,0.95179 -2.8906,1.56054 -0.4521,0.30438 -0.8873,0.62916 -1.3066,0.97461 -0.4193,0.34545 -0.8213,0.71194 -1.2051,1.0957 -0.3834,0.38346 -0.7506,0.78419 -1.0957,1.20313 -3e-4,3.7e-4 3e-4,0.002 0,0.002 -1.3813,1.677 -2.4453,3.62648 -3.1035,5.76172 -2e-4,5.9e-4 2e-4,10e-4 0,0.002 -0.3289,1.06734 -0.5567,2.18134 -0.6719,3.33008 -0.058,0.5747 -0.088,1.15907 -0.088,1.75 0,0.59094 0.03,1.1733 0.088,1.74805 10e-5,6.4e-4 -10e-5,0.001 0,0.002 0.1153,1.14882 0.3429,2.26252 0.6719,3.33008 2e-4,6e-4 -2e-4,10e-4 0,0.002 0.1645,0.53347 0.3546,1.05542 0.5683,1.56446 3e-4,5.6e-4 -2e-4,10e-4 0,0.002 0.2138,0.50902 0.4527,1.0045 0.7129,1.48633 3e-4,5.1e-4 -2e-4,10e-4 0,0.002 1.0421,1.92877 2.4462,3.62937 4.1231,5.01172 0.8386,0.69135 1.7447,1.30273 2.709,1.82422 1.4464,0.78223 3.0223,1.36143 4.6894,1.69922 1.1114,0.22519 2.2635,0.34375 3.4453,0.34375 0,0 80.1268,0.0293 90.5528,0.0293 v -72.17382 c 0,-20.93858 -16.8564,-37.79493 -37.795,-37.79493 z m -89.6777,113.74995 c -5.0365,0.46052 -9.4801,2.60538 -12.584,6.22072 l -79.1426,79.1426 c -7.4029,7.4029 -7.4029,19.3217 0,26.7246 7.4029,7.4029 19.3237,7.4029 26.7266,0 l 47.8574,-47.8574 v 67.6875 c 0,10.4693 8.4292,18.8984 18.8985,18.8984 10.4693,0 18.8984,-8.4291 18.8984,-18.8984 v -94.4883 h 69.2126 v 0 c 20.7285,-0.1013 37.4017,-16.7241 37.5957,-37.42972 -10.4472,-10e-6 -127.367,-0.009 -127.4629,0 z"
             transform="matrix(-0.26458333,0,0,0.26458333,496.676,-170.90929)"
             id="rect1116-7-9-0"
             inkscape:connector-curvature="0"
             sodipodi:nodetypes="csccccccccsccsccccccscccccccccccccssccssscssscsccccc" />
          <g
             transform="translate(-10.723601,0.60112632)"
             id="g1251-5-1-3"
             style="fill:#000000;stroke:none;stroke-width:1.71637249">
            <rect
               style="color:#000000;clip-rule:nonzero;display:inline;overflow:visible;visibility:visible;opacity:1;isolation:auto;mix-blend-mode:normal;color-interpolation:sRGB;color-interpolation-filters:linearRGB;solid-color:#000000;solid-opacity:1;fill:#000000;fill-opacity:1;fill-rule:evenodd;stroke:none;stroke-width:1.8516264;stroke-linecap:square;stroke-linejoin:round;stroke-miterlimit:4;stroke-dasharray:none;stroke-dashoffset:0;stroke-opacity:1;paint-order:fill markers stroke;color-rendering:auto;image-rendering:auto;shape-rendering:auto;text-rendering:auto;enable-background:accumulate"
               id="rect1229-6-0-0"
               width="15.668805"
               height="11.294343"
               x="-106.98386"
               y="-168.22519"
               transform="matrix(0.5,-0.8660254,-0.99991011,0.01340771,0,0)"
               ry="0" />
            <rect
               style="color:#000000;clip-rule:nonzero;display:inline;overflow:visible;visibility:visible;opacity:1;isolation:auto;mix-blend-mode:normal;color-interpolation:sRGB;color-interpolation-filters:linearRGB;solid-color:#000000;solid-opacity:1;fill:#000000;fill-opacity:1;fill-rule:evenodd;stroke:none;stroke-width:1.71637249;stroke-linecap:square;stroke-linejoin:round;stroke-miterlimit:4;stroke-dasharray:none;stroke-dashoffset:0;stroke-opacity:1;paint-order:fill markers stroke;color-rendering:auto;image-rendering:auto;shape-rendering:auto;text-rendering:auto;enable-background:accumulate"
               id="rect1246-5-3-3"
               width="9.6449051"
               height="2.4550581"
               x="134.8607"
               y="5.2323093"
               transform="rotate(30)" />
          </g>
        </g>
        <path
           inkscape:connector-curvature="0"
           id="path1980"
           style="color:#000000;font-style:normal;font-variant:normal;font-weight:normal;font-stretch:normal;font-size:medium;line-height:129.99999523%;font-family:Nunito;-inkscape-font-specification:Nunito;text-indent:0;text-align:center;text-decoration:none;text-decoration-line:none;text-decoration-style:solid;text-decoration-color:#000000;letter-spacing:0px;word-spacing:6.71841097px;text-transform:none;writing-mode:lr-tb;direction:ltr;baseline-shift:baseline;text-anchor:middle;white-space:normal;clip-rule:nonzero;visibility:visible;isolation:auto;mix-blend-mode:normal;color-interpolation:sRGB;color-interpolation-filters:linearRGB;solid-color:#000000;solid-opacity:1;fill:#000000;fill-opacity:1;fill-rule:nonzero;stroke:none;stroke-width:0.45651034px;stroke-linecap:butt;stroke-linejoin:miter;stroke-miterlimit:4;stroke-dasharray:none;stroke-dashoffset:0;stroke-opacity:1;color-rendering:auto;image-rendering:auto;shape-rendering:auto;text-rendering:auto"
           d="m 391.9454,267.46483 q 1.86771,0 2.82329,1.06416 0.95557,1.04245 0.95557,3.12733 v 5.88547 q 0,0.41264 -0.23889,0.65153 -0.2389,0.21718 -0.62981,0.21718 -0.41264,0 -0.65153,-0.21718 -0.2389,-0.23889 -0.2389,-0.65153 v -5.84203 q 0,-1.41164 -0.58637,-2.08489 -0.56466,-0.67325 -1.82428,-0.67325 -1.45508,0 -2.32378,0.89043 -0.86871,0.89042 -0.86871,2.41065 v 5.29909 q 0,0.41264 -0.23889,0.65153 -0.21718,0.21718 -0.62981,0.21718 -0.41263,0 -0.65153,-0.21718 -0.23889,-0.23889 -0.23889,-0.65153 V 263.7294 q 0,-0.3692 0.23889,-0.60809 0.26061,-0.2389 0.65153,-0.2389 0.41263,0 0.62981,0.2389 0.23889,0.21717 0.23889,0.60809 v 5.69001 q 0.52123,-0.95557 1.45508,-1.45508 0.93386,-0.4995 2.12833,-0.4995 z" />
        <path
           inkscape:connector-curvature="0"
           id="path1982"
           style="color:#000000;font-style:normal;font-variant:normal;font-weight:normal;font-stretch:normal;font-size:medium;line-height:129.99999523%;font-family:Nunito;-inkscape-font-specification:Nunito;text-indent:0;text-align:center;text-decoration:none;text-decoration-line:none;text-decoration-style:solid;text-decoration-color:#000000;letter-spacing:0px;word-spacing:6.71841097px;text-transform:none;writing-mode:lr-tb;direction:ltr;baseline-shift:baseline;text-anchor:middle;white-space:normal;clip-rule:nonzero;visibility:visible;isolation:auto;mix-blend-mode:normal;color-interpolation:sRGB;color-interpolation-filters:linearRGB;solid-color:#000000;solid-opacity:1;fill:#000000;fill-opacity:1;fill-rule:nonzero;stroke:none;stroke-width:0.45651034px;stroke-linecap:butt;stroke-linejoin:miter;stroke-miterlimit:4;stroke-dasharray:none;stroke-dashoffset:0;stroke-opacity:1;color-rendering:auto;image-rendering:auto;shape-rendering:auto;text-rendering:auto"
           d="m 403.33323,278.45393 q -1.49852,0 -2.64955,-0.67324 -1.12932,-0.67325 -1.75913,-1.91115 -0.60809,-1.25962 -0.60809,-2.91016 0,-1.65054 0.60809,-2.88844 0.62981,-1.25962 1.75913,-1.93287 1.15103,-0.67324 2.64955,-0.67324 1.49851,0 2.64954,0.67324 1.15104,0.67325 1.75913,1.93287 0.62981,1.2379 0.62981,2.88844 0,1.65054 -0.62981,2.91016 -0.60809,1.2379 -1.75913,1.91115 -1.15103,0.67324 -2.64954,0.67324 z m 0,-1.45508 q 1.56366,0 2.38893,-1.02072 0.84699,-1.04245 0.84699,-3.01875 0,-1.93287 -0.84699,-2.97531 -0.84699,-1.06416 -2.38893,-1.06416 -1.54195,0 -2.38894,1.06416 -0.84699,1.04244 -0.84699,2.97531 0,1.95458 0.82527,2.99703 0.84699,1.04244 2.41066,1.04244 z" />
        <path
           inkscape:connector-curvature="0"
           id="path1984"
           style="color:#000000;font-style:normal;font-variant:normal;font-weight:normal;font-stretch:normal;font-size:medium;line-height:129.99999523%;font-family:Nunito;-inkscape-font-specification:Nunito;text-indent:0;text-align:center;text-decoration:none;text-decoration-line:none;text-decoration-style:solid;text-decoration-color:#000000;letter-spacing:0px;word-spacing:6.71841097px;text-transform:none;writing-mode:lr-tb;direction:ltr;baseline-shift:baseline;text-anchor:middle;white-space:normal;clip-rule:nonzero;visibility:visible;isolation:auto;mix-blend-mode:normal;color-interpolation:sRGB;color-interpolation-filters:linearRGB;solid-color:#000000;solid-opacity:1;fill:#000000;fill-opacity:1;fill-rule:nonzero;stroke:none;stroke-width:0.45651034px;stroke-linecap:butt;stroke-linejoin:miter;stroke-miterlimit:4;stroke-dasharray:none;stroke-dashoffset:0;stroke-opacity:1;color-rendering:auto;image-rendering:auto;shape-rendering:auto;text-rendering:auto"
           d="m 419.18029,275.84782 q 0.23889,0 0.41263,0.19546 0.17374,0.19546 0.17374,0.4995 0,0.54294 -0.76011,0.99901 -0.78184,0.45607 -1.65054,0.69497 -0.86871,0.21717 -1.69397,0.21717 -2.45409,0 -3.88746,-1.45508 -1.41164,-1.45507 -1.41164,-4.01775 0,-1.62882 0.62981,-2.86672 0.62981,-1.25963 1.75913,-1.95459 1.15103,-0.69496 2.60611,-0.69496 2.06317,0 3.27936,1.34649 1.21618,1.34649 1.21618,3.64856 0,0.43435 -0.17374,0.62981 -0.17374,0.19545 -0.56466,0.19545 h -6.99306 q 0.19545,3.73543 3.53997,3.73543 0.84698,0 1.45507,-0.21717 0.6081,-0.2389 1.30306,-0.62981 0.56466,-0.32577 0.76012,-0.32577 z m -3.80058,-7.01478 q -1.38993,0 -2.23692,0.8687 -0.82527,0.8687 -0.97729,2.45409 h 6.14608 q -0.0434,-1.6071 -0.80355,-2.45409 -0.76011,-0.8687 -2.12832,-0.8687 z" />
        <path
           inkscape:connector-curvature="0"
           id="path1986"
           style="color:#000000;font-style:normal;font-variant:normal;font-weight:normal;font-stretch:normal;font-size:medium;line-height:129.99999523%;font-family:Nunito;-inkscape-font-specification:Nunito;text-indent:0;text-align:center;text-decoration:none;text-decoration-line:none;text-decoration-style:solid;text-decoration-color:#000000;letter-spacing:0px;word-spacing:6.71841097px;text-transform:none;writing-mode:lr-tb;direction:ltr;baseline-shift:baseline;text-anchor:middle;white-space:normal;clip-rule:nonzero;visibility:visible;isolation:auto;mix-blend-mode:normal;color-interpolation:sRGB;color-interpolation-filters:linearRGB;solid-color:#000000;solid-opacity:1;fill:#000000;fill-opacity:1;fill-rule:nonzero;stroke:none;stroke-width:0.45651034px;stroke-linecap:butt;stroke-linejoin:miter;stroke-miterlimit:4;stroke-dasharray:none;stroke-dashoffset:0;stroke-opacity:1;color-rendering:auto;image-rendering:auto;shape-rendering:auto;text-rendering:auto"
           d="m 442.53777,276.91198 q 0.3692,0 0.56466,0.19546 0.19546,0.17374 0.19546,0.49951 0,0.32576 -0.19546,0.52122 -0.19546,0.17374 -0.56466,0.17374 h -7.60116 q -0.3692,0 -0.60809,-0.21718 -0.23889,-0.23889 -0.23889,-0.56465 0,-0.34748 0.26061,-0.67325 l 6.42841,-7.73146 h -5.95063 q -0.36919,0 -0.58637,-0.17375 -0.19546,-0.19545 -0.19546,-0.4995 0,-0.32576 0.19546,-0.52122 0.21718,-0.19546 0.58637,-0.19546 h 7.36227 q 0.39092,0 0.62981,0.23889 0.23889,0.21718 0.23889,0.54294 0,0.34748 -0.26061,0.67325 l -6.45012,7.73146 z" />
        <path
           inkscape:connector-curvature="0"
           id="path1988"
           style="color:#000000;font-style:normal;font-variant:normal;font-weight:normal;font-stretch:normal;font-size:medium;line-height:129.99999523%;font-family:Nunito;-inkscape-font-specification:Nunito;text-indent:0;text-align:center;text-decoration:none;text-decoration-line:none;text-decoration-style:solid;text-decoration-color:#000000;letter-spacing:0px;word-spacing:6.71841097px;text-transform:none;writing-mode:lr-tb;direction:ltr;baseline-shift:baseline;text-anchor:middle;white-space:normal;clip-rule:nonzero;visibility:visible;isolation:auto;mix-blend-mode:normal;color-interpolation:sRGB;color-interpolation-filters:linearRGB;solid-color:#000000;solid-opacity:1;fill:#000000;fill-opacity:1;fill-rule:nonzero;stroke:none;stroke-width:0.45651034px;stroke-linecap:butt;stroke-linejoin:miter;stroke-miterlimit:4;stroke-dasharray:none;stroke-dashoffset:0;stroke-opacity:1;color-rendering:auto;image-rendering:auto;shape-rendering:auto;text-rendering:auto"
           d="m 446.59693,278.4105 q -0.39092,0 -0.65153,-0.21718 -0.23889,-0.23889 -0.23889,-0.65153 v -9.16482 q 0,-0.41264 0.23889,-0.62981 0.26061,-0.2389 0.65153,-0.2389 0.39091,0 0.62981,0.2389 0.23889,0.21717 0.23889,0.62981 v 9.16482 q 0,0.43436 -0.23889,0.65153 -0.2389,0.21718 -0.62981,0.21718 z m 0,-13.18258 q -0.52122,0 -0.84699,-0.30405 -0.32576,-0.30405 -0.32576,-0.80355 0,-0.47779 0.32576,-0.78184 0.32577,-0.30404 0.84699,-0.30404 0.52122,0 0.84698,0.30404 0.32577,0.30405 0.32577,0.78184 0,0.4995 -0.32577,0.80355 -0.32576,0.30405 -0.84698,0.30405 z" />
        <path
           inkscape:connector-curvature="0"
           id="path1990"
           style="color:#000000;font-style:normal;font-variant:normal;font-weight:normal;font-stretch:normal;font-size:medium;line-height:129.99999523%;font-family:Nunito;-inkscape-font-specification:Nunito;text-indent:0;text-align:center;text-decoration:none;text-decoration-line:none;text-decoration-style:solid;text-decoration-color:#000000;letter-spacing:0px;word-spacing:6.71841097px;text-transform:none;writing-mode:lr-tb;direction:ltr;baseline-shift:baseline;text-anchor:middle;white-space:normal;clip-rule:nonzero;visibility:visible;isolation:auto;mix-blend-mode:normal;color-interpolation:sRGB;color-interpolation-filters:linearRGB;solid-color:#000000;solid-opacity:1;fill:#000000;fill-opacity:1;fill-rule:nonzero;stroke:none;stroke-width:0.45651034px;stroke-linecap:butt;stroke-linejoin:miter;stroke-miterlimit:4;stroke-dasharray:none;stroke-dashoffset:0;stroke-opacity:1;color-rendering:auto;image-rendering:auto;shape-rendering:auto;text-rendering:auto"
           d="m 455.64061,277.02057 q 0.76012,0.0651 0.76012,0.69497 0,0.36919 -0.28233,0.56465 -0.26061,0.17374 -0.80355,0.13031 l -0.58638,-0.0434 q -1.73741,-0.1303 -2.56267,-1.04244 -0.82527,-0.91214 -0.82527,-2.75814 v -5.45111 h -1.45508 q -0.3692,0 -0.58638,-0.17375 -0.19546,-0.19545 -0.19546,-0.4995 0,-0.32576 0.19546,-0.52122 0.21718,-0.19546 0.58638,-0.19546 h 1.45508 v -2.45409 q 0,-0.41263 0.23889,-0.62981 0.23889,-0.23889 0.65153,-0.23889 0.39091,0 0.62981,0.23889 0.23889,0.21718 0.23889,0.62981 v 2.45409 h 2.41066 q 0.34748,0 0.54294,0.19546 0.21717,0.19546 0.21717,0.52122 0,0.30405 -0.21717,0.4995 -0.19546,0.17375 -0.54294,0.17375 h -2.41066 v 5.53798 q 0,1.19447 0.47779,1.73741 0.4995,0.52122 1.4768,0.58638 z" />
        <path
           inkscape:connector-curvature="0"
           id="path1992"
           style="color:#000000;font-style:normal;font-variant:normal;font-weight:normal;font-stretch:normal;font-size:medium;line-height:129.99999523%;font-family:Nunito;-inkscape-font-specification:Nunito;text-indent:0;text-align:center;text-decoration:none;text-decoration-line:none;text-decoration-style:solid;text-decoration-color:#000000;letter-spacing:0px;word-spacing:6.71841097px;text-transform:none;writing-mode:lr-tb;direction:ltr;baseline-shift:baseline;text-anchor:middle;white-space:normal;clip-rule:nonzero;visibility:visible;isolation:auto;mix-blend-mode:normal;color-interpolation:sRGB;color-interpolation-filters:linearRGB;solid-color:#000000;solid-opacity:1;fill:#000000;fill-opacity:1;fill-rule:nonzero;stroke:none;stroke-width:0.45651034px;stroke-linecap:butt;stroke-linejoin:miter;stroke-miterlimit:4;stroke-dasharray:none;stroke-dashoffset:0;stroke-opacity:1;color-rendering:auto;image-rendering:auto;shape-rendering:auto;text-rendering:auto"
           d="m 475.79475,267.46483 q 1.86771,0 2.82329,1.06416 0.95557,1.04245 0.95557,3.12733 v 5.88547 q 0,0.41264 -0.23889,0.65153 -0.2389,0.21718 -0.62981,0.21718 -0.41264,0 -0.65153,-0.21718 -0.2389,-0.23889 -0.2389,-0.65153 v -5.84203 q 0,-1.41164 -0.58637,-2.08489 -0.56466,-0.67325 -1.82428,-0.67325 -1.45508,0 -2.32378,0.89043 -0.86871,0.89042 -0.86871,2.41065 v 5.29909 q 0,0.41264 -0.23889,0.65153 -0.21718,0.21718 -0.62981,0.21718 -0.41263,0 -0.65153,-0.21718 -0.23889,-0.23889 -0.23889,-0.65153 V 263.7294 q 0,-0.3692 0.23889,-0.60809 0.26061,-0.2389 0.65153,-0.2389 0.41263,0 0.62981,0.2389 0.23889,0.21717 0.23889,0.60809 v 5.69001 q 0.52123,-0.95557 1.45508,-1.45508 0.93386,-0.4995 2.12833,-0.4995 z" />
        <path
           inkscape:connector-curvature="0"
           id="path1994"
           style="color:#000000;font-style:normal;font-variant:normal;font-weight:normal;font-stretch:normal;font-size:medium;line-height:129.99999523%;font-family:Nunito;-inkscape-font-specification:Nunito;text-indent:0;text-align:center;text-decoration:none;text-decoration-line:none;text-decoration-style:solid;text-decoration-color:#000000;letter-spacing:0px;word-spacing:6.71841097px;text-transform:none;writing-mode:lr-tb;direction:ltr;baseline-shift:baseline;text-anchor:middle;white-space:normal;clip-rule:nonzero;visibility:visible;isolation:auto;mix-blend-mode:normal;color-interpolation:sRGB;color-interpolation-filters:linearRGB;solid-color:#000000;solid-opacity:1;fill:#000000;fill-opacity:1;fill-rule:nonzero;stroke:none;stroke-width:0.45651034px;stroke-linecap:butt;stroke-linejoin:miter;stroke-miterlimit:4;stroke-dasharray:none;stroke-dashoffset:0;stroke-opacity:1;color-rendering:auto;image-rendering:auto;shape-rendering:auto;text-rendering:auto"
           d="m 490.98316,275.84782 q 0.23889,0 0.41263,0.19546 0.17375,0.19546 0.17375,0.4995 0,0.54294 -0.76012,0.99901 -0.78183,0.45607 -1.65054,0.69497 -0.8687,0.21717 -1.69397,0.21717 -2.45409,0 -3.88745,-1.45508 -1.41165,-1.45507 -1.41165,-4.01775 0,-1.62882 0.62981,-2.86672 0.62982,-1.25963 1.75913,-1.95459 1.15103,-0.69496 2.60611,-0.69496 2.06317,0 3.27936,1.34649 1.21619,1.34649 1.21619,3.64856 0,0.43435 -0.17375,0.62981 -0.17374,0.19545 -0.56465,0.19545 h -6.99307 q 0.19546,3.73543 3.53997,3.73543 0.84699,0 1.45508,-0.21717 0.60809,-0.2389 1.30305,-0.62981 0.56466,-0.32577 0.76012,-0.32577 z m -3.80058,-7.01478 q -1.38993,0 -2.23691,0.8687 -0.82527,0.8687 -0.97729,2.45409 h 6.14608 q -0.0434,-1.6071 -0.80356,-2.45409 -0.76011,-0.8687 -2.12832,-0.8687 z" />
        <path
           inkscape:connector-curvature="0"
           id="path1996"
           style="color:#000000;font-style:normal;font-variant:normal;font-weight:normal;font-stretch:normal;font-size:medium;line-height:129.99999523%;font-family:Nunito;-inkscape-font-specification:Nunito;text-indent:0;text-align:center;text-decoration:none;text-decoration-line:none;text-decoration-style:solid;text-decoration-color:#000000;letter-spacing:0px;word-spacing:6.71841097px;text-transform:none;writing-mode:lr-tb;direction:ltr;baseline-shift:baseline;text-anchor:middle;white-space:normal;clip-rule:nonzero;visibility:visible;isolation:auto;mix-blend-mode:normal;color-interpolation:sRGB;color-interpolation-filters:linearRGB;solid-color:#000000;solid-opacity:1;fill:#000000;fill-opacity:1;fill-rule:nonzero;stroke:none;stroke-width:0.45651034px;stroke-linecap:butt;stroke-linejoin:miter;stroke-miterlimit:4;stroke-dasharray:none;stroke-dashoffset:0;stroke-opacity:1;color-rendering:auto;image-rendering:auto;shape-rendering:auto;text-rendering:auto"
           d="m 499.04989,277.02057 q 0.76012,0.0651 0.76012,0.69497 0,0.36919 -0.28233,0.56465 -0.26061,0.17374 -0.80355,0.13031 l -0.58638,-0.0434 q -1.73741,-0.1303 -2.56268,-1.04244 -0.82526,-0.91214 -0.82526,-2.75814 v -5.45111 h -1.45508 q -0.3692,0 -0.58638,-0.17375 -0.19546,-0.19545 -0.19546,-0.4995 0,-0.32576 0.19546,-0.52122 0.21718,-0.19546 0.58638,-0.19546 h 1.45508 v -2.45409 q 0,-0.41263 0.23889,-0.62981 0.23889,-0.23889 0.65153,-0.23889 0.39091,0 0.62981,0.23889 0.23889,0.21718 0.23889,0.62981 v 2.45409 h 2.41065 q 0.34749,0 0.54294,0.19546 0.21718,0.19546 0.21718,0.52122 0,0.30405 -0.21718,0.4995 -0.19545,0.17375 -0.54294,0.17375 h -2.41065 v 5.53798 q 0,1.19447 0.47779,1.73741 0.4995,0.52122 1.4768,0.58638 z" />
        <path
           inkscape:connector-curvature="0"
           id="path1998"
           style="color:#000000;font-style:normal;font-variant:normal;font-weight:normal;font-stretch:normal;font-size:medium;line-height:129.99999523%;font-family:Nunito;-inkscape-font-specification:Nunito;text-indent:0;text-align:center;text-decoration:none;text-decoration-line:none;text-decoration-style:solid;text-decoration-color:#000000;letter-spacing:0px;word-spacing:6.71841097px;text-transform:none;writing-mode:lr-tb;direction:ltr;baseline-shift:baseline;text-anchor:middle;white-space:normal;clip-rule:nonzero;visibility:visible;isolation:auto;mix-blend-mode:normal;color-interpolation:sRGB;color-interpolation-filters:linearRGB;solid-color:#000000;solid-opacity:1;fill:#000000;fill-opacity:1;fill-rule:nonzero;stroke:none;stroke-width:0.45651034px;stroke-linecap:butt;stroke-linejoin:miter;stroke-miterlimit:4;stroke-dasharray:none;stroke-dashoffset:0;stroke-opacity:1;color-rendering:auto;image-rendering:auto;shape-rendering:auto;text-rendering:auto"
           d="m 504.49558,274.41446 q -0.2389,0 -0.39092,-0.17374 -0.15202,-0.17374 -0.15202,-0.47779 0,-1.34649 0.47778,-2.30206 0.49951,-0.95558 1.41165,-2.08489 0.7384,-0.93386 1.08588,-1.58539 0.3692,-0.65153 0.3692,-1.45508 0,-0.93385 -0.67325,-1.45508 -0.67324,-0.54294 -1.82428,-0.54294 -0.97729,0 -1.80256,0.39092 -0.82527,0.3692 -1.86771,1.15103 -0.3692,0.26061 -0.60809,0.26061 -0.26061,0 -0.43436,-0.21717 -0.15202,-0.2389 -0.15202,-0.54294 0,-0.43435 0.34748,-0.76012 0.86871,-0.82527 2.10661,-1.30305 1.25962,-0.49951 2.49752,-0.49951 1.88944,0 3.04047,0.93386 1.17275,0.93386 1.17275,2.45409 0,1.15103 -0.49951,1.99802 -0.47778,0.82527 -1.47679,1.95458 -0.93386,1.06416 -1.45508,1.88943 -0.49951,0.80355 -0.6081,1.86772 -0.0217,0.23889 -0.17374,0.36919 -0.15202,0.13031 -0.39091,0.13031 z m 0.0217,3.99604 q -0.52122,0 -0.8687,-0.34748 -0.32576,-0.34748 -0.32576,-0.86871 0,-0.52122 0.32576,-0.8687 0.34748,-0.3692 0.8687,-0.3692 0.52123,0 0.84699,0.3692 0.34748,0.34748 0.34748,0.8687 0,0.52123 -0.34748,0.86871 -0.32576,0.34748 -0.84699,0.34748 z" />
      </g>
    </g>
  </g>
</svg>
