<?xml version="1.0" encoding="UTF-8" standalone="no"?>
<!-- Created with Inkscape (http://www.inkscape.org/) -->

<svg
   xmlns:dc="http://purl.org/dc/elements/1.1/"
   xmlns:cc="http://creativecommons.org/ns#"
   xmlns:rdf="http://www.w3.org/1999/02/22-rdf-syntax-ns#"
   xmlns:svg="http://www.w3.org/2000/svg"
   xmlns="http://www.w3.org/2000/svg"
   xmlns:sodipodi="http://sodipodi.sourceforge.net/DTD/sodipodi-0.dtd"
   xmlns:inkscape="http://www.inkscape.org/namespaces/inkscape"
   width="290.69208mm"
   height="85.535606mm"
   viewBox="0 0 290.69208 85.535608"
   version="1.1"
   id="svg5423"
   sodipodi:docname="logo_black.svg"
   inkscape:version="0.92.3 (unknown)"
   inkscape:export-filename="/home/fdf/quickstart/themes/hugo-paper/static/img/logo.png"
   inkscape:export-xdpi="90"
   inkscape:export-ydpi="90">
  <defs
     id="defs5417" />
  <sodipodi:namedview
     id="base"
     pagecolor="#ffffff"
     bordercolor="#666666"
     borderopacity="1.0"
     inkscape:pageopacity="0.0"
     inkscape:pageshadow="2"
     inkscape:zoom="0.24748737"
     inkscape:cx="471.14804"
     inkscape:cy="370.45575"
     inkscape:document-units="mm"
     inkscape:current-layer="g916"
     showgrid="false"
     inkscape:window-width="960"
     inkscape:window-height="1007"
     inkscape:window-x="1600"
     inkscape:window-y="27"
     inkscape:window-maximized="0" />
  <metadata
     id="metadata5420">
    <rdf:RDF>
      <cc:Work
         rdf:about="">
        <dc:format>image/svg+xml</dc:format>
        <dc:type
           rdf:resource="http://purl.org/dc/dcmitype/StillImage" />
        <dc:title></dc:title>
      </cc:Work>
    </rdf:RDF>
  </metadata>
  <g
     inkscape:label="Layer 1"
     inkscape:groupmode="layer"
     id="layer1"
     transform="translate(62.945494,-223.23813)">
    <g
       id="g1604"
       transform="matrix(1.9771757,0,0,1.9771757,-803.08015,-251.17144)"
       style="fill:#000000;stroke-width:0.50577193"
       inkscape:export-xdpi="90"
       inkscape:export-ydpi="90">
      <g
         id="g916"
         transform="matrix(0.79672903,0,0,0.79672903,91.035167,53.170362)"
         style="stroke-width:0.63481051">
        <g
           id="text1528-6"
           style="color:#000000;font-style:normal;font-variant:normal;font-weight:300;font-stretch:normal;font-size:27.97202873px;line-height:129.99999523%;font-family:Nunito;-inkscape-font-specification:'Nunito Light';text-indent:0;text-align:center;text-decoration:none;text-decoration-line:none;text-decoration-style:solid;text-decoration-color:#000000;letter-spacing:0px;word-spacing:9.25758648px;text-transform:none;writing-mode:lr-tb;direction:ltr;baseline-shift:baseline;text-anchor:middle;white-space:normal;clip-rule:nonzero;display:inline;overflow:visible;visibility:visible;opacity:1;isolation:auto;mix-blend-mode:normal;color-interpolation:sRGB;color-interpolation-filters:linearRGB;solid-color:#000000;solid-opacity:1;fill:#000000;fill-opacity:1;fill-rule:nonzero;stroke:none;stroke-width:0.58498776px;stroke-linecap:butt;stroke-linejoin:miter;stroke-miterlimit:4;stroke-dasharray:none;stroke-dashoffset:0;stroke-opacity:1;color-rendering:auto;image-rendering:auto;shape-rendering:auto;text-rendering:auto;enable-background:accumulate"
           aria-label="hoe zit het"
           transform="matrix(0.78037594,0,0,0.78037594,98.358919,57.447902)">
          <path
             id="path881"
             style="font-style:normal;font-variant:normal;font-weight:normal;font-stretch:normal;font-family:Nunito;-inkscape-font-specification:Nunito;text-align:center;letter-spacing:0px;word-spacing:8.02912998px;text-anchor:middle;fill:#000000;stroke-width:0.58498776px"
             d="m 382.45175,269.05072 q 2.4056,0 3.63636,1.37063 1.23077,1.34265 1.23077,4.02797 v 7.58042 q 0,0.53147 -0.30769,0.83916 -0.30769,0.27972 -0.81119,0.27972 -0.53147,0 -0.83916,-0.27972 -0.30769,-0.30769 -0.30769,-0.83916 v -7.52448 q 0,-1.81818 -0.75525,-2.68531 -0.72727,-0.86714 -2.34965,-0.86714 -1.87412,0 -2.993,1.14686 -1.11888,1.14685 -1.11888,3.10489 v 6.82518 q 0,0.53147 -0.3077,0.83916 -0.27972,0.27972 -0.81119,0.27972 -0.53146,0 -0.83916,-0.27972 -0.30769,-0.30769 -0.30769,-0.83916 v -17.79021 q 0,-0.47553 0.30769,-0.78322 0.33567,-0.30769 0.83916,-0.30769 0.53147,0 0.81119,0.30769 0.3077,0.27972 0.3077,0.78322 v 7.32867 q 0.67132,-1.23077 1.87412,-1.87413 1.2028,-0.64335 2.74126,-0.64335 z"
             inkscape:connector-curvature="0" />
          <path
             id="path883"
             style="font-style:normal;font-variant:normal;font-weight:normal;font-stretch:normal;font-family:Nunito;-inkscape-font-specification:Nunito;text-align:center;letter-spacing:0px;word-spacing:8.02912998px;text-anchor:middle;fill:#000000;stroke-width:0.58498776px"
             d="m 397.11915,283.20456 q -1.93007,0 -3.41259,-0.86713 -1.45455,-0.86713 -2.26574,-2.46154 -0.78321,-1.62238 -0.78321,-3.74825 0,-2.12587 0.78321,-3.72028 0.81119,-1.62238 2.26574,-2.48951 1.48252,-0.86713 3.41259,-0.86713 1.93007,0 3.41258,0.86713 1.48252,0.86713 2.26574,2.48951 0.81119,1.59441 0.81119,3.72028 0,2.12587 -0.81119,3.74825 -0.78322,1.59441 -2.26574,2.46154 -1.48251,0.86713 -3.41258,0.86713 z m 0,-1.87412 q 2.01398,0 3.07692,-1.31469 1.09091,-1.34266 1.09091,-3.88811 0,-2.48951 -1.09091,-3.83217 -1.09091,-1.37063 -3.07692,-1.37063 -1.98602,0 -3.07693,1.37063 -1.09091,1.34266 -1.09091,3.83217 0,2.51748 1.06294,3.86014 1.09091,1.34266 3.1049,1.34266 z"
             inkscape:connector-curvature="0" />
          <path
             id="path885"
             style="font-style:normal;font-variant:normal;font-weight:normal;font-stretch:normal;font-family:Nunito;-inkscape-font-specification:Nunito;text-align:center;letter-spacing:0px;word-spacing:8.02912998px;text-anchor:middle;fill:#000000;stroke-width:0.58498776px"
             d="m 417.52998,279.84792 q 0.3077,0 0.53147,0.25175 0.22378,0.25175 0.22378,0.64335 0,0.6993 -0.97902,1.28672 -1.00699,0.58741 -2.12588,0.8951 -1.11888,0.27972 -2.18181,0.27972 -3.16084,0 -5.007,-1.87412 -1.81818,-1.87413 -1.81818,-5.17483 0,-2.0979 0.81119,-3.69231 0.81119,-1.62237 2.26573,-2.51748 1.48252,-0.8951 3.35665,-0.8951 2.65734,0 4.22377,1.73426 1.56644,1.73427 1.56644,4.6993 0,0.55944 -0.22378,0.81119 -0.22377,0.25175 -0.72727,0.25175 h -9.00699 q 0.25174,4.81119 4.55944,4.81119 1.09091,0 1.87412,-0.27972 0.78322,-0.30769 1.67832,-0.81119 0.72728,-0.41958 0.97902,-0.41958 z m -4.8951,-9.03497 q -1.79021,0 -2.88112,1.11889 -1.06294,1.11888 -1.25874,3.16083 h 7.91608 q -0.0559,-2.06993 -1.03496,-3.16083 -0.97902,-1.11889 -2.74126,-1.11889 z"
             inkscape:connector-curvature="0" />
          <path
             id="path887"
             style="font-style:normal;font-variant:normal;font-weight:normal;font-stretch:normal;font-family:Nunito;-inkscape-font-specification:Nunito;text-align:center;letter-spacing:0px;word-spacing:8.02912998px;text-anchor:middle;fill:#000000;stroke-width:0.58498776px"
             d="m 446.99006,281.21855 q 0.47552,0 0.72727,0.25175 0.25175,0.22377 0.25175,0.64335 0,0.41958 -0.25175,0.67133 -0.25175,0.22378 -0.72727,0.22378 h -9.79021 q -0.47553,0 -0.78322,-0.27972 -0.30769,-0.30769 -0.30769,-0.72727 0,-0.44756 0.33566,-0.86714 l 8.27972,-9.95804 h -7.66433 q -0.47553,0 -0.75525,-0.22378 -0.25174,-0.25174 -0.25174,-0.64335 0,-0.41958 0.25174,-0.67133 0.27972,-0.25175 0.75525,-0.25175 h 9.48252 q 0.50349,0 0.81119,0.30769 0.30769,0.27972 0.30769,0.6993 0,0.44756 -0.33567,0.86714 l -8.30769,9.95804 z"
             inkscape:connector-curvature="0" />
          <path
             id="path889"
             style="font-style:normal;font-variant:normal;font-weight:normal;font-stretch:normal;font-family:Nunito;-inkscape-font-specification:Nunito;text-align:center;letter-spacing:0px;word-spacing:8.02912998px;text-anchor:middle;fill:#000000;stroke-width:0.58498776px"
             d="m 452.21821,283.14862 q -0.5035,0 -0.83916,-0.27972 -0.30769,-0.30769 -0.30769,-0.83916 v -11.8042 q 0,-0.53147 0.30769,-0.81119 0.33566,-0.30769 0.83916,-0.30769 0.5035,0 0.81119,0.30769 0.30769,0.27972 0.30769,0.81119 v 11.8042 q 0,0.55944 -0.30769,0.83916 -0.30769,0.27972 -0.81119,0.27972 z m 0,-16.97902 q -0.67133,0 -1.09091,-0.39161 -0.41958,-0.39161 -0.41958,-1.03497 0,-0.61538 0.41958,-1.00699 0.41958,-0.39161 1.09091,-0.39161 0.67133,0 1.09091,0.39161 0.41958,0.39161 0.41958,1.00699 0,0.64336 -0.41958,1.03497 -0.41958,0.39161 -1.09091,0.39161 z"
             inkscape:connector-curvature="0" />
          <path
             id="path891"
             style="font-style:normal;font-variant:normal;font-weight:normal;font-stretch:normal;font-family:Nunito;-inkscape-font-specification:Nunito;text-align:center;letter-spacing:0px;word-spacing:8.02912998px;text-anchor:middle;fill:#000000;stroke-width:0.58498776px"
             d="m 463.86638,281.35841 q 0.97902,0.0839 0.97902,0.8951 0,0.47553 -0.36364,0.72728 -0.33566,0.22377 -1.03497,0.16783 l -0.75524,-0.0559 q -2.23776,-0.16783 -3.3007,-1.34265 -1.06294,-1.17483 -1.06294,-3.55245 v -7.02098 h -1.87412 q -0.47553,0 -0.75525,-0.22378 -0.25175,-0.25174 -0.25175,-0.64335 0,-0.41958 0.25175,-0.67133 0.27972,-0.25175 0.75525,-0.25175 h 1.87412 v -3.16084 q 0,-0.53147 0.3077,-0.81119 0.30769,-0.30769 0.83916,-0.30769 0.50349,0 0.81119,0.30769 0.30769,0.27972 0.30769,0.81119 v 3.16084 h 3.10489 q 0.44756,0 0.6993,0.25175 0.27972,0.25175 0.27972,0.67133 0,0.39161 -0.27972,0.64335 -0.25174,0.22378 -0.6993,0.22378 h -3.10489 v 7.13287 q 0,1.53846 0.61538,2.23776 0.64336,0.67133 1.9021,0.75524 z"
             inkscape:connector-curvature="0" />
          <path
             id="path893"
             style="font-style:normal;font-variant:normal;font-weight:normal;font-stretch:normal;font-family:Nunito;-inkscape-font-specification:Nunito;text-align:center;letter-spacing:0px;word-spacing:8.02912998px;text-anchor:middle;fill:#000000;stroke-width:0.58498776px"
             d="m 489.20058,269.05072 q 2.40559,0 3.63636,1.37063 1.23077,1.34265 1.23077,4.02797 v 7.58042 q 0,0.53147 -0.30769,0.83916 -0.3077,0.27972 -0.81119,0.27972 -0.53147,0 -0.83916,-0.27972 -0.3077,-0.30769 -0.3077,-0.83916 v -7.52448 q 0,-1.81818 -0.75524,-2.68531 -0.72727,-0.86714 -2.34965,-0.86714 -1.87413,0 -2.99301,1.14686 -1.11888,1.14685 -1.11888,3.10489 v 6.82518 q 0,0.53147 -0.30769,0.83916 -0.27972,0.27972 -0.81119,0.27972 -0.53147,0 -0.83916,-0.27972 -0.30769,-0.30769 -0.30769,-0.83916 v -17.79021 q 0,-0.47553 0.30769,-0.78322 0.33566,-0.30769 0.83916,-0.30769 0.53147,0 0.81119,0.30769 0.30769,0.27972 0.30769,0.78322 v 7.32867 q 0.67133,-1.23077 1.87413,-1.87413 1.20279,-0.64335 2.74126,-0.64335 z"
             inkscape:connector-curvature="0" />
          <path
             id="path895"
             style="font-style:normal;font-variant:normal;font-weight:normal;font-stretch:normal;font-family:Nunito;-inkscape-font-specification:Nunito;text-align:center;letter-spacing:0px;word-spacing:8.02912998px;text-anchor:middle;fill:#000000;stroke-width:0.58498776px"
             d="m 508.76307,279.84792 q 0.3077,0 0.53147,0.25175 0.22378,0.25175 0.22378,0.64335 0,0.6993 -0.97902,1.28672 -1.00699,0.58741 -2.12588,0.8951 -1.11888,0.27972 -2.18181,0.27972 -3.16084,0 -5.007,-1.87412 -1.81818,-1.87413 -1.81818,-5.17483 0,-2.0979 0.81119,-3.69231 0.81119,-1.62237 2.26573,-2.51748 1.48252,-0.8951 3.35665,-0.8951 2.65734,0 4.22377,1.73426 1.56644,1.73427 1.56644,4.6993 0,0.55944 -0.22378,0.81119 -0.22378,0.25175 -0.72727,0.25175 h -9.007 q 0.25175,4.81119 4.55945,4.81119 1.0909,0 1.87412,-0.27972 0.78322,-0.30769 1.67832,-0.81119 0.72728,-0.41958 0.97902,-0.41958 z m -4.8951,-9.03497 q -1.79021,0 -2.88112,1.11889 -1.06294,1.11888 -1.25874,3.16083 h 7.91608 q -0.0559,-2.06993 -1.03496,-3.16083 -0.97902,-1.11889 -2.74126,-1.11889 z"
             inkscape:connector-curvature="0" />
          <path
             id="path897"
             style="font-style:normal;font-variant:normal;font-weight:normal;font-stretch:normal;font-family:Nunito;-inkscape-font-specification:Nunito;text-align:center;letter-spacing:0px;word-spacing:8.02912998px;text-anchor:middle;fill:#000000;stroke-width:0.58498776px"
             d="m 519.15293,281.35841 q 0.97902,0.0839 0.97902,0.8951 0,0.47553 -0.36364,0.72728 -0.33566,0.22377 -1.03496,0.16783 l -0.75525,-0.0559 q -2.23776,-0.16783 -3.3007,-1.34265 -1.06293,-1.17483 -1.06293,-3.55245 v -7.02098 h -1.87413 q -0.47552,0 -0.75524,-0.22378 -0.25175,-0.25174 -0.25175,-0.64335 0,-0.41958 0.25175,-0.67133 0.27972,-0.25175 0.75524,-0.25175 h 1.87413 v -3.16084 q 0,-0.53147 0.30769,-0.81119 0.30769,-0.30769 0.83916,-0.30769 0.5035,0 0.81119,0.30769 0.30769,0.27972 0.30769,0.81119 v 3.16084 h 3.1049 q 0.44755,0 0.6993,0.25175 0.27972,0.25175 0.27972,0.67133 0,0.39161 -0.27972,0.64335 -0.25175,0.22378 -0.6993,0.22378 h -3.1049 v 7.13287 q 0,1.53846 0.61538,2.23776 0.64336,0.67133 1.9021,0.75524 z"
             inkscape:connector-curvature="0" />
        </g>
        <g
           transform="matrix(-0.36985591,0,0,0.36985591,472.47681,229.06789)"
           id="g1348-2-1-2"
           style="fill:#000000;stroke:none;stroke-width:1.71637249">
          <circle
             r="10"
             cy="52.248337"
             cx="86.092468"
             id="path1114-1-7-9"
             style="color:#000000;clip-rule:nonzero;display:inline;overflow:visible;visibility:visible;opacity:1;isolation:auto;mix-blend-mode:normal;color-interpolation:sRGB;color-interpolation-filters:linearRGB;solid-color:#000000;solid-opacity:1;fill:#000000;fill-opacity:1;fill-rule:evenodd;stroke:none;stroke-width:42.90930557;stroke-linecap:square;stroke-linejoin:round;stroke-miterlimit:4;stroke-dasharray:none;stroke-dashoffset:0;stroke-opacity:1;color-rendering:auto;image-rendering:auto;shape-rendering:auto;text-rendering:auto;enable-background:accumulate" />
          <path
             style="color:#000000;clip-rule:nonzero;display:inline;overflow:visible;visibility:visible;opacity:1;isolation:auto;mix-blend-mode:normal;color-interpolation:sRGB;color-interpolation-filters:linearRGB;solid-color:#000000;solid-opacity:1;fill:#000000;fill-opacity:1;fill-rule:evenodd;stroke:none;stroke-width:162.17694092;stroke-linecap:square;stroke-linejoin:round;stroke-miterlimit:4;stroke-dasharray:none;stroke-dashoffset:0;stroke-opacity:1;color-rendering:auto;image-rendering:auto;shape-rendering:auto;text-rendering:auto;enable-background:accumulate"
             d="m 1593.1523,880.55273 c -20.9385,0 -37.7949,16.85635 -37.7949,37.79493 v 34.34179 h 32.8711 v -36.03906 c -0.017,-1.06732 0.8526,-1.93697 1.9199,-1.91992 1.0436,0.0167 1.8761,0.8763 1.8594,1.91992 v 37.92773 c 4e-4,1.04357 -0.8451,1.88994 -1.8887,1.89063 h -34.7617 -14.9629 c -2.3637,0 -4.6088,0.47231 -6.6465,1.32813 -1.0188,0.4279 -1.9864,0.95179 -2.8906,1.56054 -0.4521,0.30438 -0.8873,0.62916 -1.3066,0.97461 -0.4193,0.34545 -0.8213,0.71194 -1.2051,1.0957 -0.3834,0.38346 -0.7506,0.78419 -1.0957,1.20313 -3e-4,3.7e-4 3e-4,0.002 0,0.002 -1.3813,1.677 -2.4453,3.62648 -3.1035,5.76172 -2e-4,5.9e-4 2e-4,10e-4 0,0.002 -0.3289,1.06734 -0.5567,2.18134 -0.6719,3.33008 -0.058,0.5747 -0.088,1.15907 -0.088,1.75 0,0.59094 0.03,1.1733 0.088,1.74805 10e-5,6.4e-4 -10e-5,0.001 0,0.002 0.1153,1.14882 0.3429,2.26252 0.6719,3.33008 2e-4,6e-4 -2e-4,10e-4 0,0.002 0.1645,0.53347 0.3546,1.05542 0.5683,1.56446 3e-4,5.6e-4 -2e-4,10e-4 0,0.002 0.2138,0.50902 0.4527,1.0045 0.7129,1.48633 3e-4,5.1e-4 -2e-4,10e-4 0,0.002 1.0421,1.92877 2.4462,3.62937 4.1231,5.01172 0.8386,0.69135 1.7447,1.30273 2.709,1.82422 1.4464,0.78223 3.0223,1.36143 4.6894,1.69922 1.1114,0.22519 2.2635,0.34375 3.4453,0.34375 0,0 80.1268,0.0293 90.5528,0.0293 v -72.17382 c 0,-20.93858 -16.8564,-37.79493 -37.795,-37.79493 z m -89.6777,113.74995 c -5.0365,0.46052 -9.4801,2.60538 -12.584,6.22072 l -79.1426,79.1426 c -7.4029,7.4029 -7.4029,19.3217 0,26.7246 7.4029,7.4029 19.3237,7.4029 26.7266,0 l 47.8574,-47.8574 v 67.6875 c 0,10.4693 8.4292,18.8984 18.8985,18.8984 10.4693,0 18.8984,-8.4291 18.8984,-18.8984 v -94.4883 h 69.2126 v 0 c 20.7285,-0.1013 37.4017,-16.7241 37.5957,-37.42972 -10.4472,-10e-6 -127.367,-0.009 -127.4629,0 z"
             transform="matrix(-0.26458333,0,0,0.26458333,496.676,-170.90929)"
             id="rect1116-7-9-0"
             inkscape:connector-curvature="0"
             sodipodi:nodetypes="csccccccccsccsccccccscccccccccccccssccssscssscsccccc" />
          <g
             transform="translate(-10.723601,0.60112632)"
             id="g1251-5-1-3"
             style="fill:#000000;stroke:none;stroke-width:1.71637249">
            <rect
               style="color:#000000;clip-rule:nonzero;display:inline;overflow:visible;visibility:visible;opacity:1;isolation:auto;mix-blend-mode:normal;color-interpolation:sRGB;color-interpolation-filters:linearRGB;solid-color:#000000;solid-opacity:1;fill:#000000;fill-opacity:1;fill-rule:evenodd;stroke:none;stroke-width:1.8516264;stroke-linecap:square;stroke-linejoin:round;stroke-miterlimit:4;stroke-dasharray:none;stroke-dashoffset:0;stroke-opacity:1;paint-order:fill markers stroke;color-rendering:auto;image-rendering:auto;shape-rendering:auto;text-rendering:auto;enable-background:accumulate"
               id="rect1229-6-0-0"
               width="15.668805"
               height="11.294343"
               x="-106.98386"
               y="-168.22519"
               transform="matrix(0.5,-0.8660254,-0.99991011,0.01340771,0,0)"
               ry="0" />
            <rect
               style="color:#000000;clip-rule:nonzero;display:inline;overflow:visible;visibility:visible;opacity:1;isolation:auto;mix-blend-mode:normal;color-interpolation:sRGB;color-interpolation-filters:linearRGB;solid-color:#000000;solid-opacity:1;fill:#000000;fill-opacity:1;fill-rule:evenodd;stroke:none;stroke-width:1.71637249;stroke-linecap:square;stroke-linejoin:round;stroke-miterlimit:4;stroke-dasharray:none;stroke-dashoffset:0;stroke-opacity:1;paint-order:fill markers stroke;color-rendering:auto;image-rendering:auto;shape-rendering:auto;text-rendering:auto;enable-background:accumulate"
               id="rect1246-5-3-3"
               width="9.6449051"
               height="2.4550581"
               x="134.8607"
               y="5.2323093"
               transform="rotate(30)" />
          </g>
        </g>
      </g>
    </g>
  </g>
</svg>
