<?xml version="1.0" encoding="UTF-8" standalone="no"?>
<!-- Created with Inkscape (http://www.inkscape.org/) -->

<svg
   xmlns:dc="http://purl.org/dc/elements/1.1/"
   xmlns:cc="http://creativecommons.org/ns#"
   xmlns:rdf="http://www.w3.org/1999/02/22-rdf-syntax-ns#"
   xmlns:svg="http://www.w3.org/2000/svg"
   xmlns="http://www.w3.org/2000/svg"
   xmlns:sodipodi="http://sodipodi.sourceforge.net/DTD/sodipodi-0.dtd"
   xmlns:inkscape="http://www.inkscape.org/namespaces/inkscape"
   width="97.539108mm"
   height="52.102272mm"
   viewBox="0 0 97.539106 52.102274"
   version="1.1"
   id="svg5423"
   sodipodi:docname="posts.svg"
   inkscape:version="0.92.3 (unknown)"
   inkscape:export-filename="/home/fdf/quickstart/themes/hugo-paper/static/img/logo.png"
   inkscape:export-xdpi="90"
   inkscape:export-ydpi="90">
  <defs
     id="defs5417" />
  <sodipodi:namedview
     id="base"
     pagecolor="#ffffff"
     bordercolor="#666666"
     borderopacity="1.0"
     inkscape:pageopacity="0.0"
     inkscape:pageshadow="2"
     inkscape:zoom="1.4"
     inkscape:cx="183.66238"
     inkscape:cy="49.079307"
     inkscape:document-units="mm"
     inkscape:current-layer="g3257"
     showgrid="false"
     inkscape:window-width="1920"
     inkscape:window-height="1055"
     inkscape:window-x="1600"
     inkscape:window-y="25"
     inkscape:window-maximized="1"
     inkscape:snap-global="true"
     showguides="true"
     inkscape:guide-bbox="true"
     inkscape:snap-midpoints="true" />
  <metadata
     id="metadata5420">
    <rdf:RDF>
      <cc:Work
         rdf:about="">
        <dc:format>image/svg+xml</dc:format>
        <dc:type
           rdf:resource="http://purl.org/dc/dcmitype/StillImage" />
        <dc:title></dc:title>
      </cc:Work>
    </rdf:RDF>
  </metadata>
  <g
     inkscape:label="Layer 1"
     inkscape:groupmode="layer"
     id="layer1"
     transform="translate(-46.11238,-238.52832)">
    <g
       id="g1604"
       transform="matrix(1.9771757,0,0,1.9771757,-803.08015,-251.17144)"
       style="fill:#000000;stroke-width:0.50577193"
       inkscape:export-xdpi="90"
       inkscape:export-ydpi="90">
      <g
         id="g916"
         transform="matrix(0.79672903,0,0,0.79672903,91.035167,53.170362)"
         style="stroke-width:0.63481051">
        <g
           id="g3257"
           transform="translate(2.5685264,-1.2696201)">
          <text
             id="text1000"
             y="278.25824"
             x="420.33551"
             style="color:#000000;font-style:normal;font-variant:normal;font-weight:300;font-stretch:normal;font-size:21.71759987px;line-height:129.99999523%;font-family:Quicksand;-inkscape-font-specification:'Quicksand Light';text-indent:0;text-align:start;text-decoration:none;text-decoration-line:none;text-decoration-style:solid;text-decoration-color:#000000;letter-spacing:0px;word-spacing:0px;text-transform:none;writing-mode:lr-tb;direction:ltr;baseline-shift:baseline;text-anchor:start;white-space:normal;clip-rule:nonzero;display:inline;overflow:visible;visibility:visible;opacity:1;isolation:auto;mix-blend-mode:normal;color-interpolation:sRGB;color-interpolation-filters:linearRGB;solid-color:#000000;solid-opacity:1;fill:#000000;fill-opacity:1;fill-rule:nonzero;stroke:none;stroke-width:0.45651034px;stroke-linecap:butt;stroke-linejoin:miter;stroke-miterlimit:4;stroke-dasharray:none;stroke-dashoffset:0;stroke-opacity:1;color-rendering:auto;image-rendering:auto;shape-rendering:auto;text-rendering:auto;enable-background:accumulate"
             xml:space="preserve"><tspan
               style="font-style:normal;font-variant:normal;font-weight:300;font-stretch:normal;font-family:Quicksand;-inkscape-font-specification:'Quicksand Light';stroke-width:0.45651034px"
               y="278.25824"
               x="420.33551"
               id="tspan998"
               sodipodi:role="line">lessen</tspan></text>
          <g
             transform="matrix(-0.50602113,0,0,0.50602113,477.03242,232.66348)"
             id="g3159"
             style="fill:#000000;stroke-width:0.21070848">
            <circle
               style="fill:#000000;stroke-width:0.21070848"
               cx="12.394001"
               cy="57.118141"
               r="7.3940582"
               id="circle3139" />
            <path
               sodipodi:nodetypes="scccccccccccccccssssscccc"
               style="fill:#000000;stroke-width:0.21070848"
               inkscape:connector-curvature="0"
               d="M 91.214172,58.864868 H 80.301697 L 63.879334,45.462646 c -1.285767,-1.119934 -3.216065,-1.25885 -4.666504,-0.226867 l -11.72345,8.333862 -11.20044,2.44e-4 2.840332,-2.660156 c 0.175049,-0.142151 0.339844,-0.30188 0.491639,-0.479309 1.355774,-1.584351 1.170288,-3.967957 -0.414063,-5.32367 L 28.666687,36.107788 c -1.584412,-1.355713 -3.967957,-1.170288 -5.323669,0.414063 -0.30774,0.359619 -0.525452,0.763488 -0.676026,1.184143 l 0.523865,3.526306 c 0.164123,0.219604 0.349121,0.42749 0.566162,0.61322 l 7.339478,6.266235 -6.917481,6.478638 c -0.656616,0.614258 -1.503906,7.004456 -1.503906,8.060303 0,2.09082 1.694946,3.785828 3.785766,3.785828 H 91.214172 C 93.305054,66.436523 95,64.741516 95,62.650696 95,60.559815 93.305054,58.864868 91.214172,58.864868 Z m -38.14209,0 8.17273,-5.809814 7.119141,5.809814 z"
               id="path3141" />
            <g
               style="fill:#000000;stroke:none;stroke-width:1.71637249"
               id="g1251-5-1-3"
               transform="matrix(-0.10469842,-0.72337247,0.72337247,-0.10469842,-30.214627,130.17079)">
              <rect
                 ry="0"
                 transform="matrix(0.5,-0.8660254,-0.99991011,0.01340771,0,0)"
                 y="-168.22519"
                 x="-106.98386"
                 height="11.294343"
                 width="15.668805"
                 id="rect1229-6-0-0"
                 style="color:#000000;clip-rule:nonzero;display:inline;overflow:visible;visibility:visible;opacity:1;isolation:auto;mix-blend-mode:normal;color-interpolation:sRGB;color-interpolation-filters:linearRGB;solid-color:#000000;solid-opacity:1;fill:#000000;fill-opacity:1;fill-rule:evenodd;stroke:none;stroke-width:1.8516264;stroke-linecap:square;stroke-linejoin:round;stroke-miterlimit:4;stroke-dasharray:none;stroke-dashoffset:0;stroke-opacity:1;paint-order:fill markers stroke;color-rendering:auto;image-rendering:auto;shape-rendering:auto;text-rendering:auto;enable-background:accumulate" />
              <rect
                 transform="rotate(30)"
                 y="5.2323093"
                 x="134.8607"
                 height="2.4550581"
                 width="9.6449051"
                 id="rect1246-5-3-3"
                 style="color:#000000;clip-rule:nonzero;display:inline;overflow:visible;visibility:visible;opacity:1;isolation:auto;mix-blend-mode:normal;color-interpolation:sRGB;color-interpolation-filters:linearRGB;solid-color:#000000;solid-opacity:1;fill:#000000;fill-opacity:1;fill-rule:evenodd;stroke:none;stroke-width:1.71637249;stroke-linecap:square;stroke-linejoin:round;stroke-miterlimit:4;stroke-dasharray:none;stroke-dashoffset:0;stroke-opacity:1;paint-order:fill markers stroke;color-rendering:auto;image-rendering:auto;shape-rendering:auto;text-rendering:auto;enable-background:accumulate" />
            </g>
          </g>
          <g
             id="g1092"
             transform="matrix(0.86789087,0,0,0.86789087,426.67922,40.612639)"
             style="stroke-width:0.73144042">
            <path
               inkscape:connector-curvature="0"
               id="path1076"
               d="m 61.946054,240.94296 c -0.06551,0 -0.147278,0.0654 -0.147278,0.14727 0,0.0819 0.06539,0.14728 0.147278,0.14728 h 1.35909 c 0.08189,0 0.147794,-0.0654 0.147794,-0.14728 0,-0.0819 -0.0659,-0.14727 -0.147794,-0.14727 z"
               style="fill:#000000;fill-opacity:1;stroke:none;stroke-width:0.49026826;stroke-linecap:round;stroke-linejoin:round;stroke-miterlimit:4;stroke-dasharray:none;stroke-dashoffset:0;stroke-opacity:1;paint-order:markers stroke fill" />
            <path
               inkscape:connector-curvature="0"
               id="path1074"
               d="m 61.962594,241.56514 c -0.08189,0 -0.147794,0.0654 -0.147794,0.14728 0,0.0819 0.06591,0.14779 0.147794,0.14779 h 1.359091 c 0.08189,0 0.147277,-0.0659 0.147277,-0.14779 0,-0.0819 -0.08177,-0.14728 -0.147277,-0.14728 z"
               style="fill:#000000;fill-opacity:1;stroke:none;stroke-width:0.49026826;stroke-linecap:round;stroke-linejoin:round;stroke-miterlimit:4;stroke-dasharray:none;stroke-dashoffset:0;stroke-opacity:1;paint-order:markers stroke fill" />
            <path
               inkscape:connector-curvature="0"
               id="rect1013"
               d="m 61.929524,242.18784 c -0.03276,0.60597 -0.245499,1.17889 -0.622183,1.62109 -0.262041,0.31117 -0.409279,0.72073 -0.409279,1.13017 0,0.9499 0.769538,1.73581 1.735812,1.73581 0.06551,0 0.13086,-0.016 0.196371,-0.016 0.769742,-0.0983 1.408777,-0.70443 1.523421,-1.4578 0.08189,-0.49132 -0.04901,-0.96654 -0.360186,-1.3596 -0.393059,-0.5077 -0.622495,-1.06406 -0.655256,-1.65365 h -0.540536 v 1.42472 l 0.622184,0.62219 c 0.06551,0.0655 0.06551,0.16394 0,0.22944 -0.06551,0.0655 -0.163415,0.0655 -0.228926,0 l -0.557072,-0.55707 -0.557072,0.55707 c -0.06551,0.0655 -0.163417,0.0655 -0.228926,0 -0.06551,-0.0655 -0.06551,-0.16394 0,-0.22944 l 0.622184,-0.62219 v -1.42472 z"
               style="fill:#000000;fill-opacity:1;stroke:none;stroke-width:0.49026826;stroke-linecap:round;stroke-linejoin:round;stroke-miterlimit:4;stroke-dasharray:none;stroke-dashoffset:0;stroke-opacity:1;paint-order:markers stroke fill" />
            <path
               inkscape:connector-curvature="0"
               d="m 59.194437,245.03754 h 0.933519 c 0.09827,0 0.163775,-0.0655 0.163775,-0.16378 0,-0.0983 -0.06551,-0.16377 -0.163775,-0.16377 h -0.933519 c -0.09826,0 -0.163775,0.0655 -0.163775,0.16377 0,0.0983 0.08189,0.16378 0.163775,0.16378 z"
               id="path922"
               style="fill:#000000;stroke-width:0.15089278" />
            <path
               inkscape:connector-curvature="0"
               d="m 64.975702,244.87376 c 0,0.0983 0.06551,0.16378 0.163775,0.16378 h 0.933519 c 0.09826,0 0.163775,-0.0655 0.163775,-0.16378 0,-0.0983 -0.06551,-0.16377 -0.163775,-0.16377 h -0.933519 c -0.09826,0 -0.163775,0.0819 -0.163775,0.16377 z"
               id="path924"
               style="fill:#000000;stroke-width:0.15089278" />
            <path
               inkscape:connector-curvature="0"
               d="m 62.633717,247.26488 c -0.09826,0 -0.163775,0.0655 -0.163775,0.16378 v 0.88438 c 0,0.0983 0.06551,0.16378 0.163775,0.16378 0.09827,0 0.163775,-0.0655 0.163775,-0.16378 v -0.88438 c 0,-0.0983 -0.06551,-0.16378 -0.163775,-0.16378 z"
               id="path926"
               style="fill:#000000;stroke-width:0.15089278" />
            <path
               inkscape:connector-curvature="0"
               d="m 60.848567,246.49514 c -0.04913,0 -0.08189,0.0164 -0.114642,0.0491 l -0.638724,0.63873 c -0.06551,0.0655 -0.06551,0.16377 0,0.22928 0.06551,0.0655 0.163775,0.0655 0.229285,0 l 0.638724,-0.63872 c 0.06551,-0.0655 0.06551,-0.16378 0,-0.22929 -0.03276,-0.0327 -0.08189,-0.0491 -0.114643,-0.0491 z"
               id="path928"
               style="fill:#000000;stroke-width:0.15089278" />
            <path
               inkscape:connector-curvature="0"
               d="m 64.287846,243.21963 c 0.06551,0.0655 0.163776,0.0655 0.229286,0 l 0.6551,-0.6551 c 0.06551,-0.0655 0.06551,-0.16378 0,-0.22929 -0.08189,-0.0655 -0.147397,-0.0655 -0.229284,0 l -0.655102,0.6551 c -0.06551,0.0655 -0.06551,0.16378 0,0.22929 z"
               id="path930"
               style="fill:#000000;stroke-width:0.15089278" />
            <path
               inkscape:connector-curvature="0"
               d="m 60.078823,242.56453 0.671479,0.67148 c 0.06551,0.0655 0.163776,0.0655 0.229285,0 0.06551,-0.0655 0.06551,-0.16378 0,-0.22929 l -0.671478,-0.67148 c -0.08189,-0.0655 -0.163776,-0.0655 -0.229286,0 -0.04913,0.0491 -0.04913,0.16378 0,0.22929 z"
               id="path932"
               style="fill:#000000;stroke-width:0.15089278" />
            <path
               inkscape:connector-curvature="0"
               d="m 64.549887,246.56064 c -0.03276,-0.0328 -0.08189,-0.0491 -0.114643,-0.0491 -0.04913,0 -0.08189,0.0164 -0.114643,0.0491 -0.06551,0.0655 -0.06551,0.16378 0,0.22929 l 0.622347,0.63873 c 0.06551,0.0655 0.163774,0.0655 0.229284,0 0.06551,-0.0655 0.06551,-0.16378 0,-0.22929 z"
               id="path934"
               style="fill:#000000;stroke-width:0.15089278" />
            <path
               style="fill:none;stroke:#000000;stroke-width:0.38705391;stroke-linecap:round;stroke-linejoin:miter;stroke-miterlimit:4;stroke-dasharray:none;stroke-opacity:1"
               d="m 62.639126,240.42729 v -4.2708"
               id="path1097"
               inkscape:connector-curvature="0" />
          </g>
        </g>
      </g>
    </g>
  </g>
</svg>
