<?xml version="1.0" encoding="UTF-8" standalone="no"?>
<!-- Created with Inkscape (http://www.inkscape.org/) -->

<svg
   xmlns:ns1="http://www.iki.fi/pav/software/textext/"
   xmlns:dc="http://purl.org/dc/elements/1.1/"
   xmlns:cc="http://creativecommons.org/ns#"
   xmlns:rdf="http://www.w3.org/1999/02/22-rdf-syntax-ns#"
   xmlns:svg="http://www.w3.org/2000/svg"
   xmlns="http://www.w3.org/2000/svg"
   xmlns:sodipodi="http://sodipodi.sourceforge.net/DTD/sodipodi-0.dtd"
   xmlns:inkscape="http://www.inkscape.org/namespaces/inkscape"
   width="1923.9988"
   height="411.59244"
   viewBox="0 0 1923.9988 411.59244"
   version="1.1"
   id="svg4623"
   inkscape:version="0.92.4 (unknown)"
   sodipodi:docname="diff_quot_intuitie.svg"
   inkscape:export-filename="/home/fdf/clones/hoezithet/content/lessen/wiskunde/afgeleiden_1/intro/img/diff_quot_intuitie_stripped.png"
   inkscape:export-xdpi="96"
   inkscape:export-ydpi="96">
  <defs
     id="defs4617">
    <marker
       inkscape:stockid="Arrow2Mend"
       orient="auto"
       refY="0"
       refX="0"
       id="Arrow2Mend"
       style="overflow:visible"
       inkscape:isstock="true">
      <path
         id="path33708"
         style="fill:#19a974;fill-opacity:1;fill-rule:evenodd;stroke:#19a974;stroke-width:0.625;stroke-linejoin:round;stroke-opacity:1"
         d="M 8.7185878,4.0337352 -2.2072895,0.01601326 8.7185884,-4.0017078 c -1.7454984,2.3720609 -1.7354408,5.6174519 -6e-7,8.035443 z"
         transform="scale(-0.6)"
         inkscape:connector-curvature="0" />
    </marker>
    <marker
       inkscape:stockid="Arrow2Mend"
       orient="auto"
       refY="0"
       refX="0"
       id="Arrow2Mend-3"
       style="overflow:visible"
       inkscape:isstock="true">
      <path
         inkscape:connector-curvature="0"
         id="path33708-2"
         style="fill:#ff6300;fill-opacity:1;fill-rule:evenodd;stroke:#ff6300;stroke-width:0.625;stroke-linejoin:round;stroke-opacity:1"
         d="M 8.7185878,4.0337352 -2.2072895,0.01601326 8.7185884,-4.0017078 c -1.7454984,2.3720609 -1.7354408,5.6174519 -6e-7,8.035443 z"
         transform="scale(-0.6)" />
    </marker>
    <marker
       inkscape:stockid="Arrow2Mend"
       orient="auto"
       refY="0"
       refX="0"
       id="Arrow2Mend-6"
       style="overflow:visible"
       inkscape:isstock="true">
      <path
         id="path33708-9"
         style="fill:#19a974;fill-opacity:1;fill-rule:evenodd;stroke:#19a974;stroke-width:0.625;stroke-linejoin:round;stroke-opacity:1"
         d="M 8.7185878,4.0337352 -2.2072895,0.01601326 8.7185884,-4.0017078 c -1.7454984,2.3720609 -1.7354408,5.6174519 -6e-7,8.035443 z"
         transform="scale(-0.6)"
         inkscape:connector-curvature="0" />
    </marker>
    <marker
       inkscape:stockid="Arrow2Mend"
       orient="auto"
       refY="0"
       refX="0"
       id="Arrow2Mend-3-3"
       style="overflow:visible"
       inkscape:isstock="true">
      <path
         inkscape:connector-curvature="0"
         id="path33708-2-7"
         style="fill:#ff6300;fill-opacity:1;fill-rule:evenodd;stroke:#ff6300;stroke-width:0.625;stroke-linejoin:round;stroke-opacity:1"
         d="M 8.7185878,4.0337352 -2.2072895,0.01601326 8.7185884,-4.0017078 c -1.7454984,2.3720609 -1.7354408,5.6174519 -6e-7,8.035443 z"
         transform="scale(-0.6)" />
    </marker>
  </defs>
  <sodipodi:namedview
     id="base"
     pagecolor="#f4f4f4"
     bordercolor="#666666"
     borderopacity="1.0"
     inkscape:pageopacity="1"
     inkscape:pageshadow="2"
     inkscape:zoom="0.45254834"
     inkscape:cx="905.94185"
     inkscape:cy="275.7693"
     inkscape:document-units="px"
     inkscape:current-layer="layer1"
     showgrid="false"
     units="px"
     inkscape:object-paths="true"
     inkscape:snap-smooth-nodes="true"
     inkscape:window-width="1858"
     inkscape:window-height="1057"
     inkscape:window-x="1662"
     inkscape:window-y="23"
     inkscape:window-maximized="0"
     showguides="true"
     inkscape:guide-bbox="true"
     inkscape:pagecheckerboard="false"
     inkscape:snap-global="false"
     inkscape:showpageshadow="true"
     showborder="true"
     borderlayer="false"
     inkscape:snap-page="true" />
  <metadata
     id="metadata4620">
    <rdf:RDF>
      <cc:Work
         rdf:about="">
        <dc:format>image/svg+xml</dc:format>
        <dc:type
           rdf:resource="http://purl.org/dc/dcmitype/StillImage" />
        <dc:title />
      </cc:Work>
    </rdf:RDF>
  </metadata>
  <g
     inkscape:label="layer_1"
     inkscape:groupmode="layer"
     id="layer1"
     transform="translate(7.1793904,-308.77811)"
     style="display:inline">
    <g
       id="g5353"
       transform="matrix(1.5307502,0,0,1.5307502,-514.7002,-314.53835)"
       style="stroke-width:1.11577785">
      <text
         xml:space="preserve"
         style="font-style:normal;font-variant:normal;font-weight:normal;font-stretch:normal;font-size:28.01556396px;line-height:1.29999995;font-family:Quicksand;-inkscape-font-specification:'Quicksand, Normal';font-variant-ligatures:normal;font-variant-position:normal;font-variant-caps:normal;font-variant-numeric:normal;font-variant-alternates:normal;font-feature-settings:normal;text-indent:0;text-align:center;text-decoration:none;text-decoration-line:none;text-decoration-style:solid;text-decoration-color:#000000;letter-spacing:0px;word-spacing:0px;text-transform:none;writing-mode:lr-tb;direction:ltr;text-orientation:mixed;dominant-baseline:auto;baseline-shift:baseline;text-anchor:middle;white-space:normal;shape-padding:0;opacity:1;vector-effect:none;fill:#555555;fill-opacity:1;stroke:none;stroke-width:3.17272329px;stroke-linecap:butt;stroke-linejoin:miter;stroke-miterlimit:4;stroke-dasharray:none;stroke-dashoffset:0;stroke-opacity:1"
         x="44.292774"
         y="218.67326"
         id="text2653"><tspan
           sodipodi:role="line"
           id="tspan2651"
           x="44.292774"
           y="245.28806"
           style="stroke-width:3.17272329px" /></text>
      <g
         id="g50569"
         ns1:jacobian_sqrt="7.690526"
         inkscapeversion="0.92.4"
         ns1:alignment="middle center"
         ns1:scale="5.76789433971"
         ns1:preamble="/home/fdf/.config/inkscape/extensions/textext/default_packages.tex"
         ns1:text="$\\frac{f(x_2) - f(x_1)}{x_2 - x_1}$"
         ns1:pdfconverter="pdf2svg"
         ns1:texconverter="pdflatex"
         ns1:version="0.11.0"
         transform="matrix(7.690526,0,0,7.690526,-365.23384,-475.56953)">
        <g
           id="surface1">
          <g
             id="g50504"
             style="fill:#000000;fill-opacity:1">
            <path
               id="path50502"
               transform="translate(149.908,130.032)"
               d="M 2.84375,-2.75 H 3.515625 C 3.65625,-2.75 3.75,-2.75 3.75,-2.90625 3.75,-3 3.65625,-3 3.53125,-3 H 2.890625 c 0.15625,-0.890625 0.203125,-1.203125 0.265625,-1.40625 0.03125,-0.15625 0.1875,-0.296875 0.359375,-0.296875 0,0 0.1875,0 0.328125,0.078125 -0.296875,0.09375 -0.3125,0.34375 -0.3125,0.375 0,0.15625 0.125,0.265625 0.28125,0.265625 0.1875,0 0.390625,-0.15625 0.390625,-0.421875 0,-0.328125 -0.328125,-0.5 -0.6875,-0.5 -0.3125,0 -0.65625,0.171875 -0.84375,0.515625 C 2.53125,-4.125 2.484375,-3.8125 2.328125,-3 H 1.78125 c -0.140625,0 -0.234375,0 -0.234375,0.15625 0,0.09375 0.09375,0.09375 0.21875,0.09375 H 2.28125 c 0,0.046875 -0.4375,2.546875 -0.609375,3.296875 -0.03125,0.15625 -0.15625,0.671875 -0.484375,0.671875 -0.015625,0 -0.171875,0 -0.3125,-0.078125 0.28125,-0.09375 0.3125,-0.34375 0.3125,-0.375 C 1.1875,0.609375 1.0625,0.5 0.90625,0.5 c -0.1875,0 -0.390625,0.15625 -0.390625,0.421875 0,0.3125 0.328125,0.5 0.671875,0.5 0.4375,0 0.75,-0.453125 0.828125,-0.609375 0.25,-0.46875 0.421875,-1.328125 0.4375,-1.40625 z m 0,0"
               style="fill:#19a974;stroke:none;stroke-width:0"
               inkscape:connector-curvature="0" />
          </g>
          <g
             id="g50508"
             style="fill:#000000;fill-opacity:1">
            <path
               id="path50506"
               transform="translate(154.574,130.032)"
               d="M 2.46875,-5.21875 C 1.15625,-4.296875 0.796875,-2.8125 0.796875,-1.75 c 0,0.984375 0.296875,2.515625 1.671875,3.484375 0.0625,0 0.140625,0 0.140625,-0.078125 0,-0.046875 -0.015625,-0.0625 -0.0625,-0.109375 C 1.609375,0.703125 1.28125,-0.46875 1.28125,-1.734375 1.28125,-3.625 2,-4.546875 2.5625,-5.0625 2.59375,-5.09375 2.609375,-5.109375 2.609375,-5.140625 2.609375,-5.21875 2.53125,-5.21875 2.46875,-5.21875 Z m 0,0"
               style="fill:#19a974;stroke:none;stroke-width:0"
               inkscape:connector-curvature="0" />
          </g>
          <g
             id="g50512"
             style="fill:#000000;fill-opacity:1">
            <path
               id="path50510"
               transform="translate(157.688,130.032)"
               d="M 1.734375,-0.734375 C 1.671875,-0.5 1.4375,-0.125 1.078125,-0.125 c -0.015625,0 -0.234375,0 -0.375,-0.09375 0.28125,-0.09375 0.3125,-0.34375 0.3125,-0.390625 0,-0.15625 -0.125,-0.25 -0.28125,-0.25 -0.203125,0 -0.40625,0.15625 -0.40625,0.421875 0,0.34375 0.390625,0.5 0.734375,0.5 0.328125,0 0.609375,-0.1875 0.78125,-0.484375 C 2.015625,-0.0625 2.390625,0.0625 2.671875,0.0625 c 0.8125,0 1.234375,-0.859375 1.234375,-1.0625 0,-0.09375 -0.09375,-0.09375 -0.109375,-0.09375 -0.109375,0 -0.109375,0.046875 -0.140625,0.125 -0.140625,0.484375 -0.5625,0.84375 -0.953125,0.84375 -0.28125,0 -0.421875,-0.1875 -0.421875,-0.453125 0,-0.1875 0.171875,-0.8125 0.359375,-1.59375 C 2.78125,-2.703125 3.09375,-2.875 3.328125,-2.875 c 0.015625,0 0.21875,0 0.375,0.09375 -0.21875,0.0625 -0.3125,0.265625 -0.3125,0.390625 0,0.140625 0.125,0.25 0.28125,0.25 0.15625,0 0.390625,-0.125 0.390625,-0.421875 0,-0.390625 -0.453125,-0.515625 -0.71875,-0.515625 -0.359375,0 -0.640625,0.234375 -0.78125,0.5 -0.125,-0.28125 -0.453125,-0.5 -0.84375,-0.5 C 0.9375,-3.078125 0.5,-2.21875 0.5,-2 c 0,0.078125 0.09375,0.078125 0.109375,0.078125 0.09375,0 0.09375,-0.015625 0.140625,-0.109375 C 0.921875,-2.578125 1.359375,-2.875 1.703125,-2.875 1.9375,-2.875 2.125,-2.75 2.125,-2.421875 2.125,-2.28125 2.03125,-1.9375 1.96875,-1.6875 Z m 0,0"
               style="fill:#19a974;stroke:none;stroke-width:0"
               inkscape:connector-curvature="0" />
          </g>
          <g
             id="g50516"
             style="fill:#000000;fill-opacity:1">
            <path
               id="path50514"
               transform="translate(162.206,131.029)"
               d="M 2.9375,-0.96875 H 2.71875 c 0,0.09375 -0.0625,0.40625 -0.140625,0.453125 -0.03125,0.03125 -0.453125,0.03125 -0.53125,0.03125 H 1.078125 C 1.40625,-0.71875 1.765625,-1 2.0625,-1.203125 c 0.453125,-0.3125 0.875,-0.59375 0.875,-1.125 0,-0.640625 -0.609375,-0.984375 -1.3125,-0.984375 -0.671875,0 -1.171875,0.375 -1.171875,0.875 0,0.25 0.21875,0.296875 0.296875,0.296875 0.125,0 0.28125,-0.09375 0.28125,-0.296875 0,-0.171875 -0.125,-0.28125 -0.28125,-0.28125 0.140625,-0.234375 0.4375,-0.375 0.765625,-0.375 0.484375,0 0.890625,0.28125 0.890625,0.765625 0,0.421875 -0.296875,0.75 -0.671875,1.0625 l -1.21875,1.03125 C 0.46875,-0.1875 0.453125,-0.1875 0.453125,-0.15625 V 0 h 2.3125 z m 0,0"
               style="fill:#19a974;stroke:none;stroke-width:0"
               inkscape:connector-curvature="0" />
          </g>
          <g
             id="g50520"
             style="fill:#000000;fill-opacity:1">
            <path
               id="path50518"
               transform="translate(166.094,130.032)"
               d="m 0.625,-5.21875 c -0.046875,0 -0.125,0 -0.125,0.078125 0,0.03125 0.015625,0.046875 0.0625,0.109375 0.59375,0.546875 1.265625,1.484375 1.265625,3.28125 0,1.453125 -0.453125,2.5625 -1.203125,3.234375 -0.125,0.125 -0.125,0.125 -0.125,0.171875 0,0.03125 0.015625,0.078125 0.078125,0.078125 0.09375,0 0.75,-0.453125 1.21875,-1.328125 0.296875,-0.578125 0.5,-1.328125 0.5,-2.140625 C 2.296875,-2.71875 2,-4.25 0.625,-5.21875 Z m 0,0"
               style="fill:#19a974;stroke:none;stroke-width:0"
               inkscape:connector-curvature="0" />
          </g>
          <g
             id="g50524"
             style="fill:#000000;fill-opacity:1">
            <path
               id="path50522"
               transform="translate(169.207,130.032)"
               d="m 5.1875,-1.578125 c 0.109375,0 0.28125,0 0.28125,-0.15625 0,-0.1875 -0.171875,-0.1875 -0.28125,-0.1875 H 1.03125 c -0.109375,0 -0.28125,0 -0.28125,0.171875 0,0.171875 0.15625,0.171875 0.28125,0.171875 z m 0,0"
               style="stroke:none;stroke-width:0"
               inkscape:connector-curvature="0" />
          </g>
          <g
             id="g50528"
             style="fill:#000000;fill-opacity:1">
            <path
               id="path50526"
               transform="translate(175.434,130.032)"
               d="M 2.84375,-2.75 H 3.515625 C 3.65625,-2.75 3.75,-2.75 3.75,-2.90625 3.75,-3 3.65625,-3 3.53125,-3 H 2.890625 c 0.15625,-0.890625 0.203125,-1.203125 0.265625,-1.40625 0.03125,-0.15625 0.1875,-0.296875 0.359375,-0.296875 0,0 0.1875,0 0.328125,0.078125 -0.296875,0.09375 -0.3125,0.34375 -0.3125,0.375 0,0.15625 0.125,0.265625 0.28125,0.265625 0.1875,0 0.390625,-0.15625 0.390625,-0.421875 0,-0.328125 -0.328125,-0.5 -0.6875,-0.5 -0.3125,0 -0.65625,0.171875 -0.84375,0.515625 C 2.53125,-4.125 2.484375,-3.8125 2.328125,-3 H 1.78125 c -0.140625,0 -0.234375,0 -0.234375,0.15625 0,0.09375 0.09375,0.09375 0.21875,0.09375 H 2.28125 c 0,0.046875 -0.4375,2.546875 -0.609375,3.296875 -0.03125,0.15625 -0.15625,0.671875 -0.484375,0.671875 -0.015625,0 -0.171875,0 -0.3125,-0.078125 0.28125,-0.09375 0.3125,-0.34375 0.3125,-0.375 C 1.1875,0.609375 1.0625,0.5 0.90625,0.5 c -0.1875,0 -0.390625,0.15625 -0.390625,0.421875 0,0.3125 0.328125,0.5 0.671875,0.5 0.4375,0 0.75,-0.453125 0.828125,-0.609375 0.25,-0.46875 0.421875,-1.328125 0.4375,-1.40625 z m 0,0"
               style="fill:#19a974;stroke:none;stroke-width:0"
               inkscape:connector-curvature="0" />
          </g>
          <g
             id="g50532"
             style="fill:#000000;fill-opacity:1">
            <path
               id="path50530"
               transform="translate(180.1,130.032)"
               d="M 2.46875,-5.21875 C 1.15625,-4.296875 0.796875,-2.8125 0.796875,-1.75 c 0,0.984375 0.296875,2.515625 1.671875,3.484375 0.0625,0 0.140625,0 0.140625,-0.078125 0,-0.046875 -0.015625,-0.0625 -0.0625,-0.109375 C 1.609375,0.703125 1.28125,-0.46875 1.28125,-1.734375 1.28125,-3.625 2,-4.546875 2.5625,-5.0625 2.59375,-5.09375 2.609375,-5.109375 2.609375,-5.140625 2.609375,-5.21875 2.53125,-5.21875 2.46875,-5.21875 Z m 0,0"
               style="fill:#19a974;stroke:none;stroke-width:0"
               inkscape:connector-curvature="0" />
          </g>
          <g
             id="g50536"
             style="fill:#000000;fill-opacity:1">
            <path
               id="path50534"
               transform="translate(183.214,130.032)"
               d="M 1.734375,-0.734375 C 1.671875,-0.5 1.4375,-0.125 1.078125,-0.125 c -0.015625,0 -0.234375,0 -0.375,-0.09375 0.28125,-0.09375 0.3125,-0.34375 0.3125,-0.390625 0,-0.15625 -0.125,-0.25 -0.28125,-0.25 -0.203125,0 -0.40625,0.15625 -0.40625,0.421875 0,0.34375 0.390625,0.5 0.734375,0.5 0.328125,0 0.609375,-0.1875 0.78125,-0.484375 C 2.015625,-0.0625 2.390625,0.0625 2.671875,0.0625 c 0.8125,0 1.234375,-0.859375 1.234375,-1.0625 0,-0.09375 -0.09375,-0.09375 -0.109375,-0.09375 -0.109375,0 -0.109375,0.046875 -0.140625,0.125 -0.140625,0.484375 -0.5625,0.84375 -0.953125,0.84375 -0.28125,0 -0.421875,-0.1875 -0.421875,-0.453125 0,-0.1875 0.171875,-0.8125 0.359375,-1.59375 C 2.78125,-2.703125 3.09375,-2.875 3.328125,-2.875 c 0.015625,0 0.21875,0 0.375,0.09375 -0.21875,0.0625 -0.3125,0.265625 -0.3125,0.390625 0,0.140625 0.125,0.25 0.28125,0.25 0.15625,0 0.390625,-0.125 0.390625,-0.421875 0,-0.390625 -0.453125,-0.515625 -0.71875,-0.515625 -0.359375,0 -0.640625,0.234375 -0.78125,0.5 -0.125,-0.28125 -0.453125,-0.5 -0.84375,-0.5 C 0.9375,-3.078125 0.5,-2.21875 0.5,-2 c 0,0.078125 0.09375,0.078125 0.109375,0.078125 0.09375,0 0.09375,-0.015625 0.140625,-0.109375 C 0.921875,-2.578125 1.359375,-2.875 1.703125,-2.875 1.9375,-2.875 2.125,-2.75 2.125,-2.421875 2.125,-2.28125 2.03125,-1.9375 1.96875,-1.6875 Z m 0,0"
               style="fill:#19a974;stroke:none;stroke-width:0"
               inkscape:connector-curvature="0" />
          </g>
          <g
             id="g50540"
             style="fill:#000000;fill-opacity:1">
            <path
               id="path50538"
               transform="translate(187.732,131.029)"
               d="M 1.984375,-3.171875 C 1.984375,-3.3125 1.96875,-3.3125 1.796875,-3.3125 1.453125,-3 0.890625,-3 0.796875,-3 H 0.71875 v 0.21875 h 0.078125 c 0.109375,0 0.4375,-0.015625 0.734375,-0.140625 v 2.5 c 0,0.140625 0,0.203125 -0.53125,0.203125 H 0.75 V 0 c 0.265625,-0.015625 0.71875,-0.015625 1,-0.015625 0.296875,0 0.734375,0 1.015625,0.015625 v -0.21875 h -0.25 c -0.53125,0 -0.53125,-0.0625 -0.53125,-0.203125 z m 0,0"
               style="fill:#19a974;stroke:none;stroke-width:0"
               inkscape:connector-curvature="0" />
          </g>
          <g
             id="g50544"
             style="fill:#000000;fill-opacity:1">
            <path
               id="path50542"
               transform="translate(191.62,130.032)"
               d="m 0.625,-5.21875 c -0.046875,0 -0.125,0 -0.125,0.078125 0,0.03125 0.015625,0.046875 0.0625,0.109375 0.59375,0.546875 1.265625,1.484375 1.265625,3.28125 0,1.453125 -0.453125,2.5625 -1.203125,3.234375 -0.125,0.125 -0.125,0.125 -0.125,0.171875 0,0.03125 0.015625,0.078125 0.078125,0.078125 0.09375,0 0.75,-0.453125 1.21875,-1.328125 0.296875,-0.578125 0.5,-1.328125 0.5,-2.140625 C 2.296875,-2.71875 2,-4.25 0.625,-5.21875 Z m 0,0"
               style="fill:#19a974;stroke:none;stroke-width:0"
               inkscape:connector-curvature="0" />
          </g>
          <path
             id="path50546"
             transform="matrix(1,0,0,-1,149.908,132.374)"
             d="M -0.00175,-0.001 H 44.826375"
             style="fill:none;stroke:#000000;stroke-width:0.398;stroke-linecap:butt;stroke-linejoin:miter;stroke-miterlimit:10;stroke-opacity:1"
             inkscape:connector-curvature="0" />
          <g
             id="g50550"
             style="fill:#000000;fill-opacity:1">
            <path
               id="path50548"
               transform="translate(160.801,138.3)"
               d="M 1.734375,-0.734375 C 1.671875,-0.5 1.4375,-0.125 1.078125,-0.125 c -0.015625,0 -0.234375,0 -0.375,-0.09375 0.28125,-0.09375 0.3125,-0.34375 0.3125,-0.390625 0,-0.15625 -0.125,-0.25 -0.28125,-0.25 -0.203125,0 -0.40625,0.15625 -0.40625,0.421875 0,0.34375 0.390625,0.5 0.734375,0.5 0.328125,0 0.609375,-0.1875 0.78125,-0.484375 C 2.015625,-0.0625 2.390625,0.0625 2.671875,0.0625 c 0.8125,0 1.234375,-0.859375 1.234375,-1.0625 0,-0.09375 -0.09375,-0.09375 -0.109375,-0.09375 -0.109375,0 -0.109375,0.046875 -0.140625,0.125 -0.140625,0.484375 -0.5625,0.84375 -0.953125,0.84375 -0.28125,0 -0.421875,-0.1875 -0.421875,-0.453125 0,-0.1875 0.171875,-0.8125 0.359375,-1.59375 C 2.78125,-2.703125 3.09375,-2.875 3.328125,-2.875 c 0.015625,0 0.21875,0 0.375,0.09375 -0.21875,0.0625 -0.3125,0.265625 -0.3125,0.390625 0,0.140625 0.125,0.25 0.28125,0.25 0.15625,0 0.390625,-0.125 0.390625,-0.421875 0,-0.390625 -0.453125,-0.515625 -0.71875,-0.515625 -0.359375,0 -0.640625,0.234375 -0.78125,0.5 -0.125,-0.28125 -0.453125,-0.5 -0.84375,-0.5 C 0.9375,-3.078125 0.5,-2.21875 0.5,-2 c 0,0.078125 0.09375,0.078125 0.109375,0.078125 0.09375,0 0.09375,-0.015625 0.140625,-0.109375 C 0.921875,-2.578125 1.359375,-2.875 1.703125,-2.875 1.9375,-2.875 2.125,-2.75 2.125,-2.421875 2.125,-2.28125 2.03125,-1.9375 1.96875,-1.6875 Z m 0,0"
               style="fill:#ff6300;stroke:none;stroke-width:0"
               inkscape:connector-curvature="0" />
          </g>
          <g
             id="g50554"
             style="fill:#000000;fill-opacity:1">
            <path
               id="path50552"
               transform="translate(165.319,139.296)"
               d="M 2.9375,-0.96875 H 2.71875 c 0,0.09375 -0.0625,0.40625 -0.140625,0.453125 -0.03125,0.03125 -0.453125,0.03125 -0.53125,0.03125 H 1.078125 C 1.40625,-0.71875 1.765625,-1 2.0625,-1.203125 c 0.453125,-0.3125 0.875,-0.59375 0.875,-1.125 0,-0.640625 -0.609375,-0.984375 -1.3125,-0.984375 -0.671875,0 -1.171875,0.375 -1.171875,0.875 0,0.25 0.21875,0.296875 0.296875,0.296875 0.125,0 0.28125,-0.09375 0.28125,-0.296875 0,-0.171875 -0.125,-0.28125 -0.28125,-0.28125 0.140625,-0.234375 0.4375,-0.375 0.765625,-0.375 0.484375,0 0.890625,0.28125 0.890625,0.765625 0,0.421875 -0.296875,0.75 -0.671875,1.0625 l -1.21875,1.03125 C 0.46875,-0.1875 0.453125,-0.1875 0.453125,-0.15625 V 0 h 2.3125 z m 0,0"
               style="fill:#ff6300;stroke:none;stroke-width:0"
               inkscape:connector-curvature="0" />
          </g>
          <g
             id="g50558"
             style="fill:#000000;fill-opacity:1">
            <path
               id="path50556"
               transform="translate(169.207,138.3)"
               d="m 5.1875,-1.578125 c 0.109375,0 0.28125,0 0.28125,-0.15625 0,-0.1875 -0.171875,-0.1875 -0.28125,-0.1875 H 1.03125 c -0.109375,0 -0.28125,0 -0.28125,0.171875 0,0.171875 0.15625,0.171875 0.28125,0.171875 z m 0,0"
               style="stroke:none;stroke-width:0"
               inkscape:connector-curvature="0" />
          </g>
          <g
             id="g50562"
             style="fill:#000000;fill-opacity:1">
            <path
               id="path50560"
               transform="translate(175.434,138.3)"
               d="M 1.734375,-0.734375 C 1.671875,-0.5 1.4375,-0.125 1.078125,-0.125 c -0.015625,0 -0.234375,0 -0.375,-0.09375 0.28125,-0.09375 0.3125,-0.34375 0.3125,-0.390625 0,-0.15625 -0.125,-0.25 -0.28125,-0.25 -0.203125,0 -0.40625,0.15625 -0.40625,0.421875 0,0.34375 0.390625,0.5 0.734375,0.5 0.328125,0 0.609375,-0.1875 0.78125,-0.484375 C 2.015625,-0.0625 2.390625,0.0625 2.671875,0.0625 c 0.8125,0 1.234375,-0.859375 1.234375,-1.0625 0,-0.09375 -0.09375,-0.09375 -0.109375,-0.09375 -0.109375,0 -0.109375,0.046875 -0.140625,0.125 -0.140625,0.484375 -0.5625,0.84375 -0.953125,0.84375 -0.28125,0 -0.421875,-0.1875 -0.421875,-0.453125 0,-0.1875 0.171875,-0.8125 0.359375,-1.59375 C 2.78125,-2.703125 3.09375,-2.875 3.328125,-2.875 c 0.015625,0 0.21875,0 0.375,0.09375 -0.21875,0.0625 -0.3125,0.265625 -0.3125,0.390625 0,0.140625 0.125,0.25 0.28125,0.25 0.15625,0 0.390625,-0.125 0.390625,-0.421875 0,-0.390625 -0.453125,-0.515625 -0.71875,-0.515625 -0.359375,0 -0.640625,0.234375 -0.78125,0.5 -0.125,-0.28125 -0.453125,-0.5 -0.84375,-0.5 C 0.9375,-3.078125 0.5,-2.21875 0.5,-2 c 0,0.078125 0.09375,0.078125 0.109375,0.078125 0.09375,0 0.09375,-0.015625 0.140625,-0.109375 C 0.921875,-2.578125 1.359375,-2.875 1.703125,-2.875 1.9375,-2.875 2.125,-2.75 2.125,-2.421875 2.125,-2.28125 2.03125,-1.9375 1.96875,-1.6875 Z m 0,0"
               style="fill:#ff6300;stroke:none;stroke-width:0"
               inkscape:connector-curvature="0" />
          </g>
          <g
             id="g50566"
             style="fill:#000000;fill-opacity:1">
            <path
               id="path50564"
               transform="translate(179.952,139.296)"
               d="M 1.984375,-3.171875 C 1.984375,-3.3125 1.96875,-3.3125 1.796875,-3.3125 1.453125,-3 0.890625,-3 0.796875,-3 H 0.71875 v 0.21875 h 0.078125 c 0.109375,0 0.4375,-0.015625 0.734375,-0.140625 v 2.5 c 0,0.140625 0,0.203125 -0.53125,0.203125 H 0.75 V 0 c 0.265625,-0.015625 0.71875,-0.015625 1,-0.015625 0.296875,0 0.734375,0 1.015625,0.015625 v -0.21875 h -0.25 c -0.53125,0 -0.53125,-0.0625 -0.53125,-0.203125 z m 0,0"
               style="fill:#ff6300;stroke:none;stroke-width:0"
               inkscape:connector-curvature="0" />
          </g>
        </g>
      </g>
    </g>
    <g
       id="g988"
       transform="translate(100,50)" />
  </g>
  <g
     inkscape:groupmode="layer"
     id="layer2"
     inkscape:label="uitleg"
     transform="translate(7.1793904,-308.77811)"
     style="display:none">
    <g
       style="display:inline"
       id="g974"
       transform="translate(98,-40.000004)">
      <path
         sodipodi:nodetypes="czc"
         inkscape:connector-curvature="0"
         id="path52338"
         d="m 602.62819,460.89505 c 0,0 1.55261,-24.8591 258.14042,-24.8591 256.58789,0 258.14039,24.8591 258.14039,24.8591"
         style="opacity:1;vector-effect:none;fill:none;fill-opacity:1;stroke:#19a974;stroke-width:3.9987402;stroke-linecap:round;stroke-linejoin:miter;stroke-miterlimit:4;stroke-dasharray:none;stroke-dashoffset:0;stroke-opacity:1" />
      <path
         inkscape:connector-curvature="0"
         id="path52342"
         d="m 841.27769,434.97901 c -12.68833,-47.35349 -41.49717,-41.6554 -72.14928,-41.6554"
         style="opacity:1;vector-effect:none;fill:none;fill-opacity:1;stroke:#19a974;stroke-width:4;stroke-linecap:round;stroke-linejoin:miter;stroke-miterlimit:4;stroke-dasharray:none;stroke-dashoffset:0;stroke-opacity:1;marker-end:url(#Arrow2Mend-6)" />
      <text
         id="text52366"
         y="406.29846"
         x="-99.688232"
         style="font-style:normal;font-variant:normal;font-weight:normal;font-stretch:normal;font-size:48px;line-height:0;font-family:Quicksand;-inkscape-font-specification:Quicksand;font-variant-ligatures:normal;font-variant-position:normal;font-variant-caps:normal;font-variant-numeric:normal;font-variant-alternates:normal;font-feature-settings:normal;text-indent:0;text-align:start;text-decoration:none;text-decoration-line:none;text-decoration-style:solid;text-decoration-color:#000000;letter-spacing:0px;word-spacing:0px;text-transform:none;writing-mode:lr-tb;direction:ltr;text-orientation:mixed;dominant-baseline:auto;baseline-shift:baseline;text-anchor:start;white-space:normal;shape-padding:0;opacity:1;vector-effect:none;fill:#555555;fill-opacity:1;stroke:none;stroke-width:1;stroke-linecap:butt;stroke-linejoin:miter;stroke-miterlimit:4;stroke-dasharray:none;stroke-dashoffset:0;stroke-opacity:1"
         xml:space="preserve"><tspan
           style="fill:#19a974"
           y="406.29846"
           x="-99.688232"
           id="tspan52364"
           sodipodi:role="line"><tspan
             id="tspan928"
             style="fill:#555555">Hoeveel verandert de </tspan><tspan
             style="font-style:normal;font-variant:normal;font-weight:bold;font-stretch:normal;font-family:Quicksand;-inkscape-font-specification:'Quicksand Bold'"
             id="tspan992">functiewaarde</tspan><tspan
             id="tspan930"
             style="fill:#555555">...</tspan></tspan></text>
    </g>
    <path
       sodipodi:nodetypes="czc"
       inkscape:connector-curvature="0"
       id="path52338-6"
       d="m 811.06547,610.06442 c 0,0 -0.72647,18.46847 143.70315,18.8591 144.42968,0.39063 143.70318,-18.8591 143.70318,-18.8591"
       style="display:inline;opacity:1;vector-effect:none;fill:none;fill-opacity:1;stroke:#ff6300;stroke-width:4;stroke-linecap:round;stroke-linejoin:miter;stroke-miterlimit:4;stroke-dasharray:none;stroke-dashoffset:0;stroke-opacity:1" />
    <path
       inkscape:connector-curvature="0"
       id="path52342-0"
       d="m 865.51361,626.42631 c -22.0773,44.22849 6.34092,45.95227 36.99303,45.95227"
       style="display:inline;opacity:1;vector-effect:none;fill:none;fill-opacity:1;stroke:#ff6300;stroke-width:4;stroke-linecap:round;stroke-linejoin:miter;stroke-miterlimit:4;stroke-dasharray:none;stroke-dashoffset:0;stroke-opacity:1;marker-end:url(#Arrow2Mend-3-3)"
       sodipodi:nodetypes="cc" />
    <text
       id="text52366-6"
       y="687.32196"
       x="920.72833"
       style="font-style:normal;font-variant:normal;font-weight:normal;font-stretch:normal;font-size:48px;line-height:0;font-family:Quicksand;-inkscape-font-specification:Quicksand;font-variant-ligatures:normal;font-variant-position:normal;font-variant-caps:normal;font-variant-numeric:normal;font-variant-alternates:normal;font-feature-settings:normal;text-indent:0;text-align:start;text-decoration:none;text-decoration-line:none;text-decoration-style:solid;text-decoration-color:#000000;letter-spacing:0px;word-spacing:0px;text-transform:none;writing-mode:lr-tb;direction:ltr;text-orientation:mixed;dominant-baseline:auto;baseline-shift:baseline;text-anchor:start;white-space:normal;shape-padding:0;display:inline;opacity:1;vector-effect:none;fill:#555555;fill-opacity:1;stroke:none;stroke-width:1;stroke-linecap:butt;stroke-linejoin:miter;stroke-miterlimit:4;stroke-dasharray:none;stroke-dashoffset:0;stroke-opacity:1"
       xml:space="preserve"><tspan
         style="fill:#ff6300"
         y="687.32196"
         x="920.72833"
         id="tspan52364-1"
         sodipodi:role="line"><tspan
           id="tspan926"
           style="fill:#555555">... gemiddeld per </tspan><tspan
           style="font-style:normal;font-variant:normal;font-weight:bold;font-stretch:normal;font-family:Quicksand;-inkscape-font-specification:'Quicksand Bold'"
           id="tspan994">x-eenheid</tspan><tspan
           id="tspan932"
           style="fill:#555555"> tussen      en     ?</tspan></tspan></text>
    <g
       style="display:inline"
       transform="matrix(1.1828858,0,0,1.1828858,552.80498,-183.90998)"
       id="g960">
      <path
         inkscape:connector-curvature="0"
         id="path50548-5"
         d="m 1077.7692,730.97764 c -0.4308,1.61544 -2.0462,4.20014 -4.5232,4.20014 -0.1077,0 -1.6155,0 -2.5847,-0.64618 1.9385,-0.64617 2.1539,-2.3693 2.1539,-2.69239 0,-1.07696 -0.8616,-1.72313 -1.9385,-1.72313 -1.4001,0 -2.8001,1.07696 -2.8001,2.90778 0,2.36931 2.6924,3.44627 5.0617,3.44627 2.2616,0 4.2001,-1.29235 5.3848,-3.33857 1.1846,2.477 3.7693,3.33857 5.7078,3.33857 5.6002,0 8.508,-5.92327 8.508,-7.32331 0,-0.64618 -0.6462,-0.64618 -0.7539,-0.64618 -0.7538,0 -0.7538,0.32309 -0.9692,0.86157 -0.9693,3.33857 -3.8771,5.81557 -6.5695,5.81557 -1.9385,0 -2.9077,-1.29235 -2.9077,-3.12318 0,-1.29235 1.1846,-5.60017 2.477,-10.98496 0.9692,-3.66165 3.1231,-4.84631 4.7386,-4.84631 0.1077,0 1.5077,0 2.5847,0.64618 -1.5078,0.43078 -2.154,1.83082 -2.154,2.69239 0,0.96926 0.8616,1.72313 1.9386,1.72313 1.0769,0 2.6924,-0.86156 2.6924,-2.90778 0,-2.69239 -3.1232,-3.55396 -4.954,-3.55396 -2.477,0 -4.4156,1.61543 -5.3848,3.44626 -0.8616,-1.93852 -3.1232,-3.44626 -5.8156,-3.44626 -5.3848,0 -8.4003,5.92326 -8.4003,7.431 0,0.53848 0.6462,0.53848 0.7539,0.53848 0.6462,0 0.6462,-0.10769 0.9693,-0.75387 1.1846,-3.76935 4.2001,-5.81557 6.5694,-5.81557 1.6154,0 2.9078,0.86157 2.9078,3.12318 0,0.96926 -0.6462,3.33857 -1.077,5.0617 z m 0,0"
         style="display:inline;fill:#ff6300;fill-opacity:1;stroke:none;stroke-width:0" />
      <path
         inkscape:connector-curvature="0"
         id="path50552-5"
         d="m 1117.2022,736.22717 h -1.5077 c 0,0.64617 -0.4308,2.80009 -0.9693,3.12317 -0.2154,0.2154 -3.1232,0.2154 -3.6617,0.2154 h -6.6771 c 2.2616,-1.61544 4.7386,-3.55396 6.7848,-4.95401 3.1232,-2.15391 6.031,-4.09243 6.031,-7.75409 0,-4.41552 -4.2001,-6.78483 -9.0464,-6.78483 -4.631,0 -8.0772,2.5847 -8.0772,6.03096 0,1.72313 1.5077,2.04622 2.0462,2.04622 0.8616,0 1.9385,-0.64617 1.9385,-2.04622 0,-1.18465 -0.8615,-1.93852 -1.9385,-1.93852 0.9693,-1.61543 3.0155,-2.5847 5.2771,-2.5847 3.3386,0 6.1386,1.93853 6.1386,5.27709 0,2.90779 -2.0462,5.1694 -4.6309,7.32331 l -8.4002,7.10792 c -0.3231,0.32308 -0.4308,0.32308 -0.4308,0.53848 v 1.07695 h 15.939 z m 0,0"
         style="display:inline;fill:#ff6300;fill-opacity:1;stroke:none;stroke-width:0" />
    </g>
    <g
       style="display:inline"
       transform="matrix(1.1548127,0,0,1.1548127,336.26802,-162.9485)"
       id="g964">
      <path
         inkscape:connector-curvature="0"
         id="path50560-4"
         d="m 1178.6275,730.97764 c -0.4308,1.61544 -2.0462,4.20014 -4.5232,4.20014 -0.1077,0 -1.6154,0 -2.5847,-0.64618 1.9385,-0.64617 2.1539,-2.3693 2.1539,-2.69239 0,-1.07696 -0.8615,-1.72313 -1.9385,-1.72313 -1.4,0 -2.8001,1.07696 -2.8001,2.90778 0,2.36931 2.6924,3.44627 5.0617,3.44627 2.2616,0 4.2001,-1.29235 5.3848,-3.33857 1.1847,2.477 3.7693,3.33857 5.7079,3.33857 5.6001,0 8.5079,-5.92327 8.5079,-7.32331 0,-0.64618 -0.6461,-0.64618 -0.7538,-0.64618 -0.7539,0 -0.7539,0.32309 -0.9693,0.86157 -0.9693,3.33857 -3.877,5.81557 -6.5694,5.81557 -1.9386,0 -2.9078,-1.29235 -2.9078,-3.12318 0,-1.29235 1.1846,-5.60017 2.477,-10.98496 0.9692,-3.66165 3.1232,-4.84631 4.7386,-4.84631 0.1077,0 1.5077,0 2.5847,0.64618 -1.5078,0.43078 -2.1539,1.83082 -2.1539,2.69239 0,0.96926 0.8615,1.72313 1.9385,1.72313 1.077,0 2.6924,-0.86156 2.6924,-2.90778 0,-2.69239 -3.1232,-3.55396 -4.954,-3.55396 -2.477,0 -4.4155,1.61543 -5.3848,3.44626 -0.8616,-1.93852 -3.1232,-3.44626 -5.8156,-3.44626 -5.3848,0 -8.4002,5.92326 -8.4002,7.431 0,0.53848 0.6461,0.53848 0.7538,0.53848 0.6462,0 0.6462,-0.10769 0.9693,-0.75387 1.1847,-3.76935 4.2001,-5.81557 6.5694,-5.81557 1.6155,0 2.9078,0.86157 2.9078,3.12318 0,0.96926 -0.6462,3.33857 -1.0769,5.0617 z m 0,0"
         style="display:inline;fill:#ff6300;fill-opacity:1;stroke:none;stroke-width:0" />
      <path
         inkscape:connector-curvature="0"
         id="path50564-7"
         d="m 1211.4911,721.04208 c 0,-0.96927 -0.1077,-0.96927 -1.2924,-0.96927 -2.3693,2.15392 -6.2463,2.15392 -6.8925,2.15392 h -0.5385 v 1.50774 h 0.5385 c 0.7539,0 3.0155,-0.1077 5.0617,-0.96926 v 17.23131 c 0,0.96926 0,1.40004 -3.6616,1.40004 h -1.7232 v 1.50774 c 1.8309,-0.10769 4.954,-0.10769 6.8926,-0.10769 2.0462,0 5.0617,0 7.0002,0.10769 v -1.50774 h -1.7232 c -3.6616,0 -3.6616,-0.43078 -3.6616,-1.40004 z m 0,0"
         style="display:inline;fill:#ff6300;fill-opacity:1;stroke:none;stroke-width:0" />
    </g>
  </g>
</svg>
