<?xml version="1.0" encoding="UTF-8" standalone="no"?>
<!-- Created with Inkscape (http://www.inkscape.org/) -->

<svg
   xmlns:dc="http://purl.org/dc/elements/1.1/"
   xmlns:cc="http://creativecommons.org/ns#"
   xmlns:rdf="http://www.w3.org/1999/02/22-rdf-syntax-ns#"
   xmlns:svg="http://www.w3.org/2000/svg"
   xmlns="http://www.w3.org/2000/svg"
   xmlns:sodipodi="http://sodipodi.sourceforge.net/DTD/sodipodi-0.dtd"
   xmlns:inkscape="http://www.inkscape.org/namespaces/inkscape"
   width="150mm"
   height="80mm"
   viewBox="0 0 150 80.000002"
   version="1.1"
   id="svg8"
   inkscape:version="0.92.3 (unknown)"
   sodipodi:docname="conveyor_voorschrift_2.svg">
  <defs
     id="defs2">
    <marker
       inkscape:stockid="Arrow2Mend"
       orient="auto"
       refY="0"
       refX="0"
       id="marker1181"
       style="overflow:visible"
       inkscape:isstock="true">
      <path
         id="path1179"
         style="fill:#000000;fill-opacity:1;fill-rule:evenodd;stroke:#000000;stroke-width:0.625;stroke-linejoin:round;stroke-opacity:1"
         d="M 8.7185878,4.0337352 -2.2072895,0.01601326 8.7185884,-4.0017078 c -1.7454984,2.3720609 -1.7354408,5.6174519 -6e-7,8.035443 z"
         transform="scale(-0.6)"
         inkscape:connector-curvature="0" />
    </marker>
    <marker
       inkscape:stockid="Arrow2Send"
       orient="auto"
       refY="0"
       refX="0"
       id="Arrow2Send"
       style="overflow:visible"
       inkscape:isstock="true">
      <path
         id="path896"
         style="fill:#000000;fill-opacity:1;fill-rule:evenodd;stroke:#000000;stroke-width:0.625;stroke-linejoin:round;stroke-opacity:1"
         d="M 8.7185878,4.0337352 -2.2072895,0.01601326 8.7185884,-4.0017078 c -1.7454984,2.3720609 -1.7354408,5.6174519 -6e-7,8.035443 z"
         transform="matrix(-0.3,0,0,-0.3,0.69,0)"
         inkscape:connector-curvature="0" />
    </marker>
    <marker
       inkscape:stockid="Arrow2Mend"
       orient="auto"
       refY="0"
       refX="0"
       id="Arrow2Mend"
       style="overflow:visible"
       inkscape:isstock="true">
      <path
         id="path890"
         style="fill:#000000;fill-opacity:1;fill-rule:evenodd;stroke:#000000;stroke-width:0.625;stroke-linejoin:round;stroke-opacity:1"
         d="M 8.7185878,4.0337352 -2.2072895,0.01601326 8.7185884,-4.0017078 c -1.7454984,2.3720609 -1.7354408,5.6174519 -6e-7,8.035443 z"
         transform="scale(-0.6)"
         inkscape:connector-curvature="0" />
    </marker>
    <marker
       inkscape:stockid="Arrow2Lend"
       orient="auto"
       refY="0"
       refX="0"
       id="Arrow2Lend"
       style="overflow:visible"
       inkscape:isstock="true">
      <path
         id="path884"
         style="fill:#000000;fill-opacity:1;fill-rule:evenodd;stroke:#000000;stroke-width:0.625;stroke-linejoin:round;stroke-opacity:1"
         d="M 8.7185878,4.0337352 -2.2072895,0.01601326 8.7185884,-4.0017078 c -1.7454984,2.3720609 -1.7354408,5.6174519 -6e-7,8.035443 z"
         transform="matrix(-1.1,0,0,-1.1,-1.1,0)"
         inkscape:connector-curvature="0" />
    </marker>
    <marker
       inkscape:stockid="Arrow2Mend"
       orient="auto"
       refY="0"
       refX="0"
       id="marker1181-0"
       style="overflow:visible"
       inkscape:isstock="true">
      <path
         inkscape:connector-curvature="0"
         id="path1179-7"
         style="fill:#99cc33;fill-opacity:1;fill-rule:evenodd;stroke:#99cc33;stroke-width:0.625;stroke-linejoin:round;stroke-opacity:1"
         d="M 8.7185878,4.0337352 -2.2072895,0.01601326 8.7185884,-4.0017078 c -1.7454984,2.3720609 -1.7354408,5.6174519 -6e-7,8.035443 z"
         transform="scale(-0.6)" />
    </marker>
  </defs>
  <sodipodi:namedview
     id="base"
     pagecolor="#ffffff"
     bordercolor="#666666"
     borderopacity="1.0"
     inkscape:pageopacity="0.0"
     inkscape:pageshadow="2"
     inkscape:zoom="1.979899"
     inkscape:cx="252.19957"
     inkscape:cy="158.78063"
     inkscape:document-units="mm"
     inkscape:current-layer="g936"
     showgrid="false"
     inkscape:window-width="1920"
     inkscape:window-height="1018"
     inkscape:window-x="1600"
     inkscape:window-y="34"
     inkscape:window-maximized="1" />
  <metadata
     id="metadata5">
    <rdf:RDF>
      <cc:Work
         rdf:about="">
        <dc:format>image/svg+xml</dc:format>
        <dc:type
           rdf:resource="http://purl.org/dc/dcmitype/StillImage" />
        <dc:title></dc:title>
      </cc:Work>
    </rdf:RDF>
  </metadata>
  <g
     inkscape:label="Layer 1"
     inkscape:groupmode="layer"
     id="layer1"
     transform="translate(-16.417898,-1.3192826)">
    <g
       id="g4517"
       transform="translate(13.309711,-9.0403142)">
      <circle
         r="2.80633"
         cy="68.60849"
         cx="21.496017"
         id="path20300"
         style="fill:#99cc33;stroke:none;stroke-width:1.05833328;stroke-linecap:round;stroke-miterlimit:4;stroke-dasharray:none" />
      <circle
         r="2.80633"
         cy="68.60849"
         cx="134.8183"
         id="path20300-9"
         style="fill:#99cc33;stroke:none;stroke-width:1.05833328;stroke-linecap:round;stroke-miterlimit:4;stroke-dasharray:none" />
      <circle
         r="2.80633"
         cy="68.60849"
         cx="30.213116"
         id="path20300-2"
         style="fill:#99cc33;stroke:none;stroke-width:1.05833328;stroke-linecap:round;stroke-miterlimit:4;stroke-dasharray:none" />
      <circle
         r="2.80633"
         cy="68.60849"
         cx="38.930214"
         id="path20300-2-3"
         style="fill:#99cc33;stroke:none;stroke-width:1.05833328;stroke-linecap:round;stroke-miterlimit:4;stroke-dasharray:none" />
      <circle
         r="2.80633"
         cy="68.60849"
         cx="47.647312"
         id="path20300-2-3-6"
         style="fill:#99cc33;stroke:none;stroke-width:1.05833328;stroke-linecap:round;stroke-miterlimit:4;stroke-dasharray:none" />
      <circle
         r="2.80633"
         cy="68.60849"
         cx="56.36441"
         id="path20300-2-3-6-6"
         style="fill:#99cc33;stroke:none;stroke-width:1.05833328;stroke-linecap:round;stroke-miterlimit:4;stroke-dasharray:none" />
      <circle
         r="2.80633"
         cy="68.60849"
         cx="65.081505"
         id="path20300-2-3-6-6-7"
         style="fill:#99cc33;stroke:none;stroke-width:1.05833328;stroke-linecap:round;stroke-miterlimit:4;stroke-dasharray:none" />
      <circle
         r="2.80633"
         cy="68.60849"
         cx="73.798607"
         id="path20300-2-3-6-6-7-7"
         style="fill:#99cc33;stroke:none;stroke-width:1.05833328;stroke-linecap:round;stroke-miterlimit:4;stroke-dasharray:none" />
      <circle
         r="2.80633"
         cy="68.60849"
         cx="82.515701"
         id="path20300-2-3-6-6-7-7-4"
         style="fill:#99cc33;stroke:none;stroke-width:1.05833328;stroke-linecap:round;stroke-miterlimit:4;stroke-dasharray:none" />
      <circle
         r="2.80633"
         cy="68.60849"
         cx="126.1012"
         id="path20300-2-3-6-6-7-7-4-6"
         style="fill:#99cc33;stroke:none;stroke-width:1.05833328;stroke-linecap:round;stroke-miterlimit:4;stroke-dasharray:none" />
      <circle
         r="2.80633"
         cy="68.60849"
         cx="117.3841"
         id="path20300-2-3-6-6-7-7-4-6-9"
         style="fill:#99cc33;stroke:none;stroke-width:1.05833328;stroke-linecap:round;stroke-miterlimit:4;stroke-dasharray:none" />
      <circle
         r="2.80633"
         cy="68.60849"
         cx="108.66701"
         id="path20300-2-3-6-6-7-7-4-6-9-6"
         style="fill:#99cc33;stroke:none;stroke-width:1.05833328;stroke-linecap:round;stroke-miterlimit:4;stroke-dasharray:none" />
      <circle
         r="2.80633"
         cy="68.60849"
         cx="99.949905"
         id="path20300-2-3-6-6-7-7-4-6-9-6-0"
         style="fill:#99cc33;stroke:none;stroke-width:1.05833328;stroke-linecap:round;stroke-miterlimit:4;stroke-dasharray:none" />
      <circle
         r="2.80633"
         cy="68.60849"
         cx="91.232811"
         id="path20300-2-3-6-6-7-7-4-6-9-6-0-9"
         style="fill:#99cc33;stroke:none;stroke-width:1.05833328;stroke-linecap:round;stroke-miterlimit:4;stroke-dasharray:none" />
      <path
         sodipodi:nodetypes="ccccc"
         inkscape:connector-curvature="0"
         id="path4893"
         d="m 21.210407,64.531382 c -5.484044,-0.04811 -5.484044,8.20233 0,8.154218 H 135.00597 c 5.48404,0.04811 5.48404,-8.20233 0,-8.154218 z"
         style="color:#000000;font-style:normal;font-variant:normal;font-weight:normal;font-stretch:normal;font-size:medium;line-height:normal;font-family:sans-serif;font-variant-ligatures:normal;font-variant-position:normal;font-variant-caps:normal;font-variant-numeric:normal;font-variant-alternates:normal;font-feature-settings:normal;text-indent:0;text-align:start;text-decoration:none;text-decoration-line:none;text-decoration-style:solid;text-decoration-color:#000000;letter-spacing:normal;word-spacing:normal;text-transform:none;writing-mode:lr-tb;direction:ltr;text-orientation:mixed;dominant-baseline:auto;baseline-shift:baseline;text-anchor:start;white-space:normal;shape-padding:0;clip-rule:nonzero;display:inline;overflow:visible;visibility:visible;opacity:1;isolation:auto;mix-blend-mode:normal;color-interpolation:sRGB;color-interpolation-filters:linearRGB;solid-color:#000000;solid-opacity:1;vector-effect:none;fill:none;fill-opacity:1;fill-rule:nonzero;stroke:#99cc33;stroke-width:1.35895276;stroke-linecap:round;stroke-linejoin:miter;stroke-miterlimit:4;stroke-dasharray:none;stroke-dashoffset:0;stroke-opacity:1;color-rendering:auto;image-rendering:auto;shape-rendering:auto;text-rendering:auto;enable-background:accumulate" />
      <g
         id="g4789"
         style="fill:#000000"
         transform="matrix(0.58074403,0,0,0.58074403,59.524378,44.73241)">
        <rect
           y="2.9999983"
           x="2.9999995"
           height="54"
           width="58"
           id="rect4897"
           style="fill:#ffffff;stroke:none;stroke-width:2.94455934;stroke-linecap:round;stroke-miterlimit:4;stroke-dasharray:none" />
        <path
           inkscape:connector-curvature="0"
           d="M 63,1 H 1 v 58 h 2 v 4 h 8 v -4 h 42 v 4 h 8 v -4 h 2 z M 9,61 H 5 v -2 h 4 z m 50,0 h -4 v -2 h 4 z m 2,-4 H 3 V 3 h 58 z"
           id="path4755"
           style="fill:#99cc33" />
        <path
           inkscape:connector-curvature="0"
           d="M 18,31 C 25.168,31 31,25.168 31,18 31,10.832 25.168,5 18,5 10.832,5 5,10.832 5,18 5,25.168 10.832,31 18,31 Z M 18,7 c 6.065,0 11,4.935 11,11 0,6.065 -4.935,11 -11,11 C 11.935,29 7,24.065 7,18 7,11.935 11.935,7 18,7 Z"
           id="path4757"
           style="fill:#99cc33" />
        <path
           inkscape:connector-curvature="0"
           d="m 15,18 c 0,1.654 1.346,3 3,3 1.654,0 3,-1.346 3,-3 0,-1.654 -1.346,-3 -3,-3 -0.414,0 -0.808,0.084 -1.168,0.237 l -4.064,-4.877 -1.537,1.28 4.132,4.959 C 15.139,17.019 15,17.491 15,18 Z m 4,0 c 0,0.551 -0.448,1 -1,1 -0.552,0 -1,-0.449 -1,-1 0,-0.551 0.448,-1 1,-1 0.552,0 1,0.449 1,1 z"
           id="path4759"
           style="fill:#99cc33" />
        <rect
           x="12"
           y="23"
           width="12"
           height="2"
           id="rect4761"
           style="fill:#99cc33" />
        <path
           inkscape:connector-curvature="0"
           d="M 46,31 C 53.168,31 59,25.168 59,18 59,10.832 53.168,5 46,5 38.832,5 33,10.832 33,18 c 0,7.168 5.832,13 13,13 z M 46,7 c 6.065,0 11,4.935 11,11 0,6.065 -4.935,11 -11,11 C 39.935,29 35,24.065 35,18 35,11.935 39.935,7 46,7 Z"
           id="path4763"
           style="fill:#99cc33" />
        <path
           inkscape:connector-curvature="0"
           d="m 46,21 c 1.654,0 3,-1.346 3,-3 0,-1.07 -0.567,-2.004 -1.412,-2.535 l 1.389,-6.248 -1.953,-0.434 -1.39,6.254 C 44.154,15.22 43,16.471 43,18 c 0,1.654 1.346,3 3,3 z m 0,-4 c 0.552,0 1,0.449 1,1 0,0.551 -0.448,1 -1,1 -0.552,0 -1,-0.449 -1,-1 0,-0.551 0.448,-1 1,-1 z"
           id="path4765"
           style="fill:#99cc33" />
        <rect
           x="50"
           y="23"
           width="2"
           height="2"
           id="rect4767"
           style="fill:#99cc33" />
        <rect
           x="40"
           y="23"
           width="8"
           height="2"
           id="rect4769"
           style="fill:#99cc33" />
        <path
           inkscape:connector-curvature="0"
           d="M 33,33 H 5 V 55 H 33 Z M 31,53 H 7 V 35 h 24 z"
           id="path4771"
           style="fill:#99cc33" />
        <polygon
           points="16.279,49 15.721,49 12.721,40 9,40 9,42 11.279,42 14.279,51 17.721,51 21.721,39 22.341,39 25.341,46 29,46 29,44 26.659,44 23.659,37 20.279,37 "
           id="polygon4773"
           style="fill:#99cc33" />
        <path
           inkscape:connector-curvature="0"
           d="m 42,33 h -6 v 6 h 6 z m -2,4 h -2 v -2 h 2 z"
           id="path4775"
           style="fill:#99cc33" />
        <path
           inkscape:connector-curvature="0"
           d="m 50,33 h -6 v 6 h 6 z m -2,4 h -2 v -2 h 2 z"
           id="path4777"
           style="fill:#99cc33" />
        <path
           inkscape:connector-curvature="0"
           d="m 52,39 h 6 v -6 h -6 z m 2,-4 h 2 v 2 h -2 z"
           id="path4779"
           style="fill:#99cc33" />
        <path
           inkscape:connector-curvature="0"
           d="m 36,47 h 6 v -6 h -6 z m 2,-4 h 2 v 2 h -2 z"
           id="path4781"
           style="fill:#99cc33" />
        <path
           inkscape:connector-curvature="0"
           d="m 44,47 h 6 v -6 h -6 z m 2,-4 h 2 v 2 h -2 z"
           id="path4783"
           style="fill:#99cc33" />
        <path
           inkscape:connector-curvature="0"
           d="m 52,47 h 6 v -6 h -6 z m 2,-4 h 2 v 2 h -2 z"
           id="path4785"
           style="fill:#99cc33" />
        <path
           inkscape:connector-curvature="0"
           d="M 36,55 H 58 V 49 H 36 Z m 20,-2 h -4 v -2 h 4 z M 38,51 h 12 v 2 H 38 Z"
           id="path4787"
           style="fill:#99cc33" />
      </g>
      <g
         id="text4901"
         style="font-style:italic;font-variant:normal;font-weight:normal;font-stretch:normal;font-size:16.93333244px;line-height:1.25;font-family:'CMU Concrete';-inkscape-font-specification:'CMU Concrete Italic';letter-spacing:0px;word-spacing:0px;fill:#000000;fill-opacity:1;stroke:none;stroke-width:0.26458332"
         aria-label="x">
        <path
           inkscape:connector-curvature="0"
           id="path891"
           style="font-style:italic;font-variant:normal;font-weight:normal;font-stretch:normal;font-size:16.93333244px;font-family:'CMU Concrete';-inkscape-font-specification:'CMU Concrete Italic';stroke-width:0.26458332;fill:#000000"
           d="m 25.7725,57.160346 q 0,-0.545703 0.256315,-0.79375 0.264583,-0.256315 0.587044,-0.256315 0.239779,0 0.388607,0.148828 0.157096,0.14056 0.157096,0.380338 0,0.305925 -0.32246,0.620118 0.289388,0.405143 0.727604,0.405143 0.661458,0 1.066601,-0.669727 0.165365,-0.272851 0.628386,-2.158007 0.471289,-1.893425 0.471289,-2.215886 0,-0.909505 -0.926042,-0.909505 -0.0083,0 -0.01654,0 -0.578776,0 -1.050066,0.413411 -0.46302,0.413412 -0.694531,0.992188 -0.115755,0.289388 -0.190169,0.355534 -0.06615,0.06615 -0.239779,0.06615 h -0.23151 q -0.405143,0 -0.405143,-0.206706 0,-0.595313 0.868164,-1.604036 0.868164,-1.016993 2.108398,-1.016993 1.132747,0 1.645378,0.810287 0.843359,-0.810287 1.744596,-0.810287 0.694531,0 1.149284,0.413412 0.454752,0.413411 0.454752,1.07487 0,0.545703 -0.264583,0.802018 -0.256315,0.248047 -0.56224,0.248047 -0.239778,0 -0.396875,-0.14056 -0.148828,-0.148828 -0.148828,-0.372071 0,-0.322461 0.305925,-0.620117 -0.289388,-0.405143 -0.711068,-0.405143 -0.677995,0 -1.083138,0.694531 -0.148828,0.272852 -0.628385,2.14974 -0.471289,1.876888 -0.471289,2.199349 0,0.487825 0.289388,0.702799 0.289388,0.206706 0.677994,0.206706 0.56224,0 1.058334,-0.438216 0.496093,-0.438217 0.752409,-1.149284 0.06614,-0.165365 0.140559,-0.198438 0.07442,-0.04134 0.363803,-0.04134 h 0.173632 q 0.322461,0 0.322461,0.206706 0,0.578776 -0.876432,1.604036 -0.868164,1.016992 -2.124935,1.016992 -1.083138,0 -1.620573,-0.810286 -0.917773,0.79375 -1.761132,0.79375 -0.694532,0 -1.157552,-0.413411 Q 25.7725,57.821804 25.7725,57.160346 Z" />
      </g>
      <path
         sodipodi:nodetypes="cc"
         inkscape:connector-curvature="0"
         id="path861"
         d="M 36.615924,54.69831 H 56.39387"
         style="fill:none;stroke:#000000;stroke-width:1.05833328;stroke-linecap:round;stroke-linejoin:miter;stroke-miterlimit:4;stroke-dasharray:none;stroke-opacity:1;marker-end:url(#marker1181)" />
      <g
         id="text4901-2"
         style="font-style:italic;font-variant:normal;font-weight:normal;font-stretch:normal;font-size:16.93333244px;line-height:1.25;font-family:'CMU Concrete';-inkscape-font-specification:'CMU Concrete Italic';letter-spacing:0px;word-spacing:0px;fill:#99cc33;fill-opacity:1;stroke:none;stroke-width:0.26458332"
         aria-label="y">
        <path
           inkscape:connector-curvature="0"
           id="path875"
           style="font-style:italic;font-variant:normal;font-weight:normal;font-stretch:normal;font-size:16.93333244px;font-family:'CMU Concrete';-inkscape-font-specification:'CMU Concrete Italic';stroke-width:0.26458332;fill:#99cc33"
           d="m 122.67018,53.332156 q 0,-0.165365 0.15709,-0.56224 0.1571,-0.405143 0.44649,-0.876432 0.28939,-0.471289 0.80202,-0.826823 0.52089,-0.355534 1.09967,-0.355534 0.62839,0 1.00872,0.405144 0.38034,0.405143 0.38034,1.000455 0,0.355534 -0.59531,1.951302 -0.59531,1.5875 -0.59531,2.397787 0,0.661458 0.33073,0.934309 0.33073,0.264584 0.78548,0.264584 0.69453,0 1.30638,-0.677995 0.61185,-0.686263 0.91777,-1.909961 0.98392,-3.861263 1.00046,-3.894336 0.2067,-0.37207 0.58704,-0.37207 0.19017,0 0.33073,0.132292 0.14883,0.124023 0.14883,0.322461 0,0.09922 -0.0909,0.446484 l -1.62057,6.515364 q -0.32246,1.289844 -0.90124,2.050521 -0.42168,0.545703 -1.03353,0.967383 -1.00046,0.711067 -2.10013,0.711067 -0.76068,0 -1.25677,-0.396875 -0.48783,-0.388606 -0.48783,-1.008723 0,-0.487826 0.26459,-0.735873 0.26458,-0.248047 0.57051,-0.248047 0.23977,0 0.39687,0.14056 0.1571,0.148828 0.1571,0.363802 0,0.289388 -0.27285,0.595313 0.35553,0.289388 0.80201,0.289388 0.74414,0 1.43868,-0.553972 0.69453,-0.545703 1.05006,-1.413867 0.0661,-0.165364 0.28939,-0.983919 -0.8599,0.661458 -1.71153,0.661458 -0.85162,0 -1.4552,-0.454752 -0.59532,-0.454753 -0.59532,-1.537891 0,-0.950846 0.57878,-2.604492 0.58704,-1.661914 0.58704,-1.835547 0,-0.239778 -0.12402,-0.380338 -0.12402,-0.14056 -0.31419,-0.14056 -0.72761,0 -1.28985,1.554427 -0.0661,0.190169 -0.16536,0.23151 -0.0992,0.04134 -0.43822,0.04134 -0.3886,0 -0.3886,-0.206706 z" />
      </g>
      <path
         sodipodi:nodetypes="cc"
         inkscape:connector-curvature="0"
         id="path861-9"
         d="m 100.01938,54.688143 h 19.77796"
         style="fill:none;stroke:#99cc33;stroke-width:1.05833328;stroke-linecap:round;stroke-linejoin:miter;stroke-miterlimit:4;stroke-dasharray:none;stroke-opacity:1;marker-end:url(#marker1181-0)" />
      <ellipse
         ry="1.2027128"
         rx="1.5367997"
         cy="43.233379"
         cx="73.546761"
         id="path20873"
         style="fill:none;stroke:#99cc33;stroke-width:0.70555556;stroke-linecap:round;stroke-miterlimit:4;stroke-dasharray:none" />
      <ellipse
         ry="8.2463284"
         rx="17.04241"
         cy="27.999016"
         cx="69.203613"
         id="path20875"
         style="fill:none;stroke:#99cc33;stroke-width:0.70555556;stroke-linecap:round;stroke-miterlimit:4;stroke-dasharray:none" />
      <ellipse
         ry="2.0713387"
         rx="2.6726952"
         cy="39.424782"
         cx="69.738174"
         id="path20875-8"
         style="fill:none;stroke:#99cc33;stroke-width:0.70555556;stroke-linecap:round;stroke-miterlimit:4;stroke-dasharray:none" />
      <g
         id="g943"
         transform="translate(23.085983,12.685149)"
         style="fill:#99cc33">
        <path
           d="m 32.906599,13.966298 q 0,-0.103353 0.09818,-0.351399 0.09819,-0.253215 0.279053,-0.547771 0.180867,-0.294555 0.501261,-0.516764 0.325562,-0.222209 0.687297,-0.222209 0.39274,0 0.630452,0.253215 0.237712,0.253214 0.237712,0.625285 0,0.222208 -0.372071,1.219564 -0.37207,0.992187 -0.37207,1.498616 0,0.413411 0.206706,0.583944 0.206705,0.165364 0.490926,0.165364 0.434082,0 0.816487,-0.423746 0.382406,-0.428915 0.573609,-1.193726 0.614949,-2.413289 0.625285,-2.43396 0.129191,-0.232544 0.366902,-0.232544 0.118856,0 0.206706,0.08268 0.09302,0.07752 0.09302,0.201539 0,0.06201 -0.05684,0.279052 l -1.012859,4.072103 q -0.201538,0.806152 -0.563273,1.281575 -0.263549,0.341065 -0.645955,0.604615 -0.625285,0.444417 -1.312581,0.444417 -0.475424,0 -0.785482,-0.248047 -0.304891,-0.242879 -0.304891,-0.630452 0,-0.304891 0.165365,-0.459921 0.165364,-0.155029 0.356567,-0.155029 0.149862,0 0.248047,0.08785 0.09819,0.09302 0.09819,0.227376 0,0.180868 -0.170532,0.372071 0.222208,0.180867 0.501261,0.180867 0.465088,0 0.89917,-0.346232 0.434082,-0.341064 0.656291,-0.883667 0.04134,-0.103353 0.180867,-0.614949 -0.537435,0.413411 -1.069702,0.413411 -0.532267,0 -0.909505,-0.28422 -0.37207,-0.284221 -0.37207,-0.961182 0,-0.594279 0.361735,-1.627807 0.366902,-1.038697 0.366902,-1.147217 0,-0.149862 -0.07751,-0.237712 -0.07751,-0.08785 -0.196371,-0.08785 -0.454752,0 -0.806152,0.971517 -0.04134,0.118856 -0.103353,0.144694 -0.06201,0.02584 -0.273885,0.02584 -0.242879,0 -0.242879,-0.129191 z"
           style="font-style:italic;font-variant:normal;font-weight:500;font-stretch:normal;font-size:medium;line-height:1.25;font-family:'CMU Concrete';-inkscape-font-specification:'CMU Concrete Medium Italic';letter-spacing:0px;word-spacing:0px;fill:#99cc33;fill-opacity:1;stroke:none;stroke-width:0.26458332"
           id="path924"
           inkscape:connector-curvature="0" />
        <path
           d="m 38.880394,15.681956 q 0,-0.242879 0.26355,-0.294556 0.07235,-0.01033 0.232544,-0.01033 h 6.128825 q 0.403076,0 0.397908,0.315226 0,0.304891 -0.397908,0.304891 h -6.216675 q -0.408244,0 -0.408244,-0.315226 z m 0.54777,-2.180746 q 0,-0.315226 0.403077,-0.315226 h 6.211507 q 0.413411,0 0.413411,0.315226 0,0.304891 -0.413411,0.304891 h -6.211507 q -0.403077,0 -0.403077,-0.304891 z"
           style="font-style:italic;font-variant:normal;font-weight:500;font-stretch:normal;font-size:medium;line-height:1.25;font-family:'CMU Concrete';-inkscape-font-specification:'CMU Concrete Medium Italic';letter-spacing:0px;word-spacing:0px;fill:#99cc33;fill-opacity:1;stroke:none;stroke-width:0.26458332"
           id="path926"
           inkscape:connector-curvature="0" />
        <g
           transform="translate(-13.229842,8.409152)"
           id="g936"
           style="fill:#99cc33">
          <path
             inkscape:connector-curvature="0"
             id="path928"
             style="font-style:italic;font-variant:normal;font-weight:500;font-stretch:normal;font-size:medium;line-height:1.25;font-family:'CMU Concrete';-inkscape-font-specification:'CMU Concrete Medium Italic';letter-spacing:0px;word-spacing:0px;fill:#000000;fill-opacity:1;stroke:none;stroke-width:0.26458332"
             d="m 66.345121,8.2612455 q 0,-0.341064 0.160197,-0.496094 0.165364,-0.160197 0.366902,-0.160197 0.149862,0 0.24288,0.09302 0.09818,0.08785 0.09818,0.237712 0,0.191202 -0.201538,0.387573 0.180867,0.253214 0.454752,0.253214 0.413412,0 0.666626,-0.418579 0.103353,-0.170532 0.392741,-1.348755 0.294556,-1.18339 0.294556,-1.384928 0,-0.568441 -0.578776,-0.568441 -0.0052,0 -0.01034,0 -0.361735,0 -0.65629,0.258382 -0.289388,0.258383 -0.434082,0.620118 -0.07235,0.180867 -0.118856,0.222208 -0.04134,0.04134 -0.149862,0.04134 h -0.144694 q -0.253214,0 -0.253214,-0.129191 0,-0.37207 0.542602,-1.002522 0.542603,-0.635621 1.317749,-0.635621 0.707967,0 1.028361,0.506429 0.5271,-0.506429 1.090373,-0.506429 0.434082,0 0.718302,0.258383 0.284221,0.258382 0.284221,0.671793 0,0.341065 -0.165365,0.501262 -0.160197,0.155029 -0.3514,0.155029 -0.149861,0 -0.248046,-0.08785 -0.09302,-0.09302 -0.09302,-0.232544 0,-0.201538 0.191203,-0.387573 -0.180868,-0.253215 -0.444418,-0.253215 -0.423746,0 -0.676961,0.434082 -0.09302,0.170532 -0.392741,1.343587 -0.294555,1.173055 -0.294555,1.374594 0,0.30489 0.180867,0.439249 0.180868,0.129191 0.423747,0.129191 0.3514,0 0.661458,-0.273885 0.310059,-0.273885 0.470256,-0.718302 0.04134,-0.103353 0.08785,-0.124024 0.04651,-0.02584 0.227376,-0.02584 h 0.108521 q 0.201538,0 0.201538,0.129191 0,0.361735 -0.547771,1.002523 -0.542602,0.63562 -1.328084,0.63562 -0.676961,0 -1.012858,-0.506429 -0.573608,0.496094 -1.100708,0.496094 -0.434082,0 -0.72347,-0.258382 -0.28422,-0.258383 -0.28422,-0.671794 z" />
          <path
             style="color:#000000;font-style:normal;font-variant:normal;font-weight:normal;font-stretch:normal;font-size:medium;line-height:normal;font-family:sans-serif;font-variant-ligatures:normal;font-variant-position:normal;font-variant-caps:normal;font-variant-numeric:normal;font-variant-alternates:normal;font-feature-settings:normal;text-indent:0;text-align:start;text-decoration:none;text-decoration-line:none;text-decoration-style:solid;text-decoration-color:#000000;letter-spacing:normal;word-spacing:normal;text-transform:none;writing-mode:lr-tb;direction:ltr;text-orientation:mixed;dominant-baseline:auto;baseline-shift:baseline;text-anchor:start;white-space:normal;shape-padding:0;clip-rule:nonzero;display:inline;overflow:visible;visibility:visible;opacity:1;isolation:auto;mix-blend-mode:normal;color-interpolation:sRGB;color-interpolation-filters:linearRGB;solid-color:#000000;solid-opacity:1;vector-effect:none;fill:#99cc33;fill-opacity:1;fill-rule:nonzero;stroke:none;stroke-width:0.70555556;stroke-linecap:round;stroke-linejoin:bevel;stroke-miterlimit:4;stroke-dasharray:none;stroke-dashoffset:0;stroke-opacity:1;color-rendering:auto;image-rendering:auto;shape-rendering:auto;text-rendering:auto;enable-background:accumulate"
             d="M 65.447266,2.8632812 65.113281,3.1015625 63.328125,8.3027344 62.152344,4.8945312 a 0.35298796,0.35298796 0 1 0 -0.667969,0.2285157 l 1.509766,4.3789062 h 0.667968 l 2.03711,-5.9335937 h 6.501953 a 0.35281306,0.35281306 0 1 0 0,-0.7050782 z"
             id="path922"
             inkscape:connector-curvature="0" />
        </g>
      </g>
    </g>
  </g>
</svg>
