<?xml version="1.0" encoding="UTF-8" standalone="no"?>
<svg
   xmlns:dc="http://purl.org/dc/elements/1.1/"
   xmlns:cc="http://creativecommons.org/ns#"
   xmlns:rdf="http://www.w3.org/1999/02/22-rdf-syntax-ns#"
   xmlns:svg="http://www.w3.org/2000/svg"
   xmlns="http://www.w3.org/2000/svg"
   xmlns:sodipodi="http://sodipodi.sourceforge.net/DTD/sodipodi-0.dtd"
   xmlns:inkscape="http://www.inkscape.org/namespaces/inkscape"
   id="svg8"
   version="1.1"
   viewBox="0 0 123.38058 36.006131"
   height="36.00613mm"
   width="123.38058mm"
   sodipodi:docname="conveyor_plain.svg"
   inkscape:version="0.92.3 (unknown)">
  <sodipodi:namedview
     pagecolor="#ffffff"
     bordercolor="#666666"
     borderopacity="1"
     objecttolerance="10"
     gridtolerance="10"
     guidetolerance="10"
     inkscape:pageopacity="0"
     inkscape:pageshadow="2"
     inkscape:window-width="1920"
     inkscape:window-height="1052"
     id="namedview1186"
     showgrid="false"
     inkscape:zoom="1.9348681"
     inkscape:cx="209.45272"
     inkscape:cy="86.696865"
     inkscape:window-x="1600"
     inkscape:window-y="0"
     inkscape:window-maximized="1"
     inkscape:current-layer="layer1" />
  <defs
     id="defs2">
    <marker
       style="overflow:visible"
       id="marker1181"
       refX="0"
       refY="0"
       orient="auto">
      <path
         transform="scale(-0.6)"
         d="M 8.7185878,4.0337352 -2.2072895,0.01601326 8.7185884,-4.0017078 c -1.7454984,2.3720609 -1.7354408,5.6174519 -6e-7,8.035443 z"
         style="fill:#000000;fill-opacity:1;fill-rule:evenodd;stroke:#000000;stroke-width:0.625;stroke-linejoin:round;stroke-opacity:1"
         id="path1179" />
    </marker>
    <marker
       style="overflow:visible"
       id="Arrow2Send"
       refX="0"
       refY="0"
       orient="auto">
      <path
         transform="matrix(-0.3,0,0,-0.3,0.69,0)"
         d="M 8.7185878,4.0337352 -2.2072895,0.01601326 8.7185884,-4.0017078 c -1.7454984,2.3720609 -1.7354408,5.6174519 -6e-7,8.035443 z"
         style="fill:#000000;fill-opacity:1;fill-rule:evenodd;stroke:#000000;stroke-width:0.625;stroke-linejoin:round;stroke-opacity:1"
         id="path896" />
    </marker>
    <marker
       style="overflow:visible"
       id="Arrow2Mend"
       refX="0"
       refY="0"
       orient="auto">
      <path
         transform="scale(-0.6)"
         d="M 8.7185878,4.0337352 -2.2072895,0.01601326 8.7185884,-4.0017078 c -1.7454984,2.3720609 -1.7354408,5.6174519 -6e-7,8.035443 z"
         style="fill:#000000;fill-opacity:1;fill-rule:evenodd;stroke:#000000;stroke-width:0.625;stroke-linejoin:round;stroke-opacity:1"
         id="path890" />
    </marker>
    <marker
       style="overflow:visible"
       id="Arrow2Lend"
       refX="0"
       refY="0"
       orient="auto">
      <path
         transform="matrix(-1.1,0,0,-1.1,-1.1,0)"
         d="M 8.7185878,4.0337352 -2.2072895,0.01601326 8.7185884,-4.0017078 c -1.7454984,2.3720609 -1.7354408,5.6174519 -6e-7,8.035443 z"
         style="fill:#000000;fill-opacity:1;fill-rule:evenodd;stroke:#000000;stroke-width:0.625;stroke-linejoin:round;stroke-opacity:1"
         id="path884" />
    </marker>
    <marker
       style="overflow:visible"
       id="marker1181-0"
       refX="0"
       refY="0"
       orient="auto">
      <path
         transform="scale(-0.6)"
         d="M 8.7185878,4.0337352 -2.2072895,0.01601326 8.7185884,-4.0017078 c -1.7454984,2.3720609 -1.7354408,5.6174519 -6e-7,8.035443 z"
         style="fill:#000000;fill-opacity:1;fill-rule:evenodd;stroke:#000000;stroke-width:0.625;stroke-linejoin:round;stroke-opacity:1"
         id="path1179-7" />
    </marker>
  </defs>
  <metadata
     id="metadata5">
    <rdf:RDF>
      <cc:Work
         rdf:about="">
        <dc:format>image/svg+xml</dc:format>
        <dc:type
           rdf:resource="http://purl.org/dc/dcmitype/StillImage" />
        <dc:title></dc:title>
      </cc:Work>
    </rdf:RDF>
  </metadata>
  <g
     transform="translate(-16.417898,-45.313154)"
     id="layer1">
    <circle
       r="2.80633"
       cy="68.60849"
       cx="21.496017"
       id="path20300"
       style="fill:#000000;stroke:none;stroke-width:1.05833328;stroke-linecap:round;stroke-miterlimit:4;stroke-dasharray:none" />
    <circle
       r="2.80633"
       cy="68.60849"
       cx="134.8183"
       id="path20300-9"
       style="fill:#000000;stroke:none;stroke-width:1.05833328;stroke-linecap:round;stroke-miterlimit:4;stroke-dasharray:none" />
    <circle
       r="2.80633"
       cy="68.60849"
       cx="30.213116"
       id="path20300-2"
       style="fill:#000000;stroke:none;stroke-width:1.05833328;stroke-linecap:round;stroke-miterlimit:4;stroke-dasharray:none" />
    <circle
       r="2.80633"
       cy="68.60849"
       cx="38.930214"
       id="path20300-2-3"
       style="fill:#000000;stroke:none;stroke-width:1.05833328;stroke-linecap:round;stroke-miterlimit:4;stroke-dasharray:none" />
    <circle
       r="2.80633"
       cy="68.60849"
       cx="47.647312"
       id="path20300-2-3-6"
       style="fill:#000000;stroke:none;stroke-width:1.05833328;stroke-linecap:round;stroke-miterlimit:4;stroke-dasharray:none" />
    <circle
       r="2.80633"
       cy="68.60849"
       cx="56.36441"
       id="path20300-2-3-6-6"
       style="fill:#000000;stroke:none;stroke-width:1.05833328;stroke-linecap:round;stroke-miterlimit:4;stroke-dasharray:none" />
    <circle
       r="2.80633"
       cy="68.60849"
       cx="65.081505"
       id="path20300-2-3-6-6-7"
       style="fill:#000000;stroke:none;stroke-width:1.05833328;stroke-linecap:round;stroke-miterlimit:4;stroke-dasharray:none" />
    <circle
       r="2.80633"
       cy="68.60849"
       cx="73.798607"
       id="path20300-2-3-6-6-7-7"
       style="fill:#000000;stroke:none;stroke-width:1.05833328;stroke-linecap:round;stroke-miterlimit:4;stroke-dasharray:none" />
    <circle
       r="2.80633"
       cy="68.60849"
       cx="82.515701"
       id="path20300-2-3-6-6-7-7-4"
       style="fill:#000000;stroke:none;stroke-width:1.05833328;stroke-linecap:round;stroke-miterlimit:4;stroke-dasharray:none" />
    <circle
       r="2.80633"
       cy="68.60849"
       cx="126.1012"
       id="path20300-2-3-6-6-7-7-4-6"
       style="fill:#000000;stroke:none;stroke-width:1.05833328;stroke-linecap:round;stroke-miterlimit:4;stroke-dasharray:none" />
    <circle
       r="2.80633"
       cy="68.60849"
       cx="117.3841"
       id="path20300-2-3-6-6-7-7-4-6-9"
       style="fill:#000000;stroke:none;stroke-width:1.05833328;stroke-linecap:round;stroke-miterlimit:4;stroke-dasharray:none" />
    <circle
       r="2.80633"
       cy="68.60849"
       cx="108.66701"
       id="path20300-2-3-6-6-7-7-4-6-9-6"
       style="fill:#000000;stroke:none;stroke-width:1.05833328;stroke-linecap:round;stroke-miterlimit:4;stroke-dasharray:none" />
    <circle
       r="2.80633"
       cy="68.60849"
       cx="99.949905"
       id="path20300-2-3-6-6-7-7-4-6-9-6-0"
       style="fill:#000000;stroke:none;stroke-width:1.05833328;stroke-linecap:round;stroke-miterlimit:4;stroke-dasharray:none" />
    <circle
       r="2.80633"
       cy="68.60849"
       cx="91.232811"
       id="path20300-2-3-6-6-7-7-4-6-9-6-0-9"
       style="fill:#000000;stroke:none;stroke-width:1.05833328;stroke-linecap:round;stroke-miterlimit:4;stroke-dasharray:none" />
    <path
       id="path4893"
       d="m 21.210407,64.531382 c -5.484044,-0.04811 -5.484044,8.20233 0,8.154218 H 135.00597 c 5.48404,0.04811 5.48404,-8.20233 0,-8.154218 z"
       style="color:#000000;font-style:normal;font-variant:normal;font-weight:normal;font-stretch:normal;font-size:medium;line-height:normal;font-family:sans-serif;font-variant-ligatures:normal;font-variant-position:normal;font-variant-caps:normal;font-variant-numeric:normal;font-variant-alternates:normal;font-feature-settings:normal;text-indent:0;text-align:start;text-decoration:none;text-decoration-line:none;text-decoration-style:solid;text-decoration-color:#000000;letter-spacing:normal;word-spacing:normal;text-transform:none;writing-mode:lr-tb;direction:ltr;text-orientation:mixed;dominant-baseline:auto;baseline-shift:baseline;text-anchor:start;white-space:normal;shape-padding:0;clip-rule:nonzero;display:inline;overflow:visible;visibility:visible;opacity:1;isolation:auto;mix-blend-mode:normal;color-interpolation:sRGB;color-interpolation-filters:linearRGB;solid-color:#000000;solid-opacity:1;vector-effect:none;fill:none;fill-opacity:1;fill-rule:nonzero;stroke:#000000;stroke-width:1.35895276;stroke-linecap:round;stroke-linejoin:miter;stroke-miterlimit:4;stroke-dasharray:none;stroke-dashoffset:0;stroke-opacity:1;color-rendering:auto;image-rendering:auto;shape-rendering:auto;text-rendering:auto;enable-background:accumulate" />
    <g
       id="g4789"
       style="fill:#000000"
       transform="matrix(0.58074403,0,0,0.58074403,59.524378,44.73241)">
      <rect
         y="2.9999983"
         x="2.9999995"
         height="54"
         width="58"
         id="rect4897"
         style="fill:#ffffff;stroke:none;stroke-width:2.94455934;stroke-linecap:round;stroke-miterlimit:4;stroke-dasharray:none" />
      <path
         d="M 63,1 H 1 v 58 h 2 v 4 h 8 v -4 h 42 v 4 h 8 v -4 h 2 z M 9,61 H 5 v -2 h 4 z m 50,0 h -4 v -2 h 4 z m 2,-4 H 3 V 3 h 58 z"
         id="path4755" />
      <path
         d="M 18,31 C 25.168,31 31,25.168 31,18 31,10.832 25.168,5 18,5 10.832,5 5,10.832 5,18 5,25.168 10.832,31 18,31 Z M 18,7 c 6.065,0 11,4.935 11,11 0,6.065 -4.935,11 -11,11 C 11.935,29 7,24.065 7,18 7,11.935 11.935,7 18,7 Z"
         id="path4757" />
      <path
         d="m 15,18 c 0,1.654 1.346,3 3,3 1.654,0 3,-1.346 3,-3 0,-1.654 -1.346,-3 -3,-3 -0.414,0 -0.808,0.084 -1.168,0.237 l -4.064,-4.877 -1.537,1.28 4.132,4.959 C 15.139,17.019 15,17.491 15,18 Z m 4,0 c 0,0.551 -0.448,1 -1,1 -0.552,0 -1,-0.449 -1,-1 0,-0.551 0.448,-1 1,-1 0.552,0 1,0.449 1,1 z"
         id="path4759" />
      <rect
         x="12"
         y="23"
         width="12"
         height="2"
         id="rect4761" />
      <path
         d="M 46,31 C 53.168,31 59,25.168 59,18 59,10.832 53.168,5 46,5 38.832,5 33,10.832 33,18 c 0,7.168 5.832,13 13,13 z M 46,7 c 6.065,0 11,4.935 11,11 0,6.065 -4.935,11 -11,11 C 39.935,29 35,24.065 35,18 35,11.935 39.935,7 46,7 Z"
         id="path4763" />
      <path
         d="m 46,21 c 1.654,0 3,-1.346 3,-3 0,-1.07 -0.567,-2.004 -1.412,-2.535 l 1.389,-6.248 -1.953,-0.434 -1.39,6.254 C 44.154,15.22 43,16.471 43,18 c 0,1.654 1.346,3 3,3 z m 0,-4 c 0.552,0 1,0.449 1,1 0,0.551 -0.448,1 -1,1 -0.552,0 -1,-0.449 -1,-1 0,-0.551 0.448,-1 1,-1 z"
         id="path4765" />
      <rect
         x="50"
         y="23"
         width="2"
         height="2"
         id="rect4767" />
      <rect
         x="40"
         y="23"
         width="8"
         height="2"
         id="rect4769" />
      <path
         d="M 33,33 H 5 V 55 H 33 Z M 31,53 H 7 V 35 h 24 z"
         id="path4771" />
      <polygon
         points="14.279,51 17.721,51 21.721,39 22.341,39 25.341,46 29,46 29,44 26.659,44 23.659,37 20.279,37 16.279,49 15.721,49 12.721,40 9,40 9,42 11.279,42 "
         id="polygon4773" />
      <path
         d="m 42,33 h -6 v 6 h 6 z m -2,4 h -2 v -2 h 2 z"
         id="path4775" />
      <path
         d="m 50,33 h -6 v 6 h 6 z m -2,4 h -2 v -2 h 2 z"
         id="path4777" />
      <path
         d="m 52,39 h 6 v -6 h -6 z m 2,-4 h 2 v 2 h -2 z"
         id="path4779" />
      <path
         d="m 36,47 h 6 v -6 h -6 z m 2,-4 h 2 v 2 h -2 z"
         id="path4781" />
      <path
         d="m 44,47 h 6 v -6 h -6 z m 2,-4 h 2 v 2 h -2 z"
         id="path4783" />
      <path
         d="m 52,47 h 6 v -6 h -6 z m 2,-4 h 2 v 2 h -2 z"
         id="path4785" />
      <path
         d="M 36,55 H 58 V 49 H 36 Z m 20,-2 h -4 v -2 h 4 z M 38,51 h 12 v 2 H 38 Z"
         id="path4787" />
    </g>
    <g
       aria-label="x"
       style="font-style:italic;font-variant:normal;font-weight:normal;font-stretch:normal;font-size:16.93333244px;line-height:1.25;font-family:'CMU Concrete';-inkscape-font-specification:'CMU Concrete Italic';letter-spacing:0px;word-spacing:0px;fill:#000000;fill-opacity:1;stroke:none;stroke-width:0.26458332"
       id="text4901">
      <path
         d="m 25.7725,57.160346 q 0,-0.545703 0.256315,-0.79375 0.264583,-0.256315 0.587044,-0.256315 0.239779,0 0.388607,0.148828 0.157096,0.14056 0.157096,0.380338 0,0.305925 -0.32246,0.620118 0.289388,0.405143 0.727604,0.405143 0.661458,0 1.066601,-0.669727 0.165365,-0.272851 0.628386,-2.158007 0.471289,-1.893425 0.471289,-2.215886 0,-0.909505 -0.926042,-0.909505 -0.0083,0 -0.01654,0 -0.578776,0 -1.050066,0.413411 -0.46302,0.413412 -0.694531,0.992188 -0.115755,0.289388 -0.190169,0.355534 -0.06615,0.06615 -0.239779,0.06615 h -0.23151 q -0.405143,0 -0.405143,-0.206706 0,-0.595313 0.868164,-1.604036 0.868164,-1.016993 2.108398,-1.016993 1.132747,0 1.645378,0.810287 0.843359,-0.810287 1.744596,-0.810287 0.694531,0 1.149284,0.413412 0.454752,0.413411 0.454752,1.07487 0,0.545703 -0.264583,0.802018 -0.256315,0.248047 -0.56224,0.248047 -0.239778,0 -0.396875,-0.14056 -0.148828,-0.148828 -0.148828,-0.372071 0,-0.322461 0.305925,-0.620117 -0.289388,-0.405143 -0.711068,-0.405143 -0.677995,0 -1.083138,0.694531 -0.148828,0.272852 -0.628385,2.14974 -0.471289,1.876888 -0.471289,2.199349 0,0.487825 0.289388,0.702799 0.289388,0.206706 0.677994,0.206706 0.56224,0 1.058334,-0.438216 0.496093,-0.438217 0.752409,-1.149284 0.06614,-0.165365 0.140559,-0.198438 0.07442,-0.04134 0.363803,-0.04134 h 0.173632 q 0.322461,0 0.322461,0.206706 0,0.578776 -0.876432,1.604036 -0.868164,1.016992 -2.124935,1.016992 -1.083138,0 -1.620573,-0.810286 -0.917773,0.79375 -1.761132,0.79375 -0.694532,0 -1.157552,-0.413411 Q 25.7725,57.821804 25.7725,57.160346 Z"
         style="font-style:italic;font-variant:normal;font-weight:normal;font-stretch:normal;font-size:16.93333244px;font-family:'CMU Concrete';-inkscape-font-specification:'CMU Concrete Italic';stroke-width:0.26458332"
         id="path1839" />
    </g>
    <path
       id="path861"
       d="M 36.615924,54.69831 H 56.39387"
       style="fill:none;stroke:#000000;stroke-width:1.05833328;stroke-linecap:round;stroke-linejoin:miter;stroke-miterlimit:4;stroke-dasharray:none;stroke-opacity:1;marker-end:url(#marker1181)" />
    <g
       aria-label="y"
       style="font-style:italic;font-variant:normal;font-weight:normal;font-stretch:normal;font-size:16.93333244px;line-height:1.25;font-family:'CMU Concrete';-inkscape-font-specification:'CMU Concrete Italic';letter-spacing:0px;word-spacing:0px;fill:#000000;fill-opacity:1;stroke:none;stroke-width:0.26458332"
       id="text4901-2">
      <path
         d="m 122.67018,53.332156 q 0,-0.165365 0.15709,-0.56224 0.1571,-0.405143 0.44649,-0.876432 0.28939,-0.471289 0.80202,-0.826823 0.52089,-0.355534 1.09967,-0.355534 0.62839,0 1.00872,0.405144 0.38034,0.405143 0.38034,1.000455 0,0.355534 -0.59531,1.951302 -0.59531,1.5875 -0.59531,2.397787 0,0.661458 0.33073,0.934309 0.33073,0.264584 0.78548,0.264584 0.69453,0 1.30638,-0.677995 0.61185,-0.686263 0.91777,-1.909961 0.98392,-3.861263 1.00046,-3.894336 0.2067,-0.37207 0.58704,-0.37207 0.19017,0 0.33073,0.132292 0.14883,0.124023 0.14883,0.322461 0,0.09922 -0.0909,0.446484 l -1.62057,6.515364 q -0.32246,1.289844 -0.90124,2.050521 -0.42168,0.545703 -1.03353,0.967383 -1.00046,0.711067 -2.10013,0.711067 -0.76068,0 -1.25677,-0.396875 -0.48783,-0.388606 -0.48783,-1.008723 0,-0.487826 0.26459,-0.735873 0.26458,-0.248047 0.57051,-0.248047 0.23977,0 0.39687,0.14056 0.1571,0.148828 0.1571,0.363802 0,0.289388 -0.27285,0.595313 0.35553,0.289388 0.80201,0.289388 0.74414,0 1.43868,-0.553972 0.69453,-0.545703 1.05006,-1.413867 0.0661,-0.165364 0.28939,-0.983919 -0.8599,0.661458 -1.71153,0.661458 -0.85162,0 -1.4552,-0.454752 -0.59532,-0.454753 -0.59532,-1.537891 0,-0.950846 0.57878,-2.604492 0.58704,-1.661914 0.58704,-1.835547 0,-0.239778 -0.12402,-0.380338 -0.12402,-0.14056 -0.31419,-0.14056 -0.72761,0 -1.28985,1.554427 -0.0661,0.190169 -0.16536,0.23151 -0.0992,0.04134 -0.43822,0.04134 -0.3886,0 -0.3886,-0.206706 z"
         style="font-style:italic;font-variant:normal;font-weight:normal;font-stretch:normal;font-size:16.93333244px;font-family:'CMU Concrete';-inkscape-font-specification:'CMU Concrete Italic';stroke-width:0.26458332"
         id="path1836" />
    </g>
    <path
       id="path861-9"
       d="m 100.01938,54.688143 h 19.77796"
       style="fill:none;stroke:#000000;stroke-width:1.05833328;stroke-linecap:round;stroke-linejoin:miter;stroke-miterlimit:4;stroke-dasharray:none;stroke-opacity:1;marker-end:url(#marker1181-0)" />
  </g>
</svg>
