<svg xmlns="http://www.w3.org/2000/svg" xmlns:xlink="http://www.w3.org/1999/xlink" width="100" height="100" viewBox="0 0 100 100"><g><rect width="100%" height="100%" fill="#FFFFFF"></rect><g transform="translate(50 50) scale(0.69 0.69) rotate(0) translate(-50 -50)" style="fill:#000000;"><svg fill="#000000" xmlns="http://www.w3.org/2000/svg" xmlns:xlink="http://www.w3.org/1999/xlink" version="1.1" x="0px" y="0px" viewBox="0 0 100 100" enable-background="new 0 0 100 100" xml:space="preserve"><g><path d="M59.858,87.56c-3.956,0-7.162,3.207-7.162,7.162V95h14.324v-0.278C67.021,90.766,63.814,87.56,59.858,87.56z"></path><path d="M54.818,22.176c0-2.156-1.426-3.959-3.378-4.574v-5.539c1.316-0.56,2.238-1.864,2.238-3.384C53.678,6.647,52.031,5,50,5   s-3.678,1.647-3.678,3.678c0,1.52,0.923,2.824,2.238,3.384v5.539c-1.953,0.615-3.378,2.419-3.378,4.574v0.138h9.636V22.176z"></path><path d="M64.264,34.122c0-5.256-4.261-9.516-9.516-9.516h-9.496c-5.256,0-9.517,4.261-9.517,9.516v5.302h28.529V34.122z    M45.762,33.413c0,0.809-0.656,1.464-1.464,1.464s-1.464-0.656-1.464-1.464v-2.796c0-0.809,0.656-1.464,1.464-1.464   s1.464,0.656,1.464,1.464V33.413z M57.167,33.413c0,0.809-0.656,1.464-1.464,1.464s-1.464-0.656-1.464-1.464v-2.796   c0-0.809,0.655-1.464,1.464-1.464s1.464,0.656,1.464,1.464V33.413z"></path><polygon points="74.991,48.7 74.991,61.053 79.406,68.459 84.838,65.221  "></polygon><path d="M91.171,71.022c-1.376-2.575-4.579-3.547-7.154-2.17c-2.575,1.376-3.547,4.579-2.17,7.154   c0.951,1.778,2.773,2.791,4.657,2.794l-2.656-4.969l4.403-2.353l2.656,4.969C91.951,74.878,92.122,72.801,91.171,71.022z"></path><polygon points="20.594,68.459 25.009,61.053 25.009,48.7 15.162,65.221  "></polygon><path d="M15.983,68.852c-2.575-1.376-5.778-0.405-7.154,2.17c-0.951,1.779-0.78,3.856,0.264,5.425l2.656-4.969l4.403,2.353   L13.496,78.8c1.885-0.003,3.707-1.016,4.657-2.794C19.53,73.431,18.558,70.228,15.983,68.852z"></path><rect x="56.075" y="74.891" width="7.27" height="10.332"></rect><path d="M40.142,87.56L40.142,87.56c-3.956,0-7.162,3.207-7.162,7.162V95h14.324v-0.278C47.304,90.766,44.097,87.56,40.142,87.56z"></path><rect x="36.358" y="74.891" width="7.27" height="10.332"></rect><path d="M61.887,42.027H38.113c-5.758,0-10.425,4.668-10.425,10.425v9.103c0,5.758,4.668,10.425,10.425,10.425h23.774   c5.758,0,10.425-4.668,10.425-10.425v-9.103C72.312,46.695,67.645,42.027,61.887,42.027z M52.27,60.331   c0-0.467-0.15-0.924-0.424-1.311l2.283-4.705l-3.569,3.822c-0.897-0.228-1.878,0.101-2.433,0.908   c-0.27,0.394-0.398,0.842-0.397,1.286h-7.353c0-5.315,4.308-9.623,9.623-9.623c5.315,0,9.623,4.308,9.623,9.623H52.27z"></path></g></svg></g></g></svg>