<svg xmlns="http://www.w3.org/2000/svg" xmlns:xlink="http://www.w3.org/1999/xlink" width="100" height="100" viewBox="0 0 100 100"><g><rect width="100%" height="100%" fill="#FFFFFF"></rect><g transform="translate(50 50) scale(0.69 0.69) rotate(0) translate(-50 -50)" style="fill:#000000;"><svg fill="#000000" xmlns="http://www.w3.org/2000/svg" xmlns:xlink="http://www.w3.org/1999/xlink" version="1.1" x="0px" y="0px" viewBox="0 0 100 100" style="enable-background:new 0 0 100 100;" xml:space="preserve"><g><path d="M50,0C33.91,0,20.865,12.714,20.865,30.22c0,10.982,5.134,16.293,12.933,21.981v8.271c1.206,1.282,2.578,2.411,4.082,3.374   v-5.483l2.122,2.182v4.501c2.708,1.332,5.748,2.135,8.971,2.271v-6.772h2.123v6.767c2.972-0.147,5.779-0.869,8.314-2.046v-4.721   l2.122-2.182v5.777c1.691-1.022,3.229-2.254,4.559-3.668v-8.194c7.859-5.677,13.042-11.024,13.042-22.058   C79.133,12.714,66.091,0,50,0z M38.454,45.584c-5.241,0-9.489-4.248-9.489-9.488c0-5.241,4.248-5.292,9.489-5.292   s9.489,0.051,9.489,5.292C47.942,41.336,43.694,45.584,38.454,45.584z M48.311,52.836c-1.089,1.082-2.587,1.342-3.347,0.575   c-0.759-0.765-0.492-2.261,0.599-3.342c1.091-1.083,2.589-1.338,3.348-0.576S49.4,51.754,48.311,52.836z M55.037,53.411   c-0.76,0.767-2.258,0.507-3.35-0.575c-1.089-1.082-1.357-2.58-0.598-3.343c0.76-0.763,2.258-0.507,3.347,0.576   C55.526,51.15,55.796,52.646,55.037,53.411z M61.547,45.584c-5.24,0-9.488-4.248-9.488-9.488c0-5.241,4.248-5.292,9.488-5.292   s9.488,0.051,9.488,5.292C71.035,41.336,66.787,45.584,61.547,45.584z M91.498,66.767c-4.256,2.493-8.677-0.042-8.677-0.042   L58.443,80.989l5.835,3.413c0,0,4.421-2.535,8.677-0.043c2.258,1.318,3.02,4.223,1.695,6.48c-0.832,1.424-2.294,2.248-3.828,2.335   c0.678,1.378,0.676,3.056-0.159,4.48c-1.321,2.258-4.223,3.017-6.481,1.696c-4.258-2.491-4.211-7.587-4.211-7.587L50,85.93   l-9.971,5.835c0,0,0.045,5.096-4.211,7.587c-2.258,1.32-5.16,0.562-6.483-1.696c-0.833-1.425-0.835-3.103-0.16-4.48   c-1.532-0.087-2.996-0.911-3.826-2.335c-1.323-2.258-0.564-5.162,1.696-6.48c4.256-2.492,8.677,0.043,8.677,0.043l5.833-3.413   L17.18,66.725c0,0-4.421,2.535-8.677,0.042c-2.26-1.318-3.019-4.223-1.698-6.48c0.833-1.423,2.296-2.248,3.828-2.335   c-0.675-1.379-0.673-3.055,0.16-4.48c1.323-2.258,4.225-3.017,6.483-1.695c4.257,2.49,4.212,7.586,4.212,7.586L50,76.047   l28.513-16.686c0,0-0.047-5.096,4.211-7.586c2.259-1.321,5.16-0.563,6.48,1.695c0.836,1.426,0.838,3.102,0.16,4.48   c1.534,0.087,2.996,0.912,3.828,2.335C94.518,62.544,93.758,65.448,91.498,66.767z"></path></g></svg></g></g></svg>