<svg xmlns="http://www.w3.org/2000/svg" xmlns:xlink="http://www.w3.org/1999/xlink" width="100" height="100" viewBox="0 0 100 100"><g><rect width="100%" height="100%" fill="#FFFFFF"></rect><g transform="translate(50 50) scale(0.69 0.69) rotate(0) translate(-50 -50)" style="fill:#000000;"><svg fill="#000000" xmlns="http://www.w3.org/2000/svg" xmlns:xlink="http://www.w3.org/1999/xlink" version="1.1" x="0px" y="0px" viewBox="0 0 96.379 96.379" enable-background="new 0 0 96.379 96.379" xml:space="preserve"><g><path d="M47.336,44.146l-1.571-0.651c-0.539,1.298-2.034,1.918-3.333,1.381c-0.628-0.26-1.118-0.751-1.379-1.381   c-0.261-0.63-0.262-1.324-0.001-1.952l-1.571-0.651c-0.324,0.781-0.404,1.622-0.245,2.435l-2.441,1.011l0.651,1.571l2.441-1.011   c0.304,0.453,0.69,0.839,1.142,1.144l-1.011,2.44l1.571,0.651l1.011-2.44c0.267,0.052,0.536,0.078,0.802,0.078   c0.274,0,0.543-0.036,0.809-0.087l1.015,2.449l1.571-0.651l-1.012-2.443C46.454,45.588,47.004,44.946,47.336,44.146z"></path><path d="M57.759,28.746l0.009-0.024c-2.154-0.751-4.41-1.144-6.711-1.202c-0.394-1.602-1.203-3.122-2.453-4.371l-1.24,0.04   l-4.855,5.521l-15.014-7.719l-1.088,1.241l9.606,13.864l-11.02,12.531l-0.147,0.236c-1.452,3.509-0.658,7.51,2.024,10.191   c1.824,1.823,4.219,2.735,6.615,2.735s4.792-0.912,6.616-2.735c0.549-0.55,1.023-1.182,1.439-1.916   c1.559,0.387,3.147,0.485,4.699,0.323c0.258,0.763,0.287,1.582,0.074,2.376c-0.269,1.003-0.9,1.84-1.771,2.393   c-9.335,0.119-17.604,6.098-20.63,14.963l1.447,0.832c3.483-4.01,8.512-6.31,13.795-6.31h11.338   c12.191,0,22.111-9.919,22.111-22.11C72.604,40.204,66.643,31.841,57.759,28.746z M56.891,30.232   c3.691,3.252,5.889,7.826,6.161,12.69L51.236,31.107l-0.004,0.004c0.09-0.623,0.117-1.252,0.082-1.879   C53.221,29.307,55.091,29.638,56.891,30.232z M29.743,24.06l11.607,5.968l-4.18,4.752L29.743,24.06z M41.352,55.324l-1.012,0.441   c-0.407,0.84-0.879,1.523-1.443,2.088c-1.535,1.533-3.565,2.273-5.581,2.229c1.218-0.935,2.018-2.388,2.018-4.037h-1.701   c0,1.822-1.443,3.302-3.245,3.386c-0.839-0.371-1.628-0.893-2.314-1.578c-2.162-2.162-2.824-5.371-1.707-8.211l21.641-24.608   c2.363,3.001,2.161,7.376-0.606,10.143l1.203,1.203c0.981-0.981,1.689-2.131,2.143-3.355l2.495,2.495   c4.642,4.642,4.642,12.195,0,16.837C50.129,55.469,45.573,56.605,41.352,55.324z M54.445,53.559   c3.619-3.619,4.765-8.788,3.443-13.392l5.148,5.147c-0.65,8.675-7.372,15.67-15.924,16.749c0.371-0.539,0.668-1.133,0.843-1.783   c0.277-1.033,0.258-2.098-0.03-3.1C50.35,56.614,52.617,55.387,54.445,53.559z M50.493,70.016H39.155   c-4.317,0-8.478,1.403-11.894,3.942c3.616-6.133,10.25-10.036,17.562-10.036c11.02,0,19.983-8.965,19.983-19.984   c0-4.317-1.402-8.478-3.94-11.893C67,35.663,70.902,42.295,70.902,49.607C70.902,60.861,61.747,70.016,50.493,70.016z"></path></g></svg></g></g></svg>