<?xml version="1.0" encoding="UTF-8" standalone="no"?>
<!-- Created with Inkscape (http://www.inkscape.org/) -->

<svg
   xmlns:dc="http://purl.org/dc/elements/1.1/"
   xmlns:cc="http://creativecommons.org/ns#"
   xmlns:rdf="http://www.w3.org/1999/02/22-rdf-syntax-ns#"
   xmlns:svg="http://www.w3.org/2000/svg"
   xmlns="http://www.w3.org/2000/svg"
   xmlns:sodipodi="http://sodipodi.sourceforge.net/DTD/sodipodi-0.dtd"
   xmlns:inkscape="http://www.inkscape.org/namespaces/inkscape"
   width="150mm"
   height="80mm"
   viewBox="0 0 150 80.000002"
   version="1.1"
   id="svg8"
   inkscape:version="0.92.3 (unknown)"
   sodipodi:docname="zero_blauw.svg">
  <defs
     id="defs2">
    <marker
       inkscape:stockid="Arrow2Mend"
       orient="auto"
       refY="0"
       refX="0"
       id="marker1181"
       style="overflow:visible"
       inkscape:isstock="true">
      <path
         id="path1179"
         style="fill:#000000;fill-opacity:1;fill-rule:evenodd;stroke:#000000;stroke-width:0.625;stroke-linejoin:round;stroke-opacity:1"
         d="M 8.7185878,4.0337352 -2.2072895,0.01601326 8.7185884,-4.0017078 c -1.7454984,2.3720609 -1.7354408,5.6174519 -6e-7,8.035443 z"
         transform="scale(-0.6)"
         inkscape:connector-curvature="0" />
    </marker>
    <marker
       inkscape:stockid="Arrow2Send"
       orient="auto"
       refY="0"
       refX="0"
       id="Arrow2Send"
       style="overflow:visible"
       inkscape:isstock="true">
      <path
         id="path896"
         style="fill:#000000;fill-opacity:1;fill-rule:evenodd;stroke:#000000;stroke-width:0.625;stroke-linejoin:round;stroke-opacity:1"
         d="M 8.7185878,4.0337352 -2.2072895,0.01601326 8.7185884,-4.0017078 c -1.7454984,2.3720609 -1.7354408,5.6174519 -6e-7,8.035443 z"
         transform="matrix(-0.3,0,0,-0.3,0.69,0)"
         inkscape:connector-curvature="0" />
    </marker>
    <marker
       inkscape:stockid="Arrow2Mend"
       orient="auto"
       refY="0"
       refX="0"
       id="Arrow2Mend"
       style="overflow:visible"
       inkscape:isstock="true">
      <path
         id="path890"
         style="fill:#000000;fill-opacity:1;fill-rule:evenodd;stroke:#000000;stroke-width:0.625;stroke-linejoin:round;stroke-opacity:1"
         d="M 8.7185878,4.0337352 -2.2072895,0.01601326 8.7185884,-4.0017078 c -1.7454984,2.3720609 -1.7354408,5.6174519 -6e-7,8.035443 z"
         transform="scale(-0.6)"
         inkscape:connector-curvature="0" />
    </marker>
    <marker
       inkscape:stockid="Arrow2Lend"
       orient="auto"
       refY="0"
       refX="0"
       id="Arrow2Lend"
       style="overflow:visible"
       inkscape:isstock="true">
      <path
         id="path884"
         style="fill:#000000;fill-opacity:1;fill-rule:evenodd;stroke:#000000;stroke-width:0.625;stroke-linejoin:round;stroke-opacity:1"
         d="M 8.7185878,4.0337352 -2.2072895,0.01601326 8.7185884,-4.0017078 c -1.7454984,2.3720609 -1.7354408,5.6174519 -6e-7,8.035443 z"
         transform="matrix(-1.1,0,0,-1.1,-1.1,0)"
         inkscape:connector-curvature="0" />
    </marker>
    <marker
       inkscape:stockid="Arrow2Mend"
       orient="auto"
       refY="0"
       refX="0"
       id="marker1181-0"
       style="overflow:visible"
       inkscape:isstock="true">
      <path
         inkscape:connector-curvature="0"
         id="path1179-7"
         style="fill:#3366cc;fill-opacity:1;fill-rule:evenodd;stroke:#3366cc;stroke-width:0.625;stroke-linejoin:round;stroke-opacity:1"
         d="M 8.7185878,4.0337352 -2.2072895,0.01601326 8.7185884,-4.0017078 c -1.7454984,2.3720609 -1.7354408,5.6174519 -6e-7,8.035443 z"
         transform="scale(-0.6)" />
    </marker>
  </defs>
  <sodipodi:namedview
     id="base"
     pagecolor="#ffffff"
     bordercolor="#666666"
     borderopacity="1.0"
     inkscape:pageopacity="0.0"
     inkscape:pageshadow="2"
     inkscape:zoom="1.4"
     inkscape:cx="257.68062"
     inkscape:cy="138.92861"
     inkscape:document-units="mm"
     inkscape:current-layer="g4517"
     showgrid="false"
     inkscape:window-width="1920"
     inkscape:window-height="1018"
     inkscape:window-x="1600"
     inkscape:window-y="34"
     inkscape:window-maximized="1" />
  <metadata
     id="metadata5">
    <rdf:RDF>
      <cc:Work
         rdf:about="">
        <dc:format>image/svg+xml</dc:format>
        <dc:type
           rdf:resource="http://purl.org/dc/dcmitype/StillImage" />
        <dc:title></dc:title>
      </cc:Work>
    </rdf:RDF>
  </metadata>
  <g
     inkscape:label="Layer 1"
     inkscape:groupmode="layer"
     id="layer1"
     transform="translate(-16.417898,-1.3192826)">
    <g
       id="g4517"
       transform="translate(13.309711,-9.0403142)">
      <circle
         r="2.80633"
         cy="68.60849"
         cx="21.496017"
         id="path20300"
         style="fill:#3366cc;stroke:none;stroke-width:1.05833328;stroke-linecap:round;stroke-miterlimit:4;stroke-dasharray:none" />
      <circle
         r="2.80633"
         cy="68.60849"
         cx="134.8183"
         id="path20300-9"
         style="fill:#3366cc;stroke:none;stroke-width:1.05833328;stroke-linecap:round;stroke-miterlimit:4;stroke-dasharray:none" />
      <circle
         r="2.80633"
         cy="68.60849"
         cx="30.213116"
         id="path20300-2"
         style="fill:#3366cc;stroke:none;stroke-width:1.05833328;stroke-linecap:round;stroke-miterlimit:4;stroke-dasharray:none" />
      <circle
         r="2.80633"
         cy="68.60849"
         cx="38.930214"
         id="path20300-2-3"
         style="fill:#3366cc;stroke:none;stroke-width:1.05833328;stroke-linecap:round;stroke-miterlimit:4;stroke-dasharray:none" />
      <circle
         r="2.80633"
         cy="68.60849"
         cx="47.647312"
         id="path20300-2-3-6"
         style="fill:#3366cc;stroke:none;stroke-width:1.05833328;stroke-linecap:round;stroke-miterlimit:4;stroke-dasharray:none" />
      <circle
         r="2.80633"
         cy="68.60849"
         cx="56.36441"
         id="path20300-2-3-6-6"
         style="fill:#3366cc;stroke:none;stroke-width:1.05833328;stroke-linecap:round;stroke-miterlimit:4;stroke-dasharray:none" />
      <circle
         r="2.80633"
         cy="68.60849"
         cx="65.081505"
         id="path20300-2-3-6-6-7"
         style="fill:#3366cc;stroke:none;stroke-width:1.05833328;stroke-linecap:round;stroke-miterlimit:4;stroke-dasharray:none" />
      <circle
         r="2.80633"
         cy="68.60849"
         cx="73.798607"
         id="path20300-2-3-6-6-7-7"
         style="fill:#3366cc;stroke:none;stroke-width:1.05833328;stroke-linecap:round;stroke-miterlimit:4;stroke-dasharray:none" />
      <circle
         r="2.80633"
         cy="68.60849"
         cx="82.515701"
         id="path20300-2-3-6-6-7-7-4"
         style="fill:#3366cc;stroke:none;stroke-width:1.05833328;stroke-linecap:round;stroke-miterlimit:4;stroke-dasharray:none" />
      <circle
         r="2.80633"
         cy="68.60849"
         cx="126.1012"
         id="path20300-2-3-6-6-7-7-4-6"
         style="fill:#3366cc;stroke:none;stroke-width:1.05833328;stroke-linecap:round;stroke-miterlimit:4;stroke-dasharray:none" />
      <circle
         r="2.80633"
         cy="68.60849"
         cx="117.3841"
         id="path20300-2-3-6-6-7-7-4-6-9"
         style="fill:#3366cc;stroke:none;stroke-width:1.05833328;stroke-linecap:round;stroke-miterlimit:4;stroke-dasharray:none" />
      <circle
         r="2.80633"
         cy="68.60849"
         cx="108.66701"
         id="path20300-2-3-6-6-7-7-4-6-9-6"
         style="fill:#3366cc;stroke:none;stroke-width:1.05833328;stroke-linecap:round;stroke-miterlimit:4;stroke-dasharray:none" />
      <circle
         r="2.80633"
         cy="68.60849"
         cx="99.949905"
         id="path20300-2-3-6-6-7-7-4-6-9-6-0"
         style="fill:#3366cc;stroke:none;stroke-width:1.05833328;stroke-linecap:round;stroke-miterlimit:4;stroke-dasharray:none" />
      <circle
         r="2.80633"
         cy="68.60849"
         cx="91.232811"
         id="path20300-2-3-6-6-7-7-4-6-9-6-0-9"
         style="fill:#3366cc;stroke:none;stroke-width:1.05833328;stroke-linecap:round;stroke-miterlimit:4;stroke-dasharray:none" />
      <path
         sodipodi:nodetypes="ccccc"
         inkscape:connector-curvature="0"
         id="path4893"
         d="m 21.210407,64.531382 c -5.484044,-0.04811 -5.484044,8.20233 0,8.154218 H 135.00597 c 5.48404,0.04811 5.48404,-8.20233 0,-8.154218 z"
         style="color:#000000;font-style:normal;font-variant:normal;font-weight:normal;font-stretch:normal;font-size:medium;line-height:normal;font-family:sans-serif;font-variant-ligatures:normal;font-variant-position:normal;font-variant-caps:normal;font-variant-numeric:normal;font-variant-alternates:normal;font-feature-settings:normal;text-indent:0;text-align:start;text-decoration:none;text-decoration-line:none;text-decoration-style:solid;text-decoration-color:#000000;letter-spacing:normal;word-spacing:normal;text-transform:none;writing-mode:lr-tb;direction:ltr;text-orientation:mixed;dominant-baseline:auto;baseline-shift:baseline;text-anchor:start;white-space:normal;shape-padding:0;clip-rule:nonzero;display:inline;overflow:visible;visibility:visible;opacity:1;isolation:auto;mix-blend-mode:normal;color-interpolation:sRGB;color-interpolation-filters:linearRGB;solid-color:#000000;solid-opacity:1;vector-effect:none;fill:none;fill-opacity:1;fill-rule:nonzero;stroke:#3366cc;stroke-width:1.35895276;stroke-linecap:round;stroke-linejoin:miter;stroke-miterlimit:4;stroke-dasharray:none;stroke-dashoffset:0;stroke-opacity:1;color-rendering:auto;image-rendering:auto;shape-rendering:auto;text-rendering:auto;enable-background:accumulate" />
      <g
         id="g4789"
         style="fill:#000000"
         transform="matrix(0.58074403,0,0,0.58074403,59.524378,44.73241)">
        <rect
           y="2.9999983"
           x="2.9999995"
           height="54"
           width="58"
           id="rect4897"
           style="fill:#ffffff;stroke:none;stroke-width:2.94455934;stroke-linecap:round;stroke-miterlimit:4;stroke-dasharray:none" />
        <path
           inkscape:connector-curvature="0"
           d="M 63,1 H 1 v 58 h 2 v 4 h 8 v -4 h 42 v 4 h 8 v -4 h 2 z M 9,61 H 5 v -2 h 4 z m 50,0 h -4 v -2 h 4 z m 2,-4 H 3 V 3 h 58 z"
           id="path4755"
           style="fill:#3366cc" />
        <path
           inkscape:connector-curvature="0"
           d="M 18,31 C 25.168,31 31,25.168 31,18 31,10.832 25.168,5 18,5 10.832,5 5,10.832 5,18 5,25.168 10.832,31 18,31 Z M 18,7 c 6.065,0 11,4.935 11,11 0,6.065 -4.935,11 -11,11 C 11.935,29 7,24.065 7,18 7,11.935 11.935,7 18,7 Z"
           id="path4757"
           style="fill:#3366cc" />
        <path
           inkscape:connector-curvature="0"
           d="m 15,18 c 0,1.654 1.346,3 3,3 1.654,0 3,-1.346 3,-3 0,-1.654 -1.346,-3 -3,-3 -0.414,0 -0.808,0.084 -1.168,0.237 l -4.064,-4.877 -1.537,1.28 4.132,4.959 C 15.139,17.019 15,17.491 15,18 Z m 4,0 c 0,0.551 -0.448,1 -1,1 -0.552,0 -1,-0.449 -1,-1 0,-0.551 0.448,-1 1,-1 0.552,0 1,0.449 1,1 z"
           id="path4759"
           style="fill:#3366cc" />
        <rect
           x="12"
           y="23"
           width="12"
           height="2"
           id="rect4761"
           style="fill:#3366cc" />
        <path
           inkscape:connector-curvature="0"
           d="M 46,31 C 53.168,31 59,25.168 59,18 59,10.832 53.168,5 46,5 38.832,5 33,10.832 33,18 c 0,7.168 5.832,13 13,13 z M 46,7 c 6.065,0 11,4.935 11,11 0,6.065 -4.935,11 -11,11 C 39.935,29 35,24.065 35,18 35,11.935 39.935,7 46,7 Z"
           id="path4763"
           style="fill:#3366cc" />
        <path
           inkscape:connector-curvature="0"
           d="m 46,21 c 1.654,0 3,-1.346 3,-3 0,-1.07 -0.567,-2.004 -1.412,-2.535 l 1.389,-6.248 -1.953,-0.434 -1.39,6.254 C 44.154,15.22 43,16.471 43,18 c 0,1.654 1.346,3 3,3 z m 0,-4 c 0.552,0 1,0.449 1,1 0,0.551 -0.448,1 -1,1 -0.552,0 -1,-0.449 -1,-1 0,-0.551 0.448,-1 1,-1 z"
           id="path4765"
           style="fill:#3366cc" />
        <rect
           x="50"
           y="23"
           width="2"
           height="2"
           id="rect4767"
           style="fill:#3366cc" />
        <rect
           x="40"
           y="23"
           width="8"
           height="2"
           id="rect4769"
           style="fill:#3366cc" />
        <path
           inkscape:connector-curvature="0"
           d="M 33,33 H 5 V 55 H 33 Z M 31,53 H 7 V 35 h 24 z"
           id="path4771"
           style="fill:#3366cc" />
        <polygon
           points="16.279,49 15.721,49 12.721,40 9,40 9,42 11.279,42 14.279,51 17.721,51 21.721,39 22.341,39 25.341,46 29,46 29,44 26.659,44 23.659,37 20.279,37 "
           id="polygon4773"
           style="fill:#3366cc" />
        <path
           inkscape:connector-curvature="0"
           d="m 42,33 h -6 v 6 h 6 z m -2,4 h -2 v -2 h 2 z"
           id="path4775"
           style="fill:#3366cc" />
        <path
           inkscape:connector-curvature="0"
           d="m 50,33 h -6 v 6 h 6 z m -2,4 h -2 v -2 h 2 z"
           id="path4777"
           style="fill:#3366cc" />
        <path
           inkscape:connector-curvature="0"
           d="m 52,39 h 6 v -6 h -6 z m 2,-4 h 2 v 2 h -2 z"
           id="path4779"
           style="fill:#3366cc" />
        <path
           inkscape:connector-curvature="0"
           d="m 36,47 h 6 v -6 h -6 z m 2,-4 h 2 v 2 h -2 z"
           id="path4781"
           style="fill:#3366cc" />
        <path
           inkscape:connector-curvature="0"
           d="m 44,47 h 6 v -6 h -6 z m 2,-4 h 2 v 2 h -2 z"
           id="path4783"
           style="fill:#3366cc" />
        <path
           inkscape:connector-curvature="0"
           d="m 52,47 h 6 v -6 h -6 z m 2,-4 h 2 v 2 h -2 z"
           id="path4785"
           style="fill:#3366cc" />
        <path
           inkscape:connector-curvature="0"
           d="M 36,55 H 58 V 49 H 36 Z m 20,-2 h -4 v -2 h 4 z M 38,51 h 12 v 2 H 38 Z"
           id="path4787"
           style="fill:#3366cc" />
      </g>
      <path
         sodipodi:nodetypes="cc"
         inkscape:connector-curvature="0"
         id="path861"
         d="M 36.615924,54.69831 H 56.39387"
         style="fill:none;stroke:#000000;stroke-width:1.05833328;stroke-linecap:round;stroke-linejoin:miter;stroke-miterlimit:4;stroke-dasharray:none;stroke-opacity:1;marker-end:url(#marker1181)" />
      <path
         sodipodi:nodetypes="cc"
         inkscape:connector-curvature="0"
         id="path861-9"
         d="m 100.01938,54.688143 h 19.77796"
         style="fill:none;stroke:#3366cc;stroke-width:1.05833328;stroke-linecap:round;stroke-linejoin:miter;stroke-miterlimit:4;stroke-dasharray:none;stroke-opacity:1;marker-end:url(#marker1181-0)" />
      <ellipse
         ry="1.2027128"
         rx="1.5367997"
         cy="43.233379"
         cx="73.546761"
         id="path20873"
         style="fill:none;stroke:#3366cc;stroke-width:0.70555556;stroke-linecap:round;stroke-miterlimit:4;stroke-dasharray:none" />
      <ellipse
         ry="8.2463284"
         rx="20.182829"
         cy="27.999016"
         cx="72.344032"
         id="path20875"
         style="fill:none;stroke:#3366cc;stroke-width:0.70555556;stroke-linecap:round;stroke-miterlimit:4;stroke-dasharray:none" />
      <ellipse
         ry="2.0713387"
         rx="2.6726952"
         cy="39.424782"
         cx="69.738174"
         id="path20875-8"
         style="fill:none;stroke:#3366cc;stroke-width:0.70555556;stroke-linecap:round;stroke-miterlimit:4;stroke-dasharray:none" />
      <g
         id="text4901-2-4"
         style="font-style:italic;font-variant:normal;font-weight:normal;font-stretch:normal;font-size:8.76033211px;line-height:1.25;font-family:'CMU Concrete';-inkscape-font-specification:'CMU Concrete Italic';text-align:center;letter-spacing:0px;word-spacing:0px;text-anchor:middle;fill:#000000;fill-opacity:1;stroke:none;stroke-width:0.23465174"
         aria-label="y=x+2">
        <path
           inkscape:connector-curvature="0"
           id="path878"
           style="font-style:italic;font-variant:normal;font-weight:normal;font-stretch:normal;font-size:8.76033211px;font-family:'CMU Concrete';-inkscape-font-specification:'CMU Concrete Italic';text-align:center;text-anchor:middle;stroke-width:0.23465174;fill:#3366cc"
           d="m 55.133868,27.007339 q 0,-0.08555 0.08127,-0.29087 0.08127,-0.209598 0.230985,-0.453416 0.149713,-0.243818 0.414918,-0.427751 0.269483,-0.183932 0.568908,-0.183932 0.325091,0 0.521856,0.209597 0.196765,0.209598 0.196765,0.517579 0,0.183932 -0.30798,1.009491 -0.30798,0.821281 -0.30798,1.240477 0,0.3422 0.1711,0.483358 0.1711,0.13688 0.406363,0.13688 0.35931,0 0.675846,-0.350755 0.316535,-0.355033 0.474803,-0.988104 0.509023,-1.997596 0.517578,-2.014706 0.106938,-0.192487 0.303703,-0.192487 0.09838,0 0.1711,0.06844 0.07699,0.06416 0.07699,0.166822 0,0.05133 -0.04705,0.230986 l -0.838391,3.370674 q -0.166823,0.667291 -0.466248,1.060822 -0.218153,0.282315 -0.534689,0.500468 -0.517578,0.367866 -1.086486,0.367866 -0.393531,0 -0.650181,-0.205321 -0.252373,-0.201042 -0.252373,-0.521855 0,-0.252373 0.13688,-0.380698 0.13688,-0.128326 0.295148,-0.128326 0.124048,0 0.205321,0.07272 0.08127,0.077 0.08127,0.18821 0,0.149713 -0.141158,0.307981 0.183933,0.149712 0.414918,0.149712 0.384976,0 0.744287,-0.286593 0.35931,-0.282315 0.543243,-0.731453 0.03422,-0.08555 0.149712,-0.509023 -0.44486,0.3422 -0.885443,0.3422 -0.440583,0 -0.752841,-0.235263 -0.307981,-0.235262 -0.307981,-0.795616 0,-0.491913 0.299426,-1.347414 0.303703,-0.859779 0.303703,-0.949606 0,-0.124048 -0.06416,-0.196766 -0.06416,-0.07272 -0.162545,-0.07272 -0.376421,0 -0.667291,0.804171 -0.03422,0.09838 -0.08555,0.11977 -0.05133,0.02139 -0.226708,0.02139 -0.201043,0 -0.201043,-0.106938 z" />
        <path
           inkscape:connector-curvature="0"
           id="path880"
           style="font-style:italic;font-variant:normal;font-weight:normal;font-stretch:normal;font-size:8.76033211px;font-family:'CMU Concrete';-inkscape-font-specification:'CMU Concrete Italic';text-align:center;text-anchor:middle;stroke-width:0.23465174;fill:#3366cc"
           d="m 60.078665,28.427471 q 0,-0.201043 0.218153,-0.243818 0.05989,-0.0086 0.192488,-0.0086 h 5.073122 q 0.333645,0 0.329368,0.260928 0,0.252373 -0.329368,0.252373 h -5.14584 q -0.337923,0 -0.337923,-0.260928 z m 0.453416,-1.805108 q 0,-0.260927 0.333645,-0.260927 h 5.141562 q 0.342201,0 0.342201,0.260927 0,0.252373 -0.342201,0.252373 h -5.141562 q -0.333645,0 -0.333645,-0.252373 z" />
        <path
           inkscape:connector-curvature="0"
           id="path885"
           style="font-style:italic;font-variant:normal;font-weight:normal;font-stretch:normal;font-size:8.76033211px;font-family:'CMU Concrete';-inkscape-font-specification:'CMU Concrete Italic';text-align:center;text-anchor:middle;fill:#3366cc;stroke-width:0.23465174"
           d="m 76.841902,27.084865 q 0,-0.260928 0.3422,-0.260928 h 2.365461 q 0.02567,-0.106937 0.586018,-2.339795 0.05988,-0.316536 0.278038,-0.316536 0.106938,0 0.179655,0.08127 0.07699,0.077 0.07699,0.1711 0,0.05989 -0.03422,0.183933 l -0.551798,2.220025 h 2.224303 q 0.350756,0 0.350756,0.260928 0,0.252373 -0.333646,0.252373 h -2.374016 l -0.577463,2.314131 q -0.07699,0.350755 -0.29087,0.350755 -0.09838,0 -0.171101,-0.07272 -0.07272,-0.06844 -0.07272,-0.188211 l 0.586026,-2.403952 h -2.249968 q -0.333645,0 -0.333645,-0.252373 z" />
        <path
           inkscape:connector-curvature="0"
           id="path887"
           style="font-style:italic;font-variant:normal;font-weight:normal;font-stretch:normal;font-size:8.76033211px;font-family:'CMU Concrete';-inkscape-font-specification:'CMU Concrete Italic';text-align:center;text-anchor:middle;fill:#3366cc;stroke-width:0.23465174"
           d="m 83.527643,29.903708 q 0,-0.077 0.08127,-0.295148 0.08555,-0.22243 0.243818,-0.538966 0.162545,-0.320812 0.491913,-0.680123 0.329368,-0.35931 0.731454,-0.607406 0.158267,-0.09838 0.440583,-0.230985 0.286593,-0.13688 0.504745,-0.23954 0.222431,-0.106938 0.474804,-0.278038 0.252372,-0.171101 0.423473,-0.359311 0.1711,-0.18821 0.286593,-0.474803 0.115492,-0.29087 0.115492,-0.633071 0,-0.483358 -0.295148,-0.688678 -0.295148,-0.205321 -0.688678,-0.205321 -0.641626,0 -1.103597,0.483359 -0.46197,0.483358 -0.46197,0.885443 0,0.209598 0.166822,0.209598 0.218153,0 0.427751,-0.278038 0.209598,-0.282315 0.209598,-0.491913 0,-0.05988 -0.0385,-0.141158 -0.0385,-0.08555 -0.0385,-0.124047 0,-0.06844 0.149712,-0.192488 0.153991,-0.128325 0.218153,-0.128325 0.08555,0 0.162545,0.166822 0.08127,0.162546 0.08127,0.329368 0,0.410641 -0.389253,0.898277 -0.389253,0.487635 -0.889721,0.487635 -0.260928,0 -0.423473,-0.179655 -0.162546,-0.179655 -0.162546,-0.461971 0,-0.65018 0.645904,-1.313194 0.650181,-0.663013 1.527069,-0.663013 0.675846,0 1.103597,0.363588 0.427751,0.35931 0.427751,1.035156 0,1.069377 -0.962439,1.736668 -0.384976,0.269482 -0.885444,0.49619 -0.500468,0.222431 -0.872611,0.466248 -0.372143,0.243818 -0.740009,0.710066 0.350756,0.0086 0.928219,0.209598 0.577463,0.201043 0.868334,0.201043 0.35931,0 0.607406,-0.269483 0.252372,-0.27376 0.372143,-0.624516 0.0086,-0.01711 0.01711,-0.04705 0.0086,-0.02994 0.01283,-0.0385 0.0043,-0.0086 0.01711,-0.02994 0.01711,-0.02567 0.02994,-0.03422 0.01283,-0.0086 0.02994,-0.01711 0.01711,-0.0086 0.04705,-0.01283 0.02994,-0.0043 0.06416,-0.0043 h 0.141158 q 0.175378,0 0.175378,0.106938 0,0.10266 -0.111215,0.346478 -0.106938,0.23954 -0.295148,0.530411 -0.18821,0.286593 -0.513301,0.504745 -0.32509,0.213876 -0.692956,0.213876 -0.32509,0 -0.923941,-0.256651 -0.598851,-0.260927 -0.799894,-0.260927 -0.08555,0 -0.124047,0.0086 -0.149713,0.04278 -0.252373,0.25665 -0.09838,0.213875 -0.115493,0.230985 -0.02567,0.01711 -0.128325,0.02139 h -0.115493 q -0.124047,0 -0.162545,-0.02139 -0.0385,-0.01711 -0.0385,-0.077 z" />
        <g
           aria-label="-2"
           style="font-style:italic;font-variant:normal;font-weight:500;font-stretch:normal;font-size:10.58333302px;line-height:1.25;font-family:'CMU Concrete';-inkscape-font-specification:'CMU Concrete Medium Italic';letter-spacing:0px;word-spacing:0px;fill:#000000;fill-opacity:1;stroke:none;stroke-width:0.34235829"
           id="text20823-9"
           transform="matrix(0.77282584,0,0,0.77282584,51.630236,-13.130801)">
          <path
             d="m 21.431552,53.073527 q 0,-0.201538 0.10852,-0.392741 0.06201,-0.103353 0.232544,-0.10852 h 2.273763 q 0.273885,0 0.273885,0.191203 -0.04134,0.39274 -0.186035,0.475423 -0.05168,0.02067 -0.160197,0.02584 h -2.273763 q -0.268717,0 -0.268717,-0.191203 z"
             style="stroke-width:0.34235829"
             id="path20825-5"
             inkscape:connector-curvature="0" />
          <path
             d="m 25.369296,55.34729 q 0,-0.09302 0.09819,-0.356567 0.103353,-0.268718 0.294555,-0.651123 0.196371,-0.387574 0.594279,-0.821656 0.397909,-0.434082 0.883667,-0.733805 0.191203,-0.118856 0.532268,-0.279053 0.346232,-0.165364 0.609781,-0.289388 0.268718,-0.129191 0.573609,-0.335896 0.304891,-0.206706 0.511597,-0.434082 0.206705,-0.227377 0.346232,-0.573609 0.139526,-0.3514 0.139526,-0.764811 0,-0.583944 -0.356567,-0.831991 -0.356568,-0.248046 -0.831991,-0.248046 -0.775146,0 -1.333252,0.583943 -0.558105,0.583944 -0.558105,1.069702 0,0.253215 0.201538,0.253215 0.26355,0 0.516764,-0.335897 0.253215,-0.341064 0.253215,-0.594279 0,-0.07235 -0.04651,-0.170532 -0.04651,-0.103353 -0.04651,-0.149862 0,-0.08268 0.180868,-0.232544 0.186035,-0.155029 0.263549,-0.155029 0.103353,0 0.196371,0.201538 0.09819,0.196371 0.09819,0.397909 0,0.496093 -0.470256,1.085205 -0.470255,0.589111 -1.074869,0.589111 -0.315227,0 -0.511597,-0.217041 -0.19637,-0.217041 -0.19637,-0.558106 0,-0.785481 0.780314,-1.586466 0.785481,-0.800985 1.844848,-0.800985 0.816488,0 1.333252,0.43925 0.516765,0.434082 0.516765,1.25057 0,1.29191 -1.16272,2.098063 -0.465088,0.325561 -1.069702,0.599446 -0.604615,0.268718 -1.054199,0.563273 -0.449585,0.294556 -0.894003,0.857829 0.423747,0.01034 1.121379,0.253215 0.697632,0.242879 1.049031,0.242879 0.434082,0 0.733806,-0.325562 0.304891,-0.330729 0.449585,-0.754475 0.01034,-0.02067 0.02067,-0.05685 0.01033,-0.03617 0.0155,-0.04651 0.0052,-0.01034 0.02067,-0.03617 0.02067,-0.03101 0.03617,-0.04134 0.0155,-0.01033 0.03617,-0.02067 0.02067,-0.01033 0.05684,-0.0155 0.03617,-0.0052 0.07751,-0.0052 h 0.170533 q 0.211873,0 0.211873,0.129191 0,0.124023 -0.134359,0.418579 -0.129191,0.289388 -0.356567,0.640788 -0.227376,0.346232 -0.620117,0.609782 -0.392741,0.258382 -0.837158,0.258382 -0.392741,0 -1.116211,-0.310059 -0.72347,-0.315226 -0.96635,-0.315226 -0.103352,0 -0.149861,0.01034 -0.180868,0.05168 -0.304891,0.310059 -0.118856,0.258382 -0.139527,0.279053 -0.03101,0.02067 -0.155029,0.02584 h -0.139526 q -0.149862,0 -0.196371,-0.02584 -0.04651,-0.02067 -0.04651,-0.09302 z"
             style="stroke-width:0.34235829"
             id="path20827-0"
             inkscape:connector-curvature="0" />
        </g>
      </g>
      <g
         aria-label="-2"
         style="font-style:italic;font-variant:normal;font-weight:500;font-stretch:normal;font-size:10.58333302px;line-height:1.25;font-family:'CMU Concrete';-inkscape-font-specification:'CMU Concrete Medium Italic';letter-spacing:0px;word-spacing:0px;fill:#000000;fill-opacity:1;stroke:none;stroke-width:0.26458332"
         id="text20823"
         transform="translate(2.0045214,2.4054257)">
        <path
           d="m 21.431552,53.073527 q 0,-0.201538 0.10852,-0.392741 0.06201,-0.103353 0.232544,-0.10852 h 2.273763 q 0.273885,0 0.273885,0.191203 -0.04134,0.39274 -0.186035,0.475423 -0.05168,0.02067 -0.160197,0.02584 h -2.273763 q -0.268717,0 -0.268717,-0.191203 z"
           style="stroke-width:0.26458332"
           id="path20825"
           inkscape:connector-curvature="0" />
        <path
           d="m 25.369296,55.34729 q 0,-0.09302 0.09819,-0.356567 0.103353,-0.268718 0.294555,-0.651123 0.196371,-0.387574 0.594279,-0.821656 0.397909,-0.434082 0.883667,-0.733805 0.191203,-0.118856 0.532268,-0.279053 0.346232,-0.165364 0.609781,-0.289388 0.268718,-0.129191 0.573609,-0.335896 0.304891,-0.206706 0.511597,-0.434082 0.206705,-0.227377 0.346232,-0.573609 0.139526,-0.3514 0.139526,-0.764811 0,-0.583944 -0.356567,-0.831991 -0.356568,-0.248046 -0.831991,-0.248046 -0.775146,0 -1.333252,0.583943 -0.558105,0.583944 -0.558105,1.069702 0,0.253215 0.201538,0.253215 0.26355,0 0.516764,-0.335897 0.253215,-0.341064 0.253215,-0.594279 0,-0.07235 -0.04651,-0.170532 -0.04651,-0.103353 -0.04651,-0.149862 0,-0.08268 0.180868,-0.232544 0.186035,-0.155029 0.263549,-0.155029 0.103353,0 0.196371,0.201538 0.09819,0.196371 0.09819,0.397909 0,0.496093 -0.470256,1.085205 -0.470255,0.589111 -1.074869,0.589111 -0.315227,0 -0.511597,-0.217041 -0.19637,-0.217041 -0.19637,-0.558106 0,-0.785481 0.780314,-1.586466 0.785481,-0.800985 1.844848,-0.800985 0.816488,0 1.333252,0.43925 0.516765,0.434082 0.516765,1.25057 0,1.29191 -1.16272,2.098063 -0.465088,0.325561 -1.069702,0.599446 -0.604615,0.268718 -1.054199,0.563273 -0.449585,0.294556 -0.894003,0.857829 0.423747,0.01034 1.121379,0.253215 0.697632,0.242879 1.049031,0.242879 0.434082,0 0.733806,-0.325562 0.304891,-0.330729 0.449585,-0.754475 0.01034,-0.02067 0.02067,-0.05685 0.01033,-0.03617 0.0155,-0.04651 0.0052,-0.01034 0.02067,-0.03617 0.02067,-0.03101 0.03617,-0.04134 0.0155,-0.01033 0.03617,-0.02067 0.02067,-0.01033 0.05684,-0.0155 0.03617,-0.0052 0.07751,-0.0052 h 0.170533 q 0.211873,0 0.211873,0.129191 0,0.124023 -0.134359,0.418579 -0.129191,0.289388 -0.356567,0.640788 -0.227376,0.346232 -0.620117,0.609782 -0.392741,0.258382 -0.837158,0.258382 -0.392741,0 -1.116211,-0.310059 -0.72347,-0.315226 -0.96635,-0.315226 -0.103352,0 -0.149861,0.01034 -0.180868,0.05168 -0.304891,0.310059 -0.118856,0.258382 -0.139527,0.279053 -0.03101,0.02067 -0.155029,0.02584 h -0.139526 q -0.149862,0 -0.196371,-0.02584 -0.04651,-0.02067 -0.04651,-0.09302 z"
           style="stroke-width:0.26458332"
           id="path20827"
           inkscape:connector-curvature="0" />
      </g>
      <g
         aria-label="0"
         style="font-style:italic;font-variant:normal;font-weight:500;font-stretch:normal;font-size:10.58333302px;line-height:1.25;font-family:'CMU Concrete';-inkscape-font-specification:'CMU Concrete Medium Italic';letter-spacing:0px;word-spacing:0px;fill:#3366cc;fill-opacity:1;stroke:none;stroke-width:0.26458332"
         id="text20853"
         transform="translate(-5.8799296,1.6036172)">
        <path
           d="m 132.44288,54.922195 q 0,-0.625284 0.26355,-1.684651 0.12919,-0.516764 0.24288,-0.89917 0.11885,-0.382406 0.37723,-0.935343 0.25839,-0.558106 0.55811,-0.909506 0.30489,-0.356567 0.79065,-0.620117 0.48576,-0.26355 1.08004,-0.26355 1.55546,0 1.55546,1.741496 0,0.697632 -0.25322,1.684652 -0.3514,1.472778 -0.82682,2.242757 -0.84749,1.384928 -2.23242,1.390096 -1.55546,0 -1.55546,-1.746664 z m 0.75964,-0.02067 q 0,1.142049 0.96635,1.142049 0.60461,0 1.09037,-0.511597 0.37207,-0.392741 0.60462,-1.028361 0.23254,-0.640787 0.5271,-1.870686 0.1912,-0.759644 0.1912,-1.302246 0,-1.100708 -0.97669,-1.100708 -0.40307,0 -0.72863,0.19637 -0.32557,0.19637 -0.5271,0.465088 -0.20154,0.26355 -0.38241,0.707967 -0.18087,0.444417 -0.26872,0.754476 -0.0827,0.310058 -0.19637,0.790649 -0.0413,0.180868 -0.0672,0.26355 0,0.01033 -0.031,0.129191 -0.031,0.113688 -0.062,0.258382 -0.031,0.139527 -0.062,0.325562 -0.031,0.186035 -0.0568,0.392741 -0.0207,0.206705 -0.0207,0.387573 z"
           style="fill:#3366cc;stroke-width:0.26458332"
           id="path20855"
           inkscape:connector-curvature="0" />
      </g>
    </g>
  </g>
</svg>
