<?xml version="1.0" encoding="UTF-8" standalone="no"?>
<!-- Created with Inkscape (http://www.inkscape.org/) -->

<svg
   xmlns:dc="http://purl.org/dc/elements/1.1/"
   xmlns:cc="http://creativecommons.org/ns#"
   xmlns:rdf="http://www.w3.org/1999/02/22-rdf-syntax-ns#"
   xmlns:svg="http://www.w3.org/2000/svg"
   xmlns="http://www.w3.org/2000/svg"
   xmlns:sodipodi="http://sodipodi.sourceforge.net/DTD/sodipodi-0.dtd"
   xmlns:inkscape="http://www.inkscape.org/namespaces/inkscape"
   width="123.38058mm"
   height="36.00613mm"
   viewBox="0 0 123.38058 36.006131"
   version="1.1"
   id="svg8"
   inkscape:version="0.92.3 (unknown)"
   sodipodi:docname="conveyor_plain.svg">
  <defs
     id="defs2">
    <marker
       inkscape:stockid="Arrow2Mend"
       orient="auto"
       refY="0"
       refX="0"
       id="marker1181"
       style="overflow:visible"
       inkscape:isstock="true">
      <path
         id="path1179"
         style="fill:#000000;fill-opacity:1;fill-rule:evenodd;stroke:#000000;stroke-width:0.625;stroke-linejoin:round;stroke-opacity:1"
         d="M 8.7185878,4.0337352 -2.2072895,0.01601326 8.7185884,-4.0017078 c -1.7454984,2.3720609 -1.7354408,5.6174519 -6e-7,8.035443 z"
         transform="scale(-0.6)"
         inkscape:connector-curvature="0" />
    </marker>
    <marker
       inkscape:stockid="Arrow2Send"
       orient="auto"
       refY="0"
       refX="0"
       id="Arrow2Send"
       style="overflow:visible"
       inkscape:isstock="true">
      <path
         id="path896"
         style="fill:#000000;fill-opacity:1;fill-rule:evenodd;stroke:#000000;stroke-width:0.625;stroke-linejoin:round;stroke-opacity:1"
         d="M 8.7185878,4.0337352 -2.2072895,0.01601326 8.7185884,-4.0017078 c -1.7454984,2.3720609 -1.7354408,5.6174519 -6e-7,8.035443 z"
         transform="matrix(-0.3,0,0,-0.3,0.69,0)"
         inkscape:connector-curvature="0" />
    </marker>
    <marker
       inkscape:stockid="Arrow2Mend"
       orient="auto"
       refY="0"
       refX="0"
       id="Arrow2Mend"
       style="overflow:visible"
       inkscape:isstock="true">
      <path
         id="path890"
         style="fill:#000000;fill-opacity:1;fill-rule:evenodd;stroke:#000000;stroke-width:0.625;stroke-linejoin:round;stroke-opacity:1"
         d="M 8.7185878,4.0337352 -2.2072895,0.01601326 8.7185884,-4.0017078 c -1.7454984,2.3720609 -1.7354408,5.6174519 -6e-7,8.035443 z"
         transform="scale(-0.6)"
         inkscape:connector-curvature="0" />
    </marker>
    <marker
       inkscape:stockid="Arrow2Lend"
       orient="auto"
       refY="0"
       refX="0"
       id="Arrow2Lend"
       style="overflow:visible"
       inkscape:isstock="true">
      <path
         id="path884"
         style="fill:#000000;fill-opacity:1;fill-rule:evenodd;stroke:#000000;stroke-width:0.625;stroke-linejoin:round;stroke-opacity:1"
         d="M 8.7185878,4.0337352 -2.2072895,0.01601326 8.7185884,-4.0017078 c -1.7454984,2.3720609 -1.7354408,5.6174519 -6e-7,8.035443 z"
         transform="matrix(-1.1,0,0,-1.1,-1.1,0)"
         inkscape:connector-curvature="0" />
    </marker>
    <marker
       inkscape:stockid="Arrow2Mend"
       orient="auto"
       refY="0"
       refX="0"
       id="marker1181-0"
       style="overflow:visible"
       inkscape:isstock="true">
      <path
         inkscape:connector-curvature="0"
         id="path1179-7"
         style="fill:#000000;fill-opacity:1;fill-rule:evenodd;stroke:#000000;stroke-width:0.625;stroke-linejoin:round;stroke-opacity:1"
         d="M 8.7185878,4.0337352 -2.2072895,0.01601326 8.7185884,-4.0017078 c -1.7454984,2.3720609 -1.7354408,5.6174519 -6e-7,8.035443 z"
         transform="scale(-0.6)" />
    </marker>
  </defs>
  <sodipodi:namedview
     id="base"
     pagecolor="#ffffff"
     bordercolor="#666666"
     borderopacity="1.0"
     inkscape:pageopacity="0.0"
     inkscape:pageshadow="2"
     inkscape:zoom="2.8"
     inkscape:cx="239.11422"
     inkscape:cy="79.00448"
     inkscape:document-units="mm"
     inkscape:current-layer="layer1"
     showgrid="false"
     inkscape:window-width="1920"
     inkscape:window-height="1052"
     inkscape:window-x="1600"
     inkscape:window-y="0"
     inkscape:window-maximized="1" />
  <metadata
     id="metadata5">
    <rdf:RDF>
      <cc:Work
         rdf:about="">
        <dc:format>image/svg+xml</dc:format>
        <dc:type
           rdf:resource="http://purl.org/dc/dcmitype/StillImage" />
        <dc:title />
      </cc:Work>
    </rdf:RDF>
  </metadata>
  <g
     inkscape:label="Layer 1"
     inkscape:groupmode="layer"
     id="layer1"
     transform="translate(-16.417898,-45.313154)">
    <circle
       style="fill:#000000;stroke:none;stroke-width:1.05833328;stroke-linecap:round;stroke-miterlimit:4;stroke-dasharray:none"
       id="path20300"
       cx="21.496017"
       cy="68.60849"
       r="2.80633" />
    <circle
       style="fill:#000000;stroke:none;stroke-width:1.05833328;stroke-linecap:round;stroke-miterlimit:4;stroke-dasharray:none"
       id="path20300-9"
       cx="134.8183"
       cy="68.60849"
       r="2.80633" />
    <circle
       style="fill:#000000;stroke:none;stroke-width:1.05833328;stroke-linecap:round;stroke-miterlimit:4;stroke-dasharray:none"
       id="path20300-2"
       cx="30.213116"
       cy="68.60849"
       r="2.80633" />
    <circle
       style="fill:#000000;stroke:none;stroke-width:1.05833328;stroke-linecap:round;stroke-miterlimit:4;stroke-dasharray:none"
       id="path20300-2-3"
       cx="38.930214"
       cy="68.60849"
       r="2.80633" />
    <circle
       style="fill:#000000;stroke:none;stroke-width:1.05833328;stroke-linecap:round;stroke-miterlimit:4;stroke-dasharray:none"
       id="path20300-2-3-6"
       cx="47.647312"
       cy="68.60849"
       r="2.80633" />
    <circle
       style="fill:#000000;stroke:none;stroke-width:1.05833328;stroke-linecap:round;stroke-miterlimit:4;stroke-dasharray:none"
       id="path20300-2-3-6-6"
       cx="56.36441"
       cy="68.60849"
       r="2.80633" />
    <circle
       style="fill:#000000;stroke:none;stroke-width:1.05833328;stroke-linecap:round;stroke-miterlimit:4;stroke-dasharray:none"
       id="path20300-2-3-6-6-7"
       cx="65.081505"
       cy="68.60849"
       r="2.80633" />
    <circle
       style="fill:#000000;stroke:none;stroke-width:1.05833328;stroke-linecap:round;stroke-miterlimit:4;stroke-dasharray:none"
       id="path20300-2-3-6-6-7-7"
       cx="73.798607"
       cy="68.60849"
       r="2.80633" />
    <circle
       style="fill:#000000;stroke:none;stroke-width:1.05833328;stroke-linecap:round;stroke-miterlimit:4;stroke-dasharray:none"
       id="path20300-2-3-6-6-7-7-4"
       cx="82.515701"
       cy="68.60849"
       r="2.80633" />
    <circle
       style="fill:#000000;stroke:none;stroke-width:1.05833328;stroke-linecap:round;stroke-miterlimit:4;stroke-dasharray:none"
       id="path20300-2-3-6-6-7-7-4-6"
       cx="126.1012"
       cy="68.60849"
       r="2.80633" />
    <circle
       style="fill:#000000;stroke:none;stroke-width:1.05833328;stroke-linecap:round;stroke-miterlimit:4;stroke-dasharray:none"
       id="path20300-2-3-6-6-7-7-4-6-9"
       cx="117.3841"
       cy="68.60849"
       r="2.80633" />
    <circle
       style="fill:#000000;stroke:none;stroke-width:1.05833328;stroke-linecap:round;stroke-miterlimit:4;stroke-dasharray:none"
       id="path20300-2-3-6-6-7-7-4-6-9-6"
       cx="108.66701"
       cy="68.60849"
       r="2.80633" />
    <circle
       style="fill:#000000;stroke:none;stroke-width:1.05833328;stroke-linecap:round;stroke-miterlimit:4;stroke-dasharray:none"
       id="path20300-2-3-6-6-7-7-4-6-9-6-0"
       cx="99.949905"
       cy="68.60849"
       r="2.80633" />
    <circle
       style="fill:#000000;stroke:none;stroke-width:1.05833328;stroke-linecap:round;stroke-miterlimit:4;stroke-dasharray:none"
       id="path20300-2-3-6-6-7-7-4-6-9-6-0-9"
       cx="91.232811"
       cy="68.60849"
       r="2.80633" />
    <path
       style="color:#000000;font-style:normal;font-variant:normal;font-weight:normal;font-stretch:normal;font-size:medium;line-height:normal;font-family:sans-serif;font-variant-ligatures:normal;font-variant-position:normal;font-variant-caps:normal;font-variant-numeric:normal;font-variant-alternates:normal;font-feature-settings:normal;text-indent:0;text-align:start;text-decoration:none;text-decoration-line:none;text-decoration-style:solid;text-decoration-color:#000000;letter-spacing:normal;word-spacing:normal;text-transform:none;writing-mode:lr-tb;direction:ltr;text-orientation:mixed;dominant-baseline:auto;baseline-shift:baseline;text-anchor:start;white-space:normal;shape-padding:0;clip-rule:nonzero;display:inline;overflow:visible;visibility:visible;opacity:1;isolation:auto;mix-blend-mode:normal;color-interpolation:sRGB;color-interpolation-filters:linearRGB;solid-color:#000000;solid-opacity:1;vector-effect:none;fill:none;fill-opacity:1;fill-rule:nonzero;stroke:#000000;stroke-width:1.35895276;stroke-linecap:round;stroke-linejoin:miter;stroke-miterlimit:4;stroke-dasharray:none;stroke-dashoffset:0;stroke-opacity:1;color-rendering:auto;image-rendering:auto;shape-rendering:auto;text-rendering:auto;enable-background:accumulate"
       d="m 21.210407,64.531382 c -5.484044,-0.04811 -5.484044,8.20233 0,8.154218 H 135.00597 c 5.48404,0.04811 5.48404,-8.20233 0,-8.154218 z"
       id="path4893"
       inkscape:connector-curvature="0"
       sodipodi:nodetypes="ccccc" />
    <g
       transform="matrix(0.58074403,0,0,0.58074403,59.524378,44.73241)"
       style="fill:#000000"
       id="g4789">
      <rect
         style="fill:#ffffff;stroke:none;stroke-width:2.94455934;stroke-linecap:round;stroke-miterlimit:4;stroke-dasharray:none"
         id="rect4897"
         width="58"
         height="54"
         x="2.9999995"
         y="2.9999983" />
      <path
         id="path4755"
         d="M 63,1 H 1 v 58 h 2 v 4 h 8 v -4 h 42 v 4 h 8 v -4 h 2 z M 9,61 H 5 v -2 h 4 z m 50,0 h -4 v -2 h 4 z m 2,-4 H 3 V 3 h 58 z"
         inkscape:connector-curvature="0" />
      <path
         id="path4757"
         d="M 18,31 C 25.168,31 31,25.168 31,18 31,10.832 25.168,5 18,5 10.832,5 5,10.832 5,18 5,25.168 10.832,31 18,31 Z M 18,7 c 6.065,0 11,4.935 11,11 0,6.065 -4.935,11 -11,11 C 11.935,29 7,24.065 7,18 7,11.935 11.935,7 18,7 Z"
         inkscape:connector-curvature="0" />
      <path
         id="path4759"
         d="m 15,18 c 0,1.654 1.346,3 3,3 1.654,0 3,-1.346 3,-3 0,-1.654 -1.346,-3 -3,-3 -0.414,0 -0.808,0.084 -1.168,0.237 l -4.064,-4.877 -1.537,1.28 4.132,4.959 C 15.139,17.019 15,17.491 15,18 Z m 4,0 c 0,0.551 -0.448,1 -1,1 -0.552,0 -1,-0.449 -1,-1 0,-0.551 0.448,-1 1,-1 0.552,0 1,0.449 1,1 z"
         inkscape:connector-curvature="0" />
      <rect
         id="rect4761"
         height="2"
         width="12"
         y="23"
         x="12" />
      <path
         id="path4763"
         d="M 46,31 C 53.168,31 59,25.168 59,18 59,10.832 53.168,5 46,5 38.832,5 33,10.832 33,18 c 0,7.168 5.832,13 13,13 z M 46,7 c 6.065,0 11,4.935 11,11 0,6.065 -4.935,11 -11,11 C 39.935,29 35,24.065 35,18 35,11.935 39.935,7 46,7 Z"
         inkscape:connector-curvature="0" />
      <path
         id="path4765"
         d="m 46,21 c 1.654,0 3,-1.346 3,-3 0,-1.07 -0.567,-2.004 -1.412,-2.535 l 1.389,-6.248 -1.953,-0.434 -1.39,6.254 C 44.154,15.22 43,16.471 43,18 c 0,1.654 1.346,3 3,3 z m 0,-4 c 0.552,0 1,0.449 1,1 0,0.551 -0.448,1 -1,1 -0.552,0 -1,-0.449 -1,-1 0,-0.551 0.448,-1 1,-1 z"
         inkscape:connector-curvature="0" />
      <rect
         id="rect4767"
         height="2"
         width="2"
         y="23"
         x="50" />
      <rect
         id="rect4769"
         height="2"
         width="8"
         y="23"
         x="40" />
      <path
         id="path4771"
         d="M 33,33 H 5 V 55 H 33 Z M 31,53 H 7 V 35 h 24 z"
         inkscape:connector-curvature="0" />
      <polygon
         id="polygon4773"
         points="14.279,51 17.721,51 21.721,39 22.341,39 25.341,46 29,46 29,44 26.659,44 23.659,37 20.279,37 16.279,49 15.721,49 12.721,40 9,40 9,42 11.279,42 " />
      <path
         id="path4775"
         d="m 42,33 h -6 v 6 h 6 z m -2,4 h -2 v -2 h 2 z"
         inkscape:connector-curvature="0" />
      <path
         id="path4777"
         d="m 50,33 h -6 v 6 h 6 z m -2,4 h -2 v -2 h 2 z"
         inkscape:connector-curvature="0" />
      <path
         id="path4779"
         d="m 52,39 h 6 v -6 h -6 z m 2,-4 h 2 v 2 h -2 z"
         inkscape:connector-curvature="0" />
      <path
         id="path4781"
         d="m 36,47 h 6 v -6 h -6 z m 2,-4 h 2 v 2 h -2 z"
         inkscape:connector-curvature="0" />
      <path
         id="path4783"
         d="m 44,47 h 6 v -6 h -6 z m 2,-4 h 2 v 2 h -2 z"
         inkscape:connector-curvature="0" />
      <path
         id="path4785"
         d="m 52,47 h 6 v -6 h -6 z m 2,-4 h 2 v 2 h -2 z"
         inkscape:connector-curvature="0" />
      <path
         id="path4787"
         d="M 36,55 H 58 V 49 H 36 Z m 20,-2 h -4 v -2 h 4 z M 38,51 h 12 v 2 H 38 Z"
         inkscape:connector-curvature="0" />
    </g>
    <text
       xml:space="preserve"
       style="font-style:italic;font-variant:normal;font-weight:normal;font-stretch:normal;font-size:16.93333244px;line-height:1.25;font-family:'CMU Concrete';-inkscape-font-specification:'CMU Concrete Italic';letter-spacing:0px;word-spacing:0px;fill:#000000;fill-opacity:1;stroke:none;stroke-width:0.26458332"
       x="24.722435"
       y="58.565945"
       id="text4901"><tspan
         sodipodi:role="line"
         id="tspan4899"
         x="24.722435"
         y="58.565945"
         style="font-style:italic;font-variant:normal;font-weight:normal;font-stretch:normal;font-size:16.93333244px;font-family:'CMU Concrete';-inkscape-font-specification:'CMU Concrete Italic';stroke-width:0.26458332">x</tspan></text>
    <path
       style="fill:none;stroke:#000000;stroke-width:1.05833328;stroke-linecap:round;stroke-linejoin:miter;stroke-miterlimit:4;stroke-dasharray:none;stroke-opacity:1;marker-end:url(#marker1181)"
       d="M 36.615924,54.69831 H 56.39387"
       id="path861"
       inkscape:connector-curvature="0"
       sodipodi:nodetypes="cc" />
    <text
       xml:space="preserve"
       style="font-style:italic;font-variant:normal;font-weight:normal;font-stretch:normal;font-size:16.93333244px;line-height:1.25;font-family:'CMU Concrete';-inkscape-font-specification:'CMU Concrete Italic';letter-spacing:0px;word-spacing:0px;fill:#000000;fill-opacity:1;stroke:none;stroke-width:0.26458332"
       x="121.41341"
       y="58.565945"
       id="text4901-2"><tspan
         sodipodi:role="line"
         id="tspan4899-4"
         x="121.41341"
         y="58.565945"
         style="font-style:italic;font-variant:normal;font-weight:normal;font-stretch:normal;font-size:16.93333244px;font-family:'CMU Concrete';-inkscape-font-specification:'CMU Concrete Italic';stroke-width:0.26458332">y</tspan></text>
    <path
       style="fill:none;stroke:#000000;stroke-width:1.05833328;stroke-linecap:round;stroke-linejoin:miter;stroke-miterlimit:4;stroke-dasharray:none;stroke-opacity:1;marker-end:url(#marker1181-0)"
       d="m 100.01938,54.688143 h 19.77796"
       id="path861-9"
       inkscape:connector-curvature="0"
       sodipodi:nodetypes="cc" />
  </g>
</svg>
