<?xml version="1.0" encoding="UTF-8" standalone="no"?>
<!-- Created with Inkscape (http://www.inkscape.org/) -->

<svg
   xmlns:dc="http://purl.org/dc/elements/1.1/"
   xmlns:cc="http://creativecommons.org/ns#"
   xmlns:rdf="http://www.w3.org/1999/02/22-rdf-syntax-ns#"
   xmlns:svg="http://www.w3.org/2000/svg"
   xmlns="http://www.w3.org/2000/svg"
   xmlns:sodipodi="http://sodipodi.sourceforge.net/DTD/sodipodi-0.dtd"
   xmlns:inkscape="http://www.inkscape.org/namespaces/inkscape"
   width="150mm"
   height="80mm"
   viewBox="0 0 150 80.000002"
   version="1.1"
   id="svg8"
   inkscape:version="0.92.3 (unknown)"
   sodipodi:docname="conveyor_voorschrift.svg">
  <defs
     id="defs2">
    <marker
       inkscape:stockid="Arrow2Mend"
       orient="auto"
       refY="0"
       refX="0"
       id="marker1181"
       style="overflow:visible"
       inkscape:isstock="true">
      <path
         id="path1179"
         style="fill:#3366cc;fill-opacity:1;fill-rule:evenodd;stroke:#3366cc;stroke-width:0.625;stroke-linejoin:round;stroke-opacity:1"
         d="M 8.7185878,4.0337352 -2.2072895,0.01601326 8.7185884,-4.0017078 c -1.7454984,2.3720609 -1.7354408,5.6174519 -6e-7,8.035443 z"
         transform="scale(-0.6)"
         inkscape:connector-curvature="0" />
    </marker>
    <marker
       inkscape:stockid="Arrow2Send"
       orient="auto"
       refY="0"
       refX="0"
       id="Arrow2Send"
       style="overflow:visible"
       inkscape:isstock="true">
      <path
         id="path896"
         style="fill:#000000;fill-opacity:1;fill-rule:evenodd;stroke:#000000;stroke-width:0.625;stroke-linejoin:round;stroke-opacity:1"
         d="M 8.7185878,4.0337352 -2.2072895,0.01601326 8.7185884,-4.0017078 c -1.7454984,2.3720609 -1.7354408,5.6174519 -6e-7,8.035443 z"
         transform="matrix(-0.3,0,0,-0.3,0.69,0)"
         inkscape:connector-curvature="0" />
    </marker>
    <marker
       inkscape:stockid="Arrow2Mend"
       orient="auto"
       refY="0"
       refX="0"
       id="Arrow2Mend"
       style="overflow:visible"
       inkscape:isstock="true">
      <path
         id="path890"
         style="fill:#000000;fill-opacity:1;fill-rule:evenodd;stroke:#000000;stroke-width:0.625;stroke-linejoin:round;stroke-opacity:1"
         d="M 8.7185878,4.0337352 -2.2072895,0.01601326 8.7185884,-4.0017078 c -1.7454984,2.3720609 -1.7354408,5.6174519 -6e-7,8.035443 z"
         transform="scale(-0.6)"
         inkscape:connector-curvature="0" />
    </marker>
    <marker
       inkscape:stockid="Arrow2Lend"
       orient="auto"
       refY="0"
       refX="0"
       id="Arrow2Lend"
       style="overflow:visible"
       inkscape:isstock="true">
      <path
         id="path884"
         style="fill:#000000;fill-opacity:1;fill-rule:evenodd;stroke:#000000;stroke-width:0.625;stroke-linejoin:round;stroke-opacity:1"
         d="M 8.7185878,4.0337352 -2.2072895,0.01601326 8.7185884,-4.0017078 c -1.7454984,2.3720609 -1.7354408,5.6174519 -6e-7,8.035443 z"
         transform="matrix(-1.1,0,0,-1.1,-1.1,0)"
         inkscape:connector-curvature="0" />
    </marker>
    <marker
       inkscape:stockid="Arrow2Mend"
       orient="auto"
       refY="0"
       refX="0"
       id="marker1181-0"
       style="overflow:visible"
       inkscape:isstock="true">
      <path
         inkscape:connector-curvature="0"
         id="path1179-7"
         style="fill:#3366cc;fill-opacity:1;fill-rule:evenodd;stroke:#3366cc;stroke-width:0.625;stroke-linejoin:round;stroke-opacity:1"
         d="M 8.7185878,4.0337352 -2.2072895,0.01601326 8.7185884,-4.0017078 c -1.7454984,2.3720609 -1.7354408,5.6174519 -6e-7,8.035443 z"
         transform="scale(-0.6)" />
    </marker>
  </defs>
  <sodipodi:namedview
     id="base"
     pagecolor="#ffffff"
     bordercolor="#666666"
     borderopacity="1.0"
     inkscape:pageopacity="0.0"
     inkscape:pageshadow="2"
     inkscape:zoom="1.4"
     inkscape:cx="263.54643"
     inkscape:cy="185.9125"
     inkscape:document-units="mm"
     inkscape:current-layer="g4517"
     showgrid="false"
     inkscape:window-width="1920"
     inkscape:window-height="1018"
     inkscape:window-x="1600"
     inkscape:window-y="34"
     inkscape:window-maximized="1" />
  <metadata
     id="metadata5">
    <rdf:RDF>
      <cc:Work
         rdf:about="">
        <dc:format>image/svg+xml</dc:format>
        <dc:type
           rdf:resource="http://purl.org/dc/dcmitype/StillImage" />
        <dc:title />
      </cc:Work>
    </rdf:RDF>
  </metadata>
  <g
     inkscape:label="Layer 1"
     inkscape:groupmode="layer"
     id="layer1"
     transform="translate(-16.417898,-1.3192826)">
    <g
       id="g4517"
       transform="translate(13.309711,-9.0403142)">
      <circle
         r="2.80633"
         cy="68.60849"
         cx="21.496017"
         id="path20300"
         style="fill:#3366cc;stroke:none;stroke-width:1.05833328;stroke-linecap:round;stroke-miterlimit:4;stroke-dasharray:none" />
      <circle
         r="2.80633"
         cy="68.60849"
         cx="134.8183"
         id="path20300-9"
         style="fill:#3366cc;stroke:none;stroke-width:1.05833328;stroke-linecap:round;stroke-miterlimit:4;stroke-dasharray:none" />
      <circle
         r="2.80633"
         cy="68.60849"
         cx="30.213116"
         id="path20300-2"
         style="fill:#3366cc;stroke:none;stroke-width:1.05833328;stroke-linecap:round;stroke-miterlimit:4;stroke-dasharray:none" />
      <circle
         r="2.80633"
         cy="68.60849"
         cx="38.930214"
         id="path20300-2-3"
         style="fill:#3366cc;stroke:none;stroke-width:1.05833328;stroke-linecap:round;stroke-miterlimit:4;stroke-dasharray:none" />
      <circle
         r="2.80633"
         cy="68.60849"
         cx="47.647312"
         id="path20300-2-3-6"
         style="fill:#3366cc;stroke:none;stroke-width:1.05833328;stroke-linecap:round;stroke-miterlimit:4;stroke-dasharray:none" />
      <circle
         r="2.80633"
         cy="68.60849"
         cx="56.36441"
         id="path20300-2-3-6-6"
         style="fill:#3366cc;stroke:none;stroke-width:1.05833328;stroke-linecap:round;stroke-miterlimit:4;stroke-dasharray:none" />
      <circle
         r="2.80633"
         cy="68.60849"
         cx="65.081505"
         id="path20300-2-3-6-6-7"
         style="fill:#3366cc;stroke:none;stroke-width:1.05833328;stroke-linecap:round;stroke-miterlimit:4;stroke-dasharray:none" />
      <circle
         r="2.80633"
         cy="68.60849"
         cx="73.798607"
         id="path20300-2-3-6-6-7-7"
         style="fill:#3366cc;stroke:none;stroke-width:1.05833328;stroke-linecap:round;stroke-miterlimit:4;stroke-dasharray:none" />
      <circle
         r="2.80633"
         cy="68.60849"
         cx="82.515701"
         id="path20300-2-3-6-6-7-7-4"
         style="fill:#3366cc;stroke:none;stroke-width:1.05833328;stroke-linecap:round;stroke-miterlimit:4;stroke-dasharray:none" />
      <circle
         r="2.80633"
         cy="68.60849"
         cx="126.1012"
         id="path20300-2-3-6-6-7-7-4-6"
         style="fill:#3366cc;stroke:none;stroke-width:1.05833328;stroke-linecap:round;stroke-miterlimit:4;stroke-dasharray:none" />
      <circle
         r="2.80633"
         cy="68.60849"
         cx="117.3841"
         id="path20300-2-3-6-6-7-7-4-6-9"
         style="fill:#3366cc;stroke:none;stroke-width:1.05833328;stroke-linecap:round;stroke-miterlimit:4;stroke-dasharray:none" />
      <circle
         r="2.80633"
         cy="68.60849"
         cx="108.66701"
         id="path20300-2-3-6-6-7-7-4-6-9-6"
         style="fill:#3366cc;stroke:none;stroke-width:1.05833328;stroke-linecap:round;stroke-miterlimit:4;stroke-dasharray:none" />
      <circle
         r="2.80633"
         cy="68.60849"
         cx="99.949905"
         id="path20300-2-3-6-6-7-7-4-6-9-6-0"
         style="fill:#3366cc;stroke:none;stroke-width:1.05833328;stroke-linecap:round;stroke-miterlimit:4;stroke-dasharray:none" />
      <circle
         r="2.80633"
         cy="68.60849"
         cx="91.232811"
         id="path20300-2-3-6-6-7-7-4-6-9-6-0-9"
         style="fill:#3366cc;stroke:none;stroke-width:1.05833328;stroke-linecap:round;stroke-miterlimit:4;stroke-dasharray:none" />
      <path
         sodipodi:nodetypes="ccccc"
         inkscape:connector-curvature="0"
         id="path4893"
         d="m 21.210407,64.531382 c -5.484044,-0.04811 -5.484044,8.20233 0,8.154218 H 135.00597 c 5.48404,0.04811 5.48404,-8.20233 0,-8.154218 z"
         style="color:#000000;font-style:normal;font-variant:normal;font-weight:normal;font-stretch:normal;font-size:medium;line-height:normal;font-family:sans-serif;font-variant-ligatures:normal;font-variant-position:normal;font-variant-caps:normal;font-variant-numeric:normal;font-variant-alternates:normal;font-feature-settings:normal;text-indent:0;text-align:start;text-decoration:none;text-decoration-line:none;text-decoration-style:solid;text-decoration-color:#000000;letter-spacing:normal;word-spacing:normal;text-transform:none;writing-mode:lr-tb;direction:ltr;text-orientation:mixed;dominant-baseline:auto;baseline-shift:baseline;text-anchor:start;white-space:normal;shape-padding:0;clip-rule:nonzero;display:inline;overflow:visible;visibility:visible;opacity:1;isolation:auto;mix-blend-mode:normal;color-interpolation:sRGB;color-interpolation-filters:linearRGB;solid-color:#000000;solid-opacity:1;vector-effect:none;fill:none;fill-opacity:1;fill-rule:nonzero;stroke:#3366cc;stroke-width:1.35895276;stroke-linecap:round;stroke-linejoin:miter;stroke-miterlimit:4;stroke-dasharray:none;stroke-dashoffset:0;stroke-opacity:1;color-rendering:auto;image-rendering:auto;shape-rendering:auto;text-rendering:auto;enable-background:accumulate" />
      <g
         id="g4789"
         style="fill:#000000"
         transform="matrix(0.58074403,0,0,0.58074403,59.524378,44.73241)">
        <rect
           y="2.9999983"
           x="2.9999995"
           height="54"
           width="58"
           id="rect4897"
           style="fill:#ffffff;stroke:none;stroke-width:2.94455934;stroke-linecap:round;stroke-miterlimit:4;stroke-dasharray:none" />
        <path
           inkscape:connector-curvature="0"
           d="M 63,1 H 1 v 58 h 2 v 4 h 8 v -4 h 42 v 4 h 8 v -4 h 2 z M 9,61 H 5 v -2 h 4 z m 50,0 h -4 v -2 h 4 z m 2,-4 H 3 V 3 h 58 z"
           id="path4755"
           style="fill:#3366cc" />
        <path
           inkscape:connector-curvature="0"
           d="M 18,31 C 25.168,31 31,25.168 31,18 31,10.832 25.168,5 18,5 10.832,5 5,10.832 5,18 5,25.168 10.832,31 18,31 Z M 18,7 c 6.065,0 11,4.935 11,11 0,6.065 -4.935,11 -11,11 C 11.935,29 7,24.065 7,18 7,11.935 11.935,7 18,7 Z"
           id="path4757"
           style="fill:#3366cc" />
        <path
           inkscape:connector-curvature="0"
           d="m 15,18 c 0,1.654 1.346,3 3,3 1.654,0 3,-1.346 3,-3 0,-1.654 -1.346,-3 -3,-3 -0.414,0 -0.808,0.084 -1.168,0.237 l -4.064,-4.877 -1.537,1.28 4.132,4.959 C 15.139,17.019 15,17.491 15,18 Z m 4,0 c 0,0.551 -0.448,1 -1,1 -0.552,0 -1,-0.449 -1,-1 0,-0.551 0.448,-1 1,-1 0.552,0 1,0.449 1,1 z"
           id="path4759"
           style="fill:#3366cc" />
        <rect
           x="12"
           y="23"
           width="12"
           height="2"
           id="rect4761"
           style="fill:#3366cc" />
        <path
           inkscape:connector-curvature="0"
           d="M 46,31 C 53.168,31 59,25.168 59,18 59,10.832 53.168,5 46,5 38.832,5 33,10.832 33,18 c 0,7.168 5.832,13 13,13 z M 46,7 c 6.065,0 11,4.935 11,11 0,6.065 -4.935,11 -11,11 C 39.935,29 35,24.065 35,18 35,11.935 39.935,7 46,7 Z"
           id="path4763"
           style="fill:#3366cc" />
        <path
           inkscape:connector-curvature="0"
           d="m 46,21 c 1.654,0 3,-1.346 3,-3 0,-1.07 -0.567,-2.004 -1.412,-2.535 l 1.389,-6.248 -1.953,-0.434 -1.39,6.254 C 44.154,15.22 43,16.471 43,18 c 0,1.654 1.346,3 3,3 z m 0,-4 c 0.552,0 1,0.449 1,1 0,0.551 -0.448,1 -1,1 -0.552,0 -1,-0.449 -1,-1 0,-0.551 0.448,-1 1,-1 z"
           id="path4765"
           style="fill:#3366cc" />
        <rect
           x="50"
           y="23"
           width="2"
           height="2"
           id="rect4767"
           style="fill:#3366cc" />
        <rect
           x="40"
           y="23"
           width="8"
           height="2"
           id="rect4769"
           style="fill:#3366cc" />
        <path
           inkscape:connector-curvature="0"
           d="M 33,33 H 5 V 55 H 33 Z M 31,53 H 7 V 35 h 24 z"
           id="path4771"
           style="fill:#3366cc" />
        <polygon
           points="16.279,49 15.721,49 12.721,40 9,40 9,42 11.279,42 14.279,51 17.721,51 21.721,39 22.341,39 25.341,46 29,46 29,44 26.659,44 23.659,37 20.279,37 "
           id="polygon4773"
           style="fill:#3366cc" />
        <path
           inkscape:connector-curvature="0"
           d="m 42,33 h -6 v 6 h 6 z m -2,4 h -2 v -2 h 2 z"
           id="path4775"
           style="fill:#3366cc" />
        <path
           inkscape:connector-curvature="0"
           d="m 50,33 h -6 v 6 h 6 z m -2,4 h -2 v -2 h 2 z"
           id="path4777"
           style="fill:#3366cc" />
        <path
           inkscape:connector-curvature="0"
           d="m 52,39 h 6 v -6 h -6 z m 2,-4 h 2 v 2 h -2 z"
           id="path4779"
           style="fill:#3366cc" />
        <path
           inkscape:connector-curvature="0"
           d="m 36,47 h 6 v -6 h -6 z m 2,-4 h 2 v 2 h -2 z"
           id="path4781"
           style="fill:#3366cc" />
        <path
           inkscape:connector-curvature="0"
           d="m 44,47 h 6 v -6 h -6 z m 2,-4 h 2 v 2 h -2 z"
           id="path4783"
           style="fill:#3366cc" />
        <path
           inkscape:connector-curvature="0"
           d="m 52,47 h 6 v -6 h -6 z m 2,-4 h 2 v 2 h -2 z"
           id="path4785"
           style="fill:#3366cc" />
        <path
           inkscape:connector-curvature="0"
           d="M 36,55 H 58 V 49 H 36 Z m 20,-2 h -4 v -2 h 4 z M 38,51 h 12 v 2 H 38 Z"
           id="path4787"
           style="fill:#3366cc" />
      </g>
      <g
         id="text4901"
         style="font-style:italic;font-variant:normal;font-weight:normal;font-stretch:normal;font-size:16.93333244px;line-height:1.25;font-family:'CMU Concrete';-inkscape-font-specification:'CMU Concrete Italic';letter-spacing:0px;word-spacing:0px;fill:#000000;fill-opacity:1;stroke:none;stroke-width:0.26458332"
         aria-label="x">
        <path
           inkscape:connector-curvature="0"
           id="path891"
           style="font-style:italic;font-variant:normal;font-weight:normal;font-stretch:normal;font-size:16.93333244px;font-family:'CMU Concrete';-inkscape-font-specification:'CMU Concrete Italic';stroke-width:0.26458332;fill:#3366cc"
           d="m 25.7725,57.160346 q 0,-0.545703 0.256315,-0.79375 0.264583,-0.256315 0.587044,-0.256315 0.239779,0 0.388607,0.148828 0.157096,0.14056 0.157096,0.380338 0,0.305925 -0.32246,0.620118 0.289388,0.405143 0.727604,0.405143 0.661458,0 1.066601,-0.669727 0.165365,-0.272851 0.628386,-2.158007 0.471289,-1.893425 0.471289,-2.215886 0,-0.909505 -0.926042,-0.909505 -0.0083,0 -0.01654,0 -0.578776,0 -1.050066,0.413411 -0.46302,0.413412 -0.694531,0.992188 -0.115755,0.289388 -0.190169,0.355534 -0.06615,0.06615 -0.239779,0.06615 h -0.23151 q -0.405143,0 -0.405143,-0.206706 0,-0.595313 0.868164,-1.604036 0.868164,-1.016993 2.108398,-1.016993 1.132747,0 1.645378,0.810287 0.843359,-0.810287 1.744596,-0.810287 0.694531,0 1.149284,0.413412 0.454752,0.413411 0.454752,1.07487 0,0.545703 -0.264583,0.802018 -0.256315,0.248047 -0.56224,0.248047 -0.239778,0 -0.396875,-0.14056 -0.148828,-0.148828 -0.148828,-0.372071 0,-0.322461 0.305925,-0.620117 -0.289388,-0.405143 -0.711068,-0.405143 -0.677995,0 -1.083138,0.694531 -0.148828,0.272852 -0.628385,2.14974 -0.471289,1.876888 -0.471289,2.199349 0,0.487825 0.289388,0.702799 0.289388,0.206706 0.677994,0.206706 0.56224,0 1.058334,-0.438216 0.496093,-0.438217 0.752409,-1.149284 0.06614,-0.165365 0.140559,-0.198438 0.07442,-0.04134 0.363803,-0.04134 h 0.173632 q 0.322461,0 0.322461,0.206706 0,0.578776 -0.876432,1.604036 -0.868164,1.016992 -2.124935,1.016992 -1.083138,0 -1.620573,-0.810286 -0.917773,0.79375 -1.761132,0.79375 -0.694532,0 -1.157552,-0.413411 Q 25.7725,57.821804 25.7725,57.160346 Z" />
      </g>
      <path
         sodipodi:nodetypes="cc"
         inkscape:connector-curvature="0"
         id="path861"
         d="M 36.615924,54.69831 H 56.39387"
         style="fill:none;stroke:#3366cc;stroke-width:1.05833328;stroke-linecap:round;stroke-linejoin:miter;stroke-miterlimit:4;stroke-dasharray:none;stroke-opacity:1;marker-end:url(#marker1181)" />
      <g
         id="text4901-2"
         style="font-style:italic;font-variant:normal;font-weight:normal;font-stretch:normal;font-size:16.93333244px;line-height:1.25;font-family:'CMU Concrete';-inkscape-font-specification:'CMU Concrete Italic';letter-spacing:0px;word-spacing:0px;fill:#000000;fill-opacity:1;stroke:none;stroke-width:0.26458332"
         aria-label="y">
        <path
           inkscape:connector-curvature="0"
           id="path875"
           style="font-style:italic;font-variant:normal;font-weight:normal;font-stretch:normal;font-size:16.93333244px;font-family:'CMU Concrete';-inkscape-font-specification:'CMU Concrete Italic';stroke-width:0.26458332;fill:#3366cc"
           d="m 122.67018,53.332156 q 0,-0.165365 0.15709,-0.56224 0.1571,-0.405143 0.44649,-0.876432 0.28939,-0.471289 0.80202,-0.826823 0.52089,-0.355534 1.09967,-0.355534 0.62839,0 1.00872,0.405144 0.38034,0.405143 0.38034,1.000455 0,0.355534 -0.59531,1.951302 -0.59531,1.5875 -0.59531,2.397787 0,0.661458 0.33073,0.934309 0.33073,0.264584 0.78548,0.264584 0.69453,0 1.30638,-0.677995 0.61185,-0.686263 0.91777,-1.909961 0.98392,-3.861263 1.00046,-3.894336 0.2067,-0.37207 0.58704,-0.37207 0.19017,0 0.33073,0.132292 0.14883,0.124023 0.14883,0.322461 0,0.09922 -0.0909,0.446484 l -1.62057,6.515364 q -0.32246,1.289844 -0.90124,2.050521 -0.42168,0.545703 -1.03353,0.967383 -1.00046,0.711067 -2.10013,0.711067 -0.76068,0 -1.25677,-0.396875 -0.48783,-0.388606 -0.48783,-1.008723 0,-0.487826 0.26459,-0.735873 0.26458,-0.248047 0.57051,-0.248047 0.23977,0 0.39687,0.14056 0.1571,0.148828 0.1571,0.363802 0,0.289388 -0.27285,0.595313 0.35553,0.289388 0.80201,0.289388 0.74414,0 1.43868,-0.553972 0.69453,-0.545703 1.05006,-1.413867 0.0661,-0.165364 0.28939,-0.983919 -0.8599,0.661458 -1.71153,0.661458 -0.85162,0 -1.4552,-0.454752 -0.59532,-0.454753 -0.59532,-1.537891 0,-0.950846 0.57878,-2.604492 0.58704,-1.661914 0.58704,-1.835547 0,-0.239778 -0.12402,-0.380338 -0.12402,-0.14056 -0.31419,-0.14056 -0.72761,0 -1.28985,1.554427 -0.0661,0.190169 -0.16536,0.23151 -0.0992,0.04134 -0.43822,0.04134 -0.3886,0 -0.3886,-0.206706 z" />
      </g>
      <path
         sodipodi:nodetypes="cc"
         inkscape:connector-curvature="0"
         id="path861-9"
         d="m 100.01938,54.688143 h 19.77796"
         style="fill:none;stroke:#3366cc;stroke-width:1.05833328;stroke-linecap:round;stroke-linejoin:miter;stroke-miterlimit:4;stroke-dasharray:none;stroke-opacity:1;marker-end:url(#marker1181-0)" />
      <ellipse
         ry="1.2027128"
         rx="1.5367997"
         cy="43.233379"
         cx="73.546761"
         id="path20873"
         style="fill:none;stroke:#3366cc;stroke-width:0.70555556;stroke-linecap:round;stroke-miterlimit:4;stroke-dasharray:none" />
      <ellipse
         ry="8.2463284"
         rx="17.04241"
         cy="27.999016"
         cx="69.203613"
         id="path20875"
         style="fill:none;stroke:#3366cc;stroke-width:0.70555556;stroke-linecap:round;stroke-miterlimit:4;stroke-dasharray:none" />
      <ellipse
         ry="2.0713387"
         rx="2.6726952"
         cy="39.424782"
         cx="69.738174"
         id="path20875-8"
         style="fill:none;stroke:#3366cc;stroke-width:0.70555556;stroke-linecap:round;stroke-miterlimit:4;stroke-dasharray:none" />
      <g
         id="text4901-2-4"
         style="font-style:italic;font-variant:normal;font-weight:normal;font-stretch:normal;font-size:8.76033211px;line-height:1.25;font-family:'CMU Concrete';-inkscape-font-specification:'CMU Concrete Italic';text-align:center;letter-spacing:0px;word-spacing:0px;text-anchor:middle;fill:#000000;fill-opacity:1;stroke:none;stroke-width:0.23465174"
         aria-label="y=x+2">
        <path
           inkscape:connector-curvature="0"
           id="path878"
           style="font-style:italic;font-variant:normal;font-weight:normal;font-stretch:normal;font-size:8.76033211px;font-family:'CMU Concrete';-inkscape-font-specification:'CMU Concrete Italic';text-align:center;text-anchor:middle;stroke-width:0.23465174;fill:#3366cc"
           d="m 55.133868,27.007339 q 0,-0.08555 0.08127,-0.29087 0.08127,-0.209598 0.230985,-0.453416 0.149713,-0.243818 0.414918,-0.427751 0.269483,-0.183932 0.568908,-0.183932 0.325091,0 0.521856,0.209597 0.196765,0.209598 0.196765,0.517579 0,0.183932 -0.30798,1.009491 -0.30798,0.821281 -0.30798,1.240477 0,0.3422 0.1711,0.483358 0.1711,0.13688 0.406363,0.13688 0.35931,0 0.675846,-0.350755 0.316535,-0.355033 0.474803,-0.988104 0.509023,-1.997596 0.517578,-2.014706 0.106938,-0.192487 0.303703,-0.192487 0.09838,0 0.1711,0.06844 0.07699,0.06416 0.07699,0.166822 0,0.05133 -0.04705,0.230986 l -0.838391,3.370674 q -0.166823,0.667291 -0.466248,1.060822 -0.218153,0.282315 -0.534689,0.500468 -0.517578,0.367866 -1.086486,0.367866 -0.393531,0 -0.650181,-0.205321 -0.252373,-0.201042 -0.252373,-0.521855 0,-0.252373 0.13688,-0.380698 0.13688,-0.128326 0.295148,-0.128326 0.124048,0 0.205321,0.07272 0.08127,0.077 0.08127,0.18821 0,0.149713 -0.141158,0.307981 0.183933,0.149712 0.414918,0.149712 0.384976,0 0.744287,-0.286593 0.35931,-0.282315 0.543243,-0.731453 0.03422,-0.08555 0.149712,-0.509023 -0.44486,0.3422 -0.885443,0.3422 -0.440583,0 -0.752841,-0.235263 -0.307981,-0.235262 -0.307981,-0.795616 0,-0.491913 0.299426,-1.347414 0.303703,-0.859779 0.303703,-0.949606 0,-0.124048 -0.06416,-0.196766 -0.06416,-0.07272 -0.162545,-0.07272 -0.376421,0 -0.667291,0.804171 -0.03422,0.09838 -0.08555,0.11977 -0.05133,0.02139 -0.226708,0.02139 -0.201043,0 -0.201043,-0.106938 z" />
        <path
           inkscape:connector-curvature="0"
           id="path880"
           style="font-style:italic;font-variant:normal;font-weight:normal;font-stretch:normal;font-size:8.76033211px;font-family:'CMU Concrete';-inkscape-font-specification:'CMU Concrete Italic';text-align:center;text-anchor:middle;stroke-width:0.23465174;fill:#3366cc"
           d="m 60.078665,28.427471 q 0,-0.201043 0.218153,-0.243818 0.05989,-0.0086 0.192488,-0.0086 h 5.073122 q 0.333645,0 0.329368,0.260928 0,0.252373 -0.329368,0.252373 h -5.14584 q -0.337923,0 -0.337923,-0.260928 z m 0.453416,-1.805108 q 0,-0.260927 0.333645,-0.260927 h 5.141562 q 0.342201,0 0.342201,0.260927 0,0.252373 -0.342201,0.252373 h -5.141562 q -0.333645,0 -0.333645,-0.252373 z" />
        <path
           inkscape:connector-curvature="0"
           id="path882"
           style="font-style:italic;font-variant:normal;font-weight:normal;font-stretch:normal;font-size:8.76033211px;font-family:'CMU Concrete';-inkscape-font-specification:'CMU Concrete Italic';text-align:center;text-anchor:middle;stroke-width:0.23465174;fill:#3366cc"
           d="m 66.849957,28.987824 q 0,-0.282315 0.132603,-0.41064 0.13688,-0.132603 0.303703,-0.132603 0.124047,0 0.201043,0.077 0.08127,0.07272 0.08127,0.196765 0,0.158268 -0.166823,0.320813 0.149713,0.209598 0.376421,0.209598 0.3422,0 0.551798,-0.346478 0.08555,-0.141158 0.325091,-1.116429 0.243818,-0.979549 0.243818,-1.146372 0,-0.470525 -0.479081,-0.470525 -0.0043,0 -0.0086,0 -0.299426,0 -0.543243,0.213875 -0.239541,0.213875 -0.359311,0.513301 -0.05988,0.149712 -0.09838,0.183933 -0.03422,0.03422 -0.124047,0.03422 h -0.11977 q -0.209598,0 -0.209598,-0.106938 0,-0.307981 0.449138,-0.829836 0.449138,-0.526133 1.090764,-0.526133 0.586018,0 0.851224,0.419195 0.436305,-0.419195 0.902553,-0.419195 0.359311,0 0.594574,0.213875 0.235263,0.213875 0.235263,0.556076 0,0.282315 -0.136881,0.414918 -0.132602,0.128325 -0.29087,0.128325 -0.124048,0 -0.20532,-0.07272 -0.07699,-0.077 -0.07699,-0.192488 0,-0.166822 0.158267,-0.320812 -0.149712,-0.209598 -0.367865,-0.209598 -0.350756,0 -0.560354,0.35931 -0.07699,0.141158 -0.32509,1.112152 -0.243818,0.970994 -0.243818,1.137816 0,0.252373 0.149713,0.363588 0.149713,0.106938 0.350755,0.106938 0.290871,0 0.547521,-0.226708 0.256651,-0.226708 0.389253,-0.594573 0.03422,-0.08555 0.07272,-0.10266 0.0385,-0.02139 0.18821,-0.02139 h 0.08983 q 0.166822,0 0.166822,0.106938 0,0.299425 -0.453415,0.829836 -0.449138,0.526133 -1.099319,0.526133 -0.560354,0 -0.838391,-0.419195 -0.474804,0.41064 -0.911109,0.41064 -0.359311,0 -0.598851,-0.213875 -0.235263,-0.213875 -0.235263,-0.556076 z" />
        <path
           inkscape:connector-curvature="0"
           id="path885"
           style="font-style:italic;font-variant:normal;font-weight:normal;font-stretch:normal;font-size:8.76033211px;font-family:'CMU Concrete';-inkscape-font-specification:'CMU Concrete Italic';text-align:center;text-anchor:middle;stroke-width:0.23465174;fill:#3366cc"
           d="m 71.897415,27.524917 q 0,-0.260928 0.3422,-0.260928 h 2.365461 q 0.02567,-0.106937 0.586018,-2.339795 0.05988,-0.316536 0.278038,-0.316536 0.106938,0 0.179655,0.08127 0.07699,0.077 0.07699,0.1711 0,0.05989 -0.03422,0.183933 l -0.551798,2.220025 h 2.224303 q 0.350756,0 0.350756,0.260928 0,0.252373 -0.333646,0.252373 h -2.374016 l -0.577463,2.314131 q -0.07699,0.350755 -0.29087,0.350755 -0.09838,0 -0.171101,-0.07272 -0.07272,-0.06844 -0.07272,-0.188211 L 74.481028,27.77729 H 72.23106 q -0.333645,0 -0.333645,-0.252373 z" />
        <path
           inkscape:connector-curvature="0"
           id="path887"
           style="font-style:italic;font-variant:normal;font-weight:normal;font-stretch:normal;font-size:8.76033211px;font-family:'CMU Concrete';-inkscape-font-specification:'CMU Concrete Italic';text-align:center;text-anchor:middle;stroke-width:0.23465174;fill:#3366cc"
           d="m 78.583156,29.715 q 0,-0.077 0.08127,-0.295148 0.08555,-0.22243 0.243818,-0.538966 0.162545,-0.320812 0.491913,-0.680123 0.329368,-0.35931 0.731454,-0.607406 0.158267,-0.09838 0.440583,-0.230985 0.286593,-0.13688 0.504745,-0.23954 0.222431,-0.106938 0.474804,-0.278038 0.252372,-0.171101 0.423473,-0.359311 0.1711,-0.18821 0.286593,-0.474803 0.115492,-0.29087 0.115492,-0.633071 0,-0.483358 -0.295148,-0.688678 -0.295148,-0.205321 -0.688678,-0.205321 -0.641626,0 -1.103597,0.483359 -0.46197,0.483358 -0.46197,0.885443 0,0.209598 0.166822,0.209598 0.218153,0 0.427751,-0.278038 0.209598,-0.282315 0.209598,-0.491913 0,-0.05988 -0.0385,-0.141158 -0.0385,-0.08555 -0.0385,-0.124047 0,-0.06844 0.149712,-0.192488 0.153991,-0.128325 0.218153,-0.128325 0.08555,0 0.162545,0.166822 0.08127,0.162546 0.08127,0.329368 0,0.410641 -0.389253,0.898277 -0.389253,0.487635 -0.889721,0.487635 -0.260928,0 -0.423473,-0.179655 -0.162546,-0.179655 -0.162546,-0.461971 0,-0.65018 0.645904,-1.313194 0.650181,-0.663013 1.527069,-0.663013 0.675846,0 1.103597,0.363588 0.427751,0.35931 0.427751,1.035156 0,1.069377 -0.962439,1.736668 -0.384976,0.269482 -0.885444,0.49619 -0.500468,0.222431 -0.872611,0.466248 -0.372143,0.243818 -0.740009,0.710066 0.350756,0.0086 0.928219,0.209598 0.577463,0.201043 0.868334,0.201043 0.35931,0 0.607406,-0.269483 0.252372,-0.27376 0.372143,-0.624516 0.0086,-0.01711 0.01711,-0.04705 0.0086,-0.02994 0.01283,-0.0385 0.0043,-0.0086 0.01711,-0.02994 0.01711,-0.02567 0.02994,-0.03422 0.01283,-0.0086 0.02994,-0.01711 0.01711,-0.0086 0.04705,-0.01283 0.02994,-0.0043 0.06416,-0.0043 h 0.141158 q 0.175378,0 0.175378,0.106938 0,0.10266 -0.111215,0.346478 -0.106938,0.23954 -0.295148,0.530411 -0.18821,0.286593 -0.513301,0.504745 -0.32509,0.213876 -0.692956,0.213876 -0.32509,0 -0.923941,-0.256651 -0.598851,-0.260927 -0.799894,-0.260927 -0.08555,0 -0.124047,0.0086 -0.149713,0.04278 -0.252373,0.25665 -0.09838,0.213875 -0.115493,0.230985 -0.02567,0.01711 -0.128325,0.02139 h -0.115493 q -0.124047,0 -0.162545,-0.02139 -0.0385,-0.01711 -0.0385,-0.077 z" />
      </g>
    </g>
  </g>
</svg>
