<?xml version="1.0" encoding="UTF-8" standalone="no"?>
<svg
   xmlns:dc="http://purl.org/dc/elements/1.1/"
   xmlns:cc="http://creativecommons.org/ns#"
   xmlns:rdf="http://www.w3.org/1999/02/22-rdf-syntax-ns#"
   xmlns:svg="http://www.w3.org/2000/svg"
   xmlns="http://www.w3.org/2000/svg"
   xmlns:sodipodi="http://sodipodi.sourceforge.net/DTD/sodipodi-0.dtd"
   xmlns:inkscape="http://www.inkscape.org/namespaces/inkscape"
   width="100"
   height="100"
   viewBox="0 0 100 100"
   version="1.1"
   id="svg22"
   sodipodi:docname="like.svg"
   inkscape:version="0.92.4 (unknown)">
  <metadata
     id="metadata28">
    <rdf:RDF>
      <cc:Work
         rdf:about="">
        <dc:format>image/svg+xml</dc:format>
        <dc:type
           rdf:resource="http://purl.org/dc/dcmitype/StillImage" />
        <dc:title></dc:title>
      </cc:Work>
    </rdf:RDF>
  </metadata>
  <defs
     id="defs26">
    <defs
       id="defs6">
      <style
         id="style4"
         type="text/css">
   
    .fil0 {fill:#000000;fill-rule:nonzero}
   
  </style>
    </defs>
  </defs>
  <sodipodi:namedview
     pagecolor="#ffffff"
     bordercolor="#666666"
     borderopacity="1"
     objecttolerance="10"
     gridtolerance="10"
     guidetolerance="10"
     inkscape:pageopacity="0"
     inkscape:pageshadow="2"
     inkscape:window-width="1920"
     inkscape:window-height="1055"
     id="namedview24"
     showgrid="false"
     inkscape:zoom="4.72"
     inkscape:cx="18.393919"
     inkscape:cy="68.502137"
     inkscape:window-x="1600"
     inkscape:window-y="25"
     inkscape:window-maximized="1"
     inkscape:current-layer="g20" />
  <g
     transform="translate(50 50) scale(0.69 0.69) rotate(0) translate(-50 -50)"
     style="fill:#000000"
     id="g20">
    <g
       style="fill:#ffb700;fill-opacity:1"
       id="g1006"
       transform="matrix(1.4492754,0,0,1.4492754,-22.463711,-22.462321)">
      <path
         id="path995"
         d="M 88.099,57.633 C 88.001,55.153 86.85,53.181 85.941,51.998 87.022,49.374 87.481,45.2 83.92,41.945 78.086,36.612 64.293,39.508 62.739,39.856 c -0.006,10e-4 -0.012,0.003 -0.018,0.004 -0.881,0.156 -1.806,0.344 -2.757,0.559 -0.108,-0.969 -0.009,-3.565 2.044,-9.793 2.294,-6.963 2.16,-12.289 -0.401,-15.828 -2.689,-3.718 -6.996,-4.007 -8.253,-4.007 -1.214,0 -2.27,0.484 -3.055,1.4 -1.806,2.109 -1.545,6.14 -1.35,7.775 -2.159,5.816 -8.28,20.184 -13.482,24.177 -0.085,0.065 -0.165,0.137 -0.239,0.215 -1.553,1.631 -2.584,3.419 -3.26,4.953 -0.982,-0.565 -2.117,-0.894 -3.33,-0.894 H 18.596 c -3.695,0 -6.702,3.007 -6.702,6.702 v 26.749 c 0,3.696 3.007,6.702 6.702,6.702 H 28.64 c 1.521,0 2.92,-0.515 4.045,-1.371 l 3.733,0.569 c 0.015,0.002 0.029,0.004 0.044,0.006 0.447,0.059 11.054,1.424 21.939,1.204 1.962,0.153 3.798,0.229 5.504,0.229 2.943,0 5.495,-0.227 7.627,-0.68 4.988,-1.06 8.396,-3.175 10.129,-6.284 1.339,-2.403 1.307,-4.806 1.086,-6.295 4.478,-4.031 4.198,-8.872 3.058,-11.83 1.613,-2.049 2.383,-4.225 2.294,-6.485 z M 18.596,84.426 c -1.41,0 -2.557,-1.147 -2.557,-2.557 V 55.12 c 0,-1.41 1.147,-2.557 2.557,-2.557 H 28.64 c 0.884,0 1.663,0.451 2.123,1.133 0.044,0.363 0.182,0.701 0.394,0.986 0.025,0.143 0.04,0.288 0.04,0.438 v 26.749 c 0,1.41 -1.147,2.557 -2.557,2.557 z M 81.853,62.352 c -0.649,0.677 -0.77,1.691 -0.284,2.493 0.286,0.489 2.645,4.89 -2.364,8.654 -0.727,0.546 -1.013,1.502 -0.706,2.357 0.008,0.021 0.741,2.218 -0.458,4.371 -1.124,2.018 -3.604,3.447 -7.37,4.247 -2.999,0.638 -7.052,0.761 -12.046,0.365 C 58.556,84.833 58.487,84.832 58.418,84.833 48.042,85.052 37.549,83.735 37.02,83.667 l -1.856,-0.283 c 0.114,-0.488 0.179,-0.994 0.179,-1.515 V 55.12 c 0,-0.71 -0.113,-1.394 -0.319,-2.037 0.311,-1.177 1.153,-3.654 3.108,-5.759 7.356,-5.822 14.585,-25.575 14.891,-26.418 0.119,-0.328 0.153,-0.681 0.1,-1.026 -0.302,-1.942 -0.155,-4.36 0.285,-4.943 0.818,0.007 3.338,0.21 4.843,2.291 1.712,2.367 1.651,6.552 -0.178,12.102 -2.739,8.311 -2.995,12.668 -0.855,14.568 1.048,0.932 2.436,0.983 3.446,0.614 1.002,-0.23 1.972,-0.428 2.886,-0.588 0.067,-0.011 0.132,-0.026 0.197,-0.045 5.08,-1.114 14.197,-1.782 17.379,1.126 2.754,2.517 0.813,5.833 0.59,6.192 -0.551,0.858 -0.396,1.989 0.365,2.667 0.018,0.016 1.788,1.655 1.879,3.933 0.057,1.502 -0.651,3.034 -2.107,4.555 z M 19.835,78.784 c 0,-1.795 1.455,-3.25 3.25,-3.25 1.795,0 3.25,1.455 3.25,3.25 0,1.795 -1.455,3.25 -3.25,3.25 -1.795,0 -3.25,-1.456 -3.25,-3.25 z"
         inkscape:connector-curvature="0"
         style="fill:#ffb700;fill-opacity:1" />
    </g>
  </g>
</svg>
