<?xml version="1.0" encoding="UTF-8" standalone="no"?>
<svg
   xmlns:dc="http://purl.org/dc/elements/1.1/"
   xmlns:cc="http://creativecommons.org/ns#"
   xmlns:rdf="http://www.w3.org/1999/02/22-rdf-syntax-ns#"
   xmlns:svg="http://www.w3.org/2000/svg"
   xmlns="http://www.w3.org/2000/svg"
   xmlns:sodipodi="http://sodipodi.sourceforge.net/DTD/sodipodi-0.dtd"
   xmlns:inkscape="http://www.inkscape.org/namespaces/inkscape"
   width="100"
   height="100"
   viewBox="0 0 100 100"
   version="1.1"
   id="svg16"
   sodipodi:docname="teacher.svg"
   inkscape:version="0.92.4 (unknown)">
  <metadata
     id="metadata22">
    <rdf:RDF>
      <cc:Work
         rdf:about="">
        <dc:format>image/svg+xml</dc:format>
        <dc:type
           rdf:resource="http://purl.org/dc/dcmitype/StillImage" />
        <dc:title></dc:title>
      </cc:Work>
    </rdf:RDF>
  </metadata>
  <defs
     id="defs20" />
  <sodipodi:namedview
     pagecolor="#ffffff"
     bordercolor="#666666"
     borderopacity="1"
     objecttolerance="10"
     gridtolerance="10"
     guidetolerance="10"
     inkscape:pageopacity="0"
     inkscape:pageshadow="2"
     inkscape:window-width="1920"
     inkscape:window-height="1055"
     id="namedview18"
     showgrid="false"
     inkscape:zoom="2.36"
     inkscape:cx="2.9661017"
     inkscape:cy="50"
     inkscape:window-x="1600"
     inkscape:window-y="25"
     inkscape:window-maximized="1"
     inkscape:current-layer="svg16" />
  <path
     inkscape:connector-curvature="0"
     d="m 37.417441,34.892467 c 0.856152,0 1.659713,0.37049 2.213832,1.005112 l 17.145669,-10.488894 0.562052,0.918733 -17.162122,10.498884 c 0.451287,1.23957 0.02321,2.675402 -1.120578,3.443119 -3.045305,2.050476 -6.203138,3.367904 -9.276061,3.888823 V 55.263251 H 100 V 11.77988 H 29.780233 v 26.387942 c 1.937948,-0.468327 3.922611,-1.386179 6.002468,-2.776765 0.485074,-0.326126 1.050946,-0.49859 1.63474,-0.49859 z"
     id="path4"
     style="fill:#ffb700;stroke-width:0.29380655" />
  <circle
     r="6.6089125"
     transform="rotate(-76.890715)"
     cx="-24.589071"
     cy="19.527803"
     id="ellipse6"
     style="fill:#ffb700;stroke-width:0.29379472" />
  <path
     inkscape:connector-curvature="0"
     d="m 4.3506875,52.086614 c 0.320543,0.141321 0.6590081,0.264426 1.0071689,0.378717 0.1915619,0.06287 0.3875309,0.12193 0.5879069,0.176284 0.053473,0.0144 0.1072394,0.0285 0.161006,0.0426 0.8470444,0.218592 1.7693031,0.368433 2.7814667,0.445411 0.5497121,0.04172 1.122929,0.06405 1.725232,0.06464 0.606123,0 1.240158,-0.02086 1.904454,-0.06464 0.214773,-0.0141 0.41985,-0.05906 0.614056,-0.126043 0.976319,-0.336996 1.648255,-1.292455 1.578035,-2.372488 -0.08491,-1.295981 -1.204019,-2.277001 -2.499119,-2.192091 -0.569397,0.03702 -1.101774,0.05465 -1.597132,0.05465 -0.347279,8.81e-4 -0.6760489,-0.0076 -0.9863086,-0.0238 C 7.8411095,48.376131 6.6564814,48.019744 5.9460572,47.638677 5.7956282,47.558174 5.663709,47.476202 5.5550006,47.395699 5.481549,47.342226 5.4174992,47.290222 5.3581502,47.238806 5.1213421,47.033729 4.9841345,46.841286 4.8857093,46.647667 4.7664238,46.403808 4.7029616,46.135269 4.7020802,45.795628 c -0.02086,-0.788577 0.4565754,-1.966447 1.236338,-2.820836 0.00264,-0.0029 0.00529,-0.0053 0.00793,-0.0082 v 4.017217 l 0.2773534,0.14896 c 0.4812551,0.258256 1.5404277,0.670467 3.4945352,0.765366 l 0.8203072,-5.175109 7.931602,1.257199 -0.985427,6.215771 -1.130861,7.132742 L 14.573096,57.04639 13.211009,56.830442 8.422256,56.07154 8.794509,53.723732 C 7.7808791,53.643495 6.8503937,53.492479 5.9824892,53.26948 c -0.012046,-0.0032 -0.024386,-0.0062 -0.036432,-0.0091 v 0.496239 5.564402 25.267364 c 0,2.006405 1.6265131,3.632331 3.6323305,3.632331 2.0061113,0 3.6326243,-1.625926 3.6326243,-3.632331 V 61.59155 h 1.361793 v 22.996827 c 0,2.006405 1.626513,3.632331 3.632331,3.632331 2.006111,0 3.632624,-1.625926 3.632624,-3.632331 V 59.321013 53.756611 43.653191 43.033259 c 1.329769,0.441885 2.999765,0.788577 4.973851,0.792396 0.01116,0 0.02233,0 0.03349,0 0.92079,0 1.903279,-0.08315 2.934834,-0.262663 2.686273,-0.466565 5.717769,-1.605359 8.948466,-3.780115 0.882008,-0.59202 1.233988,-1.677048 0.936656,-2.64279 -0.06611,-0.214479 -0.163063,-0.423081 -0.294688,-0.618757 -0.07551,-0.112821 -0.161006,-0.214478 -0.251499,-0.309966 -0.774768,-0.815019 -2.044893,-0.979844 -3.010048,-0.331413 -2.395405,1.601833 -4.503761,2.4668 -6.328887,2.891644 -1.090316,0.253849 -2.079563,0.350511 -2.968621,0.353155 -1.879187,0 -3.337643,-0.442472 -4.319545,-0.870255 -0.489481,-0.214185 -0.856152,-0.423669 -1.085321,-0.567928 -0.114585,-0.07228 -0.1945,-0.127512 -0.237396,-0.158949 -0.01557,-0.01116 -0.02674,-0.01939 -0.03261,-0.0238 -0.0038,-0.0032 -0.0047,-0.0038 -0.0047,-0.0038 l -5.88e-4,2.94e-4 c -0.258549,-0.205371 -0.547655,-0.346398 -0.847925,-0.427195 -0.22535,-0.07492 -0.465684,-0.116935 -0.716301,-0.116935 h -1.60477 -9.7461514 c -0.1627688,0 -0.3208367,0.01792 -0.4739099,0.05024 -1.020684,0.06993 -1.9673288,0.387825 -2.8079093,0.837936 C 3.503937,38.618522 2.3328241,39.771125 1.4566929,41.127042 0.5911388,42.485016 0.00675755,44.071278 -2.9380656e-4,45.795628 -0.00146903,46.76754 0.20096369,47.786168 0.67252322,48.735163 1.3750147,50.168939 2.6771654,51.35533 4.3506875,52.086614 Z"
     id="path8"
     style="fill:#ffb700;stroke-width:0.29380655" />
</svg>
