<?xml version="1.0" encoding="UTF-8" standalone="no"?>
<svg
   xmlns:dc="http://purl.org/dc/elements/1.1/"
   xmlns:cc="http://creativecommons.org/ns#"
   xmlns:rdf="http://www.w3.org/1999/02/22-rdf-syntax-ns#"
   xmlns:svg="http://www.w3.org/2000/svg"
   xmlns="http://www.w3.org/2000/svg"
   xmlns:xlink="http://www.w3.org/1999/xlink"
   xmlns:sodipodi="http://sodipodi.sourceforge.net/DTD/sodipodi-0.dtd"
   xmlns:inkscape="http://www.inkscape.org/namespaces/inkscape"
   width="265.01mm"
   height="103.33mm"
   version="1.1"
   viewBox="0 0 265.01 103.33"
   id="svg8837"
   sodipodi:docname="title_img.svg"
   inkscape:version="0.92.4 (unknown)">
  <metadata
     id="metadata8841">
    <rdf:RDF>
      <cc:Work
         rdf:about="">
        <dc:format>image/svg+xml</dc:format>
        <dc:type
           rdf:resource="http://purl.org/dc/dcmitype/StillImage" />
        <dc:title></dc:title>
      </cc:Work>
    </rdf:RDF>
  </metadata>
  <sodipodi:namedview
     pagecolor="#ffffff"
     bordercolor="#666666"
     borderopacity="1"
     objecttolerance="10"
     gridtolerance="10"
     guidetolerance="10"
     inkscape:pageopacity="0"
     inkscape:pageshadow="2"
     inkscape:window-width="1920"
     inkscape:window-height="1055"
     id="namedview8839"
     showgrid="false"
     inkscape:zoom="0.49558975"
     inkscape:cx="593.01174"
     inkscape:cy="227.69166"
     inkscape:window-x="1600"
     inkscape:window-y="25"
     inkscape:window-maximized="1"
     inkscape:current-layer="svg8837" />
  <defs
     id="defs8831">
    <symbol
       id="landscape">
      <g
         id="dude"
         transform="matrix(-0.6717,0,0,0.6717,160.64,59.579)">
        <circle
           id="head"
           cx="86.092003"
           cy="52.248001"
           r="10"
           style="color:#000000;isolation:auto;mix-blend-mode:normal;solid-color:#000000;fill-rule:evenodd;color-rendering:auto;image-rendering:auto;shape-rendering:auto" />
        <path
           id="body"
           transform="matrix(-0.26458,0,0,0.26458,496.68,-170.91)"
           d="m 1593.2,880.55 c -20.938,0 -37.795,16.856 -37.795,37.795 v 34.342 h 32.871 v -36.039 c -0.017,-1.0673 0.8526,-1.937 1.9199,-1.9199 1.0436,0.0167 1.8761,0.8763 1.8594,1.9199 v 37.928 c 4e-4,1.0436 -0.8451,1.8899 -1.8887,1.8906 h -49.725 c -2.3637,0 -4.6088,0.47231 -6.6465,1.3281 -1.0188,0.4279 -1.9864,0.95179 -2.8906,1.5605 -0.4521,0.30438 -0.8873,0.62916 -1.3066,0.97461 -0.4193,0.34545 -0.8213,0.71194 -1.2051,1.0957 -0.3834,0.38346 -0.7506,0.78419 -1.0957,1.2031 -3e-4,3.7e-4 3e-4,0.002 0,0.002 -1.3813,1.677 -2.4453,3.6265 -3.1035,5.7617 -2e-4,5.9e-4 2e-4,0.001 0,0.002 -0.3289,1.0673 -0.5567,2.1813 -0.6719,3.3301 -0.058,0.5747 -0.088,1.1591 -0.088,1.75 0,0.59094 0.03,1.1733 0.088,1.748 10e-5,6.4e-4 -10e-5,10e-4 0,0.002 0.1153,1.1488 0.3429,2.2625 0.6719,3.3301 2e-4,6e-4 -2e-4,10e-4 0,0.002 0.1645,0.53347 0.3546,1.0554 0.5683,1.5645 3e-4,5.6e-4 -2e-4,0.001 0,0.002 0.2138,0.50902 0.4527,1.0045 0.7129,1.4863 3e-4,5.1e-4 -2e-4,10e-4 0,0.002 1.0421,1.9288 2.4462,3.6294 4.1231,5.0117 0.8386,0.69135 1.7447,1.3027 2.709,1.8242 1.4464,0.78223 3.0223,1.3614 4.6894,1.6992 1.1114,0.22519 2.2635,0.34375 3.4453,0.34375 0,0 80.127,0.0293 90.553,0.0293 v -72.174 c 0,-20.939 -16.856,-37.795 -37.795,-37.795 z m -89.678,113.75 c -5.0365,0.46052 -9.4801,2.6054 -12.584,6.2207 l -79.143,79.143 c -7.4029,7.4029 -7.4029,19.322 0,26.725 7.4029,7.403 19.324,7.4029 26.727,0 l 47.857,-47.857 v 67.688 c 0,10.469 8.4292,18.898 18.898,18.898 10.4688,0 18.898,-8.4291 18.898,-18.898 v -94.488 h 69.213 c 20.728,-0.1013 37.402,-16.724 37.596,-37.43 -10.447,-10e-6 -127.37,-0.009 -127.46,0 z"
           style="color:#000000;isolation:auto;mix-blend-mode:normal;solid-color:#000000;fill-rule:evenodd;color-rendering:auto;image-rendering:auto;shape-rendering:auto"
           inkscape:connector-curvature="0" />
        <g
           id="book"
           transform="translate(-10.724,0.60113)">
          <rect
             transform="matrix(0.5,-0.86603,-0.99991,0.013408,0,0)"
             x="-106.98"
             y="-168.23"
             width="15.669"
             height="11.294"
             ry="0"
             style="color:#000000;isolation:auto;mix-blend-mode:normal;solid-color:#000000;fill-rule:evenodd;paint-order:fill markers stroke;color-rendering:auto;image-rendering:auto;shape-rendering:auto"
             id="rect8785" />
          <rect
             transform="rotate(30)"
             x="134.86"
             y="5.2322998"
             width="9.6449003"
             height="2.4551001"
             style="color:#000000;isolation:auto;mix-blend-mode:normal;solid-color:#000000;fill-rule:evenodd;paint-order:fill markers stroke;color-rendering:auto;image-rendering:auto;shape-rendering:auto"
             id="rect8787" />
        </g>
      </g>
      <g
         id="lamp"
         transform="translate(-59.133,396.99)">
        <path
           id="wire"
           d="m 146.07,-316.25 v -17.514"
           inkscape:connector-curvature="0"
           style="fill:none;stroke:#000000;stroke-width:0.88194001;stroke-linecap:round" />
        <g
           id="bulb"
           transform="matrix(1.3109,0,0,1.3109,63.96,-631.25)"
           style="stroke-width:0.73144001">
          <path
             d="m 61.93,242.19 c -0.03276,0.60597 -0.2455,1.1789 -0.62218,1.6211 -0.26204,0.31117 -0.40928,0.72073 -0.40928,1.1302 0,0.9499 0.76954,1.7358 1.7358,1.7358 0.06551,0 0.13086,-0.016 0.19637,-0.016 0.76974,-0.0983 1.4088,-0.70443 1.5234,-1.4578 0.08189,-0.49132 -0.04901,-0.96654 -0.36019,-1.3596 -0.39306,-0.5077 -0.6225,-1.0641 -0.65526,-1.6536 z"
             style="fill:#ffb700;paint-order:markers stroke fill"
             id="path8792"
             inkscape:connector-curvature="0" />
          <path
             d="m 59.194,245.04 h 0.93352 c 0.09827,0 0.16378,-0.0655 0.16378,-0.16378 0,-0.0983 -0.06551,-0.16377 -0.16378,-0.16377 H 59.194 c -0.09826,0 -0.16378,0.0655 -0.16378,0.16377 0,0.0983 0.08189,0.16378 0.16378,0.16378 z"
             id="path8794"
             inkscape:connector-curvature="0"
             style="fill:#ffb700;stroke-width:0.15088999" />
          <path
             d="m 64.976,244.87 c 0,0.0983 0.06551,0.16378 0.16378,0.16378 h 0.93352 c 0.09826,0 0.16378,-0.0655 0.16378,-0.16378 0,-0.0983 -0.06551,-0.16377 -0.16378,-0.16377 h -0.93352 c -0.09826,0 -0.16378,0.0819 -0.16378,0.16377 z"
             id="path8796"
             inkscape:connector-curvature="0"
             style="fill:#ffb700;stroke-width:0.15088999" />
          <path
             d="m 62.634,247.26 c -0.09826,0 -0.16378,0.0655 -0.16378,0.16378 v 0.88438 c 0,0.0983 0.06551,0.16378 0.16378,0.16378 0.09827,0 0.16378,-0.0655 0.16378,-0.16378 v -0.88438 c 0,-0.0983 -0.06551,-0.16378 -0.16378,-0.16378 z"
             id="path8798"
             inkscape:connector-curvature="0"
             style="fill:#ffb700;stroke-width:0.15088999" />
          <path
             d="m 60.849,246.5 c -0.04913,0 -0.08189,0.0164 -0.11464,0.0491 l -0.63872,0.63873 c -0.06551,0.0655 -0.06551,0.16377 0,0.22928 0.06551,0.0655 0.16378,0.0655 0.22928,0 l 0.63872,-0.63872 c 0.06551,-0.0655 0.06551,-0.16378 0,-0.22929 C 60.93088,246.5164 60.88175,246.5 60.849,246.5 Z"
             id="path8800"
             inkscape:connector-curvature="0"
             style="fill:#ffb700;stroke-width:0.15088999" />
          <path
             d="m 64.288,243.22 c 0.06551,0.0655 0.16378,0.0655 0.22929,0 l 0.6551,-0.6551 c 0.06551,-0.0655 0.06551,-0.16378 0,-0.22929 -0.08189,-0.0655 -0.1474,-0.0655 -0.22928,0 l -0.6551,0.6551 c -0.06551,0.0655 -0.06551,0.16378 0,0.22929 z"
             id="path8802"
             inkscape:connector-curvature="0"
             style="fill:#ffb700;stroke-width:0.15088999" />
          <path
             d="m 60.079,242.56 0.67148,0.67148 c 0.06551,0.0655 0.16378,0.0655 0.22928,0 0.06551,-0.0655 0.06551,-0.16378 0,-0.22929 l -0.67148,-0.67148 c -0.08189,-0.0655 -0.16378,-0.0655 -0.22929,0 -0.04913,0.0491 -0.04913,0.16378 0,0.22929 z"
             id="path8804"
             inkscape:connector-curvature="0"
             style="fill:#ffb700;stroke-width:0.15088999" />
          <path
             d="m 64.55,246.56 c -0.03276,-0.0328 -0.08189,-0.0491 -0.11464,-0.0491 -0.04913,0 -0.08189,0.0164 -0.11464,0.0491 -0.06551,0.0655 -0.06551,0.16378 0,0.22929 l 0.62235,0.63873 c 0.06551,0.0655 0.16377,0.0655 0.22928,0 0.06551,-0.0655 0.06551,-0.16378 0,-0.22929 z"
             id="path8806"
             inkscape:connector-curvature="0"
             style="fill:#ffb700;stroke-width:0.15088999" />
          <rect
             x="61.738998"
             y="240.06"
             width="1.7907"
             height="2.5302"
             ry="0.26879999"
             style="paint-order:markers stroke fill"
             id="rect8808" />
        </g>
      </g>
      <text
         id="tagline"
         x="-44.521427"
         y="63.841343"
         dominant-baseline="auto"
         font-size="22.58px"
         letter-spacing="0px"
         word-spacing="0px"
         style="font-size:22.57999992px;line-height:1;font-family:Quicksand;font-variant-ligatures:normal;font-variant-position:normal;font-variant-caps:normal;font-variant-numeric:normal;font-variant-alternates:normal;font-feature-settings:normal;text-indent:0;text-decoration:none;text-decoration-line:none;text-decoration-style:solid;text-decoration-color:#000000;letter-spacing:0px;word-spacing:0px;text-transform:none;text-orientation:mixed;dominant-baseline:auto;white-space:normal;shape-padding:0"
         xml:space="preserve"><tspan
           id="wetenschap"
           x="-44.521427"
           y="63.841343"
           style="line-height:1;fill:#000000;stroke-width:2.55719995px">Wetenschap</tspan><tspan
           id="verlicht"
           x="-44.521427"
           y="86.421539"
           style="line-height:1;fill:#000000;stroke-width:2.55719995px">Verlicht.</tspan></text>
      <path
         id="dot"
         d="m 86.855,64.31 q -0.38386,0 -0.58708,-0.2258 -0.20322,-0.24838 -0.20322,-0.65483 v -0.47418 q 0,-0.40644 0.20322,-0.63224 0.20322,-0.2258 0.58708,-0.2258 h 0.15806 q 0.38386,0 0.58708,0.2258 0.20322,0.2258 0.20322,0.63224 v 0.47418 q 0,0.40644 -0.20322,0.65483 -0.20322,0.2258 -0.58708,0.2258 z"
         dominant-baseline="auto"
         style="font-variant-ligatures:normal;font-variant-position:normal;font-variant-caps:normal;font-variant-numeric:normal;font-variant-alternates:normal;font-feature-settings:normal;text-indent:0;text-decoration:none;text-decoration-line:none;text-decoration-style:solid;text-decoration-color:#000000;text-transform:none;text-orientation:mixed;dominant-baseline:auto;white-space:normal;shape-padding:0"
         inkscape:connector-curvature="0" />
      <g
         id="button"
         transform="translate(-54.41,102.8)">
        <rect
           id="button_bg"
           x="153.92"
           y="26.778"
           width="96.386002"
           height="18.709"
           rx="2.2205999"
           ry="2.5"
           style="fill:#ffb700;paint-order:markers fill stroke" />
        <text
           id="button_text"
           x="202.26094"
           y="38.920273"
           dominant-baseline="auto"
           font-size="10.267px"
           font-weight="500"
           letter-spacing="0px"
           text-align="center"
           word-spacing="0px"
           style="font-weight:500;font-size:10.2670002px;line-height:1.29999995;font-family:Quicksand;font-variant-ligatures:normal;font-variant-position:normal;font-variant-caps:normal;font-variant-numeric:normal;font-variant-alternates:normal;font-feature-settings:normal;text-indent:0;text-align:center;text-decoration:none;text-decoration-line:none;text-decoration-style:solid;text-decoration-color:#000000;letter-spacing:0px;word-spacing:0px;text-transform:none;text-orientation:mixed;dominant-baseline:auto;text-anchor:middle;white-space:normal;shape-padding:0;fill:#ffffff;stroke-width:1.16270006px"
           xml:space="preserve"><tspan
             x="202.26094"
             y="38.920273"
             font-weight="500"
             text-align="center"
             id="tspan8817"
             style="font-weight:500;font-family:Quicksand;text-align:center;text-anchor:middle;fill:#ffffff;stroke-width:1.16270006px">Toon mij de lessen!</tspan></text>
      </g>
      <text
         id="text"
         x="-44.066273"
         y="109.43361"
         dominant-baseline="auto"
         font-size="6.35px"
         letter-spacing="0px"
         word-spacing="0px"
         style="font-size:6.3499999px;line-height:1.29999995;font-family:Quicksand;font-variant-ligatures:normal;font-variant-position:normal;font-variant-caps:normal;font-variant-numeric:normal;font-variant-alternates:normal;font-feature-settings:normal;text-indent:0;text-decoration:none;text-decoration-line:none;text-decoration-style:solid;text-decoration-color:#000000;letter-spacing:0px;word-spacing:0px;text-transform:none;text-orientation:mixed;dominant-baseline:auto;white-space:normal;shape-padding:0;fill:#555555;stroke-width:0.71912998px"
         xml:space="preserve"><tspan
           x="-44.066273"
           y="109.43361"
           id="tspan8821">Leer wetenschappen en wiskunde</tspan><tspan
           x="-44.066273"
           y="117.68861"
           id="tspan8825"><tspan
   font-weight="bold"
   id="tspan8823"
   style="font-weight:bold">écht te begrijpen</tspan>. Stap per stap en</tspan><tspan
           x="-44.066273"
           y="125.94361"
           id="tspan8827">zonder omwegen.</tspan></text>
    </symbol>
  </defs>
  <use
     xlink:href="#landscape"
     id="use16504"
     transform="translate(43.844027,-47.132143)" />
</svg>
