<?xml version="1.0" encoding="UTF-8" standalone="no"?>
<svg
   xmlns:dc="http://purl.org/dc/elements/1.1/"
   xmlns:cc="http://creativecommons.org/ns#"
   xmlns:rdf="http://www.w3.org/1999/02/22-rdf-syntax-ns#"
   xmlns:svg="http://www.w3.org/2000/svg"
   xmlns="http://www.w3.org/2000/svg"
   xmlns:sodipodi="http://sodipodi.sourceforge.net/DTD/sodipodi-0.dtd"
   xmlns:inkscape="http://www.inkscape.org/namespaces/inkscape"
   width="100"
   height="100"
   viewBox="0 0 100 100"
   version="1.1"
   id="svg26"
   sodipodi:docname="wiski.svg"
   inkscape:version="0.92.4 (unknown)">
  <metadata
     id="metadata32">
    <rdf:RDF>
      <cc:Work
         rdf:about="">
        <dc:format>image/svg+xml</dc:format>
        <dc:type
           rdf:resource="http://purl.org/dc/dcmitype/StillImage" />
        <dc:title />
      </cc:Work>
    </rdf:RDF>
  </metadata>
  <defs
     id="defs30" />
  <sodipodi:namedview
     pagecolor="#ffffff"
     bordercolor="#666666"
     borderopacity="1"
     objecttolerance="10"
     gridtolerance="10"
     guidetolerance="10"
     inkscape:pageopacity="0"
     inkscape:pageshadow="2"
     inkscape:window-width="1538"
     inkscape:window-height="877"
     id="namedview28"
     showgrid="false"
     inkscape:zoom="37.76"
     inkscape:cx="57.199594"
     inkscape:cy="60.79066"
     inkscape:window-x="223"
     inkscape:window-y="1103"
     inkscape:window-maximized="0"
     inkscape:current-layer="svg26" />
  <path
     style="fill:#ffb700"
     d="m 67.851562,20.498047 c -1.534,0 -2.9785,0.599547 -4.0625,1.685547 l -5.554687,5.554687 h -0.002 c -10e-4,10e-4 -9.53e-4,0.0029 -0.002,0.0039 l -34.089844,34.089843 -0.01758,0.01563 -0.0078,0.0078 c -0.001,10e-4 4.7e-5,0.0029 -0.002,0.0039 -0.017,0.018 -0.02892,0.03669 -0.04492,0.05469 -0.113,0.125 -0.20839,0.268688 -0.27539,0.429688 -0.005,0.013 -0.0067,0.02506 -0.01172,0.03906 -0.028,0.073 -0.05627,0.146563 -0.07227,0.226563 L 20.53307,77.693339 c -0.104,0.496 0.04825,1.011141 0.40625,1.369141 0.284,0.284 0.6685,0.439453 1.0625,0.439453 0.103,0 0.204594,-0.0122 0.308594,-0.0332 l 15.082031,-3.175781 c 0.078,-0.017 0.152563,-0.04427 0.226563,-0.07227 0.013,-0.005 0.02506,-0.0077 0.03906,-0.01367 0.149,-0.062 0.282391,-0.150906 0.400391,-0.253906 0.03,-0.025 0.06184,-0.04527 0.08984,-0.07227 l 0.0098,-0.01172 0.002,-0.002 39.65625,-39.654297 c 1.084,-1.085 1.681641,-2.528454 1.681641,-4.064453 0,-1.534 -0.596641,-2.976547 -1.681641,-4.060547 l -5.904297,-5.904297 c -1.085,-1.086 -2.526547,-1.685547 -4.060547,-1.685547 z m 0,3.029297 c 0.711376,1.25e-4 1.423407,0.258843 1.941407,0.777344 l 5.902343,5.904296 c 0.519001,0.518 0.802735,1.207454 0.802735,1.939454 0,0.734999 -0.283735,1.423406 -0.802735,1.941406 l -4.49414,4.49414 -9.78711,-9.783203 4.496094,-4.496093 c 0.5185,-0.519 1.230031,-0.777469 1.941406,-0.777344 z m -8.558593,7.394531 9.787109,9.783203 L 37.9375,71.847656 c -0.638815,0.638815 -0.903266,-1.590765 -1.572266,-2.259765 -0.67,-0.67 -1.186701,-1.375293 -2.253906,-1.578125 -1.067205,-0.202832 -1.898716,-0.962831 -2.126953,-2.115235 -0.228237,-1.152404 -0.904219,-1.589765 -1.574219,-2.259765 -0.671,-0.671 -1.445531,-1.188547 -2.269531,-1.560547 z M 26.359375,64.580078 c 0.697,0.21 1.360641,0.605781 1.931641,1.175781 0.878,0.877 1.369562,1.999125 1.351562,3.078125 v 0.01758 0.02148 0.01953 c 0,0.044 0.0087,0.08395 0.01367,0.126953 0.005,0.048 0.0086,0.09753 0.01758,0.144531 0.011,0.051 0.02697,0.09848 0.04297,0.146485 0.012,0.038 0.02116,0.07823 0.03516,0.115234 0.001,0.002 0.002,0.0039 0.002,0.0059 0.002,0.005 0.0058,0.0067 0.0078,0.01172 0.02,0.047 0.04436,0.08977 0.06836,0.134766 0.021,0.04 0.04141,0.08114 0.06641,0.119141 0.029,0.042 0.06075,0.07819 0.09375,0.117187 0.028,0.034 0.05494,0.07152 0.08594,0.103516 0.002,0.002 0.0019,0.0039 0.0039,0.0059 0.001,0.001 0.0039,9.53e-4 0.0039,0.002 0.033,0.033 0.07142,0.06084 0.107422,0.08984 0.034,0.029 0.06847,0.05994 0.105469,0.08594 0.042,0.028 0.08781,0.05022 0.132813,0.07422 0.039,0.021 0.07814,0.04645 0.11914,0.06445 0.009,0.003 0.01544,0.0087 0.02344,0.01172 0.004,0.002 0.01163,0.0019 0.01563,0.0039 0.035,0.014 0.07238,0.0212 0.109375,0.0332 0.043,0.014 0.08391,0.02906 0.128906,0.03906 0.051,0.011 0.105203,0.01453 0.158203,0.01953 0.044,0.005 0.08391,0.01462 0.128906,0.01563 h 0.05664 c 1.084,-0.055 2.195219,0.471563 3.074219,1.351563 0.566,0.566 0.951109,1.238594 1.162109,1.933594 l -6.892578,1.447265 -3.607422,-3.609375 z"
     id="path1311"
     inkscape:connector-curvature="0"
     sodipodi:nodetypes="sccccccsccccccsscccccccccsccssccsccccscccszzscccccccsccccccccccscccccccccccccccccc" />
  <path
     style="fill:#ffb700;stroke-width:0.090359"
     d="m 40.582045,65.297281 c -0.376379,0.231572 -1.095419,0.392969 -1.60363,0.359956 -1.176876,-0.07644 -3.330485,-1.281352 -4.708968,-2.634593 -0.685091,-0.672555 -0.913392,-1.146543 -0.896479,-1.861284 0.03021,-1.276686 1.276891,-2.010771 2.664689,-1.569053 0.360856,0.114856 1.519425,0.805628 1.767829,1.054033 0.108353,0.108353 0.225777,0.168236 0.260899,0.133113 0.03516,-0.03516 -0.0091,-0.136919 -0.09838,-0.226171 -0.256304,-0.256303 -0.418035,-0.893763 -0.311602,-1.228156 0.215796,-0.67799 1.064158,-0.956502 1.720105,-0.564702 0.67167,0.401191 0.684576,0.358446 0.11205,-0.371014 -0.891789,-1.136232 -1.163294,-2.260473 -0.763356,-3.160897 0.396023,-0.891609 1.613582,-1.125383 2.678367,-0.51425 0.98461,0.56512 2.323048,2.257712 3.059029,3.868426 0.511293,1.118993 0.395284,2.278723 -0.310915,3.108191 -0.737528,0.866262 -1.907387,0.964619 -2.946609,0.247737 l -0.463778,-0.319928 0.283668,0.570035 c 0.470874,0.946256 0.518373,1.839621 0.133625,2.513549 -0.206096,0.361005 -0.220679,0.376053 -0.576532,0.595015 z m 7.284068,-7.558791 c -0.529643,0.163041 -0.771539,0.168402 -1.20841,0.02677 -0.854787,-0.277101 -2.314112,-1.468253 -3.459292,-2.823584 -1.295596,-1.533359 -1.481425,-2.566806 -0.620768,-3.452199 0.423167,-0.4353 0.851484,-0.568628 1.532464,-0.476961 0.874521,0.117712 1.245313,0.379412 2.931854,2.069223 1.621671,1.624887 1.806069,1.873093 1.955292,2.632645 0.182008,0.926486 -0.285986,1.763927 -1.13114,2.0241 z m 3.780279,-3.718881 c -1.087804,0.623255 -2.045235,0.503509 -2.516289,-0.314708 -0.369114,-0.641152 -0.157887,-1.403312 0.598562,-2.159762 0.266768,-0.266767 0.445246,-0.494428 0.396655,-0.505884 -0.04862,-0.01149 -0.331247,0.09222 -0.628093,0.230439 -0.972551,0.452832 -2.127821,0.283679 -2.825159,-0.41366 -0.843953,-0.843953 -0.973432,-2.245432 -0.292668,-3.167873 1.107144,-1.500194 2.668655,-2.342042 3.436135,-1.852515 0.830259,0.529571 0.708203,1.572215 -0.307571,2.627344 -0.422283,0.438677 -0.481743,0.5298 -0.330327,0.506274 0.101568,-0.01576 0.319843,-0.126576 0.485058,-0.246234 0.444896,-0.322229 1.398253,-0.652761 1.965808,-0.681551 0.685589,-0.03478 1.382417,0.283077 1.801903,0.821926 0.664844,0.783236 0.7138,1.509624 0.466678,2.35388 -0.321293,1.059311 -1.269875,2.240402 -2.250684,2.802355 z m 5.092483,-5.176094 c -0.9313,0.257814 -1.929303,-0.210882 -3.433679,-1.61257 -1.599073,-1.489932 -2.356504,-2.730057 -2.290264,-3.749818 0.03536,-0.54441 0.145623,-0.780157 0.554516,-1.185602 0.67961,-0.673985 1.430619,-0.729062 2.192947,-0.161005 l 0.383125,0.285491 -0.115406,-0.562661 c -0.06347,-0.30946 -0.08411,-0.788104 -0.04584,-1.063647 0.06385,-0.459736 0.10166,-0.528743 0.459241,-0.838083 0.290807,-0.25159 0.492488,-0.350935 0.794988,-0.391651 1.079978,-0.145366 1.773334,0.658812 1.818879,2.10957 0.02099,0.668994 0.08074,0.845805 0.270629,0.800979 0.05561,-0.0131 0.478215,0.02935 0.939104,0.09441 1.398569,0.197401 2.399051,0.797906 2.55189,1.531676 0.07348,0.352769 -0.203869,1.15867 -0.500218,1.453492 -0.533188,0.530776 -1.755549,0.707319 -2.724829,0.393965 -0.466639,-0.150858 -0.552182,-0.05675 -0.235904,0.25953 0.484734,0.484733 0.604511,1.047755 0.362601,1.704365 -0.183567,0.498238 -0.49956,0.798062 -0.981785,0.931558 z m 6.425064,-6.259619 c -1.000403,0.53697 -2.340239,-0.07257 -4.167356,-1.895847 -1.693355,-1.690141 -2.207654,-2.936719 -1.626981,-3.945351 0.518852,-0.901238 1.563421,-1.09168 2.693284,-0.491027 0.623211,0.331306 2.064426,1.516371 2.511095,2.064796 0.173509,0.213048 0.479894,0.584592 0.680844,0.825666 0.432069,0.518357 0.811587,1.260997 0.864494,1.691636 0.08745,0.711864 -0.282033,1.388702 -0.95538,1.750127 z"
     id="path902"
     inkscape:connector-curvature="0"
     sodipodi:nodetypes="cccssssscccccccscccccccccccccccsccsccccccccccscccccccccccccccscscccccccc" />
</svg>
