<?xml version="1.0" encoding="UTF-8" standalone="no"?>
<svg
   xmlns:dc="http://purl.org/dc/elements/1.1/"
   xmlns:cc="http://creativecommons.org/ns#"
   xmlns:rdf="http://www.w3.org/1999/02/22-rdf-syntax-ns#"
   xmlns:svg="http://www.w3.org/2000/svg"
   xmlns="http://www.w3.org/2000/svg"
   xmlns:sodipodi="http://sodipodi.sourceforge.net/DTD/sodipodi-0.dtd"
   xmlns:inkscape="http://www.inkscape.org/namespaces/inkscape"
   width="100"
   height="100"
   viewBox="0 0 100 100"
   version="1.1"
   id="svg26"
   sodipodi:docname="wiski.svg"
   inkscape:version="0.92.4 (unknown)">
  <metadata
     id="metadata32">
    <rdf:RDF>
      <cc:Work
         rdf:about="">
        <dc:format>image/svg+xml</dc:format>
        <dc:type
           rdf:resource="http://purl.org/dc/dcmitype/StillImage" />
        <dc:title></dc:title>
      </cc:Work>
    </rdf:RDF>
  </metadata>
  <defs
     id="defs30" />
  <sodipodi:namedview
     pagecolor="#ffffff"
     bordercolor="#666666"
     borderopacity="1"
     objecttolerance="10"
     gridtolerance="10"
     guidetolerance="10"
     inkscape:pageopacity="0"
     inkscape:pageshadow="2"
     inkscape:window-width="1538"
     inkscape:window-height="877"
     id="namedview28"
     showgrid="false"
     inkscape:zoom="4.72"
     inkscape:cx="55.455393"
     inkscape:cy="44.685459"
     inkscape:window-x="223"
     inkscape:window-y="1103"
     inkscape:window-maximized="0"
     inkscape:current-layer="svg26" />
  <g
     style="fill:#ffb700"
     id="g1322"
     transform="translate(4.367753e-6)">
    <path
       id="path1311"
       d="m 79.499,32.148 c 0,-1.534 -0.598,-2.977 -1.683,-4.061 l -5.903,-5.904 c -1.085,-1.086 -2.528,-1.684 -4.062,-1.684 -1.534,0 -2.978,0.598 -4.062,1.684 l -5.555,5.555 c 0,0 -0.001,0 -0.002,0.001 -10e-4,10e-4 -10e-4,0.002 -0.002,0.003 l -34.09,34.09 c -0.005,0.005 -0.011,0.011 -0.016,0.016 l -0.008,0.008 c -0.001,10e-4 -0.001,0.003 -0.003,0.004 -0.017,0.018 -0.029,0.037 -0.045,0.055 -0.113,0.125 -0.208,0.267 -0.275,0.428 -0.005,0.013 -0.007,0.025 -0.012,0.039 -0.028,0.073 -0.056,0.147 -0.072,0.227 l -3.176,15.084 c -0.104,0.496 0.049,1.011 0.407,1.369 0.284,0.284 0.667,0.439 1.061,0.439 0.103,0 0.206,-0.011 0.31,-0.032 l 15.082,-3.177 c 0.078,-0.017 0.152,-0.044 0.226,-0.072 0.013,-0.005 0.026,-0.007 0.04,-0.013 0.149,-0.062 0.282,-0.15 0.4,-0.253 0.03,-0.025 0.062,-0.047 0.09,-0.074 l 0.01,-0.011 c 10e-4,0 0.002,-0.001 0.002,-0.002 L 77.817,36.212 c 1.084,-1.085 1.682,-2.528 1.682,-4.064 z M 28.513,75.096 24.906,71.487 26.36,64.581 c 0.697,0.21 1.36,0.605 1.931,1.175 0.878,0.877 1.369,1.999 1.351,3.078 0,0.006 0.001,0.012 0.001,0.018 0,0.007 0,0.014 0,0.021 0,0.006 -0.001,0.012 -0.001,0.019 0,0.044 0.01,0.085 0.015,0.128 0.005,0.048 0.008,0.097 0.017,0.144 0.011,0.051 0.027,0.099 0.043,0.147 0.012,0.038 0.02,0.077 0.034,0.114 10e-4,0.002 0.003,0.004 0.003,0.006 0.002,0.005 0.005,0.008 0.007,0.013 0.02,0.047 0.046,0.09 0.07,0.135 0.021,0.04 0.04,0.08 0.065,0.118 0.029,0.042 0.062,0.079 0.095,0.118 0.028,0.034 0.054,0.07 0.085,0.102 0.002,0.002 0.003,0.005 0.005,0.007 0.001,10e-4 0.003,10e-4 0.003,0.002 0.033,0.033 0.072,0.061 0.108,0.09 0.034,0.029 0.067,0.06 0.104,0.086 0.042,0.028 0.088,0.05 0.133,0.074 0.039,0.021 0.078,0.046 0.119,0.064 0.009,0.003 0.017,0.008 0.025,0.011 0.004,0.002 0.01,0.003 0.014,0.005 0.035,0.014 0.073,0.021 0.11,0.033 0.043,0.014 0.085,0.03 0.13,0.04 0.051,0.011 0.104,0.014 0.157,0.019 0.044,0.005 0.085,0.015 0.13,0.016 h 0.056 c 1.084,-0.055 2.196,0.47 3.075,1.35 0.566,0.566 0.951,1.239 1.162,1.934 z m 7.852,-5.508 c -0.67,-0.67 -1.437,-1.199 -2.253,-1.579 L 65.246,36.873 69.08,40.705 37.938,71.848 c -0.377,-0.821 -0.904,-1.591 -1.573,-2.26 z M 31.984,65.895 C 31.607,65.076 31.081,64.304 30.411,63.634 29.74,62.963 28.964,62.446 28.14,62.074 l 31.152,-31.152 3.832,3.83 z M 75.695,34.09 71.201,38.584 61.414,28.801 65.91,24.305 c 1.037,-1.038 2.846,-1.037 3.882,0 l 5.903,5.904 c 0.519,0.518 0.804,1.207 0.804,1.939 0,0.735 -0.285,1.424 -0.804,1.942 z"
       inkscape:connector-curvature="0"
       style="fill:#ffb700" />
  </g>
</svg>
