<svg xmlns="http://www.w3.org/2000/svg" xmlns:xlink="http://www.w3.org/1999/xlink" width="100" height="100" viewBox="0 0 100 100"><g><rect width="100%" height="100%" fill="#FFFFFF"></rect><g transform="translate(50 50) scale(0.69 0.69) rotate(0) translate(-50 -50)" style="fill:#000000;"><svg fill="#000000" xmlns="http://www.w3.org/2000/svg" xmlns:xlink="http://www.w3.org/1999/xlink" version="1.1" x="0px" y="0px" viewBox="0 0 110 110" enable-background="new 0 0 110 110" xml:space="preserve"><g><path d="M54.999,11.617c-23.921,0-43.382,19.461-43.382,43.383c0,23.921,19.461,43.383,43.382,43.383   c23.922,0,43.384-19.462,43.384-43.383C98.383,31.079,78.921,11.617,54.999,11.617z M54.999,93.383   c-21.164,0-38.382-17.219-38.382-38.383c0-21.165,17.218-38.383,38.382-38.383c21.165,0,38.384,17.218,38.384,38.383   C93.383,76.164,76.164,93.383,54.999,93.383z"></path><path d="M71.188,63.188c-1.381,0-2.5,1.119-2.5,2.5c0,7.547-6.141,13.688-13.688,13.688c-7.547,0-13.687-6.141-13.687-13.688   c0-1.381-1.119-2.5-2.5-2.5s-2.5,1.119-2.5,2.5c0,10.305,8.383,18.688,18.687,18.688s18.688-8.383,18.688-18.688   C73.688,64.307,72.568,63.188,71.188,63.188z"></path><ellipse cx="36.655" cy="44.365" rx="5.214" ry="9.777"></ellipse><ellipse cx="73.345" cy="44.365" rx="5.214" ry="9.777"></ellipse></g></svg></g></g></svg>